<svg xmlns="http://www.w3.org/2000/svg" xmlns:xlink="http://www.w3.org/1999/xlink" width="150" height="150" viewBox="0 0 150 150">
  <defs>
    <clipPath id="clip-path">
      <rect id="Rectangle_1200" data-name="Rectangle 1200" width="150" height="150" transform="translate(726 3293)" fill="#fff" stroke="#707070" stroke-width="1"/>
    </clipPath>
    <clipPath id="clip-path-2">
      <rect id="Rectangle_1148" data-name="Rectangle 1148" width="145.833" height="150" transform="translate(0)" fill="#fff" stroke="#707070" stroke-width="3.153"/>
    </clipPath>
    <linearGradient id="linear-gradient" x1="0.292" y1="0.5" x2="2.192" y2="0.5" gradientUnits="objectBoundingBox">
      <stop offset="0.001" stop-color="#fff0d5"/>
      <stop offset="0.511" stop-color="#ffdfff"/>
      <stop offset="1" stop-color="#d9ceff"/>
    </linearGradient>
  </defs>
  <g id="Mask_Group_79" data-name="Mask Group 79" transform="translate(-726 -3293)" clip-path="url(#clip-path)">
    <g id="Mask_Group_63" data-name="Mask Group 63" transform="translate(728.087 3293)" clip-path="url(#clip-path-2)">
      <g id="_031-server" data-name="031-server" transform="translate(7.827 -0.032)">
        <path id="Path_863" data-name="Path 863" d="M95.921,26.161A42,42,0,1,0,25.677,69.936a31.876,31.876,0,0,1,7.917,22.344q-.054,1.631-.015,3.288a56.565,56.565,0,0,0,55.815,54.417A55.806,55.806,0,0,0,112.45,43.377,32.22,32.22,0,0,1,95.921,26.161Z" transform="translate(-14.998 0.048)" fill="url(#linear-gradient)"/>
        <g id="Group_1087" data-name="Group 1087" transform="translate(16.65 18.676)" opacity="0.1">
          <path id="Path_864" data-name="Path 864" d="M134.141,28.214H43.128a2.934,2.934,0,0,0-2.934,2.933V42.891a2.933,2.933,0,0,0,2.934,2.929h91.013a2.933,2.933,0,0,0,2.933-2.933V31.148A2.933,2.933,0,0,0,134.141,28.214Z" transform="translate(-40.195 -28.214)" fill="#590bb2"/>
          <path id="Path_865" data-name="Path 865" d="M134.141,71.12H43.128a2.934,2.934,0,0,0-2.934,2.933V85.791a2.934,2.934,0,0,0,2.934,2.933h91.013a2.933,2.933,0,0,0,2.933-2.933V74.054A2.933,2.933,0,0,0,134.141,71.12Z" transform="translate(-40.195 -42.768)" fill="#590bb2"/>
          <path id="Path_866" data-name="Path 866" d="M134.141,114.03H43.128a2.934,2.934,0,0,0-2.934,2.933v11.744a2.934,2.934,0,0,0,2.934,2.933h91.013a2.933,2.933,0,0,0,2.933-2.933V116.963A2.933,2.933,0,0,0,134.141,114.03Z" transform="translate(-40.195 -57.323)" fill="#590bb2"/>
          <path id="Path_867" data-name="Path 867" d="M122.623,171.744h-43.7a2.934,2.934,0,0,0-2.942,2.931v5.852a2.933,2.933,0,0,0,2.942,2.937h43.7a2.933,2.933,0,0,0,2.942-2.937v-5.852a2.934,2.934,0,0,0-2.942-2.931Z" transform="translate(-52.333 -76.901)" fill="#590bb2"/>
        </g>
        <path id="Path_868" data-name="Path 868" d="M115.618,145.879V153.8a2.933,2.933,0,0,1-2.935,2.933h-2.832a2.933,2.933,0,0,1-2.935-2.933v-7.917Z" transform="translate(-46.177 -49.451)" fill="#c182f9"/>
        <path id="Path_869" data-name="Path 869" d="M106.917,145.879h8.7v6.331h-8.7Z" transform="translate(-46.177 -49.451)" fill="#b557ff"/>
        <path id="Path_870" data-name="Path 870" d="M48.111,58.1H134.53v47.708H48.111Z" transform="translate(-26.23 -19.677)" fill="#c182f9"/>
        <path id="Path_871" data-name="Path 871" d="M48.111,58.1H134.53v8.173H48.111Z" transform="translate(-26.23 -19.677)" fill="#b557ff"/>
        <path id="Path_872" data-name="Path 872" d="M48.111,86.73H134.53v17.608H48.111Z" transform="translate(-26.23 -29.387)" fill="#b557ff"/>
        <path id="Path_873" data-name="Path 873" d="M134.141,55.131H43.128A2.933,2.933,0,0,1,40.195,52.2V40.456a2.934,2.934,0,0,1,2.934-2.937h91.012a2.933,2.933,0,0,1,2.934,2.933V52.2A2.934,2.934,0,0,1,134.141,55.131Z" transform="translate(-23.545 -12.694)" fill="#ffa052"/>
        <g id="Group_1088" data-name="Group 1088" transform="translate(28.181 31.99)">
          <ellipse id="Ellipse_23" data-name="Ellipse 23" cx="1.642" cy="1.642" rx="1.642" ry="1.642" fill="#ffd5b8"/>
          <ellipse id="Ellipse_24" data-name="Ellipse 24" cx="1.642" cy="1.642" rx="1.642" ry="1.642" transform="translate(4.965)" fill="#ffd5b8"/>
          <ellipse id="Ellipse_25" data-name="Ellipse 25" cx="1.642" cy="1.642" rx="1.642" ry="1.642" transform="translate(9.931)" fill="#ffd5b8"/>
        </g>
        <path id="Path_874" data-name="Path 874" d="M113.144,48.625h-22.5a1.513,1.513,0,0,0-1.525,1.325,1.468,1.468,0,0,0,1.458,1.613h22.566a1.469,1.469,0,1,0,0-2.938Z" transform="translate(-40.138 -16.462)" fill="#e2ccff"/>
        <path id="Path_875" data-name="Path 875" d="M157.281,48.625h-22.5a1.51,1.51,0,0,0-1.523,1.325,1.467,1.467,0,0,0,1.457,1.613h22.566a1.469,1.469,0,0,0,0-2.938Z" transform="translate(-55.11 -16.462)" fill="#ffe783"/>
        <path id="Path_876" data-name="Path 876" d="M134.141,98.041H43.128a2.934,2.934,0,0,1-2.934-2.933V83.364a2.933,2.933,0,0,1,2.934-2.933h91.013a2.933,2.933,0,0,1,2.933,2.933V95.108A2.933,2.933,0,0,1,134.141,98.041Z" transform="translate(-23.545 -27.251)" fill="#ffa052"/>
        <ellipse id="Ellipse_26" data-name="Ellipse 26" cx="1.642" cy="1.642" rx="1.642" ry="1.642" transform="translate(28.181 60.344)" fill="#ffd5b8"/>
        <ellipse id="Ellipse_27" data-name="Ellipse 27" cx="1.642" cy="1.642" rx="1.642" ry="1.642" transform="translate(33.146 60.344)" fill="#ffd5b8"/>
        <ellipse id="Ellipse_28" data-name="Ellipse 28" cx="1.642" cy="1.642" rx="1.642" ry="1.642" transform="translate(38.112 60.344)" fill="#ffd5b8"/>
        <path id="Path_877" data-name="Path 877" d="M113.144,91.535h-22.5a1.513,1.513,0,0,0-1.525,1.325,1.468,1.468,0,0,0,1.458,1.612h22.566a1.469,1.469,0,1,0,0-2.937Z" transform="translate(-40.138 -31.017)" fill="#e2ccff"/>
        <path id="Path_878" data-name="Path 878" d="M157.281,91.535h-22.5a1.51,1.51,0,0,0-1.523,1.325,1.467,1.467,0,0,0,1.457,1.612h22.566a1.469,1.469,0,0,0,0-2.937Z" transform="translate(-55.11 -31.017)" fill="#ffe783"/>
        <path id="Path_879" data-name="Path 879" d="M134.141,140.948H43.128a2.933,2.933,0,0,1-2.934-2.933V126.273a2.934,2.934,0,0,1,2.934-2.933h91.013a2.933,2.933,0,0,1,2.933,2.933v11.744A2.933,2.933,0,0,1,134.141,140.948Z" transform="translate(-23.545 -41.806)" fill="#ffa052"/>
        <ellipse id="Ellipse_29" data-name="Ellipse 29" cx="1.642" cy="1.642" rx="1.642" ry="1.642" transform="translate(28.181 88.697)" fill="#ffd5b8"/>
        <ellipse id="Ellipse_30" data-name="Ellipse 30" cx="1.642" cy="1.642" rx="1.642" ry="1.642" transform="translate(33.146 88.697)" fill="#ffd5b8"/>
        <ellipse id="Ellipse_31" data-name="Ellipse 31" cx="1.642" cy="1.642" rx="1.642" ry="1.642" transform="translate(38.112 88.697)" fill="#ffd5b8"/>
        <path id="Path_880" data-name="Path 880" d="M113.144,134.441h-22.5a1.513,1.513,0,0,0-1.525,1.325,1.468,1.468,0,0,0,1.458,1.613h22.566a1.469,1.469,0,1,0,0-2.937Z" transform="translate(-40.138 -45.571)" fill="#e2ccff"/>
        <path id="Path_881" data-name="Path 881" d="M157.281,134.441h-22.5a1.51,1.51,0,0,0-1.523,1.325,1.467,1.467,0,0,0,1.457,1.613h22.566a1.469,1.469,0,1,0,0-2.937Z" transform="translate(-55.11 -45.571)" fill="#ffe783"/>
        <path id="Path_882" data-name="Path 882" d="M122.623,192.77h-43.7a2.934,2.934,0,0,1-2.942-2.933v-5.852a2.934,2.934,0,0,1,2.934-2.933h43.708a2.935,2.935,0,0,1,2.942,2.933v5.852a2.935,2.935,0,0,1-2.942,2.933Z" transform="translate(-35.683 -61.382)" fill="#c182f9"/>
        <path id="Path_883" data-name="Path 883" d="M142.729,136.011H107.375v-1.458a4.4,4.4,0,0,0-4.4-4.4H89.2a1.465,1.465,0,1,0,0,2.929h13.773a1.469,1.469,0,0,1,1.458,1.458v5.852a1.469,1.469,0,0,1-1.458,1.458h-43.7a1.469,1.469,0,0,1-1.458-1.458v-5.844a1.469,1.469,0,0,1,1.458-1.458h21.85a1.458,1.458,0,0,0,1.458-1.458V120.686a4.4,4.4,0,0,0,4.35-4.4v-3.735h39.7a4.4,4.4,0,0,0,4.4-4.4V96.413a4.4,4.4,0,0,0-4.4-4.4H125.8V84.2h.833a4.4,4.4,0,0,0,4.4-4.4V68.059a4.4,4.4,0,0,0-4.4-4.4H125.8V55.847h.833a4.4,4.4,0,0,0,4.4-4.4V39.707a4.4,4.4,0,0,0-4.4-4.4H35.619a4.4,4.4,0,0,0-4.4,4.4V51.453a4.4,4.4,0,0,0,4.4,4.4h.833v7.815h-.833a4.4,4.4,0,0,0-4.4,4.4V79.807a4.4,4.4,0,0,0,4.4,4.4h.833v7.815h-.833a4.4,4.4,0,0,0-4.4,4.4v11.744a4.4,4.4,0,0,0,4.4,4.4H75.31V116.3a4.4,4.4,0,0,0,4.35,4.4v9.465H59.275a4.4,4.4,0,0,0-4.4,4.394v1.458H19.521a1.465,1.465,0,1,0,0,2.929H54.875V140.4a4.4,4.4,0,0,0,4.4,4.4h43.7a4.4,4.4,0,0,0,4.4-4.392v-1.458h35.354a1.466,1.466,0,0,0,0-2.931ZM34.15,51.451V39.707a1.469,1.469,0,0,1,1.458-1.458h91.025a1.469,1.469,0,0,1,1.458,1.458V51.451a1.469,1.469,0,0,1-1.458,1.458H35.619a1.469,1.469,0,0,1-1.458-1.458Zm0,28.354V68.059A1.469,1.469,0,0,1,35.608,66.6H37.9a1.458,1.458,0,0,0,1.458-1.458h0V55.849h83.512v7.815H46a1.465,1.465,0,1,0,0,2.929h80.638a1.469,1.469,0,0,1,1.458,1.458V79.794a1.469,1.469,0,0,1-1.458,1.458H35.619a1.471,1.471,0,0,1-1.458-1.458Zm5.229,4.4h83.492v7.815H39.379ZM34.15,108.161V96.413a1.469,1.469,0,0,1,1.458-1.458h91.025a1.469,1.469,0,0,1,1.458,1.458v11.744a1.469,1.469,0,0,1-1.458,1.458H35.619a1.469,1.469,0,0,1-1.458-1.458ZM78.24,116.3v-3.742H84.01v3.738a1.469,1.469,0,0,1-1.458,1.458H79.708a1.471,1.471,0,0,1-1.458-1.458Z" transform="translate(-16.036 -11.946)" fill="#590bb2"/>
        <path id="Path_884" data-name="Path 884" d="M177.768,172.132a1.458,1.458,0,0,1-1.459-1.458,1.769,1.769,0,0,0-1.766-1.767,1.465,1.465,0,1,1,0-2.929,1.769,1.769,0,0,0,1.766-1.767,1.464,1.464,0,1,1,2.928,0A1.77,1.77,0,0,0,181,165.978a1.465,1.465,0,1,1,0,2.929,1.77,1.77,0,0,0-1.768,1.767,1.458,1.458,0,0,1-1.457,1.458Z" transform="translate(-68.621 -55.173)" fill="#c182f9"/>
        <path id="Path_885" data-name="Path 885" d="M200.861,152.957A1.46,1.46,0,0,1,199.4,151.5a1.766,1.766,0,0,0-1.764-1.767,1.465,1.465,0,1,1,0-2.929,1.766,1.766,0,0,0,1.764-1.767,1.465,1.465,0,0,1,2.93,0A1.77,1.77,0,0,0,204.1,146.8a1.465,1.465,0,1,1,0,2.929,1.77,1.77,0,0,0-1.768,1.767,1.455,1.455,0,0,1-1.469,1.458Z" transform="translate(-76.453 -48.668)" fill="#ffa052"/>
        <path id="Path_886" data-name="Path 886" d="M21.313,76.686a1.458,1.458,0,0,1-1.042-.429l-3.219-3.215a1.459,1.459,0,0,1,0-2.071l3.225-3.225a1.459,1.459,0,0,1,2.071,0l3.225,3.212a1.458,1.458,0,0,1,0,2.071l-3.225,3.227a1.458,1.458,0,0,1-1.042.429ZM20.161,72l1.152,1.152L22.465,72l-1.152-1.152Z" transform="translate(-15.549 -22.802)" fill="#ffa052"/>
        <path id="Path_887" data-name="Path 887" d="M29.614,175.145a1.458,1.458,0,0,1-1.042-.429l-3.219-3.225a1.459,1.459,0,0,1,0-2.071l3.225-3.225a1.458,1.458,0,0,1,2.071,0l3.221,3.225a1.458,1.458,0,0,1,0,2.071l-3.225,3.225a1.458,1.458,0,0,1-1.042.429Zm-1.16-4.69,1.152,1.152,1.152-1.152L29.606,169.3Z" transform="translate(-18.364 -56.196)" fill="#ffe783"/>
      </g>
    </g>
  </g>
</svg>
