<svg xmlns="http://www.w3.org/2000/svg" xmlns:xlink="http://www.w3.org/1999/xlink" width="570" height="420" viewBox="0 0 570 420">
  <defs>
    <clipPath id="clip-path">
      <rect id="Rectangle_1179" data-name="Rectangle 1179" width="570" height="420" transform="translate(730 2603)" fill="#fff" stroke="#707070" stroke-width="1"/>
    </clipPath>
    <clipPath id="clip-path-2">
      <path id="Path_2284" data-name="Path 2284" d="M199.265,238.227l-18.723,10.838-11.506,6.629c-.37.19-.732.406-1.084.632a15.272,15.272,0,0,0-7.307,13.123v53.783a15.218,15.218,0,0,1-6.2,12.31,15.588,15.588,0,0,1-9.285,3.143,15.354,15.354,0,0,1-7.695-2.086A46.359,46.359,0,0,1,114.3,296.463V240.657A46.363,46.363,0,0,0,91.112,200.5l85-49.028h0A46.4,46.4,0,0,1,199.3,191.624v24.3C199.274,222.874,199.265,238.227,199.265,238.227Z" transform="translate(-9.248 -14.189)" fill="none"/>
    </clipPath>
  </defs>
  <g id="Mask_Group_76" data-name="Mask Group 76" transform="translate(-730 -2603)" clip-path="url(#clip-path)">
    <g id="release" transform="translate(798.458 2602.993)">
      <g id="Floor">
        <ellipse id="Floor-2" data-name="Floor" cx="216.542" cy="125.016" rx="216.542" ry="125.016" transform="translate(0 169.975)" fill="#f0f0f0"/>
      </g>
      <g id="Shadows">
        <ellipse id="Shadow" cx="39.369" cy="22.733" rx="39.369" ry="22.733" transform="translate(306.543 270.118)" fill="#e0e0e0"/>
        <path id="Shadow-2" data-name="Shadow" d="M94.615,308.963l176.1,101.678,80.707-46.6-176.135-101.7Z" fill="#e0e0e0"/>
        <path id="Shadow-3" data-name="Shadow" d="M72.56,343.2,36.127,322.167a1.192,1.192,0,0,1,0-2.258l128.159-74a4.326,4.326,0,0,1,3.911,0l36.443,21.044a1.192,1.192,0,0,1,0,2.258L76.471,343.2a4.326,4.326,0,0,1-3.911,0Z" transform="translate(-9.248 -14.189)" fill="#e0e0e0"/>
      </g>
      <g id="Device">
        <g id="Device-2" data-name="Device">
          <g id="Device-3" data-name="Device">
            <path id="Path_2191" data-name="Path 2191" d="M187.777,22.272,79.6,84.717a8.761,8.761,0,0,0-3.929,6.819V335.489c0,2.5,1.806,3.522,3.929,2.267l108.181-62.445a8.734,8.734,0,0,0,3.929-6.819V24.548C191.705,22.037,189.935,21.017,187.777,22.272Zm-1.725,223.741c0,2.15-1.508,3.513-3.378,4.588L84.31,307.383c-1.806,1.075-3.369.208-3.369-1.951V114.34a7.505,7.505,0,0,1,3.369-5.853l98.354-56.773c1.87-1.075,3.378-.2,3.378,1.942Z" transform="translate(-9.248 -14.189)" fill="#2e035f"/>
            <path id="Path_2192" data-name="Path 2192" d="M79.108,338a8.769,8.769,0,0,1-7.379-.244l-4.516-2.6a8.652,8.652,0,0,1-3.947-6.81V84.41a7.5,7.5,0,0,1,.677-2.944,10.118,10.118,0,0,1,.47-.9h0L76.8,87.706h0a11.741,11.741,0,0,0-.686,1.445,7.225,7.225,0,0,0-.479,2.43V335.489C75.667,337.783,77.175,338.849,79.108,338Z" transform="translate(-9.248 -14.189)" fill="#6f4997"/>
            <path id="Path_2193" data-name="Path 2193" d="M134.616,285.092c3.432-1.978,6.214-.37,6.214,3.613a13.719,13.719,0,0,1-6.214,10.757c-3.423,1.987-6.2.379-6.2-3.613a13.755,13.755,0,0,1,6.2-10.757Z" transform="translate(-9.248 -14.189)" fill="#27debf"/>
            <path id="Path_2194" data-name="Path 2194" d="M133.668,58.76c1.454-.84,2.637-.163,2.637,1.517a5.825,5.825,0,0,1-2.637,4.57c-1.454.84-2.637.163-2.637-1.517a5.825,5.825,0,0,1,2.637-4.57Z" transform="translate(-9.248 -14.189)"/>
            <path id="Path_2195" data-name="Path 2195" d="M123.508,74.8l20.357-11.741c1.219-.7,2.2-.2,2.2,1.12a4.714,4.714,0,0,1-2.2,3.613L123.508,79.533c-1.219.7-2.2.2-2.2-1.12A4.715,4.715,0,0,1,123.508,74.8Z" transform="translate(-9.248 -14.189)"/>
            <path id="Path_2196" data-name="Path 2196" d="M186.052,245.814c0,2.15-1.508,3.513-3.378,4.588L84.31,307.184c-1.806,1.075-3.369.208-3.369-1.951V114.142a7.505,7.505,0,0,1,3.369-5.853L182.665,51.48c1.87-1.084,3.378-.208,3.378,1.942Z" transform="translate(-9.248 -14.189)" fill="#d6b0ff" stroke="#fff" stroke-miterlimit="10" stroke-width="0.903"/>
            <path id="Path_2197" data-name="Path 2197" d="M191.66,23.916c-.28-2.041-1.915-2.782-3.884-1.644L79.6,84.717a7.939,7.939,0,0,0-2.773,2.944L64.441,80.517a8,8,0,0,1,2.791-2.926L175.385,15.137a8.706,8.706,0,0,1,7.876,0l4.516,2.592a8.8,8.8,0,0,1,3.884,6.187Z" transform="translate(-9.248 -14.189)" fill="#6f4997"/>
          </g>
          <path id="Path_2198" data-name="Path 2198" d="M110.258,139.99a6.557,6.557,0,0,1,3.089-1,3.613,3.613,0,0,1,2.411.768,5.238,5.238,0,0,1,1.59,2.42,12.816,12.816,0,0,1,.65,3.866c0,.524,0,1,0,1.445V151.4a21.866,21.866,0,0,1-.641,4.633,20.061,20.061,0,0,1-1.553,4.218,16.645,16.645,0,0,1-2.366,3.531,12.129,12.129,0,0,1-3.062,2.538l-6.611,3.82a.352.352,0,0,1-.461,0,.786.786,0,0,1-.2-.605V145.147a1.9,1.9,0,0,1,.2-.831,1.256,1.256,0,0,1,.461-.569Zm3.206,8.517c-.1-2.827-1.21-3.613-3.333-2.411l-2.493,1.445v14.306l2.619-1.508q3.089-1.806,3.206-6.187v-4.218q.027-.659,0-1.445Z" transform="translate(-9.248 -14.189)" fill="#fff"/>
          <path id="Path_2199" data-name="Path 2199" d="M129.432,128.9c.325-.181.578-.19.75,0a1.337,1.337,0,0,1,.352.623l5.347,20.673a1.806,1.806,0,0,1,.09.506,1.68,1.68,0,0,1-.154.677,1,1,0,0,1-.379.461l-3.089,1.806c-.325.19-.56.217-.7.081a.84.84,0,0,1-.262-.479l-.686-2.71-6.512,3.757-.686,3.531a3.143,3.143,0,0,1-.253.768,1.689,1.689,0,0,1-.7.723l-3.08,1.806a.271.271,0,0,1-.379,0,.632.632,0,0,1-.163-.488,3.459,3.459,0,0,1,.1-.623l5.338-26.842a4.806,4.806,0,0,1,.352-1.03,1.806,1.806,0,0,1,.75-.849Zm-3.965,18.777,3.965-2.294-1.978-7.9Z" transform="translate(-9.248 -14.189)" fill="#fff"/>
          <path id="Path_2200" data-name="Path 2200" d="M148.832,117.7a.37.37,0,0,1,.47,0,.822.822,0,0,1,.19.605V122.3a1.96,1.96,0,0,1-.19.831,1.228,1.228,0,0,1-.47.569l-4.326,2.529v19.346a1.9,1.9,0,0,1-.2.831,1.255,1.255,0,0,1-.461.569l-3.215,1.851a.352.352,0,0,1-.461,0,.786.786,0,0,1-.2-.605V128.845l-4.308,2.484a.361.361,0,0,1-.47,0,.84.84,0,0,1-.19-.605v-4a1.987,1.987,0,0,1,.19-.831,1.328,1.328,0,0,1,.47-.569Z" transform="translate(-9.248 -14.189)" fill="#fff"/>
          <path id="Path_2201" data-name="Path 2201" d="M159.047,111.8c.325-.181.578-.19.75,0a1.337,1.337,0,0,1,.352.623l5.338,20.673a1.888,1.888,0,0,1,.1.506,1.553,1.553,0,0,1-.163.677.9.9,0,0,1-.379.461l-3.08,1.806q-.488.289-.7.081a.9.9,0,0,1-.253-.479l-.686-2.709-6.512,3.757-.686,3.531a2.755,2.755,0,0,1-.262.768,1.617,1.617,0,0,1-.7.723l-3.089,1.806a.28.28,0,0,1-.379,0,.668.668,0,0,1-.154-.488,3.233,3.233,0,0,1,.09-.623l5.347-26.842a4.806,4.806,0,0,1,.352-1.03,1.807,1.807,0,0,1,.75-.849Zm-3.965,18.777,3.965-2.33-1.987-7.9Z" transform="translate(-9.248 -14.189)" fill="#fff"/>
        </g>
      </g>
      <g id="Character">
        <g id="Character-2" data-name="Character">
          <path id="Path_2202" data-name="Path 2202" d="M349.876,115.108c-5.735.271-7.695,1.364-10.7,4.9S322.1,149.681,322.1,149.681s2.655,7.442,8.463,6.81L341.4,138.979Z" transform="translate(-9.248 -14.189)" fill="#ffa8a7"/>
          <path id="Path_2203" data-name="Path 2203" d="M350.644,115.117a18.042,18.042,0,0,0-7.063.533c-2.935,1.066-4.407,3.188-6.431,6.277-1.562,2.393-7.054,12.319-7.054,12.319s2.709,7.433,10.269,7.433Z" transform="translate(-9.248 -14.189)" fill="#e0e0e0"/>
          <g id="Character-3" data-name="Character">
            <path id="Path_2204" data-name="Path 2204" d="M370.3,301.575v-1.246c-.5,1.463-2.764,7.74-6.214,10.883-2.71,2.5-6.485,5.419-7.433,8.174s5.2,3.875,7.767,3.423c2.971-.524,6.828-2.213,8.923-4.787,1.472-1.806,2.411-3.956,3.459-5.419s3.477-3.017,4.046-4.66c.316-.9-.054-2.89-.5-4.57-.4-1.535-.84-3.224-1.364-3.08v.948a6.927,6.927,0,0,1-4.344,1.472C373.368,302.794,370.3,302.56,370.3,301.575Z" transform="translate(-9.248 -14.189)" fill="#263238"/>
            <path id="Path_2205" data-name="Path 2205" d="M361.6,313.4c.849-.768,1.707-1.508,2.484-2.213,2.411-2.195,4.245-5.925,5.3-8.472a12.03,12.03,0,0,0,.9-4.57v-4.958h8.688v8.065h0v.217h-.045c-.415,1.806-4.407,6.611-6.674,9.736-1.517,2.1-4.4,4.778-7.848,5.238C361.148,316.92,359.459,315.89,361.6,313.4Z" transform="translate(-9.248 -14.189)" fill="#ffa8a7"/>
            <path id="Path_2206" data-name="Path 2206" d="M339.589,293v-1.283c-.488,1.463-2.764,7.74-6.214,10.838-2.71,2.5-6.476,5.419-7.433,8.183s5.211,3.875,7.767,3.414c2.98-.524,6.828-2.213,8.923-4.787,1.472-1.806,2.411-3.956,3.468-5.419s3.477-3.017,4.046-4.66c.316-.9-.063-2.89-.5-4.561s-.84-3.233-1.364-3.089v.9a6.819,6.819,0,0,1-4.344,1.472C342.687,294.223,339.589,293.971,339.589,293Z" transform="translate(-9.248 -14.189)" fill="#263238"/>
            <path id="Path_2207" data-name="Path 2207" d="M330.919,304.845c.849-.759,1.7-1.5,2.475-2.213,2.411-2.195,4.254-5.925,5.3-8.472a11.822,11.822,0,0,0,.9-4.57v-4.958h8.7V292.7h0v.217h0c-.415,1.806-4.407,6.611-6.674,9.745-1.517,2.1-4.407,4.769-7.858,5.229C330.458,308.349,328.751,307.319,330.919,304.845Z" transform="translate(-9.248 -14.189)" fill="#ffa8a7"/>
            <path id="Path_2208" data-name="Path 2208" d="M377.26,166.48c6.738,14.722-.244,66.563-.244,66.563.2,2.393,2.935,7.09,3.947,17.6,1.2,12.428-1.888,43.614-1.888,43.614a9.411,9.411,0,0,1-8.779.352s-8.291-46.964-9.844-59.329c-1.364-10.775-3.974-34.474-3.974-34.474l-4.191,34.42a63.706,63.706,0,0,1,2.348,10.63c.7,7.225-6.322,41.094-6.322,41.094s-3,1.1-8.7.262c0,0-2.484-44.887-3.143-53.639-1.1-14.694-.424-60.512,2.276-69.255Z" transform="translate(-9.248 -14.189)" fill="#455a64"/>
            <path id="Path_2209" data-name="Path 2209" d="M356.478,200.809l-2.186-13.674s-9.257-1.915-13.457-5.862c0,0,4.407,5.473,10.946,7.225l2.466,10.522-1.68,33.869Z" transform="translate(-9.248 -14.189)" fill="#37474f"/>
            <path id="Path_2210" data-name="Path 2210" d="M365.366,115.343h0c2.565.172,3.423.117,5.284.307,3.712.379,4.606,5.816,6.132,9.032a14.8,14.8,0,0,1,.406,11.136l-5.988,17.4s2.818,6.819,6.1,13.258c-15.11,8.427-33.977,4-38.52-2.159-.2-1.3.975-11.506,1.689-18.172-2.655-6.674-3.36-10.91-2.24-15.354,2.086-8.192,9.555-15.733,11.687-15.724Z" transform="translate(-9.248 -14.189)" fill="#f0f0f0"/>
            <path id="Path_2211" data-name="Path 2211" d="M378.281,82.278l-3.125-.271a2.42,2.42,0,0,0,.9-.9,2.709,2.709,0,0,0-1-3.558l-2.014,3.667a18.208,18.208,0,0,0-16.718-9.032l-1.617.081a18.235,18.235,0,0,0-17.241,19.183c.551,10.386,1.165,22.01,1.165,22.01l18.768-1a19.3,19.3,0,0,0,18.316-20.33l-.145-2.709a17.962,17.962,0,0,0-.993-5,2.537,2.537,0,0,0,.9.262,2.655,2.655,0,0,0,2.8-2.393Z" transform="translate(-9.248 -14.189)" fill="#455a64"/>
            <path id="Path_2212" data-name="Path 2212" d="M340.863,92.628a37.331,37.331,0,0,0,.154,5.97c.714,9.357,3.875,11.506,5.419,12.093s4.516,0,7.307-.605V115.6s-3.4,4.886-3.017,7.442,5.871,2.881,9.429.172a16.456,16.456,0,0,0,5-7.325V102.961s2.068,2.475,5.112.208,2.881-7.451.9-9.212-5.925-1.021-6.521,1.59c0,0-6.593-.551-7.424-11.4C351.159,92.123,341.251,86.388,340.863,92.628Z" transform="translate(-9.248 -14.189)" fill="#ffa8a7"/>
            <path id="Path_2213" data-name="Path 2213" d="M364.661,94.832l.253,4.633h0a3.161,3.161,0,0,1-3.324-2.989l-.271-5.166Z" transform="translate(-9.248 -14.189)" fill="#455a64"/>
            <path id="Path_2214" data-name="Path 2214" d="M352.577,95.4a1.183,1.183,0,1,0,1.174-1.228,1.21,1.21,0,0,0-1.174,1.228Z" transform="translate(-9.248 -14.189)" fill="#263238"/>
            <path id="Path_2215" data-name="Path 2215" d="M352.5,103.7l-3.152,1.192a1.653,1.653,0,0,0,2.15,1.039A1.806,1.806,0,0,0,352.5,103.7Z" transform="translate(-9.248 -14.189)" fill="#f28f8f"/>
            <path id="Path_2216" data-name="Path 2216" d="M353.868,90.118l2.755.9a1.4,1.4,0,0,0-.9-1.806A1.526,1.526,0,0,0,353.868,90.118Z" transform="translate(-9.248 -14.189)" fill="#455a64"/>
            <path id="Path_2217" data-name="Path 2217" d="M342.461,95.916a1.192,1.192,0,0,0,1.174,1.219,1.219,1.219,0,0,0,1.183-1.237,1.183,1.183,0,1,0-2.357,0Z" transform="translate(-9.248 -14.189)" fill="#263238"/>
            <path id="Path_2218" data-name="Path 2218" d="M340.086,80.725l.19,7.09-3.793-.948Z" fill="#f28f8f"/>
            <path id="Path_2219" data-name="Path 2219" d="M353.751,110.087c2.989-.56,9.095-2.709,9.935-5.166a6.322,6.322,0,0,1-2.005,3.242c-1.761,1.68-7.921,3.793-7.921,3.793Z" transform="translate(-9.248 -14.189)" fill="#f28f8f"/>
            <path id="Path_2220" data-name="Path 2220" d="M361.509,168.115c4.958-1.174,5.907-3.044,4.588-7.975a3,3,0,0,0-.154-.479c-.966-2.33-4.85-.948-4.85-.948s1.59-1.978,3.369-4.516,2.583-6.683,2.818-9.61.714-8.788.714-8.788,3.866-2.312,2.357-6.539l5.961-3.613,1.12.777a15.182,15.182,0,0,1-.244,9.411L371.2,153.222a98.9,98.9,0,0,1,6.1,13.258,39.155,39.155,0,0,1-32.288,2.141,44.128,44.128,0,0,0,16.5-.506Z" transform="translate(-9.248 -14.189)" fill="#e6e6e6"/>
            <path id="Path_2221" data-name="Path 2221" d="M365.727,93.929l-6.828.361a3.811,3.811,0,0,0-3.884-2.818h-.587a3.8,3.8,0,0,0-3.387,2.547,3.206,3.206,0,0,0-2.267-.849,2.8,2.8,0,0,0-1.96.759,3.8,3.8,0,0,0-3.423-1.806H342.8a3.812,3.812,0,0,0,.406,7.614h.587a3.811,3.811,0,0,0,3.613-4,4.091,4.091,0,0,0-.28-1.2,2.1,2.1,0,0,1,1.626-.65,2.5,2.5,0,0,1,2.059.9h0a3.7,3.7,0,0,0,0,.777,3.811,3.811,0,0,0,4,3.613h.587a3.8,3.8,0,0,0,3.613-4.01v-.135l6.105-.325a3.206,3.206,0,0,1,.605-.777ZM343.789,99.05H343.2a3.17,3.17,0,1,1-.334-6.322h.587a3.165,3.165,0,0,1,.334,6.322Zm11.606-.605h-.6a3.17,3.17,0,0,1-.334-6.322h.587a3.17,3.17,0,0,1,.343,6.322Z" transform="translate(-9.248 -14.189)" fill="#263238"/>
          </g>
          <path id="Path_2222" data-name="Path 2222" d="M300.329,129.947l30.518,8.038,8.4,34.528-29.01-8.427Z" fill="#2e035f"/>
          <path id="Path_2224" data-name="Path 2224" d="M330.142,172.658c.2,1.87,1.508,4.028,5.32,5.852s11.235.8,11.235.8l-1.03-4.254Z" transform="translate(-9.248 -14.189)" opacity="0.2"/>
          <g id="Group_1129" data-name="Group 1129" opacity="0.2">
            <path id="Path_2225" data-name="Path 2225" d="M323.332,168.593c-.28.768-1.644,3.387-5.618,3.7l-.307-1.057Z" transform="translate(-9.248 -14.189)"/>
          </g>
          <g id="Group_1130" data-name="Group 1130" opacity="0.1">
            <path id="Path_2226" data-name="Path 2226" d="M318.817,149.627l-.244-1.165c-.145-.641,1.653-.668,3.992-.063l4.516,1.165c2.348.614,4.362,1.626,4.516,2.267l.253,1.165Z" transform="translate(-9.248 -14.189)"/>
          </g>
          <path id="Path_2227" data-name="Path 2227" d="M316.432,145.247c-.09-.4.641-.506,1.617-.235l1.806.5s-.533-2.52,3.414-1.635,4.814,3.73,4.814,3.73l1.906.542a3.773,3.773,0,0,1,2.122,1.264l.226.723L316.622,146S316.523,145.653,316.432,145.247Z" transform="translate(-9.248 -14.189)" fill="#37474f"/>
          <path id="Path_2228" data-name="Path 2228" d="M318.6,146.493c1.436.343,2.032.542,2.249,1.526.244,1.138.352,1.96.352,1.96l6.954,1.806s-.334-1.436-.443-1.987.126-.9,1.237-.605l.09-.443-10.9-2.782Z" transform="translate(-9.248 -14.189)" fill="#37474f"/>
          <path id="Path_2229" data-name="Path 2229" d="M318.356,149.735s-.108-.524-.253-1.165,1.653-.668,4-.063l4.516,1.165c2.348.614,4.362,1.626,4.516,2.267l.244,1.165Z" transform="translate(-9.248 -14.189)" fill="#37474f"/>
          <path id="Path_2230" data-name="Path 2230" d="M312.8,155.227s1.138,3.9,1.4,4.832,3.676,2.6,5.925,3.215,4.7,1.355,3.613,4.516c-.975,2.89-4.669,3.549-6.548,3.468s-4.453-1.879-5.464-4.769c-1.292-3.694-.6-7.641-1.111-9.8S311.673,153.935,312.8,155.227Z" transform="translate(-9.248 -14.189)" fill="#ffa8a7"/>
          <path id="Path_2231" data-name="Path 2231" d="M369.954,115.6c3.956.244,8.047,2.393,8.67,7.144s4.471,29.8,2.962,32.586c-3.5,6.512-26.526,18.894-28.82,19.951a25.7,25.7,0,0,1-10.621,2.854c-3.613,0-8.372-.081-10.793-3.324-2.141-2.881-3.351-8.2,1.49-7.289a52.673,52.673,0,0,0,11.1.488l-.56-2.321a11.245,11.245,0,0,1,3.694.605c2.42.723,4.615-1.355,8.887-3.992,5.5-3.4,13.873-10.594,13.873-10.594l-3.414-20.881S366.314,121.783,369.954,115.6Z" transform="translate(-9.248 -14.189)" fill="#ffa8a7"/>
          <path id="Path_2232" data-name="Path 2232" d="M369.24,115.6a8.417,8.417,0,0,1,4.444.4c2.321.9,4.389,2.059,5.356,6.747s2.872,21.757,2.872,21.757-5.067,3.667-13.313,1.924l-2.971-15.471S363.324,120.048,369.24,115.6Z" transform="translate(-9.248 -14.189)" fill="#e0e0e0"/>
        </g>
      </g>
      <g id="Analysis">
        <g id="Analysis-2" data-name="Analysis">
          <path id="Path_2233" data-name="Path 2233" d="M78.006,184.1l96.557-55.743v13.376L78.006,197.486Z" fill="#2e035f"/>
          <path id="Path_2234" data-name="Path 2234" d="M81.872,186.332v4.462L170.7,139.5V135.05Z" fill="#263238"/>
          <path id="Path_2235" data-name="Path 2235" d="M78.006,184.1,74.15,181.87,170.7,126.127l3.866,2.231Z" fill="#6f4997"/>
          <path id="Path_2236" data-name="Path 2236" d="M74.15,181.87l3.857,2.231v13.385l-3.857-2.231Z" fill="#6f4997"/>
          <path id="Path_2237" data-name="Path 2237" d="M356.081,358.05l-84.97,49.033v-2.177l84.961-49.033Z" fill="#37474f"/>
          <path id="Path_2238" data-name="Path 2238" d="M199.265,238.227l-18.723,10.838-11.506,6.629c-.37.19-.732.406-1.084.632a15.272,15.272,0,0,0-7.307,13.123v53.783a15.218,15.218,0,0,1-6.2,12.31,15.588,15.588,0,0,1-9.285,3.143,15.354,15.354,0,0,1-7.695-2.086A46.359,46.359,0,0,1,114.3,296.463V240.657A46.363,46.363,0,0,0,91.112,200.5l85-49.028h0A46.4,46.4,0,0,1,199.3,191.624v24.3C199.274,222.874,199.265,238.227,199.265,238.227Z" transform="translate(-9.248 -14.189)" fill="#f5f5f5"/>
          <path id="Path_2239" data-name="Path 2239" d="M230.162,390.1a46.323,46.323,0,0,1-23.175-40.118V296.165a46.2,46.2,0,0,0-23.148-40.128h0a15.444,15.444,0,0,0-23.157,13.394v53.747a15.462,15.462,0,0,1-23.175,13.4,46.359,46.359,0,0,1-23.166-40.137V240.657A46.359,46.359,0,0,0,91.12,200.5v2.222a44.544,44.544,0,0,1,21.27,37.933v55.788a48.391,48.391,0,0,0,24.123,41.78,17.16,17.16,0,0,0,17.35,0c.334-.19.659-.388.984-.605h0a17.16,17.16,0,0,0,7.722-14.414V269.423a13.547,13.547,0,0,1,20.321-11.741,44.517,44.517,0,0,1,22.218,38.475v53.819a48.364,48.364,0,0,0,24.123,41.771l51.146,29.515v-2.195Z" transform="translate(-9.248 -14.189)" fill="#455a64"/>
          <path id="Path_2240" data-name="Path 2240" d="M365.329,370.071l-84.97,49-50.2-28.992a46.323,46.323,0,0,1-23.175-40.119V296.165a46.242,46.242,0,0,0-3.613-18,48.412,48.412,0,0,0-2.574-5.175,46.332,46.332,0,0,0-16.961-16.952,15.3,15.3,0,0,0-14.776-.37l11.506-6.629,23.148-13.367,49.548-28.6.117-.072a15.291,15.291,0,0,1,15.426,0,46.323,46.323,0,0,1,23.166,40.128v53.81a46.358,46.358,0,0,0,23.163,40.135Z" transform="translate(-9.248 -14.189)" fill="#fafafa"/>
          <path id="Path_2241" data-name="Path 2241" d="M205.081,296.165a44.517,44.517,0,0,0-22.218-38.475,13.547,13.547,0,0,0-20.321,11.741v53.783a17.16,17.16,0,0,1-7.659,14.387h0c-.325.217-.65.415-.984.605l51.218-29.579Z" transform="translate(-9.248 -14.189)" fill="#e0e0e0"/>
          <path id="Path_2242" data-name="Path 2242" d="M205.081,296.165a44.517,44.517,0,0,0-22.218-38.475,13.547,13.547,0,0,0-20.321,11.741v53.783a17.16,17.16,0,0,1-7.659,14.387h0c-.325.217-.65.415-.984.605l51.218-29.579Z" transform="translate(-9.248 -14.189)" opacity="0.15"/>
          <g id="Group_1133" data-name="Group 1133" clip-path="url(#clip-path-2)">
            <path id="Path_2243" data-name="Path 2243" d="M106.212,200.791a6.611,6.611,0,0,0,7.225.542l60.629-35c2.276-1.319,2.809-3.775,1.03-5.311s-5.184-1.553-7.46-.244l-60.665,35.025C104.695,197.115,104.424,199.265,106.212,200.791Z" transform="translate(-9.248 -14.189)" fill="#2e035f"/>
            <path id="Path_2244" data-name="Path 2244" d="M155.1,187.551a.677.677,0,0,1-.343-1.255l28.35-16.365a.668.668,0,0,1,.9.244.677.677,0,0,1-.244.9l-28.332,16.383a.668.668,0,0,1-.334.09Z" transform="translate(-9.248 -14.189)" opacity="0.4"/>
            <path id="Path_2245" data-name="Path 2245" d="M157.286,191.2a.677.677,0,0,1-.587-.334.686.686,0,0,1,.244-.9l28.35-16.365a.677.677,0,0,1,.677,1.165l-28.35,16.347a.642.642,0,0,1-.334.09Z" transform="translate(-9.248 -14.189)" opacity="0.4"/>
            <path id="Path_2246" data-name="Path 2246" d="M159.119,195a.677.677,0,0,1-.334-1.255l28.35-16.365a.668.668,0,0,1,.9.244.677.677,0,0,1-.253.9l-28.341,16.365a.677.677,0,0,1-.325.108Z" transform="translate(-9.248 -14.189)" opacity="0.4"/>
            <path id="Path_2247" data-name="Path 2247" d="M160.6,198.958a.677.677,0,0,1-.587-.334.686.686,0,0,1,.244-.9l28.35-16.365a.668.668,0,0,1,.9.244.677.677,0,0,1-.244.9l-28.35,16.365A.642.642,0,0,1,160.6,198.958Z" transform="translate(-9.248 -14.189)" opacity="0.4"/>
            <path id="Path_2248" data-name="Path 2248" d="M161.666,202.832a.659.659,0,0,1-.578-.334.668.668,0,0,1,.244-.9l28.332-16.383a.659.659,0,0,1,.9.244.668.668,0,0,1-.244.9l-28.341,16.365A.677.677,0,0,1,161.666,202.832Z" transform="translate(-9.248 -14.189)" opacity="0.4"/>
            <path id="Path_2249" data-name="Path 2249" d="M162.407,207a.668.668,0,0,1-.334-1.255l28.341-16.365a.677.677,0,0,1,.677,1.165l-28.35,16.365a.623.623,0,0,1-.334.09Z" transform="translate(-9.248 -14.189)" opacity="0.4"/>
            <path id="Path_2250" data-name="Path 2250" d="M162.8,211.44a.668.668,0,0,1-.334-1.255l28.341-16.365a.677.677,0,0,1,.677,1.165l-28.35,16.356a.641.641,0,0,1-.334.1Z" transform="translate(-9.248 -14.189)" opacity="0.4"/>
            <path id="Path_2251" data-name="Path 2251" d="M122.388,243.132a.488.488,0,0,1-.415-.244.479.479,0,0,1,.181-.65L190.929,202.5a.479.479,0,0,1,.65.172.47.47,0,0,1-.172.65l-68.785,39.739a.452.452,0,0,1-.235.072Z" transform="translate(-9.248 -14.189)" opacity="0.4"/>
            <path id="Path_2252" data-name="Path 2252" d="M122.388,247.376a.488.488,0,0,1-.415-.244.479.479,0,0,1,.181-.65l68.776-39.739a.479.479,0,0,1,.65.181.461.461,0,0,1-.172.641L122.622,247.3a.533.533,0,0,1-.235.072Z" transform="translate(-9.248 -14.189)" opacity="0.4"/>
            <path id="Path_2253" data-name="Path 2253" d="M122.388,251.621a.488.488,0,0,1-.415-.244.479.479,0,0,1,.181-.65l68.776-39.739a.479.479,0,1,1,.479.831l-68.785,39.739a.534.534,0,0,1-.235.063Z" transform="translate(-9.248 -14.189)" opacity="0.4"/>
            <path id="Path_2254" data-name="Path 2254" d="M122.388,255.866a.488.488,0,0,1-.415-.244.461.461,0,0,1,.181-.641l68.776-39.739a.479.479,0,0,1,.479.822L122.622,255.8a.433.433,0,0,1-.235.063Z" transform="translate(-9.248 -14.189)" opacity="0.4"/>
            <path id="Path_2255" data-name="Path 2255" d="M122.388,236.954a.47.47,0,0,1-.235-.9l36.407-21.026a.479.479,0,1,1,.479.822l-36.416,21.026a.433.433,0,0,1-.235.081Z" transform="translate(-9.248 -14.189)" opacity="0.4"/>
            <path id="Path_2256" data-name="Path 2256" d="M121.358,212.577a45.158,45.158,0,0,1,4.949,18.063.686.686,0,0,0,1.12.587l2.023-1.165a2.077,2.077,0,0,0,.9-1.806,48.915,48.915,0,0,0-1.653-9.691,53.063,53.063,0,0,0-3.26-8.327,1.147,1.147,0,0,0-1.6-.443l-2,1.147A1.273,1.273,0,0,0,121.358,212.577Z" transform="translate(-9.248 -14.189)" fill="#d6b0ff"/>
            <path id="Path_2257" data-name="Path 2257" d="M127.346,204.169a48.156,48.156,0,0,1,4.877,10.386,45.158,45.158,0,0,1,2.177,11.371.677.677,0,0,0,1.1.6l2.023-1.174a2.077,2.077,0,0,0,.957-1.806,48.239,48.239,0,0,0-2.195-11.3,46.45,46.45,0,0,0-4.841-10.323,1.292,1.292,0,0,0-1.689-.415l-2.014,1.12a1.084,1.084,0,0,0-.4,1.544Z" transform="translate(-9.248 -14.189)" fill="#d6b0ff"/>
            <path id="Path_2258" data-name="Path 2258" d="M140.333,209.886" transform="translate(-9.248 -14.189)" fill="#27debf"/>
            <path id="Path_2259" data-name="Path 2259" d="M143.35,208.143l-1.987,1.147a1.553,1.553,0,0,0-.668,1.725,46.278,46.278,0,0,1,1.806,10.242.677.677,0,0,0,1.1.587l2.023-1.165a2.086,2.086,0,0,0,.957-1.806,48.545,48.545,0,0,0-1.861-10.215.9.9,0,0,0-1.373-.515Z" transform="translate(-9.248 -14.189)" fill="#d6b0ff"/>
            <path id="Path_2260" data-name="Path 2260" d="M151.442,200.069a1.012,1.012,0,0,0-1.517-.47l-2.005,1.138a1.4,1.4,0,0,0-.578,1.689c.361.9.7,1.806,1.048,2.836a44.717,44.717,0,0,1,2.168,11.362.686.686,0,0,0,1.111.6l2.023-1.165a2.1,2.1,0,0,0,.957-1.806,48.321,48.321,0,0,0-2.213-11.344A27.6,27.6,0,0,0,151.442,200.069Z" transform="translate(-9.248 -14.189)" fill="#d6b0ff"/>
            <path id="Path_2261" data-name="Path 2261" d="M123.788,228.8a.343.343,0,0,0-.461-.126l-.849.488c-.19-1.165-.406-2.321-.668-3.459l1.147-.659a.343.343,0,0,0-.343-.587l-.975.569c-.289-1.147-.605-2.285-.975-3.4l1.093-.623a.338.338,0,0,0-.334-.587l-.984.569c-.379-1.084-.777-2.159-1.237-3.206a.325.325,0,0,0,0-.081l1.084-.623a.334.334,0,0,0,.126-.461.343.343,0,0,0-.461-.126l-1.021.587c-.47-1.057-.993-2.1-1.562-3.152l1.075-.623a.334.334,0,0,0,.126-.461.343.343,0,0,0-.461-.126l-1.066.623c-.578-1.012-1.192-2.014-1.861-3.008l1.219-.7a.325.325,0,0,0,.117-.461.334.334,0,0,0-.461-.126l-1.246.732c-.723-1.039-1.472-2.068-2.285-3.089a.343.343,0,0,0-.533.424c.795.984,1.535,1.987,2.231,3l-1.156.668a.334.334,0,0,0,.163.623.289.289,0,0,0,.172,0l1.2-.686c.659.993,1.282,1.987,1.851,3l-1.346.777a.334.334,0,0,0,.172.623.262.262,0,0,0,.163,0l1.337-.768c.569,1.048,1.093,2.1,1.562,3.161l-1.391.8a.334.334,0,0,0,.172.623.28.28,0,0,0,.163-.045l1.328-.768h0a35.025,35.025,0,0,1,1.255,3.278l-1.418.822a.334.334,0,0,0,.163.623.289.289,0,0,0,.172,0l1.31-.759c.37,1.12.686,2.249.966,3.4l-1.409.813a.334.334,0,0,0-.126.461.325.325,0,0,0,.289.163.289.289,0,0,0,.172,0l1.246-.713c.262,1.138.47,2.3.65,3.468l-1.526.9a.334.334,0,0,0,.172.623.28.28,0,0,0,.163-.045l1.3-.75c.2,1.418.334,2.863.415,4.326a.334.334,0,0,0,.334.316h0a.334.334,0,0,0,.316-.352c-.081-1.572-.235-3.125-.452-4.651l1.066-.614a.334.334,0,0,0,.117-.641Z" transform="translate(-9.248 -14.189)" opacity="0.4"/>
            <g id="Group_1131" data-name="Group 1131" transform="translate(-163 -21)" opacity="0.15">
              <path id="Path_2262" data-name="Path 2262" d="M127.238,294.811a52.941,52.941,0,0,1-.307-7.659c.271-.984,4.371-15.065,11.922-19.445a4.922,4.922,0,0,1,1.49-.623,2.519,2.519,0,0,1,.614-.072c2.005,0,2.9,2.782,3.766,5.473a26.5,26.5,0,0,0,1.192,3.233c.515,1.084,1.391,2.52,3.053,2.52a4.263,4.263,0,0,0,2.068-.632c3.613-2.068,4.669-7.668,5.78-13.593a67.2,67.2,0,0,1,1.806-7.858c1.1-3.459,2.529-5.6,4.516-6.738a3.54,3.54,0,0,1,1.68-.551c2.1,0,2.9,3.748,3.667,7.37a30,30,0,0,0,1.535,5.554c.768,1.743,1.806,2.592,3.08,2.592a4.425,4.425,0,0,0,2.113-.659c4.453-2.565,5.8-6.927,7.1-11.136,1.111-3.613,2.15-6.954,5.085-8.661a4.371,4.371,0,0,1,2.186-.686,2.9,2.9,0,0,1,.966.163,19.169,19.169,0,0,1,.135,2.023l.054,8.526c.072,1.635.19,2.917.334,4.019Z" transform="translate(152.752 7.811)" fill="#f3e7ff"/>
              <path id="Path_2263" data-name="Path 2263" d="M191.6,258.2c-.19-1.273-.3-2.709-.379-4.272l-.045-8.526a19.476,19.476,0,0,0-.181-2.348,3.152,3.152,0,0,0-1.4-.316h0a4.805,4.805,0,0,0-2.42.75c-6.557,3.811-4.055,15.11-12.193,19.806a3.965,3.965,0,0,1-1.933.614c-1.219,0-2.032-.9-2.646-2.312-1.915-4.317-1.87-13.2-5.636-13.2a3.883,3.883,0,0,0-1.915.614c-2.33,1.346-3.73,3.92-4.705,7.009-2.43,7.6-2.285,18.289-7.343,21.17a3.812,3.812,0,0,1-1.806.578c-1.2,0-2-.9-2.628-2.249-1.562-3.288-2.113-8.986-5.419-8.986a3.389,3.389,0,0,0-.713.081,5.635,5.635,0,0,0-1.626.677c-8.047,4.678-12.166,19.788-12.166,19.788a55,55,0,0,0,.388,8.5l.9-.533a9.129,9.129,0,0,1-.154-1.021,55.148,55.148,0,0,1-.226-6.8c.379-1.337,4.416-14.875,11.7-19.111a4.644,4.644,0,0,1,1.355-.569,2.1,2.1,0,0,1,.506-.063c1.653,0,2.5,2.619,3.315,5.148a26.6,26.6,0,0,0,1.21,3.3c.334.686,1.328,2.791,3.486,2.791a4.6,4.6,0,0,0,2.3-.7c3.82-2.168,4.886-7.876,6.006-13.918a67.552,67.552,0,0,1,1.806-7.794c1.066-3.333,2.42-5.419,4.281-6.467a2.971,2.971,0,0,1,1.436-.488c1.716,0,2.511,3.712,3.206,6.99a30.491,30.491,0,0,0,1.553,5.645c.84,1.906,2.023,2.881,3.522,2.881a4.823,4.823,0,0,0,2.411-.75c4.615-2.664,6.051-7.316,7.316-11.416,1.084-3.486,2.1-6.774,4.877-8.39a3.893,3.893,0,0,1,1.942-.623h0a2.031,2.031,0,0,1,.524.063c.1.957.108,1.644.108,1.653v8.571c.072,1.472.172,2.709.3,3.721a6.955,6.955,0,0,0,.19.993l.84-.488" transform="translate(-9.248 -14.189)"/>
            </g>
            <g id="Group_1132" data-name="Group 1132" opacity="0.4">
              <path id="Path_2264" data-name="Path 2264" d="M126.443,282.771v4.308a54.8,54.8,0,0,0,.388,8.5L191.588,258.2a42.9,42.9,0,0,1-.379-4.281l-.045-8.517s0-12.744-8.128-8.065c-8.508,4.913-6.105,20.5-12.139,23.988s-4.046-10.4-12.139-5.726-4.046,15.074-12.139,19.743-4.046-18.894-12.139-14.225S126.443,277.4,126.443,282.771Z" transform="translate(-9.248 -14.189)" fill="#6f4997"/>
            </g>
            <path id="Path_2265" data-name="Path 2265" d="M123.489,302.153a.338.338,0,0,1-.163-.632L192.2,262.08a.338.338,0,0,1,.334.587l-68.875,39.441A.37.37,0,0,1,123.489,302.153Z" transform="translate(-9.248 -14.189)" opacity="0.4"/>
            <path id="Path_2266" data-name="Path 2266" d="M134.571,263.389a.343.343,0,0,1-.343-.334v-.677a.325.325,0,0,1,.334-.334.334.334,0,0,1,.334.334v.677A.343.343,0,0,1,134.571,263.389Z" transform="translate(-9.248 -14.189)" fill="#fff"/>
            <path id="Path_2267" data-name="Path 2267" d="M134.716,289.292a.343.343,0,0,1-.334-.307c0-.434-.072-.9-.1-1.3a.334.334,0,0,1,.316-.352.307.307,0,0,1,.352.307c0,.434.063.858.1,1.283a.334.334,0,0,1-.3.37Zm-.154-2.583a.343.343,0,0,1-.343-.334v-1.3a.339.339,0,0,1,.677,0v1.292a.334.334,0,0,1-.334.343Zm0-2.592a.343.343,0,0,1-.334-.334v-1.3a.343.343,0,0,1,.334-.334h0a.343.343,0,0,1,.334.334v1.3a.343.343,0,0,1-.343.334Zm0-2.592a.334.334,0,0,1-.334-.334v-1.3a.343.343,0,0,1,.343-.334h0a.343.343,0,0,1,.334.334v1.3a.334.334,0,0,1-.334.334Zm0-2.592a.343.343,0,0,1-.334-.334v-1.328a.343.343,0,0,1,.677,0v1.3a.343.343,0,0,1-.388.361Zm0-2.592a.334.334,0,0,1-.334-.334v-1.292a.334.334,0,0,1,.668,0v1.292a.334.334,0,0,1-.379.361Zm0-2.592a.325.325,0,0,1-.334-.334v-1.292a.334.334,0,0,1,.668,0v1.292a.325.325,0,0,1-.379.334Zm0-2.592h0a.325.325,0,0,1-.334-.334v-1.292a.343.343,0,0,1,.334-.343.334.334,0,0,1,.334.343v1.292a.325.325,0,0,1-.379.334Zm0-2.583h0a.343.343,0,0,1-.334-.343v-1.291a.343.343,0,0,1,.677,0v1.3a.352.352,0,0,1-.388.334Zm0-2.592a.343.343,0,0,1-.334-.334v-1.292a.343.343,0,0,1,.343-.343h0a.334.334,0,0,1,.334.334v1.3a.343.343,0,0,1-.388.334Z" transform="translate(-9.248 -14.189)" fill="#fff"/>
            <path id="Path_2268" data-name="Path 2268" d="M134.933,291.243a.343.343,0,0,1-.334-.289l-.081-.677a.336.336,0,0,1,.668-.072l.081.659a.334.334,0,0,1-.289.379Z" transform="translate(-9.248 -14.189)" fill="#fff"/>
            <path id="Path_2269" data-name="Path 2269" d="M183.089,238.345a.343.343,0,0,1-.343-.343v-.668a.343.343,0,0,1,.343-.343h0a.343.343,0,0,1,.334.343V238A.343.343,0,0,1,183.089,238.345Z" transform="translate(-9.248 -14.189)" fill="#fff"/>
            <path id="Path_2270" data-name="Path 2270" d="M183.279,264.247a.343.343,0,0,1-.334-.307c-.045-.434-.072-.9-.1-1.3a.343.343,0,0,1,.316-.361.325.325,0,0,1,.352.316c0,.434.063.858.1,1.283a.334.334,0,0,1-.307.37Zm-.154-2.583a.343.343,0,0,1-.343-.334q0-.555,0-1.3a.334.334,0,0,1,.334-.334h0a.334.334,0,0,1,.334.334c0,.488,0,.9,0,1.292a.334.334,0,0,1-.334.343Zm0-2.592a.334.334,0,0,1-.334-.334V257.4a.334.334,0,0,1,.334-.334h0a.343.343,0,0,1,.343.334v1.292a.334.334,0,0,1-.334.343Zm0-2.592a.343.343,0,0,1-.343-.334v-1.3a.343.343,0,0,1,.334-.334h0a.343.343,0,0,1,.343.334v1.3a.343.343,0,0,1-.334.334Zm0-2.592a.343.343,0,0,1-.334-.334v-1.3a.334.334,0,0,1,.668,0v1.3a.334.334,0,0,1-.379.334Zm0-2.592a.343.343,0,0,1-.343-.334v-1.3a.343.343,0,0,1,.677,0v1.3a.343.343,0,0,1-.379.334Zm0-2.592a.334.334,0,0,1-.343-.334v-1.292a.343.343,0,1,1,.677,0v1.291a.334.334,0,0,1-.379.334Zm0-2.592h0a.334.334,0,0,1-.343-.334v-1.292a.334.334,0,0,1,.334-.343.343.343,0,0,1,.334.343v1.292a.334.334,0,0,1-.37.334Zm0-2.583h0a.334.334,0,0,1-.334-.343v-1.292a.334.334,0,0,1,.668,0v1.292a.343.343,0,0,1-.379.343Zm0-2.592h0a.343.343,0,0,1-.334-.343v-1.255a.343.343,0,0,1,.677,0v1.3a.343.343,0,0,1-.388.3Z" transform="translate(-9.248 -14.189)" fill="#fff"/>
            <path id="Path_2271" data-name="Path 2271" d="M183.5,266.2a.343.343,0,0,1-.334-.289l-.081-.677a.325.325,0,0,1,.289-.37.334.334,0,0,1,.379.289l.081.668a.334.334,0,0,1-.289.379Z" transform="translate(-9.248 -14.189)" fill="#fff"/>
            <path id="Path_2272" data-name="Path 2272" d="M158.8,257.772a.343.343,0,0,1-.343-.334v-.677a.343.343,0,0,1,.677,0v.641a.343.343,0,0,1-.334.37Z" transform="translate(-9.248 -14.189)" fill="#fff"/>
            <path id="Path_2273" data-name="Path 2273" d="M158.957,275.465a.334.334,0,0,1-.334-.307c0-.415-.072-.84-.1-1.264a.343.343,0,0,1,.316-.361.325.325,0,0,1,.361.316c0,.415.054.831.09,1.246a.334.334,0,0,1-.3.37Zm-.154-2.52a.343.343,0,0,1-.343-.334v-1.264a.334.334,0,0,1,.334-.343h0a.343.343,0,0,1,.334.334V272.6a.343.343,0,0,1-.334.343Zm0-2.529a.325.325,0,0,1-.334-.334v-1.264a.343.343,0,0,1,.334-.343h0a.334.334,0,0,1,.334.343v1.228a.334.334,0,0,1-.334.334Zm0-2.529a.343.343,0,0,1-.343-.334v-1.264a.334.334,0,0,1,.334-.334h0a.334.334,0,0,1,.343.334v1.264A.343.343,0,0,1,158.8,267.887Zm0-2.529a.334.334,0,0,1-.334-.334v-1.3a.343.343,0,0,1,.677,0v1.264a.334.334,0,0,1-.352.361Zm0-2.52h0a.343.343,0,0,1-.334-.343v-1.264a.343.343,0,0,1,.677,0V262.5a.343.343,0,0,1-.352.325Zm0-2.529h0a.343.343,0,0,1-.334-.343v-1.255a.343.343,0,1,1,.677,0v1.264a.343.343,0,0,1-.343.325Z" transform="translate(-9.248 -14.189)" fill="#fff"/>
            <path id="Path_2274" data-name="Path 2274" d="M159.21,277.379a.343.343,0,0,1-.334-.289l-.081-.677a.325.325,0,0,1,.3-.37.334.334,0,0,1,.37.289l.081.668a.334.334,0,0,1-.289.379Z" transform="translate(-9.248 -14.189)" fill="#fff"/>
            <path id="Path_2275" data-name="Path 2275" d="M134.517,259.786c.641-.37,1.165-.126,1.165.551a2.493,2.493,0,0,1-1.165,1.9c-.641.37-1.165.117-1.165-.551a2.466,2.466,0,0,1,1.165-1.9Z" transform="translate(-9.248 -14.189)" opacity="0.4"/>
            <path id="Path_2276" data-name="Path 2276" d="M158.8,254.168c.641-.37,1.165-.126,1.165.551a2.466,2.466,0,0,1-1.165,1.888c-.641.379-1.165.126-1.165-.542a2.466,2.466,0,0,1,1.165-1.9Z" transform="translate(-9.248 -14.189)" opacity="0.4"/>
            <path id="Path_2277" data-name="Path 2277" d="M183.08,236.1c.641-.37,1.165-.117,1.165.551a2.466,2.466,0,0,1-1.165,1.9c-.65.37-1.165.126-1.165-.551A2.457,2.457,0,0,1,183.08,236.1Z" transform="translate(-9.248 -14.189)" opacity="0.4"/>
            <path id="Path_2278" data-name="Path 2278" d="M123.941,267.625a.334.334,0,1,0-.334-.578l-.9.506v-3.477l1.219-.7a.334.334,0,0,0,.126-.461.343.343,0,0,0-.461-.126l-.9.515v-3.667a.343.343,0,0,0-.334-.334.334.334,0,0,0-.334.334v4.091l-1.228.7a.334.334,0,0,0-.117.461.325.325,0,0,0,.289.163.307.307,0,0,0,.172-.045l.9-.506v3.477l-1.228.7a.334.334,0,0,0,.172.623.307.307,0,0,0,.172-.045l.9-.506v3.477l-1.228.7a.341.341,0,0,0,.172.632.334.334,0,0,0,.163-.045l.9-.515v3.477l-1.228.7a.334.334,0,0,0-.126.461.352.352,0,0,0,.3.172.334.334,0,0,0,.163-.045l.9-.515v3.477l-1.228.7a.334.334,0,0,0-.126.461.352.352,0,0,0,.3.172.371.371,0,0,0,.163,0l.9-.515v3.477l-1.228.7a.343.343,0,0,0-.126.461.352.352,0,0,0,.3.172.37.37,0,0,0,.163-.045l.9-.515v3.477l-1.228.7a.338.338,0,0,0,.163.632.371.371,0,0,0,.172-.045l.9-.515v3.459l-1.255.723a.334.334,0,0,0,.163.632.37.37,0,0,0,.172-.045l.966-.56c.072,1.264.181,2.529.334,3.766a.343.343,0,0,0,.334.289h0a.334.334,0,0,0,.289-.379c-.163-1.328-.28-2.71-.352-4.046l1.156-.668a.338.338,0,1,0-.334-.587l-.849.488c0-1.147-.054-2.3,0-3.459l1.21-.7a.334.334,0,1,0-.334-.578l-.9.506v-3.477l1.21-.7a.334.334,0,1,0-.334-.578l-.9.506v-3.477l1.219-.7a.334.334,0,0,0,.117-.461.343.343,0,0,0-.461-.117l-.9.506v-3.477l1.219-.7a.336.336,0,0,0-.343-.578l-.9.506v-3.477l1.219-.7a.325.325,0,0,0,.117-.461.316.316,0,0,0-.452-.117l-.9.506V268.33Z" transform="translate(-9.248 -14.189)" opacity="0.4"/>
            <path id="Path_2279" data-name="Path 2279" d="M208.324,288.488,143.6,325.834c-2.276,1.31-5.573,1.156-7.225-.515s-.966-4.236,1.31-5.545l64.666-37.337a5.907,5.907,0,0,1,6.936.777C210.988,284.894,210.6,287.206,208.324,288.488Z" transform="translate(-9.248 -14.189)" fill="#d6b0ff"/>
            <path id="Path_2280" data-name="Path 2280" d="M124.691,306.651a.47.47,0,0,1-.235-.9l72.858-42.024a.479.479,0,0,1,.479.822l-72.867,42.069a.433.433,0,0,1-.235.036Z" transform="translate(-9.248 -14.189)" opacity="0.4"/>
            <path id="Path_2281" data-name="Path 2281" d="M126.181,310.6a.488.488,0,0,1-.415-.244.479.479,0,0,1,.172-.65l72.876-42.069a.47.47,0,0,1,.65.172.479.479,0,0,1-.172.65l-72.849,42.069a.452.452,0,0,1-.262.072Z" transform="translate(-9.248 -14.189)" opacity="0.4"/>
            <path id="Path_2282" data-name="Path 2282" d="M128.014,314.373a.479.479,0,0,1-.235-.9l72.885-42.087a.479.479,0,0,1,.479.822l-72.894,42.1a.614.614,0,0,1-.235.072Z" transform="translate(-9.248 -14.189)" opacity="0.4"/>
            <path id="Path_2283" data-name="Path 2283" d="M130.191,317.968a.488.488,0,0,1-.415-.244.461.461,0,0,1,.172-.641L202.841,275a.479.479,0,0,1,.479.822l-72.894,42.1a.433.433,0,0,1-.235.054Z" transform="translate(-9.248 -14.189)" opacity="0.4"/>
          </g>
          <path id="Path_2285" data-name="Path 2285" d="M193.8,248.28l59.988-34.618c2.276-1.31,5.9-2.086,7.93-1.264s1.653,2.953-.623,4.263l-60.684,35.016c-2.276,1.319-5.509,1.454-7.316.479S191.525,249.589,193.8,248.28Z" transform="translate(-9.248 -14.189)" fill="#2e035f"/>
          <path id="Path_2286" data-name="Path 2286" d="M200.755,257.8a.488.488,0,0,1-.415-.244.479.479,0,0,1,.181-.65l69.11-39.893a.479.479,0,0,1,.65.172.47.47,0,0,1-.181.65l-69.11,39.893a.451.451,0,0,1-.235.072Z" transform="translate(-9.248 -14.189)" opacity="0.4"/>
          <path id="Path_2287" data-name="Path 2287" d="M203.618,260.888a.488.488,0,0,1-.415-.244.479.479,0,0,1,.181-.65L272.6,220.047a.461.461,0,0,1,.641.172.479.479,0,0,1-.172.65l-69.218,39.956A.532.532,0,0,1,203.618,260.888Z" transform="translate(-9.248 -14.189)" opacity="0.4"/>
          <path id="Path_2288" data-name="Path 2288" d="M215.079,296.237h0a.334.334,0,0,1-.334-.343v-3.667c0-2.755,0-2.755-.072-4.624V287.3a44.644,44.644,0,0,0-2.43-12.518,34.853,34.853,0,0,0-6.232-10.883.337.337,0,0,1,.524-.425,35.539,35.539,0,0,1,6.322,11.091,45.158,45.158,0,0,1,2.493,12.644v.316c.081,1.879.081,1.879.072,4.66v3.667a.343.343,0,0,1-.343.388Z" transform="translate(-9.248 -14.189)" opacity="0.4"/>
          <path id="Path_2289" data-name="Path 2289" d="M214.384,267.336c-.307-.542-.641-1.066-.993-1.59a1.066,1.066,0,0,1,.343-1.562l26.408-15.245a1.246,1.246,0,0,1,1.68.4c.316.515.623,1.066.9,1.635a1.273,1.273,0,0,1-.5,1.662l-26.264,15.155a1.147,1.147,0,0,1-1.581-.452Z" transform="translate(-9.248 -14.189)" fill="#2e035f"/>
          <path id="Path_2290" data-name="Path 2290" d="M216.958,273.46c.19.605.379,1.2.542,1.806a.9.9,0,0,0,1.328.56l62.652-36.172a1.635,1.635,0,0,0,.732-1.743c-.172-.623-.352-1.228-.533-1.806a.9.9,0,0,0-1.409-.533L217.6,271.744a1.517,1.517,0,0,0-.641,1.716Z" transform="translate(-9.248 -14.189)" fill="#d6b0ff"/>
          <path id="Path_2292" data-name="Path 2292" d="M218.782,281.787c.081.668.145,1.319.2,1.942a.677.677,0,0,0,1.1.6l42.449-24.5a2.05,2.05,0,0,0,.948-1.806c-.054-.65-.126-1.292-.2-1.942a.741.741,0,0,0-1.192-.578L219.64,279.99A1.933,1.933,0,0,0,218.782,281.787Z" transform="translate(-9.248 -14.189)" fill="#d6b0ff"/>
          <path id="Path_2294" data-name="Path 2294" d="M219.125,290.448v1.915c0,.65.461.9,1.03.587l18.172-10.486a2.276,2.276,0,0,0,1.03-1.806v-1.915c0-.659-.461-.9-1.03-.6l-18.172,10.495a2.276,2.276,0,0,0-1.03,1.806Z" transform="translate(-9.248 -14.189)" fill="#2e035f"/>
          <path id="Path_2296" data-name="Path 2296" d="M283.864,260.274a.343.343,0,0,0-.343.343v1.635l-4.841,2.791v-1.219a.343.343,0,0,0-.677,0v1.608l-4.841,2.8v-1.2a.343.343,0,1,0-.677,0v1.59l-4.841,2.791v-1.174a.343.343,0,0,0-.334-.343.334.334,0,0,0-.334.343V271.8l-4.85,2.8v-1.156a.334.334,0,0,0-.668,0v1.544l-4.85,2.8v-1.138a.325.325,0,0,0-.334-.334.334.334,0,0,0-.334.334v1.526l-4.859,2.791v-1.111a.343.343,0,0,0-.677,0v1.5l-4.841,2.8V283.06a.343.343,0,0,0-.677,0v1.481l-4.841,2.791V286.3a.343.343,0,0,0-.677,0v1.454l-4.841,2.8v-1.048a.343.343,0,0,0-.677,0v1.436l-4.841,2.8v-1.03a.343.343,0,0,0-.677,0v1.418l-4.841,2.791v-1a.343.343,0,0,0-.677,0v1.391l-4.2,2.43a.334.334,0,0,0-.126.461.352.352,0,0,0,.3.172.289.289,0,0,0,.163-.054l3.866-2.231v1.373a.343.343,0,0,0,.677,0V297.7l4.841-2.791v1.328a.343.343,0,0,0,.677,0V294.5l4.841-2.8v1.328a.343.343,0,0,0,.677,0v-1.716l4.841-2.791v1.3a.343.343,0,0,0,.677,0v-1.716l4.841-2.791V286.6a.343.343,0,0,0,.677,0V284.93l4.841-2.8v1.264a.343.343,0,0,0,.677,0v-1.608L255.92,279v1.237a.343.343,0,0,0,.334.334.334.334,0,0,0,.334-.334v-1.626l4.85-2.8v1.219a.334.334,0,1,0,.668,0v-1.653l4.85-2.8v1.2a.334.334,0,0,0,.334.334.343.343,0,0,0,.334-.334v-1.59l4.841-2.791v1.174a.343.343,0,0,0,.677,0v-1.562l4.841-2.8v1.129a.343.343,0,0,0,.677,0v-1.544L283.5,263v1.129a.343.343,0,0,0,.677,0v-3.54A.343.343,0,0,0,283.864,260.274Z" transform="translate(-9.248 -14.189)" opacity="0.4"/>
          <path id="Path_2297" data-name="Path 2297" d="M230.749,304.7a12.084,12.084,0,0,0-3.522,1.427c-6.7,3.938-12.129,13.791-12.129,22v.641l12.111-5.545Z" transform="translate(-9.248 -14.189)" fill="#b077ed"/>
          <path id="Path_2298" data-name="Path 2298" d="M230.749,304.7l-3.531,18.524,12-6.963a19.008,19.008,0,0,0,.135-2.249C239.338,307.256,235.726,303.661,230.749,304.7Z" transform="translate(-9.248 -14.189)" fill="#d6b0ff"/>
          <path id="Path_2299" data-name="Path 2299" d="M237.7,322.5a25.775,25.775,0,0,0,1.517-6.241l-12,6.963Z" transform="translate(-9.248 -14.189)" fill="#bfafd0"/>
          <path id="Path_2300" data-name="Path 2300" d="M215.106,328.751c.271,7.767,5.6,11.01,12.12,7.225,4.516-2.583,8.381-7.83,10.477-13.547l-10.486.723Z" transform="translate(-9.248 -14.189)" fill="#2e035f"/>
          <path id="Path_2304" data-name="Path 2304" d="M230.749,304.7a12.084,12.084,0,0,0-3.522,1.427c-6.7,3.938-12.129,13.791-12.129,22v.641l12.111-5.545Z" transform="translate(-9.248 -14.189)" fill="none" stroke="#fff" stroke-linecap="round" stroke-linejoin="round" stroke-width="0.948"/>
          <path id="Path_2305" data-name="Path 2305" d="M230.749,304.7l-3.531,18.524,12-6.963a19.008,19.008,0,0,0,.135-2.249C239.338,307.256,235.726,303.661,230.749,304.7Z" transform="translate(-9.248 -14.189)" fill="none" stroke="#fff" stroke-linecap="round" stroke-linejoin="round" stroke-width="0.948"/>
          <path id="Path_2306" data-name="Path 2306" d="M237.7,322.5a25.775,25.775,0,0,0,1.517-6.241l-12,6.963Z" transform="translate(-9.248 -14.189)" fill="none" stroke="#fff" stroke-linecap="round" stroke-linejoin="round" stroke-width="0.948"/>
          <path id="Path_2307" data-name="Path 2307" d="M215.106,328.751c.271,7.767,5.6,11.01,12.12,7.225,4.516-2.583,8.381-7.83,10.477-13.547l-10.486.723Z" transform="translate(-9.248 -14.189)" fill="none" stroke="#fff" stroke-linecap="round" stroke-linejoin="round" stroke-width="0.948"/>
          <path id="Path_2308" data-name="Path 2308" d="M266.234,285.111c-3.947,4.751-6.647,11.389-6.647,17.223a12.419,12.419,0,0,0,1.535,6.431l10.6-13.43Z" transform="translate(-9.248 -14.189)" fill="#d6b0ff"/>
          <path id="Path_2309" data-name="Path 2309" d="M277.2,278.752a10.088,10.088,0,0,0-5.473,1.553,20.773,20.773,0,0,0-5.491,4.8l5.491,10.206Z" transform="translate(-9.248 -14.189)" fill="#b077ed"/>
          <path id="Path_2310" data-name="Path 2310" d="M282.735,282.627a6.322,6.322,0,0,0-5.536-3.875l-5.473,16.582Z" transform="translate(-9.248 -14.189)" fill="#bfafd0"/>
          <path id="Path_2311" data-name="Path 2311" d="M282.735,282.627l-11.01,12.708-10.6,13.448c2.077,3.387,6.042,4.2,10.6,1.572,6.7-3.875,12.139-13.728,12.139-22.028a13.114,13.114,0,0,0-1.129-5.7Z" transform="translate(-9.248 -14.189)" fill="#2e035f"/>
          <path id="Path_2315" data-name="Path 2315" d="M266.234,285.111c-3.947,4.751-6.647,11.389-6.647,17.223a12.419,12.419,0,0,0,1.535,6.431l10.6-13.43Z" transform="translate(-9.248 -14.189)" fill="none" stroke="#fff" stroke-linecap="round" stroke-linejoin="round" stroke-width="0.948"/>
          <path id="Path_2316" data-name="Path 2316" d="M277.2,278.752a10.088,10.088,0,0,0-5.473,1.553,20.773,20.773,0,0,0-5.491,4.8l5.491,10.206Z" transform="translate(-9.248 -14.189)" fill="none" stroke="#fff" stroke-linecap="round" stroke-linejoin="round" stroke-width="0.948"/>
          <path id="Path_2317" data-name="Path 2317" d="M282.735,282.627a6.322,6.322,0,0,0-5.536-3.875l-5.473,16.582Z" transform="translate(-9.248 -14.189)" fill="none" stroke="#fff" stroke-linecap="round" stroke-linejoin="round" stroke-width="0.948"/>
          <path id="Path_2318" data-name="Path 2318" d="M282.735,282.627l-11.01,12.708-10.6,13.448c2.077,3.387,6.042,4.2,10.6,1.572,6.7-3.875,12.139-13.728,12.139-22.028a13.114,13.114,0,0,0-1.129-5.7Z" transform="translate(-9.248 -14.189)" fill="none" stroke="#fff" stroke-linecap="round" stroke-linejoin="round" stroke-width="0.948"/>
          <path id="Path_2319" data-name="Path 2319" d="M244.432,296.093l1.987-1.147c.569-.325,1.03-.054,1.03.6v1.915a2.276,2.276,0,0,1-1.03,1.806l-1.987,1.147c-.569.325-1.03.063-1.03-.6v-1.906A2.285,2.285,0,0,1,244.432,296.093Z" transform="translate(-9.248 -14.189)" fill="#d6b0ff"/>
          <path id="Path_2320" data-name="Path 2320" d="M244.432,304.664l1.987-1.147c.569-.334,1.03-.063,1.03.6v1.906a2.258,2.258,0,0,1-1.03,1.806l-1.987,1.147c-.569.334-1.03.063-1.03-.6v-1.933A2.258,2.258,0,0,1,244.432,304.664Z" transform="translate(-9.248 -14.189)" fill="#b077ed"/>
          <path id="Path_2322" data-name="Path 2322" d="M244.432,313.226l1.987-1.147c.569-.325,1.03-.063,1.03.6v1.906a2.285,2.285,0,0,1-1.03,1.806l-1.987,1.147c-.569.325-1.03.054-1.03-.6v-1.915A2.276,2.276,0,0,1,244.432,313.226Z" transform="translate(-9.248 -14.189)" fill="#bfafd0"/>
          <path id="Path_2324" data-name="Path 2324" d="M244.432,321.788l1.987-1.147c.569-.325,1.03-.054,1.03.6v1.915a2.276,2.276,0,0,1-1.03,1.806l-1.987,1.147c-.569.325-1.03.063-1.03-.6V323.6a2.285,2.285,0,0,1,1.03-1.815Z" transform="translate(-9.248 -14.189)" fill="#2e035f"/>
          <path id="Path_2326" data-name="Path 2326" d="M249.49,295.9a.659.659,0,0,1-.578-.343.668.668,0,0,1,.244-.9l6.042-3.486a.677.677,0,0,1,.677,1.165l-6.051,3.5a.714.714,0,0,1-.334.072Z" transform="translate(-9.248 -14.189)" opacity="0.4"/>
          <path id="Path_2327" data-name="Path 2327" d="M249.4,304.547a.668.668,0,0,1-.334-1.255l6.042-3.486a.677.677,0,1,1,.677,1.165l-6.051,3.486A.641.641,0,0,1,249.4,304.547Z" transform="translate(-9.248 -14.189)" opacity="0.4"/>
          <path id="Path_2328" data-name="Path 2328" d="M249.273,313.2a.677.677,0,0,1-.343-1.255l6.051-3.486a.668.668,0,0,1,.9.244.686.686,0,0,1-.244.9l-6.051,3.486a.668.668,0,0,1-.316.108Z" transform="translate(-9.248 -14.189)" opacity="0.4"/>
          <path id="Path_2329" data-name="Path 2329" d="M249.21,321.851a.65.65,0,0,1-.578-.334.668.668,0,0,1,.244-.9l6.051-3.5a.677.677,0,1,1,.668,1.174l-6.051,3.486a.623.623,0,0,1-.334.072Z" transform="translate(-9.248 -14.189)" opacity="0.4"/>
          <path id="Path_2330" data-name="Path 2330" d="M215.856,352.288a.659.659,0,0,1-.578-.343.668.668,0,0,1,.244-.9l28.332-16.356a.668.668,0,0,1,.9.244.677.677,0,0,1-.253.9l-28.323,16.4a.713.713,0,0,1-.325.054Z" transform="translate(-9.248 -14.189)" opacity="0.4"/>
          <path id="Path_2331" data-name="Path 2331" d="M216.759,356.478a.668.668,0,0,1-.334-1.255l28.332-16.347a.672.672,0,1,1,.668,1.165L217.1,356.388A.623.623,0,0,1,216.759,356.478Z" transform="translate(-9.248 -14.189)" opacity="0.4"/>
          <path id="Path_2332" data-name="Path 2332" d="M218.069,360.534a.677.677,0,0,1-.343-1.255l28.323-16.347a.677.677,0,1,1,.677,1.165L218.4,360.443a.668.668,0,0,1-.334.09Z" transform="translate(-9.248 -14.189)" opacity="0.4"/>
          <path id="Path_2333" data-name="Path 2333" d="M260.3,326.629a.659.659,0,0,1-.578-.334.668.668,0,0,1,.244-.9l28.323-16.347a.686.686,0,0,1,.9.244.677.677,0,0,1-.253.9l-28.314,16.347A.678.678,0,0,1,260.3,326.629Z" transform="translate(-9.248 -14.189)" opacity="0.4"/>
          <path id="Path_2334" data-name="Path 2334" d="M261.213,330.82a.659.659,0,0,1-.578-.334.668.668,0,0,1,.244-.9L289.2,313.235a.686.686,0,0,1,.9.244.677.677,0,0,1-.253.9l-28.314,16.347A.677.677,0,0,1,261.213,330.82Z" transform="translate(-9.248 -14.189)" opacity="0.4"/>
          <path id="Path_2335" data-name="Path 2335" d="M262.522,334.875a.677.677,0,0,1-.587-.334.686.686,0,0,1,.244-.9L290.5,317.29a.678.678,0,0,1,.677,1.174l-28.359,16.32a.641.641,0,0,1-.3.09Z" transform="translate(-9.248 -14.189)" opacity="0.4"/>
          <path id="Path_2336" data-name="Path 2336" d="M225.836,365.131l64.576-37.283a4.967,4.967,0,0,1,6.467,1.165c1.382,1.888.822,4.362-1.454,5.681L230.83,371.968c-2.276,1.31-5.419.966-6.783-.9S223.569,366.44,225.836,365.131Z" transform="translate(-9.248 -14.189)" fill="#b077ed"/>
          <path id="Path_2337" data-name="Path 2337" d="M236.493,383.393a.7.7,0,0,1-.587-.334.677.677,0,0,1,.253-.9l28.314-16.374a.686.686,0,0,1,.9.244.677.677,0,0,1-.244.9l-28.323,16.347A.641.641,0,0,1,236.493,383.393Z" transform="translate(-9.248 -14.189)" opacity="0.4"/>
          <path id="Path_2338" data-name="Path 2338" d="M232.953,380.891a.677.677,0,0,1-.343-1.255l28.323-16.347a.677.677,0,0,1,.9.253.686.686,0,0,1-.244.9L233.287,380.8a.668.668,0,0,1-.334.09Z" transform="translate(-9.248 -14.189)" opacity="0.4"/>
          <path id="Path_2339" data-name="Path 2339" d="M240.241,385.6a.677.677,0,0,1-.578-.343.668.668,0,0,1,.244-.9l28.332-16.356a.686.686,0,0,1,.9.244.677.677,0,0,1-.253.9l-28.314,16.347a.777.777,0,0,1-.334.108Z" transform="translate(-9.248 -14.189)" opacity="0.4"/>
          <path id="Path_2340" data-name="Path 2340" d="M276.928,360.055a.668.668,0,0,1-.334-1.255l28.314-16.347a.678.678,0,0,1,.677,1.174l-28.314,16.338a.642.642,0,0,1-.343.09Z" transform="translate(-9.248 -14.189)" opacity="0.4"/>
          <path id="Path_2341" data-name="Path 2341" d="M273.387,357.553a.677.677,0,0,1-.343-1.255l28.323-16.338a.668.668,0,0,1,.9.244.677.677,0,0,1-.253.9L273.7,357.454a.759.759,0,0,1-.316.1Z" transform="translate(-9.248 -14.189)" opacity="0.4"/>
          <path id="Path_2342" data-name="Path 2342" d="M280.649,362.259a.659.659,0,0,1-.578-.334.668.668,0,0,1,.244-.9l28.323-16.347a.677.677,0,1,1,.668,1.174l-28.314,16.32a.677.677,0,0,1-.343.09Z" transform="translate(-9.248 -14.189)" opacity="0.4"/>
          <path id="Path_2343" data-name="Path 2343" d="M281.073,382.634c-6.141-3.549-16.564-3.288-23.265.578s-7.153,9.881-1,13.43,16.564,3.3,23.265-.569S287.206,386.193,281.073,382.634Zm-4.182,11.6c-4.787,2.764-12.229,2.953-16.618.415s-4.073-6.837.714-9.6,12.229-2.944,16.627-.406S281.678,391.467,276.892,394.231Z" transform="translate(-9.248 -14.189)" fill="#b077ed"/>
          <path id="Path_2344" data-name="Path 2344" d="M264.166,386.888c2.872-1.662,7.343-1.806,9.98-.253s2.439,4.1-.434,5.762-7.343,1.806-9.935.244S261.294,388.541,264.166,386.888Z" transform="translate(-9.248 -14.189)" fill="#2e035f"/>
          <path id="Path_2347" data-name="Path 2347" d="M264.013,380.855l1.4,2.511a20.014,20.014,0,0,1,8.246-.154l1.9-2.574a28.133,28.133,0,0,0-11.542.217Z" transform="translate(-9.248 -14.189)" fill="#d6b0ff"/>
          <path id="Path_2349" data-name="Path 2349" d="M269.784,379.608h0a.677.677,0,0,1-.632-.714l.19-3.089,12.446-7.225a.678.678,0,0,1,.677,1.174L270.6,376.619l-.145,2.366a.668.668,0,0,1-.668.623Z" transform="translate(-9.248 -14.189)" opacity="0.4"/>
          <path id="Path_2350" data-name="Path 2350" d="M317.48,361.636c-6.151-3.549-16.564-3.288-23.275.578s-7.153,9.881-1,13.43,16.573,3.3,23.275-.569S323.63,365.185,317.48,361.636Zm-4.182,11.6c-4.787,2.764-12.229,2.953-16.627.415s-4.064-6.837.723-9.6,12.229-2.944,16.618-.406,4.073,6.828-.713,9.592Z" transform="translate(-9.248 -14.189)" fill="#b077ed"/>
          <path id="Path_2351" data-name="Path 2351" d="M300.573,365.889c2.872-1.662,7.334-1.806,9.935-.253s2.448,4.1-.434,5.762-7.334,1.806-9.935.244S297.7,367.587,300.573,365.889Z" transform="translate(-9.248 -14.189)" fill="#2e035f"/>
          <path id="Path_2354" data-name="Path 2354" d="M317.48,361.636c-5.193-3-13.43-3.269-19.87-.948l2.222,2.267c4.624-1.653,10.5-1.454,14.216.686a7.992,7.992,0,0,1,1.689,1.292l4.145-1.481A11.181,11.181,0,0,0,317.48,361.636Z" transform="translate(-9.248 -14.189)" fill="#d6b0ff"/>
          <path id="Path_2356" data-name="Path 2356" d="M306.29,358.556h-.045a.677.677,0,0,1-.632-.713l.19-3.1,12.446-7.18a.677.677,0,0,1,.677,1.165l-11.849,6.81-.145,2.375A.668.668,0,0,1,306.29,358.556Z" transform="translate(-9.248 -14.189)" opacity="0.4"/>
          <path id="Path_2357" data-name="Path 2357" d="M273.658,404.888a.677.677,0,0,1-.343-1.264l68.749-39.649a.672.672,0,1,1,.668,1.165L273.956,404.8A.777.777,0,0,1,273.658,404.888Z" transform="translate(-9.248 -14.189)" opacity="0.4"/>
          <path id="Path_2358" data-name="Path 2358" d="M277.334,407.019a.677.677,0,0,1-.334-1.255l68.776-39.685a.677.677,0,1,1,.677,1.165l-68.776,39.685a.677.677,0,0,1-.343.09Z" transform="translate(-9.248 -14.189)" opacity="0.4"/>
          <path id="Path_2359" data-name="Path 2359" d="M281.046,409.133a.677.677,0,0,1-.578-.343.668.668,0,0,1,.244-.9l68.812-39.667a.672.672,0,0,1,.668,1.165l-68.776,39.694a.776.776,0,0,1-.37.054Z" transform="translate(-9.248 -14.189)" opacity="0.4"/>
        </g>
      </g>
    </g>
  </g>
</svg>
