<svg xmlns="http://www.w3.org/2000/svg" xmlns:xlink="http://www.w3.org/1999/xlink" width="65" height="50" viewBox="0 0 65 50">
  <defs>
    <clipPath id="clip-path">
      <rect id="Rectangle_1159" data-name="Rectangle 1159" width="65" height="50" transform="translate(-0.314 0.187)" fill="#fff" stroke="#707070" stroke-width="1"/>
    </clipPath>
    <linearGradient id="linear-gradient" x1="0.441" y1="0.5" x2="1.689" y2="0.5" gradientUnits="objectBoundingBox">
      <stop offset="0.001" stop-color="#fff0d5"/>
      <stop offset="0.511" stop-color="#ffdfff"/>
      <stop offset="1" stop-color="#d9ceff"/>
    </linearGradient>
  </defs>
  <g id="Mask_Group_70" data-name="Mask Group 70" transform="translate(0.314 -0.187)" clip-path="url(#clip-path)">
    <g id="_025-web_traffic" data-name="025-web traffic" transform="translate(0.215 0)">
      <path id="Path_1056" data-name="Path 1056" d="M63.133,35.235A14.151,14.151,0,0,0,54.411,26.9a4.969,4.969,0,0,1-3.445-4.549q0-.066,0-.133C50.776,14.77,44.036,8.8,35.971,8.927a15.117,15.117,0,0,0-11.6,5.529,12.354,12.354,0,0,1-9.624,4.609q-.168,0-.337,0C6.678,19.225.1,25.355,0,32.5c-.11,7.607,6.531,13.806,14.738,13.806a14.732,14.732,0,0,0,13.845-8.942,3.08,3.08,0,0,1,3.656-1.7l.057.015a2.8,2.8,0,0,1,2.191,2.9,12.608,12.608,0,0,0,.724,5.4C37.775,51.026,46.1,54.9,53.754,52.589c7.83-2.361,12.034-10.175,9.379-17.354Z" transform="translate(0 -5.897)" fill="url(#linear-gradient)"/>
      <path id="Path_1057" data-name="Path 1057" d="M57.767,12.719v32.8a1.807,1.807,0,0,1-1.873,1.731H9.7a1.807,1.807,0,0,1-1.873-1.731v-32.8A1.807,1.807,0,0,1,9.7,10.989h46.2a1.807,1.807,0,0,1,1.873,1.731Z" transform="translate(-0.83 -6.256)" fill="#590bb2" opacity="0.1"/>
      <path id="Path_1058" data-name="Path 1058" d="M57.767,15.653v32.8a1.807,1.807,0,0,1-1.873,1.731H9.7a1.807,1.807,0,0,1-1.873-1.731v-32.8A1.807,1.807,0,0,1,9.7,13.922h46.2a1.807,1.807,0,0,1,1.873,1.731Z" transform="translate(-0.83 -6.767)" fill="#f5f4f9"/>
      <path id="Path_1059" data-name="Path 1059" d="M12.912,20.651H53.758V44.921H12.912Z" transform="translate(-1.37 -7.938)" fill="#e8e6ed"/>
      <path id="Path_1060" data-name="Path 1060" d="M57.767,19.48V15.653a1.806,1.806,0,0,0-1.873-1.731H9.7a1.806,1.806,0,0,0-1.873,1.731V19.48Z" transform="translate(-0.83 -6.767)" fill="#c182f9"/>
      <g id="Group_1101" data-name="Group 1101" transform="translate(6.368 6.578)">
        <path id="Path_1061" data-name="Path 1061" d="M12.444,17.155v.017a.626.626,0,0,0,1.249,0v-.017a.626.626,0,0,0-1.249,0Z" transform="translate(-7.689 -13.807)" fill="#590bb2"/>
        <path id="Path_1062" data-name="Path 1062" d="M15.143,17.155v.017a.626.626,0,0,0,1.249,0v-.017a.626.626,0,0,0-1.249,0Z" transform="translate(-7.975 -13.807)" fill="#590bb2"/>
        <path id="Path_1063" data-name="Path 1063" d="M17.842,17.155v.017a.626.626,0,0,0,1.249,0v-.017a.626.626,0,0,0-1.249,0Z" transform="translate(-8.262 -13.807)" fill="#590bb2"/>
        <path id="Path_1064" data-name="Path 1064" d="M57.693,16.758a.6.6,0,0,0,.624-.577v-.65a2.411,2.411,0,0,0-2.5-2.308H9.621a2.411,2.411,0,0,0-2.5,2.308v3.827a.6.6,0,0,0,.624.577h49.32V48.329a1.205,1.205,0,0,1-1.249,1.154H9.621a1.205,1.205,0,0,1-1.249-1.154V22.536a.626.626,0,0,0-1.249,0V48.329a2.411,2.411,0,0,0,2.5,2.308h46.2a2.411,2.411,0,0,0,2.5-2.308V19.359a.6.6,0,0,0-.624-.577H8.373v-3.25a1.205,1.205,0,0,1,1.249-1.154h46.2a1.205,1.205,0,0,1,1.249,1.154v.65a.6.6,0,0,0,.624.577Z" transform="translate(-7.124 -13.224)" fill="#590bb2"/>
      </g>
      <path id="Path_1065" data-name="Path 1065" d="M18.317,50.729h-2a.361.361,0,0,1-.375-.346V39.9a.361.361,0,0,1,.375-.346h2a.361.361,0,0,1,.375.346V50.382A.361.361,0,0,1,18.317,50.729Z" transform="translate(-1.692 -11.226)" fill="#fdd250"/>
      <path id="Path_1066" data-name="Path 1066" d="M13.748,52.022h-2a.361.361,0,0,1-.375-.346V47.331a.361.361,0,0,1,.375-.346h2a.361.361,0,0,1,.375.346v4.345A.361.361,0,0,1,13.748,52.022Z" transform="translate(-1.207 -12.519)" fill="#ffe783"/>
      <path id="Path_1067" data-name="Path 1067" d="M22.887,51.762h-2a.361.361,0,0,1-.375-.346V45.838a.361.361,0,0,1,.375-.346h2a.361.361,0,0,1,.375.346v5.578A.361.361,0,0,1,22.887,51.762Z" transform="translate(-2.177 -12.259)" fill="#fdd250"/>
      <path id="Path_1068" data-name="Path 1068" d="M27.457,50.583h-2a.361.361,0,0,1-.375-.346V39.06a.361.361,0,0,1,.375-.346h2a.361.361,0,0,1,.375.346V50.237A.361.361,0,0,1,27.457,50.583Z" transform="translate(-2.662 -11.08)" fill="#ffc136"/>
      <path id="Path_1069" data-name="Path 1069" d="M32.026,50.887h-2a.361.361,0,0,1-.375-.346V40.81a.361.361,0,0,1,.375-.346h2a.361.361,0,0,1,.375.346v9.731A.361.361,0,0,1,32.026,50.887Z" transform="translate(-3.147 -11.385)" fill="#ffab15"/>
      <path id="Path_1070" data-name="Path 1070" d="M36.6,50h-2a.361.361,0,0,1-.375-.346V35.707a.361.361,0,0,1,.375-.346h2a.361.361,0,0,1,.375.346V49.653A.361.361,0,0,1,36.6,50Z" transform="translate(-3.632 -10.497)" fill="#ffd5b8"/>
      <path id="Path_1071" data-name="Path 1071" d="M41.165,51.033h-2a.361.361,0,0,1-.375-.346V41.648a.361.361,0,0,1,.375-.346h2a.361.361,0,0,1,.375.346v9.039A.361.361,0,0,1,41.165,51.033Z" transform="translate(-4.117 -11.53)" fill="#ffbe92"/>
      <path id="Path_1072" data-name="Path 1072" d="M45.735,49.854h-2a.361.361,0,0,1-.375-.346V34.869a.361.361,0,0,1,.375-.346h2a.361.361,0,0,1,.375.346V49.508A.361.361,0,0,1,45.735,49.854Z" transform="translate(-4.602 -10.351)" fill="#ffa052"/>
      <path id="Path_1073" data-name="Path 1073" d="M50.3,50.158h-2a.361.361,0,0,1-.375-.346V36.619a.361.361,0,0,1,.375-.346h2a.361.361,0,0,1,.375.346V49.812A.361.361,0,0,1,50.3,50.158Z" transform="translate(-5.087 -10.655)" fill="#ff8736"/>
      <path id="Path_1074" data-name="Path 1074" d="M54.874,49.575h-2a.361.361,0,0,1-.375-.346V33.267a.361.361,0,0,1,.375-.346h2a.361.361,0,0,1,.375.346V49.229A.361.361,0,0,1,54.874,49.575Z" transform="translate(-5.572 -10.072)" fill="#d6b0ff"/>
      <path id="Path_1075" data-name="Path 1075" d="M59.443,48.4h-2a.361.361,0,0,1-.375-.346V26.488a.361.361,0,0,1,.375-.346h2a.361.361,0,0,1,.375.346V48.049A.361.361,0,0,1,59.443,48.4Z" transform="translate(-6.057 -8.893)" fill="#c182f9"/>
      <path id="Path_1076" data-name="Path 1076" d="M20.369,26.747a2.081,2.081,0,0,0-4.148,0,1.839,1.839,0,0,0,.593,1.34,1.838,1.838,0,0,0-.593,1.34.626.626,0,0,0,1.249,0,.828.828,0,0,1,1.651,0,.626.626,0,0,0,1.249,0,1.838,1.838,0,0,0-.593-1.34,1.838,1.838,0,0,0,.593-1.34Zm-2.074-.763a.765.765,0,1,1-.825.763A.8.8,0,0,1,18.294,25.984Z" transform="translate(-1.722 -8.665)" fill="#b557ff"/>
      <path id="Path_1077" data-name="Path 1077" d="M31.347,27.251H42.582a.593.593,0,1,0,0-1.182H31.347a.593.593,0,1,0,0,1.182Z" transform="translate(-3.259 -8.88)" fill="#cecae0"/>
      <path id="Path_1078" data-name="Path 1078" d="M24.379,27.251h3.069a.593.593,0,1,0,0-1.182H24.379a.593.593,0,1,0,0,1.182Z" transform="translate(-2.519 -8.88)" fill="#ffbe92"/>
      <path id="Path_1079" data-name="Path 1079" d="M24.379,30.089H41.842a.593.593,0,1,0,0-1.182H24.379a.593.593,0,1,0,0,1.182Z" transform="translate(-2.519 -9.374)" fill="#cecae0"/>
      <ellipse id="Ellipse_49" data-name="Ellipse 49" cx="0.698" cy="0.645" rx="0.698" ry="0.645" transform="translate(14.609 22.985)" fill="#ffbe92"/>
      <ellipse id="Ellipse_50" data-name="Ellipse 50" cx="0.698" cy="0.645" rx="0.698" ry="0.645" transform="translate(16.72 22.985)" fill="#ffbe92"/>
      <ellipse id="Ellipse_51" data-name="Ellipse 51" cx="0.698" cy="0.645" rx="0.698" ry="0.645" transform="translate(18.832 22.985)" fill="#ffbe92"/>
      <path id="Path_1080" data-name="Path 1080" d="M52.962,10.859a.6.6,0,0,1-.624-.577.725.725,0,0,0-.751-.694.579.579,0,1,1,0-1.154.725.725,0,0,0,.751-.694.626.626,0,0,1,1.249,0,.725.725,0,0,0,.751.694.579.579,0,1,1,0,1.154.725.725,0,0,0-.751.694A.6.6,0,0,1,52.962,10.859Z" transform="translate(-5.409 -5.591)" fill="#c182f9"/>
      <path id="Path_1081" data-name="Path 1081" d="M25.728,8.956a.6.6,0,0,1-.624-.577.725.725,0,0,0-.751-.694.579.579,0,1,1,0-1.154.725.725,0,0,0,.751-.694.626.626,0,0,1,1.249,0,.725.725,0,0,0,.751.694.579.579,0,1,1,0,1.154.725.725,0,0,0-.751.694A.6.6,0,0,1,25.728,8.956Z" transform="translate(-2.518 -5.26)" fill="#ffe783"/>
      <path id="Path_1082" data-name="Path 1082" d="M40.092,64.067a.651.651,0,0,1-.442-.169l-1.373-1.269a.546.546,0,0,1,0-.816l1.373-1.269a.661.661,0,0,1,.883,0l1.373,1.269a.546.546,0,0,1,0,.816L40.534,63.9A.651.651,0,0,1,40.092,64.067Zm-.49-1.846.49.453.49-.453-.49-.453Z" transform="translate(-4.043 -14.849)" fill="#ffa052"/>
      <path id="Path_1083" data-name="Path 1083" d="M33.328,65.482a.649.649,0,0,1-.442-.169l-1.373-1.269a.546.546,0,0,1,0-.816l1.373-1.269a.661.661,0,0,1,.883,0l1.373,1.269a.546.546,0,0,1,0,.816l-1.373,1.269a.65.65,0,0,1-.441.169Zm-.49-1.845.49.453.49-.453-.49-.453Z" transform="translate(-3.325 -15.095)" fill="#c182f9"/>
    </g>
  </g>
</svg>
