<svg xmlns="http://www.w3.org/2000/svg" xmlns:xlink="http://www.w3.org/1999/xlink" width="64" height="50" viewBox="0 0 64 50">
  <defs>
    <clipPath id="clip-path">
      <rect id="Rectangle_1153" data-name="Rectangle 1153" width="64" height="50" transform="translate(0.035 0.35)" fill="#fff"/>
    </clipPath>
    <linearGradient id="linear-gradient" x1="0.421" y1="0.5" x2="1.665" y2="0.5" gradientUnits="objectBoundingBox">
      <stop offset="0.001" stop-color="#fff0d5"/>
      <stop offset="0.511" stop-color="#ffdfff"/>
      <stop offset="1" stop-color="#d9ceff"/>
    </linearGradient>
  </defs>
  <g id="Mask_Group_68" data-name="Mask Group 68" transform="translate(-0.035 -0.35)" clip-path="url(#clip-path)">
    <g id="_047-profile" data-name="047-profile" transform="translate(0 0.036)">
      <path id="Path_997" data-name="Path 997" d="M51.314,18.971a13.357,13.357,0,0,1-7.034-5.62A15.446,15.446,0,0,0,30.928,6.045a15.385,15.385,0,0,0-13.636,7.808,13.662,13.662,0,0,1-7.3,6.245A15.591,15.591,0,0,0,.1,32.106a5.3,5.3,0,0,0,0,2.079A15.69,15.69,0,0,0,18.119,47.039a14.874,14.874,0,0,1,11.812,3.422c6.465,5.563,16.829,7.307,26.89,1.344a13.419,13.419,0,0,0,3.515-3.254C69.005,36.044,62.584,23.029,51.314,18.971Z" transform="translate(0 -5.63)" fill="url(#linear-gradient)"/>
      <path id="Path_998" data-name="Path 998" d="M57.2,13H46.966V8.583A2.181,2.181,0,0,0,44.7,6.493H19.171a2.181,2.181,0,0,0-2.262,2.09v6.764H6.355a.911.911,0,0,0-.941.879v8.24a.911.911,0,0,0,.941.879H16.91v4.629H6.355a.911.911,0,0,0-.941.879V46.1a.911.911,0,0,0,.941.879H16.91v3.933a2.181,2.181,0,0,0,2.262,2.09H44.7a2.181,2.181,0,0,0,2.262-2.09V40.646H51.59a1.213,1.213,0,0,0,1.252-1.169V33.887a1.213,1.213,0,0,0-1.252-1.169H46.966V26.711H57.2a1.216,1.216,0,0,0,1.261-1.165V14.165A1.216,1.216,0,0,0,57.2,13Z" transform="translate(-0.574 -5.708)" fill="#590bb2" opacity="0.1"/>
      <path id="Path_999" data-name="Path 999" d="M48.331,11.535V53.867a2.181,2.181,0,0,1-2.262,2.09H20.536a2.181,2.181,0,0,1-2.262-2.09V11.535a2.181,2.181,0,0,1,2.262-2.09H46.069a2.181,2.181,0,0,1,2.262,2.09Z" transform="translate(-1.939 -6.222)" fill="#f5f4f9"/>
      <path id="Path_1000" data-name="Path 1000" d="M51.466,43.3V51.23h-2.4a1.214,1.214,0,0,1-1.253-1.169V44.472a1.214,1.214,0,0,1,1.253-1.17h2.4Z" transform="translate(-5.075 -12.112)" fill="#e8e6ed"/>
      <path id="Path_1001" data-name="Path 1001" d="M22.211,23.151v8.24a.911.911,0,0,1-.94.879h-3v-10h3a.911.911,0,0,1,.94.879Z" transform="translate(-1.939 -8.454)" fill="#e8e6ed"/>
      <path id="Path_1002" data-name="Path 1002" d="M22.211,40.857V56.109a.911.911,0,0,1-.94.879h-3V39.979h3a.911.911,0,0,1,.94.879Z" transform="translate(-1.939 -11.534)" fill="#e8e6ed"/>
      <path id="Path_1003" data-name="Path 1003" d="M51.15,19.431V33.143H46.095a1.217,1.217,0,0,1-1.262-1.166V20.6a1.217,1.217,0,0,1,1.262-1.166H51.15Z" transform="translate(-4.758 -7.959)" fill="#e8e6ed"/>
      <path id="Path_1004" data-name="Path 1004" d="M48.331,21.481V11.546a2.179,2.179,0,0,0-2.25-2.1H20.524a2.179,2.179,0,0,0-2.25,2.1v9.936Z" transform="translate(-1.939 -6.222)" fill="#ffd5b8"/>
      <path id="Path_1005" data-name="Path 1005" d="M42.864,12.326l1-2.882H23.94l1,2.882a1.081,1.081,0,0,0,1.032.7H41.832A1.081,1.081,0,0,0,42.864,12.326Z" transform="translate(-2.541 -6.222)" fill="#cecae0"/>
      <g id="Group_1099" data-name="Group 1099" transform="translate(15.707 2.641)">
        <path id="Path_1006" data-name="Path 1006" d="M41.758,13.484H25.9a1.7,1.7,0,0,1-1.63-1.1l-1-2.882a.573.573,0,0,1,.406-.731.64.64,0,0,1,.791.375l1,2.882a.454.454,0,0,0,.434.3H41.758a.454.454,0,0,0,.434-.3l1-2.882a.64.64,0,0,1,.791-.375.573.573,0,0,1,.406.731l-1,2.882A1.7,1.7,0,0,1,41.758,13.484Z" transform="translate(-18.173 -8.741)" fill="#590bb2"/>
        <path id="Path_1007" data-name="Path 1007" d="M45.995,63.647H20.462a2.79,2.79,0,0,1-2.89-2.671v-3.63a.63.63,0,0,1,1.257,0v3.63a1.577,1.577,0,0,0,1.633,1.509H45.995a1.577,1.577,0,0,0,1.633-1.509V50.885a.63.63,0,0,1,1.257,0V60.976A2.79,2.79,0,0,1,45.995,63.647Z" transform="translate(-17.571 -15.972)" fill="#590bb2"/>
        <path id="Path_1008" data-name="Path 1008" d="M51.825,40.253a.606.606,0,0,1-.629-.581V34.1a.63.63,0,0,1,1.257,0v5.576A.606.606,0,0,1,51.825,40.253Z" transform="translate(-21.14 -13.051)" fill="#590bb2"/>
        <path id="Path_1009" data-name="Path 1009" d="M18.2,18.409a.606.606,0,0,1-.629-.581V11.412a2.79,2.79,0,0,1,2.89-2.671H45.995a2.79,2.79,0,0,1,2.89,2.671v4.164a.63.63,0,0,1-1.257,0V11.412A1.577,1.577,0,0,0,45.995,9.9H20.462a1.577,1.577,0,0,0-1.633,1.509v6.416A.606.606,0,0,1,18.2,18.409Z" transform="translate(-17.571 -8.741)" fill="#590bb2"/>
        <path id="Path_1010" data-name="Path 1010" d="M18.2,37.424a.606.606,0,0,1-.629-.581V32.55a.63.63,0,0,1,1.257,0v4.294A.606.606,0,0,1,18.2,37.424Z" transform="translate(-17.571 -12.782)" fill="#590bb2"/>
      </g>
      <ellipse id="Ellipse_41" data-name="Ellipse 41" cx="5.63" cy="5.259" rx="5.63" ry="5.259" transform="translate(25.733 18.287)" fill="#ffa052"/>
      <path id="Path_1011" data-name="Path 1011" d="M36.372,34.206a2.03,2.03,0,0,0,.7-1.521,2.263,2.263,0,0,0-4.515,0,2.03,2.03,0,0,0,.7,1.521,2.03,2.03,0,0,0-.7,1.521.63.63,0,0,0,1.257,0,1,1,0,0,1,2,0,.63.63,0,0,0,1.257,0A2.029,2.029,0,0,0,36.372,34.206Zm-2.553-1.521a1,1,0,1,1,1,.941A.973.973,0,0,1,33.819,32.685Z" transform="translate(-3.456 -9.9)" fill="#f5f4f9"/>
      <path id="Path_1012" data-name="Path 1012" d="M38.682,45.647H30.351a.6.6,0,1,1,0-1.2h8.331a.6.6,0,1,1,0,1.2Z" transform="translate(-3.153 -12.312)" fill="#ddd9e4"/>
      <path id="Path_1013" data-name="Path 1013" d="M36.7,48.336H32.871a.6.6,0,1,1,0-1.2H36.7a.6.6,0,1,1,0,1.2Z" transform="translate(-3.42 -12.78)" fill="#c182f9"/>
      <ellipse id="Ellipse_42" data-name="Ellipse 42" cx="0.699" cy="0.653" rx="0.699" ry="0.653" transform="translate(32.78 41.575)" fill="#e2ccff"/>
      <ellipse id="Ellipse_43" data-name="Ellipse 43" cx="0.699" cy="0.653" rx="0.699" ry="0.653" transform="translate(30.664 41.575)" fill="#e2ccff"/>
      <ellipse id="Ellipse_44" data-name="Ellipse 44" cx="0.699" cy="0.653" rx="0.699" ry="0.653" transform="translate(28.549 41.575)" fill="#e2ccff"/>
      <path id="Path_1014" data-name="Path 1014" d="M56.09,49.122H49.069a1.213,1.213,0,0,1-1.252-1.169V42.363a1.213,1.213,0,0,1,1.252-1.169H56.09a1.213,1.213,0,0,1,1.252,1.169v5.589A1.213,1.213,0,0,1,56.09,49.122Z" transform="translate(-5.075 -11.746)" fill="#ffe783"/>
      <path id="Path_1015" data-name="Path 1015" d="M56.015,49.58H48.994a1.821,1.821,0,0,1-1.88-1.75V42.241a1.821,1.821,0,0,1,1.88-1.75h7.021a1.821,1.821,0,0,1,1.88,1.75V47.83A1.821,1.821,0,0,1,56.015,49.58Zm-7.021-7.928a.607.607,0,0,0-.623.589V47.83a.608.608,0,0,0,.623.589h7.021a.607.607,0,0,0,.623-.589V42.241a.607.607,0,0,0-.623-.589H48.994Z" transform="translate(-5 -11.623)" fill="#590bb2"/>
      <path id="Path_1016" data-name="Path 1016" d="M52.118,47.565a.658.658,0,0,1-.307-.076.565.565,0,0,1-.237-.8l1.7-2.815a.65.65,0,0,1,.853-.222.565.565,0,0,1,.237.8l-1.7,2.815A.635.635,0,0,1,52.118,47.565Z" transform="translate(-5.465 -12.161)" fill="#ffc136"/>
      <path id="Path_1017" data-name="Path 1017" d="M19.906,30.161H6.355a.911.911,0,0,1-.941-.879v-8.24a.911.911,0,0,1,.941-.879H19.906a.911.911,0,0,1,.941.879v8.24A.911.911,0,0,1,19.906,30.161Z" transform="translate(-0.574 -8.087)" fill="#ffa052"/>
      <path id="Path_1018" data-name="Path 1018" d="M19.832,30.619H6.28A1.519,1.519,0,0,1,4.711,29.16V20.92A1.519,1.519,0,0,1,6.28,19.461H19.832A1.519,1.519,0,0,1,21.4,20.92v8.24A1.519,1.519,0,0,1,19.832,30.619Zm-13.551-10a.306.306,0,0,0-.312.3v8.24a.306.306,0,0,0,.312.3H19.832a.306.306,0,0,0,.312-.3V20.92a.306.306,0,0,0-.312-.3Z" transform="translate(-0.5 -7.965)" fill="#590bb2"/>
      <path id="Path_1019" data-name="Path 1019" d="M10.522,27.786a.646.646,0,0,1-.442-.171L8.575,26.209a.557.557,0,0,1,0-.826l1.505-1.406a.657.657,0,0,1,.884,0,.557.557,0,0,1,0,.826L9.9,25.8l1.063.993a.557.557,0,0,1,0,.826.646.646,0,0,1-.442.171Z" transform="translate(-0.891 -8.721)" fill="#f5f4f9"/>
      <path id="Path_1020" data-name="Path 1020" d="M17.243,23.806a.646.646,0,0,1,.442.171l1.505,1.406a.557.557,0,0,1,0,.826l-1.505,1.406a.657.657,0,0,1-.884,0,.557.557,0,0,1,0-.826l1.063-.993L16.8,24.8a.557.557,0,0,1,0-.826.646.646,0,0,1,.442-.171Z" transform="translate(-1.764 -8.721)" fill="#f5f4f9"/>
      <path id="Path_1021" data-name="Path 1021" d="M13.021,27.786a.657.657,0,0,1-.307-.076.564.564,0,0,1-.237-.8l1.7-2.812a.649.649,0,0,1,.852-.221.564.564,0,0,1,.237.8l-1.7,2.812A.634.634,0,0,1,13.021,27.786Z" transform="translate(-1.315 -8.721)" fill="#f5f4f9"/>
      <path id="Path_1022" data-name="Path 1022" d="M19.906,54.879H6.355A.911.911,0,0,1,5.414,54V38.749a.911.911,0,0,1,.941-.879H19.906a.911.911,0,0,1,.941.879V54A.911.911,0,0,1,19.906,54.879Z" transform="translate(-0.574 -11.167)" fill="#ffc136"/>
      <path id="Path_1023" data-name="Path 1023" d="M19.832,55.338H6.28a1.519,1.519,0,0,1-1.569-1.459V38.627A1.519,1.519,0,0,1,6.28,37.167H13.39a.583.583,0,1,1,0,1.162H6.28a.306.306,0,0,0-.312.3V53.878a.306.306,0,0,0,.312.3H19.832a.306.306,0,0,0,.312-.3V38.627a.306.306,0,0,0-.312-.3h-3a.583.583,0,1,1,0-1.162h3A1.519,1.519,0,0,1,21.4,38.627V53.878A1.519,1.519,0,0,1,19.832,55.338Z" transform="translate(-0.5 -11.045)" fill="#590bb2"/>
      <path id="Path_1024" data-name="Path 1024" d="M61.385,31.034H46.094a1.216,1.216,0,0,1-1.261-1.165V18.488a1.216,1.216,0,0,1,1.261-1.165h15.29a1.216,1.216,0,0,1,1.261,1.165V29.869A1.216,1.216,0,0,1,61.385,31.034Z" transform="translate(-4.758 -7.593)" fill="#f5f4f9"/>
      <path id="Path_1025" data-name="Path 1025" d="M62.85,17.323H58.576V31.034H62.85A1.215,1.215,0,0,0,64.1,29.863V18.494a1.215,1.215,0,0,0-1.254-1.171Z" transform="translate(-6.217 -7.593)" fill="#ffe783"/>
      <path id="Path_1026" data-name="Path 1026" d="M62.646,21.149V18.494a1.215,1.215,0,0,0-1.254-1.171h-15.3a1.215,1.215,0,0,0-1.254,1.171v2.655Z" transform="translate(-4.758 -7.593)" fill="#ffc136"/>
      <path id="Path_1027" data-name="Path 1027" d="M61.317,31.492h-15.3A1.823,1.823,0,0,1,44.13,29.74V18.372a1.823,1.823,0,0,1,1.883-1.752h15.3A1.823,1.823,0,0,1,63.2,18.372v2.655a.63.63,0,0,1-1.257,0V18.372a.61.61,0,0,0-.626-.591h-15.3a.61.61,0,0,0-.626.591V29.74a.61.61,0,0,0,.626.591h15.3a.61.61,0,0,0,.626-.591V24.246a.63.63,0,0,1,1.257,0V29.74A1.823,1.823,0,0,1,61.317,31.492Z" transform="translate(-4.683 -7.47)" fill="#590bb2"/>
      <path id="Path_1028" data-name="Path 1028" d="M62.571,22.414H44.759a.583.583,0,1,1,0-1.162H62.571a.583.583,0,1,1,0,1.162Z" transform="translate(-4.683 -8.276)" fill="#590bb2"/>
      <path id="Path_1029" data-name="Path 1029" d="M54.944,30.364h-6.22a.587.587,0,1,1,0-1.171h6.22a.587.587,0,1,1,0,1.171Z" transform="translate(-5.104 -9.658)" fill="#ddd9e4"/>
      <path id="Path_1030" data-name="Path 1030" d="M51.558,27.421H48.724a.587.587,0,1,1,0-1.171h2.834a.587.587,0,1,1,0,1.171Z" transform="translate(-5.104 -9.146)" fill="#ddd9e4"/>
      <path id="Path_1031" data-name="Path 1031" d="M17.2,48.245H9.872a.587.587,0,1,1,0-1.17H17.2a.587.587,0,1,1,0,1.17Z" transform="translate(-0.981 -12.769)" fill="#f5f4f9"/>
      <path id="Path_1032" data-name="Path 1032" d="M15.879,44.455H11.552a.587.587,0,1,1,0-1.17h4.327a.587.587,0,1,1,0,1.17Z" transform="translate(-1.159 -12.109)" fill="#ffe783"/>
      <path id="Path_1033" data-name="Path 1033" d="M17.2,50.761H9.872a.587.587,0,1,1,0-1.17H17.2a.587.587,0,1,1,0,1.17Z" transform="translate(-0.981 -13.207)" fill="#f5f4f9"/>
      <path id="Path_1034" data-name="Path 1034" d="M17.2,53.277H9.872a.587.587,0,1,1,0-1.17H17.2a.587.587,0,1,1,0,1.17Z" transform="translate(-0.981 -13.644)" fill="#f5f4f9"/>
      <path id="Path_1035" data-name="Path 1035" d="M64.8,53.582a.656.656,0,0,1-.447-.172l-1.379-1.288a.55.55,0,0,1,0-.817l1.379-1.288a.666.666,0,0,1,.894,0L66.631,51.3a.55.55,0,0,1,0,.817L65.251,53.41A.656.656,0,0,1,64.8,53.582Zm-.5-1.869.5.462.5-.462-.5-.462Z" transform="translate(-6.665 -13.251)" fill="#c182f9"/>
      <path id="Path_1036" data-name="Path 1036" d="M57.722,57.548a.656.656,0,0,1-.447-.172L55.9,56.088a.55.55,0,0,1,0-.817l1.379-1.288a.666.666,0,0,1,.894,0l1.379,1.288a.55.55,0,0,1,0,.817l-1.379,1.288a.656.656,0,0,1-.447.172Zm-.5-1.869.5.462.5-.462-.5-.462Z" transform="translate(-5.913 -13.941)" fill="#ffa052"/>
      <path id="Path_1037" data-name="Path 1037" d="M12.32,16.459a.606.606,0,0,1-.629-.581.728.728,0,0,0-.748-.7.583.583,0,1,1,0-1.162.728.728,0,0,0,.748-.7.63.63,0,0,1,1.257,0,.728.728,0,0,0,.748.7.583.583,0,1,1,0,1.162.728.728,0,0,0-.748.7A.606.606,0,0,1,12.32,16.459Z" transform="translate(-1.095 -6.793)" fill="#ffe783"/>
      <path id="Path_1038" data-name="Path 1038" d="M14.891,9.276a.606.606,0,0,1-.629-.581.728.728,0,0,0-.748-.7.583.583,0,1,1,0-1.162.728.728,0,0,0,.748-.7.63.63,0,0,1,1.257,0,.728.728,0,0,0,.748.7.583.583,0,1,1,0,1.162.728.728,0,0,0-.748.7A.606.606,0,0,1,14.891,9.276Z" transform="translate(-1.368 -5.543)" fill="#c182f9"/>
    </g>
  </g>
</svg>
