<svg xmlns="http://www.w3.org/2000/svg" xmlns:xlink="http://www.w3.org/1999/xlink" width="64" height="50" viewBox="0 0 64 50">
  <defs>
    <clipPath id="clip-path">
      <rect id="Rectangle_1158" data-name="Rectangle 1158" width="64" height="50" transform="translate(0.49 0.187)" fill="#fff" stroke="#707070" stroke-width="1"/>
    </clipPath>
    <linearGradient id="linear-gradient" x1="0.441" y1="0.5" x2="1.689" y2="0.5" gradientUnits="objectBoundingBox">
      <stop offset="0.001" stop-color="#fff0d5"/>
      <stop offset="0.511" stop-color="#ffdfff"/>
      <stop offset="1" stop-color="#d9ceff"/>
    </linearGradient>
  </defs>
  <g id="Mask_Group_72" data-name="Mask Group 72" transform="translate(-0.49 -0.187)" clip-path="url(#clip-path)">
    <g id="_034-firewall" data-name="034-firewall" transform="translate(2.161 0)">
      <path id="Path_1107" data-name="Path 1107" d="M59.29,32.763A13.29,13.29,0,0,0,51.1,24.939a4.666,4.666,0,0,1-3.235-4.273q0-.062,0-.125c-.177-7-6.507-12.606-14.08-12.485a14.2,14.2,0,0,0-10.894,5.193,11.6,11.6,0,0,1-9.038,4.329q-.158,0-.317,0C6.272,17.727.1,23.484,0,30.194-.1,37.338,6.134,43.16,13.842,43.16a13.835,13.835,0,0,0,13-8.4,2.893,2.893,0,0,1,3.434-1.6l.053.014A2.632,2.632,0,0,1,32.389,35.9a11.84,11.84,0,0,0,.68,5.071c2.406,6.625,10.224,10.26,17.412,8.092,7.354-2.218,11.3-9.556,8.808-16.3Z" transform="translate(0 -3.948)" fill="url(#linear-gradient)"/>
      <path id="Path_1108" data-name="Path 1108" d="M53.86,25.2a1.143,1.143,0,0,0-1.162-.943h-2.71C48.459,16.6,42.189,10.48,34.1,8.594a4.573,4.573,0,0,0,.042-.6,5.12,5.12,0,0,0-5.309-4.906,5.12,5.12,0,0,0-5.309,4.906,4.573,4.573,0,0,0,.041.6,22.379,22.379,0,0,0-6.213,2.456,5.7,5.7,0,0,0-1.676-.251A5.12,5.12,0,0,0,10.361,15.7a4.562,4.562,0,0,0,.265,1.53A18.725,18.725,0,0,0,7.276,27.89c0,10.991,9.642,19.9,21.536,19.9a22.816,22.816,0,0,0,10.6-2.577l3.092,1.777a2.822,2.822,0,0,0,2.785,0l7.961-4.575a1.078,1.078,0,0,0,.541-.763,59.371,59.371,0,0,0,.51-8.45A62.5,62.5,0,0,0,53.86,25.2Z" transform="translate(-0.772 -3.083)" fill="#590bb2" opacity="0.1"/>
      <ellipse id="Ellipse_57" data-name="Ellipse 57" cx="21.536" cy="19.901" rx="21.536" ry="19.901" transform="translate(6.504 6.855)" fill="#e2ccff"/>
      <g id="Group_1103" data-name="Group 1103" transform="translate(9.599 6.855)">
        <path id="Path_1109" data-name="Path 1109" d="M21.347,21.647a5.12,5.12,0,0,1-5.309,4.906,5.147,5.147,0,0,1-5.3-4.621,20.577,20.577,0,0,1,4.879-5.177c.139-.01.279-.015.42-.015A5.12,5.12,0,0,1,21.347,21.647Z" transform="translate(-10.738 -12.314)" fill="#d6b0ff"/>
        <path id="Path_1110" data-name="Path 1110" d="M36.066,13.005a5.12,5.12,0,0,1-5.309,4.906,5.12,5.12,0,0,1-5.309-4.906,4.606,4.606,0,0,1,.121-1.045,23.432,23.432,0,0,1,10.378.008,4.539,4.539,0,0,1,.119,1.038Z" transform="translate(-12.299 -11.382)" fill="#d6b0ff"/>
        <path id="Path_1111" data-name="Path 1111" d="M53.461,35.118c0,8.12-5.26,15.1-12.8,18.2l-3-1.723a1.075,1.075,0,0,1-.541-.762,59.318,59.318,0,0,1-.511-8.451,62.406,62.406,0,0,1,.446-8.007,1.142,1.142,0,0,1,1.161-.944H53.383c.052.556.078,1.12.078,1.689Z" transform="translate(-13.484 -15.218)" fill="#d6b0ff"/>
      </g>
      <ellipse id="Ellipse_58" data-name="Ellipse 58" cx="5.309" cy="4.906" rx="5.309" ry="4.906" transform="translate(9.589 9.657)" fill="#fdd250"/>
      <path id="Path_1112" data-name="Path 1112" d="M18.383,19.257a1.953,1.953,0,0,0-3.893,0,1.725,1.725,0,0,0,.557,1.257,1.725,1.725,0,0,0-.557,1.257.588.588,0,0,0,1.173,0,.776.776,0,0,1,1.548,0,.588.588,0,0,0,1.173,0,1.725,1.725,0,0,0-.557-1.257A1.725,1.725,0,0,0,18.383,19.257Zm-1.946-.715a.717.717,0,1,1-.774.715A.747.747,0,0,1,16.436,18.541Z" transform="translate(-1.538 -5.584)" fill="#f5f4f9"/>
      <ellipse id="Ellipse_59" data-name="Ellipse 59" cx="5.309" cy="4.906" rx="5.309" ry="4.906" transform="translate(22.746 1.948)" fill="#ffa052"/>
      <path id="Path_1113" data-name="Path 1113" d="M33.1,9.924a1.953,1.953,0,0,0-3.893,0,1.725,1.725,0,0,0,.557,1.257,1.725,1.725,0,0,0-.557,1.257.588.588,0,0,0,1.173,0,.776.776,0,0,1,1.548,0,.588.588,0,0,0,1.173,0,1.725,1.725,0,0,0-.557-1.257A1.725,1.725,0,0,0,33.1,9.924Zm-1.946-.715a.717.717,0,1,1-.774.715A.747.747,0,0,1,31.156,9.209Z" transform="translate(-3.1 -3.96)" fill="#f5f4f9"/>
      <ellipse id="Ellipse_60" data-name="Ellipse 60" cx="5.309" cy="4.906" rx="5.309" ry="4.906" transform="translate(14.846 40.033)" fill="#fdd250"/>
      <path id="Path_1114" data-name="Path 1114" d="M24.264,56.03a1.953,1.953,0,0,0-3.893,0,1.725,1.725,0,0,0,.557,1.257,1.725,1.725,0,0,0-.557,1.257.588.588,0,0,0,1.173,0,.776.776,0,0,1,1.548,0,.588.588,0,0,0,1.173,0,1.725,1.725,0,0,0-.557-1.257A1.725,1.725,0,0,0,24.264,56.03Zm-1.946-.715a.717.717,0,1,1-.774.715A.747.747,0,0,1,22.318,55.315Z" transform="translate(-2.162 -11.982)" fill="#f5f4f9"/>
      <path id="Path_1115" data-name="Path 1115" d="M56.368,49.235a1.078,1.078,0,0,0,.541-.763,59.371,59.371,0,0,0,.51-8.45,62.516,62.516,0,0,0-.445-8.008,1.143,1.143,0,0,0-1.162-.943h-17.6a1.143,1.143,0,0,0-1.162.943,62.514,62.514,0,0,0-.445,8.008,59.372,59.372,0,0,0,.51,8.45,1.079,1.079,0,0,0,.541.763l7.961,4.575a2.822,2.822,0,0,0,2.785,0Z" transform="translate(-3.885 -7.952)" fill="#c182f9"/>
      <path id="Path_1116" data-name="Path 1116" d="M54.372,27.373a1.719,1.719,0,0,0-1.743-1.416H42.185a26.885,26.885,0,0,0-1.737-6.529A24.2,24.2,0,0,0,44.626,17.5a19.086,19.086,0,0,1,3.812,6.017.586.586,0,0,0,.551.357.628.628,0,0,0,.2-.033.531.531,0,0,0,.351-.694,21.543,21.543,0,0,0-14.891-12.72c0-.066.005-.131.005-.2a5.692,5.692,0,0,0-5.9-5.448,5.692,5.692,0,0,0-5.9,5.448c0,.063,0,.125.005.188A22.962,22.962,0,0,0,17.191,12.7a6.327,6.327,0,0,0-1.59-.2,5.692,5.692,0,0,0-5.9,5.448,5.692,5.692,0,0,0,5.9,5.448c.059,0,.117,0,.175,0a29.536,29.536,0,0,0-.757,6.206H7.8a17.977,17.977,0,0,1,1.644-7.008.528.528,0,0,0-.311-.71.6.6,0,0,0-.769.287,19.092,19.092,0,0,0,.685,17.3,21.119,21.119,0,0,0,6.291,6.94,5.058,5.058,0,0,0-.379,1.919,5.692,5.692,0,0,0,5.9,5.448,5.932,5.932,0,0,0,5.425-3.315,24.279,24.279,0,0,0,2.46.127,23.6,23.6,0,0,0,10.588-2.49l2.8,1.608a3.428,3.428,0,0,0,3.4,0L53.5,45.121a1.616,1.616,0,0,0,.811-1.145,59.968,59.968,0,0,0,.516-8.528,63.64,63.64,0,0,0-.45-8.076ZM41,25.956H35.033a1.719,1.719,0,0,0-1.743,1.416c-.091.66-.17,1.408-.235,2.22H29.329V21.338a35.875,35.875,0,0,0,10.02-1.545A25.889,25.889,0,0,1,41,25.956ZM19.4,43.038q-.437-.751-.819-1.56a34.612,34.612,0,0,1,9.574-1.463v9.457a8.322,8.322,0,0,1-1.486-.245,5.053,5.053,0,0,0,.084-.91,5.692,5.692,0,0,0-5.9-5.448,6.344,6.344,0,0,0-1.457.169Zm13.52-3.881c-1.179-.13-2.38-.207-3.593-.226V30.677h3.65c-.091,1.476-.139,3.106-.139,4.772C32.84,36.733,32.868,37.984,32.922,39.157Zm-4.765-.226A35.861,35.861,0,0,0,18.14,40.475a27.2,27.2,0,0,1-1.947-9.8H28.156Zm1.173,1.084c1.234.02,2.455.1,3.651.24.088,1.42.215,2.693.376,3.721a1.616,1.616,0,0,0,.811,1.145l1.671.96a9.952,9.952,0,0,1-6.51,3.391Zm-8.6-24.754A13.53,13.53,0,0,1,23.446,12.6a5.912,5.912,0,0,0,4.71,3.058v4.6a35.7,35.7,0,0,1-6.9-.764,5.047,5.047,0,0,0,.244-1.548,5.1,5.1,0,0,0-.767-2.682Zm13.332-2.65a15.947,15.947,0,0,1,4.844,6.178,34.627,34.627,0,0,1-9.577,1.465v-4.6A5.916,5.916,0,0,0,34.062,12.611Zm9.761,4.079a23.211,23.211,0,0,1-3.816,1.734,16.861,16.861,0,0,0-5.527-6.88l.008-.03A21.311,21.311,0,0,1,43.823,16.691ZM28.758,5.869a4.56,4.56,0,0,1,4.723,4.365A4.56,4.56,0,0,1,28.758,14.6a4.56,4.56,0,0,1-4.723-4.365,4.56,4.56,0,0,1,4.723-4.365Zm-5.732,5.636.005.021a14.227,14.227,0,0,0-3.02,2.807,5.865,5.865,0,0,0-1.472-1.11,21.791,21.791,0,0,1,4.486-1.718ZM10.878,17.943A4.56,4.56,0,0,1,15.6,13.578a4.56,4.56,0,0,1,4.723,4.365A4.56,4.56,0,0,1,15.6,22.307a4.56,4.56,0,0,1-4.723-4.365Zm6.138,5.289A5.869,5.869,0,0,0,20.8,20.505a36.885,36.885,0,0,0,7.354.833v8.255H16.193a28.424,28.424,0,0,1,.823-6.362ZM7.8,30.677H15.02a28.25,28.25,0,0,0,2.017,10.166,24.225,24.225,0,0,0-4.17,1.919,19.416,19.416,0,0,1-2.773-3.8A17.978,17.978,0,0,1,7.8,30.677Zm5.869,12.9a23.227,23.227,0,0,1,3.806-1.73q.379.811.814,1.569a5.8,5.8,0,0,0-2.415,2,20.572,20.572,0,0,1-2.205-1.836Zm7.188,9.107a4.378,4.378,0,1,1,0-8.729,4.378,4.378,0,1,1,0,8.729Zm13.568-3.915a13.762,13.762,0,0,0,2.42-2.107l1.329.764A21.884,21.884,0,0,1,34.426,48.768Zm18.719-4.947a.537.537,0,0,1-.27.38l-7.961,4.575a2.181,2.181,0,0,1-2.166,0L34.787,44.2a.537.537,0,0,1-.27-.38,58.974,58.974,0,0,1-.5-8.373,62.59,62.59,0,0,1,.441-7.939.571.571,0,0,1,.58-.47h17.6a.571.571,0,0,1,.58.47,62.584,62.584,0,0,1,.441,7.939,58.931,58.931,0,0,1-.5,8.373Z" transform="translate(-0.703 -3.379)" fill="#590bb2"/>
      <path id="Path_1117" data-name="Path 1117" d="M47.431,35V41.67H40.546q-.005-.479-.006-.963c0-1.931.067-3.8.189-5.4a.341.341,0,0,1,.35-.3Z" transform="translate(-4.303 -8.636)" fill="#ffbe92"/>
      <path id="Path_1118" data-name="Path 1118" d="M40.547,43.074h6.886v9.8l-6.4-3.679a.321.321,0,0,1-.164-.241c-.179-1.614-.292-3.692-.318-5.88Z" transform="translate(-4.303 -10.04)" fill="#ffd5b8"/>
      <path id="Path_1119" data-name="Path 1119" d="M55.141,40.706q0,.484-.006.963H48.25V35H54.6a.341.341,0,0,1,.35.3C55.074,36.9,55.141,38.775,55.141,40.706Z" transform="translate(-5.121 -8.636)" fill="#ffd5b8"/>
      <path id="Path_1120" data-name="Path 1120" d="M55.135,43.074c-.026,2.188-.139,4.265-.318,5.88a.322.322,0,0,1-.164.241l-6.4,3.679v-9.8Z" transform="translate(-5.121 -10.04)" fill="#ffbe92"/>
      <path id="Path_1121" data-name="Path 1121" d="M57.18,24.6a.565.565,0,0,1-.586-.542.679.679,0,0,0-.7-.65.543.543,0,1,1,0-1.084.679.679,0,0,0,.7-.65.588.588,0,0,1,1.173,0,.68.68,0,0,0,.7.65.543.543,0,1,1,0,1.084.68.68,0,0,0-.7.65A.565.565,0,0,1,57.18,24.6Z" transform="translate(-5.869 -6.224)" fill="#ffe783"/>
      <path id="Path_1122" data-name="Path 1122" d="M10.516,57.776a.611.611,0,0,1-.415-.159l-1.288-1.19a.513.513,0,0,1,0-.766l1.288-1.19a.621.621,0,0,1,.829,0l1.288,1.19a.513.513,0,0,1,0,.766l-1.288,1.19a.612.612,0,0,1-.415.159Zm-.458-1.732.458.424.458-.424-.458-.424Z" transform="translate(-0.917 -11.996)" fill="#ffa052"/>
      <path id="Path_1123" data-name="Path 1123" d="M53.322,17.27a.609.609,0,0,1-.415-.159l-1.288-1.19a.513.513,0,0,1,0-.766l1.288-1.19a.621.621,0,0,1,.829,0l1.288,1.19a.513.513,0,0,1,0,.766l-1.288,1.19a.61.61,0,0,1-.415.159Zm-.458-1.732.458.424.458-.424-.458-.424Z" transform="translate(-5.46 -4.948)" fill="#c182f9"/>
      <path id="Path_1124" data-name="Path 1124" d="M20,8.766a.61.61,0,0,1-.415-.159l-1.288-1.19a.513.513,0,0,1,0-.766l1.288-1.19a.621.621,0,0,1,.829,0L21.7,6.651a.513.513,0,0,1,0,.766l-1.288,1.19A.609.609,0,0,1,20,8.766Zm-.458-1.732L20,7.458l.458-.424L20,6.611Z" transform="translate(-1.923 -3.469)" fill="#c182f9"/>
    </g>
  </g>
</svg>
