<svg xmlns="http://www.w3.org/2000/svg" xmlns:xlink="http://www.w3.org/1999/xlink" width="407" height="277.888" viewBox="0 0 407 277.888">
  <defs>
    <clipPath id="clip-path">
      <rect id="Rectangle_1129" data-name="Rectangle 1129" width="71" height="68" transform="translate(628 1119)" fill="#fff" stroke="#707070" stroke-width="1"/>
    </clipPath>
    <clipPath id="clip-path-2">
      <rect id="Rectangle_1132" data-name="Rectangle 1132" width="92" height="109" transform="translate(756 1422)" fill="#fff" stroke="#707070" stroke-width="1"/>
    </clipPath>
    <clipPath id="clip-path-3">
      <rect id="Rectangle_1134" data-name="Rectangle 1134" width="52" height="51" transform="translate(1091 1238)" fill="#fff" stroke="#707070" stroke-width="1"/>
    </clipPath>
    <clipPath id="clip-path-4">
      <rect id="Rectangle_1135" data-name="Rectangle 1135" width="95" height="75" transform="translate(993 1037)" fill="#fff" stroke="#707070" stroke-width="1"/>
    </clipPath>
    <clipPath id="clip-path-5">
      <rect id="Rectangle_1137" data-name="Rectangle 1137" width="72" height="79" transform="translate(828 1167)" fill="#fff" stroke="#707070" stroke-width="1"/>
    </clipPath>
    <linearGradient id="linear-gradient" x1="0.13" y1="0.12" x2="0.796" y2="0.782" gradientUnits="objectBoundingBox">
      <stop offset="0" stop-color="#387eb8"/>
      <stop offset="1" stop-color="#366994"/>
    </linearGradient>
    <linearGradient id="linear-gradient-2" x1="0.191" y1="0.206" x2="0.907" y2="0.884" gradientUnits="objectBoundingBox">
      <stop offset="0" stop-color="#ffe052"/>
      <stop offset="1" stop-color="#ffc331"/>
    </linearGradient>
    <clipPath id="clip-path-6">
      <rect id="Rectangle_1138" data-name="Rectangle 1138" width="91" height="82" transform="translate(573 1320)" fill="#fff" stroke="#707070" stroke-width="1"/>
    </clipPath>
    <linearGradient id="linear-gradient-3" x1="0.682" y1="0.175" x2="0.278" y2="0.898" gradientUnits="objectBoundingBox">
      <stop offset="0" stop-color="#41873f"/>
      <stop offset="0.329" stop-color="#418b3d"/>
      <stop offset="0.635" stop-color="#419637"/>
      <stop offset="0.932" stop-color="#3fa92d"/>
      <stop offset="1" stop-color="#3fae2a"/>
    </linearGradient>
    <linearGradient id="linear-gradient-4" x1="0.433" y1="0.552" x2="1.592" y2="-0.183" gradientUnits="objectBoundingBox">
      <stop offset="0.138" stop-color="#41873f"/>
      <stop offset="0.403" stop-color="#54a044"/>
      <stop offset="0.714" stop-color="#66b848"/>
      <stop offset="0.908" stop-color="#6cc04a"/>
    </linearGradient>
    <linearGradient id="linear-gradient-5" x1="-44.138" y1="0.134" x2="53.279" y2="0.134" gradientUnits="objectBoundingBox">
      <stop offset="0.092" stop-color="#6cc04a"/>
      <stop offset="0.286" stop-color="#66b848"/>
      <stop offset="0.597" stop-color="#54a044"/>
      <stop offset="0.862" stop-color="#41873f"/>
    </linearGradient>
    <linearGradient id="linear-gradient-6" x1="-0.044" y1="0.5" x2="1.015" y2="0.5" xlink:href="#linear-gradient-5"/>
    <linearGradient id="linear-gradient-7" x1="-97.138" y1="0.362" x2="0.279" y2="0.362" xlink:href="#linear-gradient-5"/>
    <linearGradient id="linear-gradient-8" x1="-1.039" y1="0.503" x2="1.008" y2="0.503" xlink:href="#linear-gradient-5"/>
    <linearGradient id="linear-gradient-9" x1="1.306" y1="-2.111" x2="0.044" y2="2.016" xlink:href="#linear-gradient-3"/>
    <clipPath id="clip-path-7">
      <rect id="Rectangle_1139" data-name="Rectangle 1139" width="76" height="67" transform="translate(1013 1536)" fill="#fff" stroke="#707070" stroke-width="1"/>
    </clipPath>
    <clipPath id="clip-path-8">
      <rect id="Rectangle_1131" data-name="Rectangle 1131" width="58" height="53" transform="translate(1091 1476)" fill="#fff" stroke="#707070" stroke-width="1"/>
    </clipPath>
  </defs>
  <g id="Group_1114" data-name="Group 1114" transform="translate(-160 -3087)">
    <g id="Mask_Group_48" data-name="Mask Group 48" transform="translate(-468 1975)" clip-path="url(#clip-path)">
      <g id="figma-1" transform="translate(640.264 1119)">
        <path id="path0_fill" d="M11.618,94.64A11.476,11.476,0,0,0,23.236,83.32V72H11.618a11.324,11.324,0,1,0,0,22.64Z" transform="translate(0 -26.72)" fill="#0acf83"/>
        <path id="path1_fill" d="M0,47.32A11.476,11.476,0,0,1,11.618,36H23.236V58.64H11.618A11.476,11.476,0,0,1,0,47.32Z" transform="translate(0 -13.36)" fill="#a259ff"/>
        <path id="path1_fill_1_" d="M0,11.32A11.476,11.476,0,0,1,11.618,0H23.236V22.64H11.618A11.476,11.476,0,0,1,0,11.32Z" fill="#f24e1e"/>
        <path id="path2_fill" d="M36,0H47.618A11.476,11.476,0,0,1,59.236,11.32,11.476,11.476,0,0,1,47.618,22.64H36Z" transform="translate(-12.764)" fill="#ff7262"/>
        <path id="path3_fill" d="M59.236,47.32A11.622,11.622,0,1,1,47.618,36,11.476,11.476,0,0,1,59.236,47.32Z" transform="translate(-12.764 -13.36)" fill="#1abcfe"/>
      </g>
    </g>
    <g id="Mask_Group_55" data-name="Mask Group 55" transform="translate(-477 1755)" clip-path="url(#clip-path-2)">
      <g id="mysql-5" transform="translate(756.836 1422)">
        <path id="Path_774" data-name="Path 774" d="M0,0H90.317V108.848H0Z" fill="#fff" fill-rule="evenodd"/>
        <path id="Path_775" data-name="Path 775" d="M4.765,72.2H7.482V59.229l4.244,11.313a2.331,2.331,0,0,0,2.509,1.864,2.323,2.323,0,0,0,2.488-1.864l4.223-11.313V72.2h2.739V59.229c0-1.259-.418-1.865-1.3-2.193-2.07-.756-3.45-.1-4.076,1.587l-4.16,11.187L10.138,58.624c-.606-1.687-2.007-2.342-4.1-1.587-.857.328-1.275.933-1.275,2.193V72.2h0ZM25.943,61.648h2.739v7.13c-.021.4.1,1.31,1.589,1.334.774.025,5.9,0,5.937,0V61.6h2.739V73.262c0,2.872-2.948,3.5-4.328,3.527H26V74.6h8.634c1.756-.227,1.547-1.285,1.547-1.638V72.1H30.4c-2.7-.025-4.432-1.461-4.453-3.1,0-.151.062-7.307,0-7.356Zm58.745-8.264a8.188,8.188,0,0,0-4.056.706c-.313.152-.815.152-.857.63.167.2.187.529.334.806A5.749,5.749,0,0,0,81.2,57.062c.44.4.879.806,1.338,1.159.815.6,1.735.957,2.529,1.562.46.353.92.806,1.38,1.185.23.2.376.53.669.655v-.076c-.146-.226-.188-.553-.334-.806-.209-.251-.418-.479-.628-.73a11.042,11.042,0,0,0-2.175-2.545c-.669-.555-2.132-1.31-2.4-2.242l-.041-.051a7.333,7.333,0,0,0,1.442-.4c.711-.226,1.359-.176,2.09-.4.335-.1.669-.227,1-.353v-.226c-.376-.453-.648-1.058-1.045-1.486a28.954,28.954,0,0,0-3.45-3.1A24.3,24.3,0,0,0,79.4,47.942c-.252-.151-.669-.227-.815-.479a10.93,10.93,0,0,1-.857-1.94c-.606-1.386-1.192-2.922-1.714-4.384a30.071,30.071,0,0,0-1.066-2.872,23.5,23.5,0,0,0-8.091-9.423,8.868,8.868,0,0,0-2.676-1.033c-.522-.025-1.045-.076-1.568-.1a8.621,8.621,0,0,1-.962-.882c-1.192-.907-4.265-2.872-5.143-.277-.565,1.638.836,3.25,1.317,4.082a12.267,12.267,0,0,1,1.067,1.889c.146.428.187.882.334,1.335a34.136,34.136,0,0,0,1.087,3.376,12.84,12.84,0,0,0,.773,1.563c.167.277.46.4.522.857a8.318,8.318,0,0,0-.48,1.89,13.165,13.165,0,0,0,.606,8.465c.335.63,1.129,2.015,2.2,1.486.941-.453.731-1.889,1-3.149.063-.3.021-.5.146-.705v.05c.293.705.586,1.386.857,2.091a13.55,13.55,0,0,0,2.718,3.376c.5.453.9,1.235,1.526,1.512v-.076h-.041a2.536,2.536,0,0,0-.481-.5,11.926,11.926,0,0,1-1.087-1.512,34.208,34.208,0,0,1-2.341-4.585c-.335-.781-.628-1.638-.9-2.419-.127-.3-.127-.756-.335-.907a9.741,9.741,0,0,0-1,1.713,16.8,16.8,0,0,0-.585,3.8c-.084.025-.042,0-.084.05-.668-.2-.9-1.033-1.149-1.738a13.03,13.03,0,0,1-.188-6.727c.146-.529.774-2.192.523-2.7-.127-.479-.544-.756-.774-1.134a10.911,10.911,0,0,1-.752-1.612c-.5-1.411-.752-2.973-1.3-4.384A14.015,14.015,0,0,0,58.638,30a12.789,12.789,0,0,1-1.149-1.965,1.363,1.363,0,0,1-.083-1.033.366.366,0,0,1,.292-.328c.272-.277,1.046.076,1.318.226a10.125,10.125,0,0,1,2.069,1.259c.293.252.607.731.983.857h.44c.669.176,1.421.05,2.048.277a12.558,12.558,0,0,1,3.011,1.739,21.384,21.384,0,0,1,6.522,8.617c.251.579.355,1.109.586,1.713.44,1.235.983,2.494,1.421,3.7a17.981,17.981,0,0,0,1.484,3.376c.314.529,1.568.806,2.132,1.083a13.608,13.608,0,0,1,1.443.705c.71.529,1.421,1.134,2.09,1.713.334.3,1.38.931,1.442,1.435Z" transform="translate(-0.78 0.198)" fill="#00678c" fill-rule="evenodd"/>
        <path id="Path_776" data-name="Path 776" d="M74.669,31.44a2.773,2.773,0,0,0-.857.126v.05h.041a8.071,8.071,0,0,0,.669,1.033c.167.4.314.806.481,1.21l.041-.05a1.56,1.56,0,0,0,.44-1.26c-.126-.176-.146-.353-.251-.529C75.108,31.768,74.836,31.642,74.669,31.44Z" transform="translate(-12.085 0.247)" fill="#00678c" fill-rule="evenodd"/>
        <path id="Path_777" data-name="Path 777" d="M48.138,71.956H56a5.117,5.117,0,0,0,2.509-.63,2.941,2.941,0,0,0,1.756-2.7V66.213a2.829,2.829,0,0,0-1.944-2.419A5.809,5.809,0,0,0,56,63.315H52.7c-1.108,0-1.631-.4-1.777-1.285a1.49,1.49,0,0,1-.021-.3V60.242a1.365,1.365,0,0,1,.021-.277c.146-.68.439-.857,1.4-.983h8.048V56.79H52.716a5.934,5.934,0,0,0-2.216.278,3.1,3.1,0,0,0-2.321,3.249v1.916c0,1.486,1.38,2.746,3.721,3.048.251.025.522.025.794.025h2.823a1.058,1.058,0,0,1,.292.025c.857.1,1.234.277,1.484.654a.852.852,0,0,1,.209.605v1.915a1.192,1.192,0,0,1-.376.781,1.746,1.746,0,0,1-1.171.453c-.1,0-.166.025-.272.025H48.138Zm29.142-3.8c0,2.242,1.4,3.5,4.2,3.754.272.025.522.05.794.05h7.108V69.765h-7.17c-1.59,0-2.2-.479-2.2-1.638V56.789H77.28V68.153h0ZM62,68.252v-7.81c0-1.991,1.17-3.2,3.45-3.578.251-.025.5-.051.731-.051h5.184c.272,0,.5.025.774.051,2.279.377,3.428,1.587,3.428,3.578v7.81c0,1.612-.48,2.469-1.61,3.049l2.676,2.922H73.475L71.3,71.856l-2.2.151H66.179a5.378,5.378,0,0,1-1.589-.251A3.374,3.374,0,0,1,62,68.252Zm2.948-.175a2.359,2.359,0,0,0,.063.328,1.73,1.73,0,0,0,1.944,1.411H69.42l-2.257-2.469h3.156L72.3,69.513a1.563,1.563,0,0,0,.69-1.059,1.7,1.7,0,0,0,.021-.328V60.644a1.463,1.463,0,0,0-.021-.3c-.146-.856-.857-1.334-1.923-1.334H66.953c-1.213,0-2.007.63-2.007,1.636Zm25.694,3.9h.4V70.143h.522v-.378H90.1v.378h.544v1.839Zm3.031,0h.376V69.765h-.564l-.46,1.512-.5-1.512h-.544v2.217h.355V70.294h.021l.522,1.687h.272l.522-1.687v1.687h0Z" transform="translate(-7.882 0.446)" fill="#ce8b2c" fill-rule="evenodd"/>
      </g>
    </g>
    <g id="Mask_Group_50" data-name="Mask Group 50" transform="translate(-584 1968)" clip-path="url(#clip-path-3)">
      <g id="adobe-xd-1" transform="translate(1091 1238.176)">
        <path id="Path_743" data-name="Path 743" d="M42.792,50.2H9.208A9.155,9.155,0,0,1,0,41.086V9.118A9.155,9.155,0,0,1,9.208,0H42.792A9.155,9.155,0,0,1,52,9.118V41.086A9.155,9.155,0,0,1,42.792,50.2Z" fill="#ff26be"/>
        <path id="Path_744" data-name="Path 744" d="M44.386,50.5H12.449a7.84,7.84,0,0,1-7.864-7.788V12.372a7.84,7.84,0,0,1,7.864-7.788H44.365a7.825,7.825,0,0,1,7.864,7.788V42.689A7.813,7.813,0,0,1,44.386,50.5Z" transform="translate(-2.417 -2.439)" fill="#2e001f"/>
        <path id="Path_745" data-name="Path 745" d="M31.388,37.366l6.067,11.542c.108.171.044.344-.131.344H33.553a.425.425,0,0,1-.456-.278c-1.387-2.832-2.8-5.664-4.247-8.71h-.044c-1.3,2.875-2.731,5.9-4.116,8.733a.419.419,0,0,1-.391.237H20.728c-.216,0-.239-.171-.129-.3l5.936-11.2L20.795,26.4a.173.173,0,0,1,.129-.3h3.727c.216,0,.3.043.389.237,1.364,2.832,2.752,5.751,4.052,8.6h.044c1.256-2.832,2.644-5.771,3.987-8.583.108-.171.173-.278.391-.278H37c.173,0,.239.13.131.3Zm7.13,3.5c0-5,3.359-8.9,8.688-8.9A9.645,9.645,0,0,1,48.334,32V26.318a.215.215,0,0,1,.216-.214h3.424c.173,0,.216.064.216.171v19.7a15.175,15.175,0,0,0,.108,2.1c0,.13-.044.171-.173.237a13,13,0,0,1-5.547,1.244c-4.7.019-8.062-2.855-8.06-8.692Zm9.813-5.491a3.286,3.286,0,0,0-1.256-.214c-2.731,0-4.636,2.08-4.636,5.536,0,3.948,1.951,5.536,4.4,5.536a4.1,4.1,0,0,0,1.5-.237V35.372Z" transform="translate(-10.827 -13.873)" fill="#ffd9f2"/>
      </g>
    </g>
    <g id="Mask_Group_53" data-name="Mask Group 53" transform="translate(-631 2050)" clip-path="url(#clip-path-4)">
      <g id="firebase-2" transform="translate(1006.88 1037)">
        <path id="Path_766" data-name="Path 766" d="M48.43,31.8l-9.364,6.981L30.373,24.742l4.49-8.075a2.358,2.358,0,0,1,4.126,0Z" transform="translate(-4.041 -4.728)" fill="#ffa000"/>
        <path id="Path_767" data-name="Path 767" d="M35.028,42.877,0,68.962,26.335,28.836Z" transform="translate(0 -8.822)" fill="#f57f17"/>
        <path id="Path_768" data-name="Path 768" d="M54.656,23.306c1.678-1.279,3.4-.848,3.841.969L67.6,66.693,37.4,81.211a16.977,16.977,0,0,1-3.868.66A17.294,17.294,0,0,1,30,81.19L0,67.045Z" transform="translate(0 -6.905)" fill="#ffca28"/>
        <path id="Path_769" data-name="Path 769" d="M26.335,20.016,0,60.142,11.737,1.493c.44-1.817,1.727-2,2.889-.392Z" transform="translate(0 -0.002)" fill="#ffa000"/>
      </g>
    </g>
    <g id="Group_1076" data-name="Group 1076" transform="translate(-649 1883)">
      <g id="mongodb" transform="translate(972 1412.329)">
        <path id="Path_758" data-name="Path 758" d="M104.205,14.336c-.107.044-.215.528-.215.792-.021,1.762-.043,6.432-.043,9.6,0,.088.064.264.129.264a16.64,16.64,0,0,0,1.761.088,2.581,2.581,0,0,0,1.761-.528c.773-.793,1.138-2.511,1.138-4.406,0-4.272-1.46-5.9-3.629-5.9a1.716,1.716,0,0,0-.9.088Zm5.54,19.691c0-4.361-1.568-6.784-4.4-6.784a6.108,6.108,0,0,0-1.246.044.326.326,0,0,0-.15.265c0,3.127-.022,8.106.043,10.044a4.62,4.62,0,0,0,.709,2.379,2.691,2.691,0,0,0,1.868.528c1.7,0,3.178-1.938,3.178-6.475Zm-9.92-22.114a22.872,22.872,0,0,0,2.512.132c1.568,0,2.813-.088,4.338-.088,1.868,0,4.445,1.365,4.445,7.092a8.272,8.272,0,0,1-2.233,6.168.1.1,0,0,0,0,.176c1.8.926,3.393,3.216,3.393,7.533,0,4.229-1.288,6.917-3.157,8.591a5.822,5.822,0,0,1-3.994,1.365c-1.1,0-4.037-.264-5.669-.176a4.526,4.526,0,0,1,.3-1.983,2.206,2.206,0,0,0,1.1-.353c.58-.308.644-.661.73-2.467.043-1.542.043-7,.043-10.881,0-5.33.022-8.943,0-10.7-.021-1.365-.258-1.806-.73-2.071-.365-.132-.966-.308-1.46-.44a5.218,5.218,0,0,1,.387-1.894Zm-12.39,27.4A2.815,2.815,0,0,0,89.862,40.5c1.159,0,2.319-.44,3.436-2.511,1.138-2.114,1.932-5.374,1.932-10.572,0-4.978-.923-9.031-2.813-11.41a4.866,4.866,0,0,0-4.037-1.938,1.739,1.739,0,0,0-1.2.308,1.8,1.8,0,0,0-.215.7c-.043.881-.043,7.665-.043,11.63,0,4.1,0,9.824.043,10.484a4.374,4.374,0,0,0,.472,2.115Zm-4.874-27.4c.408,0,1.976.132,2.727.132,1.353,0,2.319-.132,4.874-.132,2.147,0,3.951,1.189,5.239,3.436,1.567,2.775,2.384,6.608,2.384,11.277,0,6.652-1.482,10.485-2.964,12.687a7.037,7.037,0,0,1-6.163,3.568c-1.46,0-3.972-.088-6.055-.132h-.021a4.04,4.04,0,0,1,.343-1.982,2.026,2.026,0,0,0,.988-.4c.451-.353.537-.837.6-2.467.064-3.04.043-6.7.043-10.837,0-2.951.021-8.722-.022-10.573-.064-1.541-.386-1.938-1.031-2.2a7.677,7.677,0,0,0-1.353-.44,6.625,6.625,0,0,1,.408-1.938Z" transform="translate(6.721 14.43)" fill="#8e714e" fill-rule="evenodd"/>
        <path id="Path_759" data-name="Path 759" d="M61.844,35.416a2.818,2.818,0,0,1-1.4-.749,2.106,2.106,0,0,1-.172-.705c-.043-1.542-.043-5.947-.043-8.9a19.578,19.578,0,0,0-.687-5.9c-.58-1.675-1.417-2.643-2.491-2.643-.945,0-2.212,1.321-3.264,3.172-.021.044-.193.353-.172-.132,0-.485.043-1.454.064-2.115a1.9,1.9,0,0,0-.15-.925,9.228,9.228,0,0,1-3.328,1.761.994.994,0,0,0-.107,1.586h.021a4.433,4.433,0,0,1,1.267,1.146,2.413,2.413,0,0,1,.193,1.234c.021,3.3.021,8.37-.043,11.145-.021,1.1-.172,1.5-.558,1.674l.043-.044a4.862,4.862,0,0,1-.9.352,5.128,5.128,0,0,0,0,1.983c.236,0,1.482-.132,2.513-.132,1.417,0,2.147.132,2.512.132a5.67,5.67,0,0,0,.108-1.983,2.184,2.184,0,0,1-.988-.308c-.386-.177-.494-.572-.516-1.5-.043-2.335-.043-7.269-.043-10.617a3.67,3.67,0,0,1,.257-1.63,2.623,2.623,0,0,1,2-1.5,1.736,1.736,0,0,1,1.482,1.013,6.774,6.774,0,0,1,.687,2.775c.107,1.894.064,5.639.064,8.9,0,1.762-.064,2.2-.386,2.423a2.408,2.408,0,0,1-.988.4,5.137,5.137,0,0,0,0,1.983c.623,0,1.353-.132,2.426-.132,1.331,0,2.19.132,2.534.132a6.15,6.15,0,0,0,.064-1.895Zm5.948-16.827c-1.138,0-1.847,1.806-1.847,4.625,0,2.864.623,6.168,2.383,6.168a1.377,1.377,0,0,0,1.116-.881,10.134,10.134,0,0,0,.687-4.053c0-3.656-.881-5.859-2.341-5.859Zm-.15,19.47a1.239,1.239,0,0,0-.923.485,5.815,5.815,0,0,0-1.31,3.7,6.062,6.062,0,0,0,.752,3.171,2.836,2.836,0,0,0,2.577,1.63c2.19,0,3.157-2.423,3.157-4.8,0-1.675-.408-2.776-1.245-3.392A4.707,4.707,0,0,0,67.642,38.06Zm.15,11.454a3.422,3.422,0,0,1-3.071-1.85A8.823,8.823,0,0,1,63.584,43.3a5.853,5.853,0,0,1,.43-2.2,19.315,19.315,0,0,1,1.976-3.26.22.22,0,0,0,.064-.177.339.339,0,0,0-.086-.22,4.192,4.192,0,0,1-1.4-2.775V34.58a1.055,1.055,0,0,1,.129-.793c.15-.22.365-.485.6-.792a11.823,11.823,0,0,0,.988-1.322.568.568,0,0,0,.043-.264.338.338,0,0,0-.086-.22c-1.5-1.013-2.254-3.3-2.254-6.74a10.139,10.139,0,0,1,1.374-5.55,4.848,4.848,0,0,1,3.092-2.159h.064A4.019,4.019,0,0,1,70.884,17.8a2.208,2.208,0,0,0,1.4.44,1.611,1.611,0,0,0,1.5-1.145,4.6,4.6,0,0,1,.086.881A6.156,6.156,0,0,1,73.59,20a1.138,1.138,0,0,1-.945.837h-.108a2.64,2.64,0,0,1-.558-.177l-.086.088a.8.8,0,0,0,.021.308l.022.088c.043.4.129,1.585.129,1.894,0,3.612-.709,5.2-1.46,6.387a4.1,4.1,0,0,1-2.512,1.983,1.347,1.347,0,0,0-.3.044,1.885,1.885,0,0,0-.279.044h-.021a1.5,1.5,0,0,0-.6,1.277c0,.661.193,1.454,1.116,1.586.193.044.386.044.6.088a9.948,9.948,0,0,1,3.457.881c.988.749,1.61,2.555,1.61,4.714a11.713,11.713,0,0,1-3.028,8.194,4.217,4.217,0,0,1-2.856,1.278Zm12.239-30.7a1.381,1.381,0,0,0-1.159.66c-.837,1.057-1.267,3.172-1.267,6.255,0,5.771,1.417,9.824,3.436,9.824a1.724,1.724,0,0,0,1.482-1.057c.623-1.058.945-3.172.945-6.124,0-5.727-1.4-9.559-3.436-9.559Zm.387,18.854c-3.65,0-4.96-5.506-4.96-10.661,0-3.612.709-6.388,2.126-8.37a4.511,4.511,0,0,1,3.286-1.982c2.791,0,4.745,4.1,4.745,10,0,4.008-.773,7.18-2.255,9.119a4.345,4.345,0,0,1-2.942,1.894h0ZM42.154,18.809a1.382,1.382,0,0,0-1.16.661c-.837,1.057-1.267,3.172-1.267,6.255,0,5.771,1.417,9.824,3.436,9.824a1.725,1.725,0,0,0,1.482-1.057c.622-1.058.945-3.172.945-6.124,0-5.727-1.374-9.559-3.436-9.559Zm.386,18.855c-3.65,0-4.96-5.506-4.96-10.661,0-3.612.709-6.388,2.126-8.37a4.511,4.511,0,0,1,3.286-1.982c2.792,0,4.745,4.1,4.745,10,0,4.008-.773,7.18-2.255,9.119a4.256,4.256,0,0,1-2.942,1.894ZM18,37.223a3.707,3.707,0,0,1-.064-1.013A2.861,2.861,0,0,1,18,35.549a4.664,4.664,0,0,0,.945-.4c.43-.221.6-.7.623-1.806.065-2.643.065-7.666.043-11.146v-.088a2.234,2.234,0,0,0-.236-1.234,4.423,4.423,0,0,0-1.288-1.146.758.758,0,0,1,.108-1.277,10.046,10.046,0,0,0,3.285-1.718,1.927,1.927,0,0,1,.108.705l-.021.484c-.022.485-.043,1.058-.043,1.63,0,.176.086.308.172.308.043,0,.086-.044.129-.088,1.374-2.2,2.62-3,3.264-3,1.052,0,1.868,1.013,2.491,3.128.043.133.086.177.15.177a.158.158,0,0,0,.129-.132c1.267-1.983,2.534-3.172,3.371-3.172,2,0,3.178,3.04,3.178,8.194,0,1.454,0,3.348-.021,5.066,0,1.541-.021,2.951-.021,3.965,0,.22.15.925.386,1.057a2.907,2.907,0,0,0,1.246.617h.021a6.965,6.965,0,0,1-.129,1.674,2.6,2.6,0,0,1-.537-.044,15.509,15.509,0,0,0-1.632-.088,19.257,19.257,0,0,0-2.684.132,8.753,8.753,0,0,1,0-1.674,4.141,4.141,0,0,0,.816-.4c.43-.264.537-.661.558-1.806,0-.837.086-7.973-.043-9.692-.129-1.762-.773-3.832-2.19-3.832-.537,0-1.374.441-2.19,1.718a1.337,1.337,0,0,0-.086.441v.044c.086.925.086,1.983.086,3.612v2.863c0,1.983-.022,3.833,0,5.242,0,.97.279,1.19.515,1.366.129.043.215.088.322.132.193.088.386.177.687.308a4.811,4.811,0,0,1-.021,1.234,1.4,1.4,0,0,1-.086.441c-.73-.044-1.482-.088-2.577-.088-.322,0-.88.044-1.353.044-.387,0-.752.044-.966.044a4.577,4.577,0,0,1-.065-.881,2.581,2.581,0,0,1,.086-.793.782.782,0,0,1,.3-.088c.257-.088.472-.177.687-.264.365-.22.494-.617.515-1.586.064-2.2.129-8.5-.021-10.088-.258-2.555-.966-3.832-2.1-3.832-.665,0-1.5.661-2.19,1.719a2.388,2.388,0,0,0-.193,1.012v2.6c0,3.172,0,7.137.021,8.855.022.528.107,1.145.6,1.365a2.525,2.525,0,0,0,.494.177l.386.132a7.455,7.455,0,0,1-.064,1.674c-.215,0-.472-.044-.773-.044-.451-.044-1.031-.088-1.675-.088a15.9,15.9,0,0,0-1.718.088A2.575,2.575,0,0,0,18,37.223Z" transform="translate(1.455 20.045)" fill="#442d22" fill-rule="evenodd"/>
        <path id="Path_760" data-name="Path 760" d="M7.748,63.205l-.88-.617s.108-9.207-1.5-9.867c-1.073-2.555.172-108.369,4.037-.353a6.588,6.588,0,0,0-1.568,3.7,69.533,69.533,0,0,0-.086,7.137Z" transform="translate(0.409 4.636)" fill="#fff" fill-rule="evenodd"/>
        <path id="Path_761" data-name="Path 761" d="M7.748,63.205l-.88-.617s.108-9.207-1.5-9.867c-1.073-2.555.172-108.369,4.037-.353a6.588,6.588,0,0,0-1.568,3.7,69.533,69.533,0,0,0-.086,7.137Z" transform="translate(0.409 4.636)" fill="#a6a385" fill-rule="evenodd"/>
        <path id="Path_762" data-name="Path 762" d="M8.079,58.889s7.709-10.4,5.9-32.027C12.245,11.136,8.143,5.982,7.692,4A35.547,35.547,0,0,1,6.726.123l.322,43.743c0,.044-.666,13.392,1.031,15.023" transform="translate(0.55 0.053)" fill="#fff" fill-rule="evenodd"/>
        <path id="Path_763" data-name="Path 763" d="M8.079,58.889s7.709-10.4,5.9-32.027C12.245,11.136,8.143,5.982,7.692,4A35.547,35.547,0,0,1,6.726.123l.322,43.743c0,.044-.666,13.392,1.031,15.023" transform="translate(0.55 0.053)" fill="#499d4a" fill-rule="evenodd"/>
        <path id="Path_764" data-name="Path 764" d="M6.825,59.558S-.411,49.426.018,31.585C.426,13.744,5.537,4.978,6.525,3.392A6.743,6.743,0,0,0,7.233.044c.451,1.983.365,29.647.429,32.907C7.856,45.505,7.319,57.18,6.825,59.558Z" transform="translate(0 -0.044)" fill="#fff" fill-rule="evenodd"/>
        <path id="Path_765" data-name="Path 765" d="M6.825,59.558S-.411,49.426.018,31.585C.426,13.744,5.537,4.978,6.525,3.392A6.743,6.743,0,0,0,7.233.044c.451,1.983.365,29.647.429,32.907C7.856,45.505,7.319,57.18,6.825,59.558Z" transform="translate(0 -0.044)" fill="#58aa50" fill-rule="evenodd"/>
      </g>
    </g>
    <g id="Mask_Group_49" data-name="Mask Group 49" transform="translate(-577 1922)" clip-path="url(#clip-path-5)">
      <g id="python-5" transform="translate(828.94 1167)">
        <path id="Path_741" data-name="Path 741" d="M35.336.031C17.3.031,18.423,8.782,18.423,8.782l.02,9.066H35.658V20.57H11.605S.062,19.106.062,39.467s10.075,19.64,10.075,19.64H16.15V49.658s-.324-11.271,9.915-11.271H43.139s9.593.173,9.593-10.371V10.582S54.189.031,35.336.031Zm-9.492,6.1a2.937,2.937,0,0,1,2.191,1.014,3.766,3.766,0,0,1,0,4.9,2.874,2.874,0,0,1-4.381,0,3.766,3.766,0,0,1,0-4.9A2.937,2.937,0,0,1,25.844,6.128Z" transform="translate(-0.062 -0.031)" fill="url(#linear-gradient)"/>
        <path id="Path_742" data-name="Path 742" d="M45.54,86.422c18.04,0,16.913-8.751,16.913-8.751l-.02-9.066H45.218V65.883H69.271s11.544,1.464,11.544-18.9S70.739,27.346,70.739,27.346H64.726v9.448s.324,11.271-9.915,11.271H37.737s-9.593-.173-9.593,10.371V75.871s-1.457,10.551,17.4,10.551Zm9.492-6.1a2.937,2.937,0,0,1-2.191-1.014,3.767,3.767,0,0,1,0-4.9,2.874,2.874,0,0,1,4.381,0,3.766,3.766,0,0,1,0,4.9,2.937,2.937,0,0,1-2.191,1.014Z" transform="translate(-9.754 -7.345)" fill="url(#linear-gradient-2)"/>
      </g>
    </g>
    <g id="Mask_Group_51" data-name="Mask Group 51" transform="translate(-403 1884)" clip-path="url(#clip-path-6)">
      <g id="nodejs-1" transform="translate(573 1335.429)">
        <path id="Path_746" data-name="Path 746" d="M52.378,60.842a1.932,1.932,0,0,1-.864-.208l-2.736-1.491c-.411-.208-.206-.283-.082-.321a5.221,5.221,0,0,0,1.234-.51.2.2,0,0,1,.206.019l2.1,1.152a.282.282,0,0,0,.247,0l8.207-4.361a.214.214,0,0,0,.124-.208v-8.7A.214.214,0,0,0,60.689,46l-8.207-4.342a.281.281,0,0,0-.247,0L44.027,46a.233.233,0,0,0-.124.208v8.7a.233.233,0,0,0,.124.208l2.242,1.189c1.214.566,1.975-.094,1.975-.755v-8.59a.24.24,0,0,1,.247-.227H49.54a.241.241,0,0,1,.247.227v8.59a2.183,2.183,0,0,1-2.427,2.36,3.781,3.781,0,0,1-1.892-.472l-2.16-1.133a1.574,1.574,0,0,1-.864-1.378v-8.7a1.574,1.574,0,0,1,.864-1.378l8.207-4.361a1.982,1.982,0,0,1,1.728,0l8.207,4.361a1.574,1.574,0,0,1,.864,1.378v8.7a1.574,1.574,0,0,1-.864,1.378l-8.207,4.361a2.265,2.265,0,0,1-.864.17Zm2.53-5.984c-3.6,0-4.34-1.51-4.34-2.794a.24.24,0,0,1,.247-.227h1.07a.205.205,0,0,1,.226.189c.165,1,.638,1.491,2.818,1.491,1.728,0,2.469-.359,2.469-1.208,0-.491-.206-.849-2.9-1.095-2.242-.208-3.641-.661-3.641-2.3,0-1.529,1.4-2.435,3.744-2.435,2.633,0,3.929.831,4.093,2.643a.288.288,0,0,1-.062.17.263.263,0,0,1-.165.075H57.4a.237.237,0,0,1-.226-.17c-.247-1.038-.885-1.378-2.571-1.378-1.892,0-2.119.6-2.119,1.057,0,.548.267.717,2.818,1.019,2.53.3,3.723.736,3.723,2.36C59,53.914,57.521,54.857,54.909,54.857Z" transform="translate(-7.372 -9.7)" fill="#539e43"/>
        <path id="Path_747" data-name="Path 747" d="M19.591,17.1a.951.951,0,0,0-.535-.831l-8.721-4.606a1.351,1.351,0,0,0-.473-.132H9.779a1.041,1.041,0,0,0-.473.132L.585,16.273A.951.951,0,0,0,.05,17.1L.07,29.488a.465.465,0,0,0,.267.415.5.5,0,0,0,.514,0l5.184-2.719a.951.951,0,0,0,.535-.831v-5.8a.951.951,0,0,1,.535-.831l2.2-1.171a1.066,1.066,0,0,1,.535-.132.944.944,0,0,1,.514.132l2.2,1.171a.95.95,0,0,1,.535.831v5.8a.951.951,0,0,0,.535.831L18.809,29.9a.54.54,0,0,0,.535,0,.465.465,0,0,0,.267-.415ZM61.512.057a.611.611,0,0,0-.514,0,.487.487,0,0,0-.267.415V12.743a.357.357,0,0,1-.185.3.425.425,0,0,1-.37,0l-2.18-1.152a1.143,1.143,0,0,0-1.049,0l-8.721,4.625a.951.951,0,0,0-.535.831v9.232a.951.951,0,0,0,.535.831l8.721,4.625a1.143,1.143,0,0,0,1.049,0l8.722-4.625a.951.951,0,0,0,.535-.831V3.568a.957.957,0,0,0-.535-.85L61.512.057Zm-.8,23.485a.214.214,0,0,1-.124.208L57.6,25.335a.33.33,0,0,1-.267,0l-2.983-1.586a.233.233,0,0,1-.124-.208V20.37a.214.214,0,0,1,.124-.208l2.983-1.586a.33.33,0,0,1,.267,0l2.983,1.586a.232.232,0,0,1,.124.208v3.172Zm29.826-3.247a.93.93,0,0,0,.514-.831V17.217a.97.97,0,0,0-.514-.831l-8.66-4.606a1.143,1.143,0,0,0-1.049,0l-8.722,4.625a.951.951,0,0,0-.535.831v9.232a.951.951,0,0,0,.535.831l8.66,4.531a1.1,1.1,0,0,0,1.029,0l5.245-2.68a.456.456,0,0,0,0-.831l-8.763-4.625a.487.487,0,0,1-.267-.415V20.389a.465.465,0,0,1,.267-.415l2.736-1.435a.54.54,0,0,1,.535,0l2.736,1.435a.487.487,0,0,1,.268.415v2.265a.465.465,0,0,0,.267.415.54.54,0,0,0,.535,0l5.184-2.775Z" transform="translate(-0.05 0)" fill="#333"/>
        <path id="Path_748" data-name="Path 748" d="M97.8,26.148a.2.2,0,0,1,.206,0l1.666.887a.2.2,0,0,1,.1.17V28.98a.2.2,0,0,1-.1.17L98,30.037a.2.2,0,0,1-.206,0l-1.666-.887a.2.2,0,0,1-.1-.17V27.206a.2.2,0,0,1,.1-.17Z" transform="translate(-16.627 -6.288)" fill="#539e43"/>
        <g id="Group_1075" data-name="Group 1075" transform="translate(23.82 10.138)">
          <path id="Path_749" data-name="Path 749" d="M10.322.358a1.143,1.143,0,0,0-1.049,0L.614,4.945A.93.93,0,0,0,.1,5.775v9.194a.97.97,0,0,0,.514.831l8.66,4.587a1.143,1.143,0,0,0,1.049,0l8.66-4.587a.931.931,0,0,0,.514-.831V5.776a.97.97,0,0,0-.514-.831Z" transform="translate(-0.017 1.323)" fill="url(#linear-gradient-3)"/>
          <g id="Group_1073" data-name="Group 1073" transform="translate(0 1.55)">
            <path id="Path_750" data-name="Path 750" d="M9.236.357.555,4.944A.973.973,0,0,0,0,5.775v9.194a.871.871,0,0,0,.267.6L10.017.243a1.268,1.268,0,0,0-.782.113Zm.843,20.124a1.33,1.33,0,0,0,.247-.094l8.68-4.587a.951.951,0,0,0,.535-.831V5.775a.925.925,0,0,0-.309-.661L10.079,20.481Z" transform="translate(0 -0.226)" fill="none"/>
            <path id="Path_751" data-name="Path 751" d="M19.042,4.955,10.341.368a1.509,1.509,0,0,0-.267-.094L.323,15.6a1.063,1.063,0,0,0,.288.227l8.7,4.587a1.081,1.081,0,0,0,.8.094L19.268,5.144a1.052,1.052,0,0,0-.226-.189Z" transform="translate(-0.056 -0.238)" fill="url(#linear-gradient-4)"/>
          </g>
          <g id="Group_1074" data-name="Group 1074" transform="translate(0 0)">
            <path id="Path_752" data-name="Path 752" d="M19.541,14.974V5.78a.972.972,0,0,0-.555-.831L10.284.362A.96.96,0,0,0,9.956.249l9.524,14.933a.358.358,0,0,0,.062-.208ZM.555,4.949A.973.973,0,0,0,0,5.78v9.194a1.014,1.014,0,0,0,.555.831l8.7,4.587a1.042,1.042,0,0,0,.679.113L.617,4.93l-.062.019Z" transform="translate(0 1.318)" fill="none"/>
            <path id="Path_753" data-name="Path 753" d="M10.815.174l-.123.057h.164Z" transform="translate(-1.847 -0.174)" fill-rule="evenodd" fill="url(#linear-gradient-5)"/>
            <path id="Path_754" data-name="Path 754" d="M19.131,17.788a1.093,1.093,0,0,0,.514-.6L10.1,2.232a1.125,1.125,0,0,0-.74.113L.721,6.914l9.318,15.594a1.528,1.528,0,0,0,.391-.113l8.7-4.606Z" transform="translate(-0.125 -0.665)" fill-rule="evenodd" fill="url(#linear-gradient-6)"/>
            <path id="Path_755" data-name="Path 755" d="M23.932,22.5,23.87,22.4v.132l.062-.038Z" transform="translate(-4.123 -5.525)" fill-rule="evenodd" fill="url(#linear-gradient-7)"/>
            <path id="Path_756" data-name="Path 756" d="M21.081,22.528,12.4,27.116a1.322,1.322,0,0,1-.391.113l.165.283L21.8,22.4v-.113l-.247-.378a.882.882,0,0,1-.473.623Z" transform="translate(-2.074 -5.406)" fill-rule="evenodd" fill="url(#linear-gradient-8)"/>
            <path id="Path_757" data-name="Path 757" d="M21.081,22.528,12.4,27.116a1.322,1.322,0,0,1-.391.113l.165.283L21.8,22.4v-.113l-.247-.378a.882.882,0,0,1-.473.623Z" transform="translate(-2.074 -5.406)" fill-rule="evenodd" fill="url(#linear-gradient-9)"/>
          </g>
        </g>
      </g>
    </g>
    <g id="Mask_Group_56" data-name="Mask Group 56" transform="translate(-522 1555)" clip-path="url(#clip-path-7)">
      <g id="react" transform="translate(1013 1538.152)">
        <path id="Path_778" data-name="Path 778" d="M.43,32.75c0,5.446,5.6,10.53,14.44,13.4-1.764,8.429-.316,15.222,4.521,17.87,4.972,2.721,12.379.838,19.41-4.994,6.853,5.6,13.779,7.8,18.612,5.144,4.968-2.729,6.478-9.983,4.665-18.675,9.2-2.887,14.351-7.222,14.351-12.74,0-5.32-5.615-9.922-14.332-12.77,1.952-9.051.3-15.68-4.74-18.436C52.5-1.114,45.5,1.2,38.541,6.945c-7.235-6.1-14.172-7.956-19.2-5.192C14.484,4.418,13.1,11.336,14.87,19.92,6.332,22.745.43,27.451.43,32.75Z" transform="translate(-0.43 -0.447)" fill="#fff"/>
        <path id="Path_779" data-name="Path 779" d="M64.181,26.741q-1.078-.351-2.173-.65.182-.7.336-1.406c1.645-7.576.569-13.679-3.1-15.688-3.521-1.927-9.279.082-15.1,4.885q-.86.711-1.681,1.463-.55-.5-1.118-.98c-6.1-5.135-12.2-7.3-15.873-5.284-3.518,1.932-4.559,7.67-3.079,14.849q.221,1.066.5,2.121c-.864.233-1.7.481-2.5.745-7.146,2.364-11.709,6.069-11.709,9.912,0,3.969,4.9,7.951,12.342,10.364q.905.292,1.825.541-.3,1.136-.53,2.287c-1.412,7.055-.309,12.656,3.2,14.577,3.624,1.983,9.705-.055,15.627-4.967q.7-.582,1.408-1.232.889.814,1.825,1.58c5.736,4.684,11.4,6.575,14.907,4.65,3.62-1.989,4.8-8.006,3.269-15.328q-.175-.839-.4-1.712.641-.179,1.255-.372c7.738-2.432,12.772-6.365,12.772-10.388,0-3.857-4.711-7.587-12-9.968Z" transform="translate(-4.359 -4.38)" fill="#53c1de"/>
        <path id="Path_780" data-name="Path 780" d="M65.12,47.258c-.369.116-.748.228-1.134.336a62.332,62.332,0,0,0-3.418-8.113,62.244,62.244,0,0,0,3.285-8c.69.19,1.361.39,2.006.6,6.246,2.04,10.056,5.057,10.056,7.381,0,2.476-4.115,5.69-10.8,7.791ZM62.349,52.47a22.007,22.007,0,0,1,.324,8.453c-.4,2.056-1.21,3.427-2.21,3.976-2.127,1.168-6.676-.35-11.581-4.356q-.844-.689-1.7-1.468a64.933,64.933,0,0,0,5.658-6.817,70.677,70.677,0,0,0,9.141-1.337q.206.791.365,1.549ZM34.315,64.7c-2.078.7-3.733.716-4.734.169-2.129-1.165-3.014-5.663-1.807-11.7q.215-1.069.493-2.126a71.223,71.223,0,0,0,9.1,1.249,67.376,67.376,0,0,0,5.794,6.792q-.628.577-1.286,1.124A24.668,24.668,0,0,1,34.315,64.7ZM24.579,47.243a24.871,24.871,0,0,1-7.872-3.968c-1.674-1.361-2.519-2.711-2.519-3.807,0-2.332,3.664-5.307,9.775-7.328q1.151-.379,2.323-.694a63.608,63.608,0,0,0,3.29,8.089,64.571,64.571,0,0,0-3.331,8.2q-.839-.228-1.666-.495Zm3.264-21.079c-1.269-6.152-.426-10.792,1.694-11.956,2.258-1.24,7.251.528,12.514,4.962q.5.425,1.013.887a66.343,66.343,0,0,0-5.75,6.752,73.978,73.978,0,0,0-9.007,1.328q-.258-.981-.464-1.973Zm29.114,6.822q-.99-1.622-2.052-3.2c2.154.258,4.217.6,6.154,1.021a56.5,56.5,0,0,1-2.16,5.515q-.936-1.685-1.942-3.333ZM45.084,22.012a59.316,59.316,0,0,1,3.972,4.55q-3.986-.179-7.977,0C42.39,24.919,43.733,23.395,45.084,22.012ZM33.135,33q-.993,1.635-1.905,3.312a58.426,58.426,0,0,1-2.145-5.542c1.926-.409,3.979-.743,6.119-1Q34.13,31.367,33.135,33Zm2.131,16.35c-2.21-.234-4.3-.551-6.22-.949a59.364,59.364,0,0,1,2.188-5.654q.916,1.678,1.914,3.314,1.018,1.668,2.119,3.289Zm9.9,7.763c-1.367-1.4-2.73-2.947-4.061-4.612q1.938.072,3.949.073,2.064,0,4.074-.086A58.9,58.9,0,0,1,45.164,57.116ZM58.926,42.652a56.3,56.3,0,0,1,2.267,5.634c-1.957.424-4.07.765-6.3,1.018q1.07-1.61,2.072-3.259,1.018-1.676,1.957-3.393Zm-4.455,2.027q-1.534,2.528-3.238,4.957c-2,.136-4.072.206-6.181.206s-4.143-.062-6.111-.183q-1.748-2.422-3.3-4.965-1.543-2.527-2.88-5.16Q34.1,36.9,35.634,34.37h0q1.537-2.53,3.273-4.944c2.007-.144,4.065-.219,6.146-.219s4.151.076,6.157.221q1.717,2.408,3.252,4.927t2.91,5.139q-1.352,2.64-2.9,5.184Zm5.948-30.553c2.26,1.237,3.139,6.225,1.719,12.766q-.14.639-.3,1.273a72.519,72.519,0,0,0-9.025-1.353A65,65,0,0,0,47.1,20.055q.758-.694,1.552-1.351C53.64,14.589,58.3,12.965,60.419,14.126Z" transform="translate(-6.977 -7.139)" fill="#fff"/>
        <path id="Path_781" data-name="Path 781" d="M67.6,53.95a5.727,5.727,0,1,1-6.027,5.719A5.879,5.879,0,0,1,67.6,53.95" transform="translate(-29.526 -27.34)" fill="#53c1de"/>
      </g>
    </g>
    <g id="Mask_Group_54" data-name="Mask Group 54" transform="translate(-692 1726)" clip-path="url(#clip-path-8)">
      <g id="postgresql" transform="translate(1092.383 1476)">
        <path id="Path_770" data-name="Path 770" d="M55.21,32.169a2.769,2.769,0,0,0-2.326-1.759,5.667,5.667,0,0,0-1.856.1,17.72,17.72,0,0,1-2.86.353,50.109,50.109,0,0,0,5.84-13.039c1.938-7.042.9-10.251-.308-11.7C50.5,2.278,45.825.214,40.188.151a25.394,25.394,0,0,0-7.024.924A27.812,27.812,0,0,0,29.058.722,14.047,14.047,0,0,0,21.9,2.376a34.367,34.367,0,0,0-5.053-1.19C11.91.424,7.929,1.018,5.016,2.949,1.49,5.287-.145,9.35.157,15.024a65.705,65.705,0,0,0,2.86,12.481A41.581,41.581,0,0,0,6.1,34.881c1.52,2.7,3.146,4.295,4.972,4.867a5.135,5.135,0,0,0,4.838-.985,4.166,4.166,0,0,0,1.017.822,7.013,7.013,0,0,0,1.919.759,10.938,10.938,0,0,0,6.71-.375c.012.327.021.64.029.91.013.438.026.867.043,1.269a20.955,20.955,0,0,0,.9,6.3c.032.081.075.205.12.336a7.472,7.472,0,0,0,2.015,3.332A6.247,6.247,0,0,0,32.908,53.6a10.152,10.152,0,0,0,1.987-.207c2.124-.427,4.536-1.078,6.281-3.41,1.65-2.2,2.452-5.525,2.6-10.758.019-.148.036-.289.053-.424l.035-.277.389.032.1.006a16.275,16.275,0,0,0,6.433-1.046c1.284-.559,5.4-2.6,4.428-5.35" transform="translate(-0.122 -0.149)"/>
        <path id="Path_771" data-name="Path 771" d="M53.654,34.994c-6.432,1.245-6.874-.8-6.874-.8,6.791-9.459,9.63-21.466,7.18-24.4C47.276,1.775,35.707,5.566,35.514,5.665l-.062.011a24.384,24.384,0,0,0-4.291-.42,11.084,11.084,0,0,0-6.793,1.909S3.727-.817,4.688,17.2c.2,3.833,5.853,29.005,12.591,21.4,2.463-2.78,4.842-5.131,4.842-5.131a6.56,6.56,0,0,0,4.08.978l.115-.092a3.964,3.964,0,0,0,.046,1.082c-1.736,1.82-1.226,2.14-4.7,2.811-3.511.679-1.449,1.888-.1,2.2,1.633.383,5.41.926,7.962-2.428l-.1.383c.68.511,1.158,3.326,1.077,5.878s-.133,4.3.4,5.672,1.07,4.447,5.632,3.53c3.811-.767,5.787-2.754,6.062-6.068.195-2.356.636-2.008.664-4.114l.354-1c.408-3.194.065-4.225,2.413-3.745l.571.047a13.77,13.77,0,0,0,5.318-.84c2.859-1.245,4.554-3.325,1.735-2.778h0" transform="translate(-2.265 -2.44)" fill="#336791"/>
        <path id="Path_772" data-name="Path 772" d="M42.912,33.028a2.109,2.109,0,0,0-1.37.183.468.468,0,0,0-.208.314.885.885,0,0,0,.237.6,1.811,1.811,0,0,0,1.137.666,1.378,1.378,0,0,0,.182.012,1.47,1.47,0,0,0,1.4-.892c.07-.474-.663-.79-1.374-.883m19.2.015c-.055-.372-.76-.478-1.429-.39s-1.315.37-1.261.743a1.354,1.354,0,0,0,1.26.784,1.282,1.282,0,0,0,.169-.011,1.653,1.653,0,0,0,.917-.471.926.926,0,0,0,.344-.655" transform="translate(-19.602 -16.551)" fill="#fff"/>
        <path id="Path_773" data-name="Path 773" d="M55.039,34.013c-.245-.7-1.035-.92-2.346-.666-3.894.754-5.289.232-5.746-.085a48.793,48.793,0,0,0,6.86-14.442,25.884,25.884,0,0,0,1.017-6.21,6.39,6.39,0,0,0-1.036-4.2c-2.9-3.477-7.153-5.341-12.3-5.393a22.316,22.316,0,0,0-7.111,1.052,18.824,18.824,0,0,0-4-.482,12.126,12.126,0,0,0-6.857,1.774A32.208,32.208,0,0,0,17.943,4c-4.514-.682-8.1-.165-10.661,1.537C4.227,7.564,2.817,11.2,3.09,16.325A64.153,64.153,0,0,0,5.883,28.444c2.176,6.692,4.542,10.481,7.031,11.26a3.336,3.336,0,0,0,1,.155,4.251,4.251,0,0,0,3.179-1.691q2.119-2.386,4.382-4.654a7.421,7.421,0,0,0,3.153.8c0,.027,0,.054.008.081q-.284.318-.556.645c-.762.908-.92,1.1-3.372,1.571-.7.135-2.55.494-2.577,1.712-.029,1.332,2.19,1.891,2.443,1.95a11.108,11.108,0,0,0,2.54.309A7.675,7.675,0,0,0,28.2,38.795c-.043,4.748.168,9.426.776,10.851a5.72,5.72,0,0,0,5.551,4.018,9.462,9.462,0,0,0,1.865-.2c4.006-.806,5.745-2.468,6.418-6.132.36-1.958.978-6.634,1.269-9.142a8.333,8.333,0,0,0,2.257.262,14.2,14.2,0,0,0,5.123-.916c1.447-.631,4.059-2.179,3.585-3.524ZM45.5,17.066a14.312,14.312,0,0,1-.237,2.114,18.374,18.374,0,0,0-.284,2.482,17.687,17.687,0,0,0,.209,2.807c.24,1.872.486,3.8-.466,5.7a7.229,7.229,0,0,1-.422-.814c-.118-.269-.375-.7-.731-1.3-1.384-2.33-4.625-7.786-2.966-10.012.494-.663,1.748-1.344,4.9-.977ZM41.684,4.522c4.614.1,8.264,1.716,10.848,4.815,1.982,2.377-.2,13.2-6.519,22.528l-.192-.227-.08-.094c1.633-2.531,1.313-5.035,1.029-7.255a16.351,16.351,0,0,1-.2-2.58,17.2,17.2,0,0,1,.266-2.3,13.669,13.669,0,0,0,.249-2.85,1.111,1.111,0,0,0,.026-.4,15.659,15.659,0,0,0-3.888-6.864,17.44,17.44,0,0,0-6.18-4.361,22.154,22.154,0,0,1,4.637-.409ZM15.865,37.212c-1.276,1.44-2.157,1.164-2.447,1.074-1.888-.591-4.079-4.337-6.011-10.277A63.574,63.574,0,0,1,4.682,16.25c-.244-4.584.94-7.778,3.518-9.495,4.2-2.793,11.1-1.121,13.869-.273-.04.037-.081.071-.121.109-4.55,4.313-4.442,11.681-4.43,12.132,0,.174.015.42.036.758a28.628,28.628,0,0,1-.165,6.158,7.486,7.486,0,0,0,2.187,6.519q.27.264.566.5c-.779.784-2.474,2.517-4.277,4.553Zm4.862-6.089a6.056,6.056,0,0,1-1.759-5.276,29.929,29.929,0,0,0,.178-6.454c-.011-.181-.022-.339-.027-.464.665-.553,3.745-2.1,5.941-1.63a2.33,2.33,0,0,1,1.867,1.958c1.314,5.705.174,8.083-.742,9.994-.189.394-.367.766-.519,1.151l-.118.3a18.681,18.681,0,0,0-.749,2.116,5.847,5.847,0,0,1-4.07-1.693Zm.23,7.694a3.645,3.645,0,0,1-1.063-.429,5.445,5.445,0,0,1,1.133-.317c2.884-.557,3.33-.951,4.3-2.11.223-.266.476-.567.826-.934h0c.521-.548.76-.455,1.193-.287a1.606,1.606,0,0,1,.831,1,1.056,1.056,0,0,1-.1.938C26.045,39.351,23.084,39.316,20.957,38.817ZM36.053,52c-3.529.71-4.778-.98-5.6-2.912-.531-1.247-.793-6.872-.607-13.084a.706.706,0,0,0-.034-.238,2.97,2.97,0,0,0-.1-.439,3.091,3.091,0,0,0-1.753-1.973,2.616,2.616,0,0,0-1.613-.183,17.526,17.526,0,0,1,.695-1.952l.119-.3c.134-.338.3-.687.479-1.058.959-2,2.272-4.738.847-10.924-.534-2.317-2.316-3.449-5.018-3.186a12.123,12.123,0,0,0-3.841,1.123c-.159.076-.3.149-.44.22.206-2.335.986-6.7,3.9-9.458a9.938,9.938,0,0,1,7.26-2.55A15.754,15.754,0,0,1,42.1,10.363a16.515,16.515,0,0,1,3.217,5.179c-2.975-.284-5,.267-6.024,1.644-2.231,2.994,1.221,8.805,2.88,11.6.3.512.567.954.649,1.142a10.3,10.3,0,0,0,1.75,2.649c.157.184.308.362.424.517-.9.244-2.519.807-2.372,3.623-.119,1.413-.965,8.028-1.395,10.366-.567,3.088-1.778,4.238-5.181,4.923ZM50.783,36.181a12.275,12.275,0,0,1-3.928.767,5.212,5.212,0,0,1-2.635-.319c-.091-1.755.6-1.938,1.341-2.132.116-.03.229-.06.338-.1.068.052.142.1.223.153,1.3.806,3.619.892,6.894.258l.036-.007a8.887,8.887,0,0,1-2.269,1.375Z" transform="translate(-1.509 -1.6)" fill="#fff"/>
      </g>
    </g>
  </g>
</svg>
