<svg xmlns="http://www.w3.org/2000/svg" xmlns:xlink="http://www.w3.org/1999/xlink" width="65" height="50" viewBox="0 0 65 50">
  <defs>
    <clipPath id="clip-path">
      <rect id="Rectangle_1152" data-name="Rectangle 1152" width="65" height="50" transform="translate(-0.314 0.35)" fill="#fff" stroke="#707070" stroke-width="1"/>
    </clipPath>
    <linearGradient id="linear-gradient" x1="0.421" y1="0.5" x2="1.665" y2="0.5" gradientUnits="objectBoundingBox">
      <stop offset="0.001" stop-color="#fff0d5"/>
      <stop offset="0.511" stop-color="#ffdfff"/>
      <stop offset="1" stop-color="#d9ceff"/>
    </linearGradient>
  </defs>
  <g id="Mask_Group_67" data-name="Mask Group 67" transform="translate(0.314 -0.35)" clip-path="url(#clip-path)">
    <g id="_018-login" data-name="018-login" transform="translate(0 0.135)">
      <path id="Path_974" data-name="Path 974" d="M51.314,18.971a13.357,13.357,0,0,1-7.034-5.62A15.446,15.446,0,0,0,30.928,6.044a15.385,15.385,0,0,0-13.636,7.808,13.662,13.662,0,0,1-7.3,6.245A15.591,15.591,0,0,0,.1,32.106a5.3,5.3,0,0,0,0,2.079A15.69,15.69,0,0,0,18.119,47.039a14.874,14.874,0,0,1,11.812,3.422c6.465,5.563,16.829,7.307,26.89,1.344a13.419,13.419,0,0,0,3.515-3.254c8.669-12.507,2.247-25.522-9.022-29.581Z" transform="translate(0 -5.73)" fill="url(#linear-gradient)"/>
      <path id="Path_975" data-name="Path 975" d="M58.155,14.226V43.759A1.819,1.819,0,0,1,56.27,45.5H9.76a1.819,1.819,0,0,1-1.886-1.742V14.226A1.819,1.819,0,0,1,9.76,12.483H56.27a1.819,1.819,0,0,1,1.886,1.742Z" transform="translate(-0.836 -6.85)" fill="#590bb2" opacity="0.1"/>
      <path id="Path_976" data-name="Path 976" d="M42.282,63.434H28.025L30.876,52.99h8.555Z" transform="translate(-2.974 -13.898)" fill="#afabc6"/>
      <path id="Path_977" data-name="Path 977" d="M40.645,56.626H30.1L31.1,52.99h8.555Z" transform="translate(-3.195 -13.898)" fill="#8e8ca8"/>
      <path id="Path_978" data-name="Path 978" d="M58.155,17.179V46.712a1.819,1.819,0,0,1-1.886,1.742H9.76a1.819,1.819,0,0,1-1.886-1.742V17.179A1.819,1.819,0,0,1,9.76,15.437H56.27A1.819,1.819,0,0,1,58.155,17.179Z" transform="translate(-0.836 -7.364)" fill="#f5f4f9"/>
      <path id="Path_979" data-name="Path 979" d="M56.994,44.483h-26.9V26.6a.364.364,0,0,1,.377-.348H56.616a.364.364,0,0,1,.377.348Z" transform="translate(-3.194 -9.246)" fill="#e8e6ed"/>
      <path id="Path_980" data-name="Path 980" d="M56.994,28.706h-26.9V26.6a.364.364,0,0,1,.377-.348H56.616a.364.364,0,0,1,.377.348Z" transform="translate(-3.194 -9.246)" fill="#fdd250"/>
      <path id="Path_981" data-name="Path 981" d="M58.155,21.032V17.179a1.818,1.818,0,0,0-1.886-1.742H9.76a1.818,1.818,0,0,0-1.886,1.742v3.853Z" transform="translate(-0.836 -7.364)" fill="#ffa052"/>
      <path id="Path_982" data-name="Path 982" d="M7.875,48.323v4.111A1.818,1.818,0,0,0,9.76,54.176H56.27a1.818,1.818,0,0,0,1.886-1.742V48.323Z" transform="translate(-0.836 -13.086)" fill="#cecae0"/>
      <g id="Group_1098" data-name="Group 1098" transform="translate(6.411 7.492)">
        <path id="Path_983" data-name="Path 983" d="M13.156,18.11a.606.606,0,0,0-.629.581v.017a.63.63,0,0,0,1.257,0v-.017A.606.606,0,0,0,13.156,18.11Z" transform="translate(-7.74 -15.321)" fill="#590bb2"/>
        <path id="Path_984" data-name="Path 984" d="M15.873,18.11a.606.606,0,0,0-.629.581v.017a.63.63,0,0,0,1.257,0v-.017A.606.606,0,0,0,15.873,18.11Z" transform="translate(-8.029 -15.321)" fill="#590bb2"/>
        <path id="Path_985" data-name="Path 985" d="M18.591,18.11a.606.606,0,0,0-.629.581v.017a.63.63,0,0,0,1.257,0v-.017A.606.606,0,0,0,18.591,18.11Z" transform="translate(-8.317 -15.321)" fill="#590bb2"/>
        <path id="Path_986" data-name="Path 986" d="M56.195,14.733H9.686a2.427,2.427,0,0,0-2.514,2.323V20.91a.606.606,0,0,0,.629.581H57.452V41.9H8.429V24.109a.63.63,0,0,0-1.257,0V46.59a2.427,2.427,0,0,0,2.514,2.323H27.311L25.322,56.2H23.4a.583.583,0,1,0,0,1.162h2.416a.621.621,0,0,0,.609-.439l2.186-8.006h8.666L39.262,56.2H29.274a.583.583,0,1,0,0,1.162H42.485a.583.583,0,1,0,0-1.162H40.558L38.57,48.913H56.195a2.427,2.427,0,0,0,2.514-2.323V17.057a2.427,2.427,0,0,0-2.514-2.323Zm-47.766,5.6V17.057a1.214,1.214,0,0,1,1.257-1.162H56.195a1.214,1.214,0,0,1,1.257,1.162v3.272ZM56.195,47.751H9.686A1.214,1.214,0,0,1,8.429,46.59V43.06H57.452v3.53A1.214,1.214,0,0,1,56.195,47.751Z" transform="translate(-7.172 -14.733)" fill="#590bb2"/>
      </g>
      <ellipse id="Ellipse_34" data-name="Ellipse 34" cx="5.046" cy="4.663" rx="5.046" ry="4.663" transform="translate(12.938 16.949)" fill="#fdd250"/>
      <path id="Path_987" data-name="Path 987" d="M21.959,30.6a2.095,2.095,0,0,0-4.177,0,1.851,1.851,0,0,0,.6,1.349,1.851,1.851,0,0,0-.6,1.349.63.63,0,0,0,1.257,0,.834.834,0,0,1,1.663,0,.63.63,0,0,0,1.257,0,1.851,1.851,0,0,0-.6-1.349,1.85,1.85,0,0,0,.6-1.349Zm-2.088-.768a.77.77,0,1,1-.831.768A.8.8,0,0,1,19.871,29.837Z" transform="translate(-1.887 -9.667)" fill="#f5f4f9"/>
      <path id="Path_988" data-name="Path 988" d="M52.055,35.35H35.883a1.651,1.651,0,1,1,0-3.293H52.055a1.651,1.651,0,1,1,0,3.293Z" transform="translate(-3.619 -10.256)" fill="#f5f4f9"/>
      <ellipse id="Ellipse_35" data-name="Ellipse 35" cx="0.703" cy="0.649" rx="0.703" ry="0.649" transform="translate(37.522 22.824)" fill="#c182f9"/>
      <ellipse id="Ellipse_36" data-name="Ellipse 36" cx="0.703" cy="0.649" rx="0.703" ry="0.649" transform="translate(39.647 22.824)" fill="#c182f9"/>
      <ellipse id="Ellipse_37" data-name="Ellipse 37" cx="0.703" cy="0.649" rx="0.703" ry="0.649" transform="translate(41.773 22.824)" fill="#c182f9"/>
      <path id="Path_989" data-name="Path 989" d="M52.055,40.9H35.883a1.651,1.651,0,1,1,0-3.293H52.055a1.651,1.651,0,1,1,0,3.293Z" transform="translate(-3.619 -11.222)" fill="#f5f4f9"/>
      <ellipse id="Ellipse_38" data-name="Ellipse 38" cx="0.703" cy="0.649" rx="0.703" ry="0.649" transform="translate(37.522 27.412)" fill="#c182f9"/>
      <ellipse id="Ellipse_39" data-name="Ellipse 39" cx="0.703" cy="0.649" rx="0.703" ry="0.649" transform="translate(39.647 27.412)" fill="#c182f9"/>
      <ellipse id="Ellipse_40" data-name="Ellipse 40" cx="0.703" cy="0.649" rx="0.703" ry="0.649" transform="translate(41.773 27.412)" fill="#c182f9"/>
      <path id="Path_990" data-name="Path 990" d="M47.3,45.365H42.328a.364.364,0,0,1-.377-.348V43.681a.364.364,0,0,1,.377-.348H47.3a.364.364,0,0,1,.377.348v1.336A.364.364,0,0,1,47.3,45.365Z" transform="translate(-4.452 -12.217)" fill="#ffa052"/>
      <path id="Path_991" data-name="Path 991" d="M23.73,40.826H15.36a.6.6,0,1,1,0-1.19h8.37a.6.6,0,1,1,0,1.19Z" transform="translate(-1.562 -11.574)" fill="#ddd9e4"/>
      <path id="Path_992" data-name="Path 992" d="M21.736,43.5H17.892a.6.6,0,1,1,0-1.19h3.845a.6.6,0,1,1,0,1.19Z" transform="translate(-1.83 -12.039)" fill="#c182f9"/>
      <path id="Path_993" data-name="Path 993" d="M52.385,62.973a.654.654,0,0,1-.444-.17l-1.382-1.277a.55.55,0,0,1,0-.821l1.382-1.277a.665.665,0,0,1,.889,0L54.211,60.7a.55.55,0,0,1,0,.821L52.829,62.8A.653.653,0,0,1,52.385,62.973Zm-.493-1.858.493.456.493-.456-.493-.456Z" transform="translate(-5.346 -14.988)" fill="#ffa052"/>
      <path id="Path_994" data-name="Path 994" d="M18.247,12.638a.654.654,0,0,1-.444-.17L16.42,11.191a.55.55,0,0,1,0-.821L17.8,9.093a.665.665,0,0,1,.889,0l1.382,1.277a.55.55,0,0,1,0,.821l-1.382,1.277A.653.653,0,0,1,18.247,12.638Zm-.493-1.858.493.456.493-.456-.493-.456Z" transform="translate(-1.723 -6.231)" fill="#ffa052"/>
      <path id="Path_995" data-name="Path 995" d="M25.282,9.379a.654.654,0,0,1-.444-.17L23.456,7.932a.55.55,0,0,1,0-.821l1.382-1.277a.665.665,0,0,1,.889,0l1.382,1.277a.55.55,0,0,1,0,.821L25.726,9.209A.653.653,0,0,1,25.282,9.379Zm-.493-1.858.493.456.493-.456-.493-.456Z" transform="translate(-2.47 -5.664)" fill="#c182f9"/>
      <path id="Path_996" data-name="Path 996" d="M57.49,10.152a.606.606,0,0,1-.629-.581.73.73,0,0,0-.756-.7.583.583,0,1,1,0-1.162.73.73,0,0,0,.756-.7.63.63,0,0,1,1.257,0,.73.73,0,0,0,.756.7.583.583,0,1,1,0,1.162.73.73,0,0,0-.756.7A.606.606,0,0,1,57.49,10.152Z" transform="translate(-5.888 -5.797)" fill="#ffe783"/>
    </g>
  </g>
</svg>
