<svg xmlns="http://www.w3.org/2000/svg" xmlns:xlink="http://www.w3.org/1999/xlink" width="150" height="150" viewBox="0 0 150 150">
  <defs>
    <clipPath id="clip-path">
      <rect id="Rectangle_1200" data-name="Rectangle 1200" width="150" height="150" transform="translate(232 3540)" fill="#fff" stroke="#707070" stroke-width="1"/>
    </clipPath>
    <clipPath id="clip-path-2">
      <rect id="Rectangle_1151" data-name="Rectangle 1151" width="150" height="132.787" fill="#fff" stroke="#707070" stroke-width="3.721"/>
    </clipPath>
    <linearGradient id="linear-gradient" x1="0.404" y1="0.5" x2="1.567" y2="0.5" gradientUnits="objectBoundingBox">
      <stop offset="0.001" stop-color="#fff0d5"/>
      <stop offset="0.511" stop-color="#ffdfff"/>
      <stop offset="1" stop-color="#d9ceff"/>
    </linearGradient>
  </defs>
  <g id="Mask_Group_81" data-name="Mask Group 81" transform="translate(-232 -3540)" clip-path="url(#clip-path)">
    <g id="Mask_Group_66" data-name="Mask Group 66" transform="translate(232 3548.607)" clip-path="url(#clip-path-2)">
      <g id="_003-maintenance" data-name="003-maintenance" transform="translate(3.477 0)">
        <path id="Path_956" data-name="Path 956" d="M106.666,58.607h-.16a30.9,30.9,0,0,1-23.277-10.6,47.474,47.474,0,1,0-15.275,74.041A15.838,15.838,0,0,1,84.4,123.773,36.315,36.315,0,1,0,106.68,58.609Z" transform="translate(0.164 -15.781)" fill="url(#linear-gradient)"/>
        <path id="Path_957" data-name="Path 957" d="M163.247,106.049l-8.407-2.4a33.5,33.5,0,0,0-3.894-9.393l4.254-7.64a1.667,1.667,0,0,0-.289-1.989l-5.747-5.747a1.668,1.668,0,0,0-1.987-.278l-7.64,4.254a33.512,33.512,0,0,0-9.394-3.893l-2.4-8.407a1.664,1.664,0,0,0-1.6-1.21h-8.119a1.665,1.665,0,0,0-1.6,1.21l-2.4,8.407a33.493,33.493,0,0,0-9.393,3.893L97,78.606a1.666,1.666,0,0,0-1.986.278l-5.757,5.747a1.668,1.668,0,0,0-.278,1.987l4.255,7.64a33.525,33.525,0,0,0-3.893,9.393l-8.407,2.4a1.664,1.664,0,0,0-1.21,1.6v8.115a1.664,1.664,0,0,0,1.21,1.6l8.407,2.4a33.525,33.525,0,0,0,3.893,9.393l-4.255,7.64a1.668,1.668,0,0,0,.278,1.987L95,144.53a1.668,1.668,0,0,0,1.987.278l7.64-4.254a33.508,33.508,0,0,0,9.394,3.893l2.4,8.422a1.665,1.665,0,0,0,1.6,1.21h8.114a1.664,1.664,0,0,0,1.6-1.21l2.4-8.407a33.511,33.511,0,0,0,9.394-3.893l7.64,4.254a1.668,1.668,0,0,0,1.987-.278l5.747-5.747a1.666,1.666,0,0,0,.277-1.987l-4.255-7.64a33.5,33.5,0,0,0,3.894-9.393l8.407-2.4a1.668,1.668,0,0,0,1.211-1.6v-8.115a1.668,1.668,0,0,0-1.211-1.6Zm-41.154,26.52a20.855,20.855,0,1,1,20.854-20.855A20.855,20.855,0,0,1,122.093,132.569Z" transform="translate(-26.934 -28.545)" fill="#590bb2" opacity="0.1"/>
        <path id="Path_958" data-name="Path 958" d="M53.3,95.266l-4.529-1.293a18.1,18.1,0,0,0-2.1-5.073l2.3-4.126a.9.9,0,0,0-.15-1.075l-3.1-3.1a.9.9,0,0,0-1.075-.15l-4.126,2.3a18.093,18.093,0,0,0-5.073-2.1L34.142,76.1a.9.9,0,0,0-.866-.654h-4.4a.9.9,0,0,0-.866.654l-1.293,4.54a18.092,18.092,0,0,0-5.073,2.1l-4.126-2.3a.9.9,0,0,0-1.075.15L13.358,83.7a.9.9,0,0,0-.15,1.075l2.3,4.126a18.093,18.093,0,0,0-2.1,5.073L8.863,95.268a.9.9,0,0,0-.654.866v4.384a.9.9,0,0,0,.654.866l4.54,1.294a18.093,18.093,0,0,0,2.1,5.073l-2.3,4.126a.9.9,0,0,0,.15,1.075l3.1,3.1a.9.9,0,0,0,1.075.15l4.126-2.3a18.1,18.1,0,0,0,5.073,2.1l1.294,4.539a.9.9,0,0,0,.866.654h4.382a.9.9,0,0,0,.866-.654l1.294-4.539a18.1,18.1,0,0,0,5.073-2.1l4.126,2.3a.9.9,0,0,0,1.075-.15l3.1-3.1a.9.9,0,0,0,.15-1.075l-2.3-4.126a18.088,18.088,0,0,0,2.1-5.073l4.539-1.293a.9.9,0,0,0,.654-.866V96.131a.9.9,0,0,0-.654-.866ZM31.063,105.51a7.2,7.2,0,1,1,7.2-7.2A7.2,7.2,0,0,1,31.063,105.51Z" transform="translate(-2.676 -30.613)" fill="#590bb2" opacity="0.1"/>
        <path id="Path_959" data-name="Path 959" d="M97.708,28.938l-4.888-1.392a19.483,19.483,0,0,0-2.265-5.461l2.474-4.443a.982.982,0,0,0-.162-1.156l-3.342-3.334a.984.984,0,0,0-1.156-.162l-4.444,2.466a19.473,19.473,0,0,0-5.461-2.265L77.072,8.3a.969.969,0,0,0-.932-.7H71.414a.969.969,0,0,0-.932.7L69.09,13.191a19.482,19.482,0,0,0-5.461,2.265l-4.446-2.474a.983.983,0,0,0-1.155.162l-3.342,3.342a.984.984,0,0,0-.162,1.156L57,22.085a19.483,19.483,0,0,0-2.265,5.461l-4.889,1.392a.969.969,0,0,0-.7.932v4.724a.969.969,0,0,0,.7.932l4.889,1.392A19.483,19.483,0,0,0,57,42.379l-2.474,4.443a.984.984,0,0,0,.162,1.156l3.342,3.342a.983.983,0,0,0,1.155.162l4.454-2.471A19.47,19.47,0,0,0,69.1,51.276l1.392,4.889a.968.968,0,0,0,.932.7h4.724a.968.968,0,0,0,.932-.7l1.387-4.9A19.474,19.474,0,0,0,83.925,49l4.444,2.474a.984.984,0,0,0,1.156-.162l3.342-3.342a.982.982,0,0,0,.162-1.156l-2.474-4.443a19.483,19.483,0,0,0,2.265-5.461l4.888-1.392a.969.969,0,0,0,.7-.932V29.873a.969.969,0,0,0-.7-.932ZM73.777,41.816a9.59,9.59,0,1,1,9.59-9.59A9.59,9.59,0,0,1,73.777,41.816Z" transform="translate(-16.561 -7.599)" fill="#590bb2" opacity="0.1"/>
        <path id="Path_960" data-name="Path 960" d="M163.247,114.919l-8.407-2.4a33.5,33.5,0,0,0-3.894-9.393l4.254-7.64a1.666,1.666,0,0,0-.289-1.987l-5.735-5.737a1.666,1.666,0,0,0-1.986-.278l-7.64,4.254a33.511,33.511,0,0,0-9.394-3.893l-2.4-8.407a1.664,1.664,0,0,0-1.6-1.21h-8.132a1.665,1.665,0,0,0-1.6,1.21l-2.4,8.407a33.493,33.493,0,0,0-9.393,3.893l-7.641-4.254a1.667,1.667,0,0,0-1.986.278L89.255,93.5a1.668,1.668,0,0,0-.278,1.987l4.255,7.64a33.524,33.524,0,0,0-3.893,9.393l-8.407,2.4a1.664,1.664,0,0,0-1.21,1.6v8.115a1.664,1.664,0,0,0,1.21,1.6l8.407,2.4a33.525,33.525,0,0,0,3.893,9.393l-4.255,7.64a1.668,1.668,0,0,0,.278,1.987l5.757,5.766A1.666,1.666,0,0,0,97,153.7l7.64-4.254a33.513,33.513,0,0,0,9.395,3.893l2.395,8.407a1.665,1.665,0,0,0,1.6,1.21h8.114a1.664,1.664,0,0,0,1.6-1.21l2.4-8.407a33.51,33.51,0,0,0,9.394-3.893l7.64,4.254a1.668,1.668,0,0,0,1.987-.278l5.747-5.754a1.666,1.666,0,0,0,.277-1.987l-4.255-7.64a33.5,33.5,0,0,0,3.894-9.393l8.407-2.4a1.668,1.668,0,0,0,1.211-1.6v-8.115a1.668,1.668,0,0,0-1.211-1.6Zm-41.154,26.52a20.855,20.855,0,1,1,20.854-20.855A20.855,20.855,0,0,1,122.093,141.44Z" transform="translate(-26.934 -31.559)" fill="#d6b0ff"/>
        <path id="Path_961" data-name="Path 961" d="M53.3,104.131l-4.529-1.291a18.1,18.1,0,0,0-2.1-5.073l2.3-4.126a.9.9,0,0,0-.15-1.075l-3.1-3.1a.9.9,0,0,0-1.075-.15l-4.126,2.3a18.1,18.1,0,0,0-5.073-2.1l-1.294-4.539a.9.9,0,0,0-.866-.654h-4.4a.9.9,0,0,0-.866.654L26.721,89.51a18.093,18.093,0,0,0-5.073,2.1l-4.126-2.3a.9.9,0,0,0-1.075.15l-3.089,3.1a.9.9,0,0,0-.15,1.075l2.3,4.126a18.092,18.092,0,0,0-2.1,5.073l-4.539,1.293a.9.9,0,0,0-.654.866v4.387a.9.9,0,0,0,.654.866l4.54,1.293a18.093,18.093,0,0,0,2.1,5.073l-2.3,4.126a.9.9,0,0,0,.15,1.075l3.091,3.1a.9.9,0,0,0,1.075.15l4.126-2.289a18.092,18.092,0,0,0,5.073,2.1l1.291,4.537a.9.9,0,0,0,.866.654h4.4a.9.9,0,0,0,.858-.654l1.294-4.539a18.094,18.094,0,0,0,5.073-2.1l4.126,2.3a.9.9,0,0,0,1.075-.15l3.1-3.1a.9.9,0,0,0,.15-1.075l-2.3-4.126a18.091,18.091,0,0,0,2.11-5.078l4.539-1.293a.9.9,0,0,0,.654-.866V105a.9.9,0,0,0-.654-.866ZM31.063,114.388a7.2,7.2,0,1,1,7.2-7.2A7.2,7.2,0,0,1,31.063,114.388Z" transform="translate(-2.676 -33.621)" fill="#ffa052"/>
        <path id="Path_962" data-name="Path 962" d="M97.708,37.8l-4.888-1.392a19.483,19.483,0,0,0-2.265-5.461L93.028,26.5a.982.982,0,0,0-.162-1.156l-3.342-3.337a.984.984,0,0,0-1.156-.162L83.925,24.32a19.478,19.478,0,0,0-5.461-2.26l-1.395-4.893a.968.968,0,0,0-.932-.7H71.414a.969.969,0,0,0-.932.7L69.088,22.06a19.479,19.479,0,0,0-5.462,2.265l-4.444-2.479a.983.983,0,0,0-1.155.162L54.685,25.35a.984.984,0,0,0-.162,1.156L57,30.949a19.483,19.483,0,0,0-2.265,5.461L49.843,37.8a.969.969,0,0,0-.7.932v4.719a.969.969,0,0,0,.7.932l4.889,1.392A19.466,19.466,0,0,0,57,51.248l-2.474,4.443a.984.984,0,0,0,.162,1.156l3.342,3.342a.983.983,0,0,0,1.155.162l4.454-2.474A19.471,19.471,0,0,0,69.1,60.143l1.392,4.889a.968.968,0,0,0,.932.7h4.724a.968.968,0,0,0,.932-.7l1.392-4.888a19.479,19.479,0,0,0,5.462-2.265l4.443,2.474a.984.984,0,0,0,1.156-.162l3.342-3.342a.984.984,0,0,0,.162-1.156l-2.479-4.443a19.483,19.483,0,0,0,2.265-5.461L97.708,44.4a.969.969,0,0,0,.7-.932V38.737a.969.969,0,0,0-.7-.932ZM73.777,50.675a9.59,9.59,0,1,1,9.59-9.59,9.59,9.59,0,0,1-9.59,9.59Z" transform="translate(-16.561 -10.606)" fill="#ffe783"/>
        <g id="Group_1095" data-name="Group 1095" transform="translate(4.126 4.458)">
          <path id="Path_963" data-name="Path 963" d="M125.448,163.626h-8.129a3.074,3.074,0,0,1-2.951-2.213l-2.177-7.638a34.847,34.847,0,0,1-8.291-3.443L96.958,154.2a3.075,3.075,0,0,1-3.639-.511l-5.755-5.752a3.075,3.075,0,0,1-.511-3.652l3.865-6.944a34.855,34.855,0,0,1-3.442-8.292l-7.626-2.164a3.073,3.073,0,0,1-2.212-2.951v-8.115a3.073,3.073,0,0,1,2.212-2.951l7.641-2.176a34.857,34.857,0,0,1,3.442-8.292L87.072,95.45a3.08,3.08,0,0,1,.512-3.652l5.747-5.747a3.075,3.075,0,0,1,3.652-.511l6.944,3.866a34.831,34.831,0,0,1,8.291-3.443l2.177-7.638a3.072,3.072,0,0,1,2.95-2.213h8.115a3.072,3.072,0,0,1,2.95,2.213l2.177,7.638a34.858,34.858,0,0,1,8.292,3.443l6.941-3.866a3.076,3.076,0,0,1,3.651.511L155.22,91.8a3.077,3.077,0,0,1,.512,3.652l-3.883,6.942a34.856,34.856,0,0,1,3.442,8.292l7.638,2.176h0a3.074,3.074,0,0,1,2.213,2.951v8.115a3.073,3.073,0,0,1-2.213,2.951l-7.638,2.176a34.86,34.86,0,0,1-3.442,8.292l3.866,6.942a3.08,3.08,0,0,1-.512,3.652l-5.747,5.749a3.075,3.075,0,0,1-3.652.511l-6.944-3.866a34.832,34.832,0,0,1-8.291,3.443l-2.184,7.628a3.077,3.077,0,0,1-2.951,2.213Zm-21.516-16.3a1.4,1.4,0,0,1,.723.2,32.071,32.071,0,0,0,9,3.73,1.4,1.4,0,0,1,1.009.984l2.395,8.407a.271.271,0,0,0,.261.2h8.114a.271.271,0,0,0,.264-.2l2.395-8.407a1.4,1.4,0,0,1,1.009-.984,32.057,32.057,0,0,0,9.015-3.718,1.394,1.394,0,0,1,1.4-.027l7.641,4.254a.273.273,0,0,0,.322-.047l5.739-5.757a.276.276,0,0,0,.045-.325L149.011,138a1.4,1.4,0,0,1,.027-1.4,32.073,32.073,0,0,0,3.729-9,1.4,1.4,0,0,1,.984-1.008l8.406-2.4a.269.269,0,0,0,.2-.261v-8.115a.269.269,0,0,0-.2-.263l-8.406-2.4a1.4,1.4,0,0,1-.984-1.008,32.071,32.071,0,0,0-3.728-9.012,1.4,1.4,0,0,1-.027-1.4l4.255-7.64a.272.272,0,0,0-.047-.322l-5.737-5.742a.272.272,0,0,0-.324-.044l-7.641,4.254a1.394,1.394,0,0,1-1.4-.027,32.085,32.085,0,0,0-9-3.74,1.4,1.4,0,0,1-1.009-.984l-2.394-8.407a.273.273,0,0,0-.264-.2h-8.137a.271.271,0,0,0-.261.2l-2.4,8.407a1.4,1.4,0,0,1-1.008.984,32.069,32.069,0,0,0-9,3.738,1.394,1.394,0,0,1-1.4.027l-7.641-4.254a.273.273,0,0,0-.322.047L89.532,93.77a.273.273,0,0,0-.045.325l4.255,7.64a1.4,1.4,0,0,1-.027,1.4,32.1,32.1,0,0,0-3.721,8.993,1.394,1.394,0,0,1-.984,1.008l-8.406,2.4a.271.271,0,0,0-.2.263v8.115a.27.27,0,0,0,.2.261l8.406,2.4a1.394,1.394,0,0,1,.984,1.008,32.049,32.049,0,0,0,3.731,9,1.4,1.4,0,0,1,.026,1.4l-4.254,7.64a.272.272,0,0,0,.047.322l5.746,5.779a.273.273,0,0,0,.324.044l7.641-4.254a1.389,1.389,0,0,1,.679-.177Zm17.459-5.211a22.247,22.247,0,0,1-18.549-34.532,1.395,1.395,0,0,1,2.324,1.542,19.485,19.485,0,1,0,4.986-5.139,1.394,1.394,0,1,1-1.612-2.275,22.247,22.247,0,1,1,12.851,40.407Z" transform="translate(-30.354 -35.297)" fill="#590bb2"/>
          <path id="Path_964" data-name="Path 964" d="M32.554,130.747h-4.4a2.3,2.3,0,0,1-2.213-1.667l-1.077-3.78a19.48,19.48,0,0,1-3.959-1.64l-3.443,1.913a2.307,2.307,0,0,1-2.739-.384l-3.088-3.1a2.3,2.3,0,0,1-.384-2.727l1.913-3.443a19.455,19.455,0,0,1-1.64-3.959l-3.779-1.082a2.3,2.3,0,0,1-1.667-2.213v-4.382a2.3,2.3,0,0,1,1.667-2.213l3.779-1.077a19.456,19.456,0,0,1,1.64-3.959l-1.913-3.443a2.3,2.3,0,0,1,.384-2.739l3.1-3.089a2.306,2.306,0,0,1,2.737-.384l3.443,1.913a19.457,19.457,0,0,1,3.959-1.64l1.077-3.779A2.3,2.3,0,0,1,28.17,82.2h4.384a2.3,2.3,0,0,1,2.213,1.667l1.077,3.78a19.471,19.471,0,0,1,3.959,1.64l3.443-1.913a2.307,2.307,0,0,1,2.737.381l3.1,3.1A2.3,2.3,0,0,1,49.47,93.6l-1.913,3.443A19.459,19.459,0,0,1,49.2,101l3.779,1.077a2.3,2.3,0,0,1,1.667,2.213v4.387a2.3,2.3,0,0,1-1.667,2.213L49.2,111.968a19.479,19.479,0,0,1-1.64,3.959l1.913,3.443a2.3,2.3,0,0,1-.384,2.739l-3.123,3.079a2.3,2.3,0,0,1-2.737.384l-3.443-1.913a19.467,19.467,0,0,1-3.959,1.64l-1.077,3.78a2.3,2.3,0,0,1-2.213,1.667Zm-4.023-2.781h3.642l1.19-4.18a1.394,1.394,0,0,1,1.008-.984,16.682,16.682,0,0,0,4.672-1.94,1.394,1.394,0,0,1,1.4-.027l3.8,2.115,2.572-2.572-2.115-3.8a1.394,1.394,0,0,1,.027-1.4,16.684,16.684,0,0,0,1.94-4.672,1.4,1.4,0,0,1,.984-1.008l4.18-1.19v-3.652l-4.18-1.19a1.394,1.394,0,0,1-.984-1.008,16.68,16.68,0,0,0-1.94-4.672,1.394,1.394,0,0,1-.027-1.4l2.115-3.8L44.254,90l-3.8,2.115a1.394,1.394,0,0,1-1.4-.027,16.678,16.678,0,0,0-4.672-1.94,1.394,1.394,0,0,1-1.008-.984l-1.19-4.18H28.531l-1.19,4.18a1.394,1.394,0,0,1-1.008.984,16.676,16.676,0,0,0-4.672,1.94,1.394,1.394,0,0,1-1.4.027L16.46,90l-2.594,2.575,2.115,3.8a1.394,1.394,0,0,1-.027,1.4,16.686,16.686,0,0,0-1.94,4.672,1.394,1.394,0,0,1-.984,1.008l-4.18,1.19v3.649l4.18,1.19a1.394,1.394,0,0,1,.984,1.008,16.677,16.677,0,0,0,1.94,4.672,1.394,1.394,0,0,1,.027,1.4l-2.115,3.811,2.575,2.575,3.819-2.117a1.4,1.4,0,0,1,1.4.027,16.681,16.681,0,0,0,4.672,1.94,1.394,1.394,0,0,1,1.008.984Zm23.661-23.2Zm0,0Z" transform="translate(-6.081 -37.364)" fill="#590bb2"/>
          <path id="Path_965" data-name="Path 965" d="M38.395,123.117A8.589,8.589,0,1,1,47,114.528a8.589,8.589,0,0,1-8.606,8.589Zm0-14.39a5.8,5.8,0,1,0,5.8,5.8,5.8,5.8,0,0,0-5.8-5.8Z" transform="translate(-14.134 -45.415)" fill="#590bb2"/>
          <path id="Path_966" data-name="Path 966" d="M75.422,66.41H70.7a2.373,2.373,0,0,1-2.274-1.721l-1.175-4.126a20.846,20.846,0,0,1-4.353-1.8l-3.75,2.088a2.375,2.375,0,0,1-2.82-.393l-3.342-3.342a2.373,2.373,0,0,1-.391-2.82l2.088-3.752a20.836,20.836,0,0,1-1.8-4.352l-4.126-1.175a2.373,2.373,0,0,1-1.722-2.275V38.019a2.373,2.373,0,0,1,1.722-2.275l4.126-1.175a20.81,20.81,0,0,1,1.8-4.352l-2.088-3.75a2.376,2.376,0,0,1,.394-2.82L56.328,20.3a2.375,2.375,0,0,1,2.818-.4L62.9,22a20.848,20.848,0,0,1,4.352-1.8l1.175-4.126A2.374,2.374,0,0,1,70.7,14.346h4.724A2.373,2.373,0,0,1,77.7,16.067l1.175,4.126A20.841,20.841,0,0,1,83.227,22l3.75-2.088a2.375,2.375,0,0,1,2.82.393l3.342,3.342a2.374,2.374,0,0,1,.4,2.818l-2.09,3.755a20.835,20.835,0,0,1,1.8,4.352l4.126,1.175A2.373,2.373,0,0,1,99.1,38.019v4.716a2.373,2.373,0,0,1-1.721,2.275l-4.126,1.175a20.835,20.835,0,0,1-1.8,4.352l2.087,3.75a2.375,2.375,0,0,1-.393,2.82L89.8,60.45a2.375,2.375,0,0,1-2.818.4l-3.752-2.088a20.842,20.842,0,0,1-4.353,1.8L77.7,64.687a2.373,2.373,0,0,1-2.274,1.721Zm-4.4-2.789H75.1l1.3-4.579a1.394,1.394,0,0,1,1.008-.984,18.081,18.081,0,0,0,5.071-2.1,1.393,1.393,0,0,1,1.4-.027l4.161,2.316,2.887-2.887L88.615,51.2a1.394,1.394,0,0,1,.027-1.4,18.107,18.107,0,0,0,2.1-5.071,1.4,1.4,0,0,1,.984-1.008l4.579-1.3V38.333l-4.579-1.3a1.4,1.4,0,0,1-.984-1.008,18.107,18.107,0,0,0-2.1-5.07,1.394,1.394,0,0,1-.027-1.4l2.316-4.161L88.049,22.5l-4.161,2.316a1.4,1.4,0,0,1-1.4-.027,18.073,18.073,0,0,0-5.07-2.1,1.394,1.394,0,0,1-1.008-.984l-1.3-4.581H71.022l-1.3,4.579a1.4,1.4,0,0,1-1.008.984,18.068,18.068,0,0,0-5.078,2.1,1.4,1.4,0,0,1-1.4.027l-4.161-2.316-2.887,2.9L57.5,29.552a1.394,1.394,0,0,1-.027,1.4,18.094,18.094,0,0,0-2.1,5.07,1.393,1.393,0,0,1-.983,1.008l-4.579,1.3v4.082l4.579,1.3a1.393,1.393,0,0,1,.983,1.008,18.081,18.081,0,0,0,2.1,5.07,1.394,1.394,0,0,1,.027,1.4l-2.316,4.161,2.887,2.887,4.161-2.316a1.4,1.4,0,0,1,1.4.027,18.061,18.061,0,0,0,5.07,2.1,1.4,1.4,0,0,1,1.008.984Zm2.041-12.263a10.91,10.91,0,0,1-4.237-.853,1.395,1.395,0,0,1,1.08-2.572,8.178,8.178,0,1,0-4.527-4.743,1.4,1.4,0,1,1-2.622.957,10.98,10.98,0,1,1,10.313,7.212Z" transform="translate(-19.971 -14.346)" fill="#590bb2"/>
        </g>
        <path id="Path_967" data-name="Path 967" d="M131.555,144.621a1.385,1.385,0,0,1-.982-.408l-3.354-3.352a1.4,1.4,0,0,1,0-1.967l3.354-3.352a1.392,1.392,0,1,1,1.967,1.967l-2.369,2.368,2.369,2.368a1.392,1.392,0,0,1-.984,2.378Z" transform="translate(-42.907 -50.848)" fill="#9526dd"/>
        <path id="Path_968" data-name="Path 968" d="M152.977,144.653a1.391,1.391,0,0,1-.984-2.378l2.369-2.368-2.369-2.368a1.392,1.392,0,0,1,1.969-1.967l3.35,3.352a1.391,1.391,0,0,1,0,1.967l-3.35,3.354A1.394,1.394,0,0,1,152.977,144.653Z" transform="translate(-51.309 -50.881)" fill="#9526dd"/>
        <path id="Path_969" data-name="Path 969" d="M140.266,144.63a1.392,1.392,0,0,1-1.211-2.078l3.785-6.716a1.392,1.392,0,1,1,2.424,1.37l-3.783,6.7A1.392,1.392,0,0,1,140.266,144.63Z" transform="translate(-46.999 -50.858)" fill="#9526dd"/>
        <path id="Path_970" data-name="Path 970" d="M62.283,169.378a1.391,1.391,0,0,1-.983-.408L58.217,165.9a1.393,1.393,0,0,1,0-1.967l3.068-3.069a1.394,1.394,0,0,1,1.967,0l3.079,3.064a1.393,1.393,0,0,1,0,1.967L63.27,168.97a1.391,1.391,0,0,1-.983.408Zm-1.1-4.463,1.1,1.1,1.1-1.1-1.1-1.1Z" transform="translate(-19.502 -59.45)" fill="#c182f9"/>
        <path id="Path_971" data-name="Path 971" d="M146.523,58.029a1.4,1.4,0,0,1-1.395-1.394,1.673,1.673,0,0,0-1.674-1.675,1.394,1.394,0,1,1,0-2.789,1.673,1.673,0,0,0,1.674-1.675,1.395,1.395,0,0,1,2.789,0,1.675,1.675,0,0,0,1.674,1.675,1.394,1.394,0,1,1,0,2.789,1.675,1.675,0,0,0-1.674,1.675A1.394,1.394,0,0,1,146.523,58.029Z" transform="translate(-48.079 -21.677)" fill="#ffe783"/>
        <path id="Path_972" data-name="Path 972" d="M75.139,190.307a1.394,1.394,0,0,1-1.395-1.394,1.675,1.675,0,0,0-1.675-1.675,1.394,1.394,0,0,1,0-2.789,1.675,1.675,0,0,0,1.675-1.675,1.394,1.394,0,1,1,2.788,0,1.675,1.675,0,0,0,1.675,1.675,1.394,1.394,0,1,1,0,2.789,1.675,1.675,0,0,0-1.675,1.675A1.394,1.394,0,0,1,75.139,190.307Z" transform="translate(-23.866 -66.547)" fill="#ffa052"/>
        <path id="Path_973" data-name="Path 973" d="M29.63,68.434a1.394,1.394,0,0,1-1.394-1.394,1.675,1.675,0,0,0-1.675-1.675,1.394,1.394,0,1,1,0-2.789A1.675,1.675,0,0,0,28.236,60.9a1.394,1.394,0,0,1,2.789,0A1.674,1.674,0,0,0,32.7,62.576a1.394,1.394,0,1,1,0,2.789,1.674,1.674,0,0,0-1.675,1.675A1.394,1.394,0,0,1,29.63,68.434Z" transform="translate(-8.429 -25.207)" fill="#ffa052"/>
      </g>
    </g>
  </g>
</svg>
