<svg xmlns="http://www.w3.org/2000/svg" xmlns:xlink="http://www.w3.org/1999/xlink" width="65" height="50" viewBox="0 0 65 50">
  <defs>
    <clipPath id="clip-path">
      <rect id="Rectangle_1156" data-name="Rectangle 1156" width="65" height="50" transform="translate(-0.177 0.187)" fill="#fff" stroke="#707070" stroke-width="1"/>
    </clipPath>
    <linearGradient id="linear-gradient" x1="0.421" y1="0.5" x2="1.665" y2="0.5" gradientUnits="objectBoundingBox">
      <stop offset="0.001" stop-color="#fff0d5"/>
      <stop offset="0.511" stop-color="#ffdfff"/>
      <stop offset="1" stop-color="#d9ceff"/>
    </linearGradient>
  </defs>
  <g id="Mask_Group_71" data-name="Mask Group 71" transform="translate(0.177 -0.187)" clip-path="url(#clip-path)">
    <g id="_032-location" data-name="032-location" transform="translate(0 0.07)">
      <path id="Path_1084" data-name="Path 1084" d="M51.314,18.619A13.357,13.357,0,0,1,44.28,13,15.446,15.446,0,0,0,30.928,5.693,15.385,15.385,0,0,0,17.292,13.5a13.662,13.662,0,0,1-7.3,6.245A15.591,15.591,0,0,0,.1,31.754a5.3,5.3,0,0,0,0,2.079A15.689,15.689,0,0,0,18.119,46.687,14.874,14.874,0,0,1,29.931,50.11c6.465,5.563,16.829,7.307,26.89,1.344A13.419,13.419,0,0,0,60.336,48.2c8.669-12.507,2.247-25.522-9.022-29.581Z" transform="translate(0 -5.604)" fill="url(#linear-gradient)"/>
      <path id="Path_1085" data-name="Path 1085" d="M56.27,11.276h-14.8a8.842,8.842,0,0,0-8.455-5.691,8.842,8.842,0,0,0-8.455,5.691H9.76a1.819,1.819,0,0,0-1.886,1.742V42.552A1.819,1.819,0,0,0,9.76,44.294H56.27a1.819,1.819,0,0,0,1.886-1.742V13.018a1.819,1.819,0,0,0-1.886-1.742Z" transform="translate(-0.836 -5.585)" fill="#590bb2" opacity="0.1"/>
      <path id="Path_1086" data-name="Path 1086" d="M42.282,63.425H28.025l2.851-10.443h8.555Z" transform="translate(-2.974 -13.831)" fill="#afabc6"/>
      <path id="Path_1087" data-name="Path 1087" d="M40.645,56.618H30.1l.993-3.636h8.555Z" transform="translate(-3.195 -13.831)" fill="#8e8ca8"/>
      <path id="Path_1088" data-name="Path 1088" d="M58.155,17.171V46.7a1.819,1.819,0,0,1-1.886,1.742H9.76A1.819,1.819,0,0,1,7.875,46.7V17.171A1.819,1.819,0,0,1,9.76,15.428H56.27A1.819,1.819,0,0,1,58.155,17.171Z" transform="translate(-0.836 -7.297)" fill="#f5f4f9"/>
      <path id="Path_1089" data-name="Path 1089" d="M7.875,41.394v9.828A1.819,1.819,0,0,0,9.76,52.964H56.27a1.819,1.819,0,0,0,1.886-1.742V41.394Z" transform="translate(-0.836 -11.815)" fill="#e2ccff"/>
      <path id="Path_1090" data-name="Path 1090" d="M14.12,36.854H7.875v-8.21H14.12a.364.364,0,0,1,.377.348v7.513A.364.364,0,0,1,14.12,36.854Z" transform="translate(-0.836 -9.597)" fill="#ffd5b8"/>
      <path id="Path_1091" data-name="Path 1091" d="M63.339,36.854H57.094a.364.364,0,0,1-.377-.348V28.992a.364.364,0,0,1,.377-.348h6.245Z" transform="translate(-6.019 -9.597)" fill="#ffd5b8"/>
      <path id="Path_1092" data-name="Path 1092" d="M49.181,36.854H19.165a.364.364,0,0,1-.377-.348V28.992a.364.364,0,0,1,.377-.348H49.181a.364.364,0,0,1,.377.348v7.513A.364.364,0,0,1,49.181,36.854Z" transform="translate(-1.994 -9.597)" fill="#ffd5b8"/>
      <ellipse id="Ellipse_52" data-name="Ellipse 52" cx="5.27" cy="1.083" rx="5.27" ry="1.083" transform="translate(26.909 23.27)" fill="#ffbe92"/>
      <path id="Path_1093" data-name="Path 1093" d="M58.155,21.024V17.171a1.818,1.818,0,0,0-1.886-1.742H9.76a1.818,1.818,0,0,0-1.886,1.742v3.853Z" transform="translate(-0.836 -7.298)" fill="#c182f9"/>
      <path id="Path_1094" data-name="Path 1094" d="M7.875,48.315v4.111A1.818,1.818,0,0,0,9.76,54.168H56.27a1.818,1.818,0,0,0,1.886-1.742V48.315Z" transform="translate(-0.836 -13.019)" fill="#cecae0"/>
      <path id="Path_1095" data-name="Path 1095" d="M43.828,16.747c0,3.594-5.582,10.517-7.9,13.233a1.321,1.321,0,0,1-1.974,0c-2.314-2.716-7.9-9.639-7.9-13.233,0-4.533,3.977-8.209,8.883-8.209s8.883,3.675,8.883,8.209Z" transform="translate(-2.766 -6.099)" fill="#ffa052"/>
      <ellipse id="Ellipse_53" data-name="Ellipse 53" cx="4.325" cy="3.996" rx="4.325" ry="3.996" transform="translate(27.855 6.168)" fill="#f5f4f9"/>
      <g id="Group_1102" data-name="Group 1102" transform="translate(6.411 1.859)">
        <path id="Path_1096" data-name="Path 1096" d="M13.156,18.1a.606.606,0,0,0-.629.581V18.7a.63.63,0,0,0,1.257,0v-.017A.606.606,0,0,0,13.156,18.1Z" transform="translate(-7.74 -9.621)" fill="#590bb2"/>
        <path id="Path_1097" data-name="Path 1097" d="M15.873,18.1a.606.606,0,0,0-.629.581V18.7a.63.63,0,0,0,1.257,0v-.017A.606.606,0,0,0,15.873,18.1Z" transform="translate(-8.029 -9.621)" fill="#590bb2"/>
        <path id="Path_1098" data-name="Path 1098" d="M18.591,18.1a.606.606,0,0,0-.629.581V18.7a.63.63,0,0,0,1.257,0v-.017A.606.606,0,0,0,18.591,18.1Z" transform="translate(-8.317 -9.621)" fill="#590bb2"/>
        <path id="Path_1099" data-name="Path 1099" d="M56.195,13.526H41.84a9.528,9.528,0,0,0-8.9-5.692,9.528,9.528,0,0,0-8.9,5.692H9.686A2.427,2.427,0,0,0,7.172,15.85V45.383a2.427,2.427,0,0,0,2.514,2.323H27.311l-1.988,7.283H23.4a.583.583,0,1,0,0,1.162h19.09a.583.583,0,1,0,0-1.162H40.558L38.57,47.706H56.195a2.427,2.427,0,0,0,2.514-2.323V41.272a.606.606,0,0,0-.629-.581c-.012,0-.023,0-.035,0s-.023,0-.035,0H8.429V20.284H24.5a31.581,31.581,0,0,0,2.345,3.949.659.659,0,0,0,.867.182.555.555,0,0,0,.2-.8c-2.108-3.092-3.222-5.509-3.222-6.989,0-4.206,3.7-7.628,8.254-7.628s8.254,3.422,8.254,7.628c0,3.494-5.941,10.737-7.761,12.874a.66.66,0,0,1-.986,0c-.632-.742-1.6-1.91-2.637-3.262a.662.662,0,0,0-.876-.139.553.553,0,0,0-.15.81c1.05,1.372,2.034,2.557,2.676,3.31a1.982,1.982,0,0,0,2.961,0,53.265,53.265,0,0,0,6.965-9.933H57.452V38.073a.63.63,0,0,0,1.257,0V15.85a2.427,2.427,0,0,0-2.514-2.323ZM39.262,54.989H26.619l1.988-7.283h8.666Zm18.19-13.136v3.53a1.214,1.214,0,0,1-1.257,1.162H9.686a1.214,1.214,0,0,1-1.257-1.162v-3.53ZM8.429,19.122V15.85a1.214,1.214,0,0,1,1.257-1.162H23.664a8.142,8.142,0,0,0-.235,1.936,7.151,7.151,0,0,0,.564,2.5Zm33.464,0a7.189,7.189,0,0,0,.559-2.5,8.143,8.143,0,0,0-.235-1.936H56.195a1.214,1.214,0,0,1,1.257,1.162v3.272Z" transform="translate(-7.172 -7.835)" fill="#590bb2"/>
        <path id="Path_1100" data-name="Path 1100" d="M35.412,21.5a4.782,4.782,0,0,0,4.953-4.577,4.969,4.969,0,0,0-9.906,0A4.782,4.782,0,0,0,35.412,21.5Zm0-7.993a3.568,3.568,0,0,1,3.7,3.416,3.708,3.708,0,0,1-7.392,0A3.568,3.568,0,0,1,35.412,13.51Z" transform="translate(-9.643 -8.62)" fill="#590bb2"/>
      </g>
      <ellipse id="Ellipse_54" data-name="Ellipse 54" cx="0.704" cy="0.65" rx="0.704" ry="0.65" transform="translate(12.439 31.358)" fill="#f5f4f9"/>
      <ellipse id="Ellipse_55" data-name="Ellipse 55" cx="0.704" cy="0.65" rx="0.704" ry="0.65" transform="translate(14.567 31.358)" fill="#f5f4f9"/>
      <ellipse id="Ellipse_56" data-name="Ellipse 56" cx="0.704" cy="0.65" rx="0.704" ry="0.65" transform="translate(16.696 31.358)" fill="#f5f4f9"/>
      <path id="Path_1101" data-name="Path 1101" d="M28.834,43.63h-2.1a.633.633,0,0,0-.654.525.6.6,0,0,0,.627.639h2.131a.584.584,0,1,0,0-1.164Z" transform="translate(-2.767 -12.204)" fill="#f5f4f9"/>
      <path id="Path_1102" data-name="Path 1102" d="M54.647,43.63H32.512a.584.584,0,1,0,0,1.164H54.674a.6.6,0,0,0,.627-.639A.633.633,0,0,0,54.647,43.63Z" transform="translate(-3.384 -12.204)" fill="#ffa052"/>
      <path id="Path_1103" data-name="Path 1103" d="M50.533,9.319a.606.606,0,0,1-.629-.581.73.73,0,0,0-.756-.7.583.583,0,1,1,0-1.162.73.73,0,0,0,.756-.7.63.63,0,0,1,1.257,0,.73.73,0,0,0,.756.7.583.583,0,1,1,0,1.162.73.73,0,0,0-.756.7A.606.606,0,0,1,50.533,9.319Z" transform="translate(-5.149 -5.587)" fill="#ffe783"/>
      <path id="Path_1104" data-name="Path 1104" d="M17.632,62.321A.606.606,0,0,1,17,61.74a.73.73,0,0,0-.756-.7.583.583,0,1,1,0-1.162.73.73,0,0,0,.756-.7.63.63,0,0,1,1.257,0,.73.73,0,0,0,.756.7.583.583,0,1,1,0,1.162.73.73,0,0,0-.756.7A.606.606,0,0,1,17.632,62.321Z" transform="translate(-1.657 -14.809)" fill="#c182f9"/>
      <path id="Path_1105" data-name="Path 1105" d="M50.533,62.319a.653.653,0,0,1-.444-.17l-1.382-1.277a.55.55,0,0,1,0-.821l1.382-1.277a.665.665,0,0,1,.889,0l1.382,1.277a.55.55,0,0,1,0,.821l-1.382,1.277A.654.654,0,0,1,50.533,62.319Zm-.493-1.858.493.456.493-.456-.493-.456Z" transform="translate(-5.15 -14.809)" fill="#ffa052"/>
      <path id="Path_1106" data-name="Path 1106" d="M57.846,65.632a.653.653,0,0,1-.444-.17l-1.382-1.277a.55.55,0,0,1,0-.821L57.4,62.087a.665.665,0,0,1,.889,0l1.382,1.277a.55.55,0,0,1,0,.821L58.29,65.462A.653.653,0,0,1,57.846,65.632Zm-.493-1.858.493.456.493-.456-.493-.456Z" transform="translate(-5.926 -15.386)" fill="#ffa052"/>
    </g>
  </g>
</svg>
