<svg xmlns="http://www.w3.org/2000/svg" xmlns:xlink="http://www.w3.org/1999/xlink" width="220" height="180" viewBox="0 0 220 180">
  <defs>
    <clipPath id="clip-path">
      <rect id="Rectangle_1337" data-name="Rectangle 1337" width="220" height="180" transform="translate(881 3861)" fill="#fff" stroke="#707070" stroke-width="1"/>
    </clipPath>
  </defs>
  <g id="Mask_Group_86" data-name="Mask Group 86" transform="translate(-881 -3861)" clip-path="url(#clip-path)">
    <g id="next-js" transform="translate(900.925 3860.943)">
      <path id="Path_2549" data-name="Path 2549" d="M84.181.106c-.387.035-1.619.158-2.727.246a90.2,90.2,0,0,0-64.671,37.3A89.086,89.086,0,0,0,.9,76.968,68.885,68.885,0,0,0,.088,90.075,68.885,68.885,0,0,0,.9,103.181a90.361,90.361,0,0,0,61.557,72.711,95.138,95.138,0,0,0,19,3.941,165.762,165.762,0,0,0,17.241,0,90.856,90.856,0,0,0,32.423-9.482c1.548-.792,1.847-1,1.636-1.179-.141-.106-6.738-8.955-14.655-19.651l-14.391-19.44L85.677,103.392C75.754,88.72,67.591,76.722,67.521,76.722c-.07-.018-.141,11.84-.176,26.319-.053,25.351-.07,26.371-.387,26.97a3.2,3.2,0,0,1-1.548,1.6c-.563.281-1.056.334-3.712.334H58.654l-.809-.51a3.29,3.29,0,0,1-1.179-1.284l-.369-.792.035-35.273.053-35.291.545-.686a4.826,4.826,0,0,1,1.3-1.073c.721-.352,1-.387,4.046-.387,3.589,0,4.187.141,5.119,1.161.264.281,10.028,14.989,21.709,32.7s27.656,41.906,35.5,53.781l14.25,21.586.721-.475a92.378,92.378,0,0,0,18.49-16.22,89.588,89.588,0,0,0,21.182-46,68.885,68.885,0,0,0,.809-13.107,68.885,68.885,0,0,0-.809-13.107A90.361,90.361,0,0,0,117.7,4.257,94.476,94.476,0,0,0,98.959.334C97.27.158,85.641-.035,84.181.106ZM121.02,54.537a3.55,3.55,0,0,1,1.777,2.076c.141.457.176,10.239.141,32.283l-.053,31.632-5.577-8.55-5.594-8.55V80.434c0-14.866.07-23.222.176-23.627a3.589,3.589,0,0,1,1.742-2.217c.721-.369.985-.4,3.747-.4,2.6,0,3.061.035,3.642.352Z"/>
      <path id="Path_2550" data-name="Path 2550" d="M137.98,166.269c-.616.387-.809.651-.264.352.387-.229,1.02-.7.915-.721A3.622,3.622,0,0,0,137.98,166.269Zm-1.214.792c-.317.246-.317.264.07.07a1.076,1.076,0,0,0,.387-.264C137.223,166.726,137.135,166.761,136.766,167.06Zm-.88.528c-.317.246-.317.264.07.07a1.076,1.076,0,0,0,.387-.264c0-.141-.088-.106-.457.194Zm-.88.528c-.317.246-.317.264.07.07a1.076,1.076,0,0,0,.387-.264c0-.141-.088-.106-.457.194Zm-1.337.7c-.669.352-.633.493.035.158a1.832,1.832,0,0,0,.528-.352C134.232,168.5,134.215,168.521,133.669,168.82Z"/>
    </g>
  </g>
</svg>
