<svg xmlns="http://www.w3.org/2000/svg" xmlns:xlink="http://www.w3.org/1999/xlink" width="80" height="70" viewBox="0 0 80 70">
  <defs>
    <clipPath id="clip-path">
      <rect id="Rectangle_1126" data-name="Rectangle 1126" width="80" height="70" transform="translate(281 1276)" fill="#fff" stroke="#707070" stroke-width="1"/>
    </clipPath>
    <linearGradient id="linear-gradient" x1="0.13" y1="0.12" x2="0.796" y2="0.782" gradientUnits="objectBoundingBox">
      <stop offset="0" stop-color="#387eb8"/>
      <stop offset="1" stop-color="#366994"/>
    </linearGradient>
    <linearGradient id="linear-gradient-2" x1="0.191" y1="0.206" x2="0.907" y2="0.884" gradientUnits="objectBoundingBox">
      <stop offset="0" stop-color="#ffe052"/>
      <stop offset="1" stop-color="#ffc331"/>
    </linearGradient>
  </defs>
  <g id="Mask_Group_38" data-name="Mask Group 38" transform="translate(-281 -1276)" clip-path="url(#clip-path)">
    <g id="python-5" transform="translate(285.777 1275.98)">
      <path id="Path_696" data-name="Path 696" d="M34.969.02C17.106.02,18.221,7.766,18.221,7.766l.02,8.026H35.288V18.2H11.471S.04,16.905.04,34.929s9.977,17.385,9.977,17.385h5.954V43.95s-.321-9.977,9.818-9.977H42.7s9.5.153,9.5-9.18V9.36S53.638.02,34.969.02Zm-9.4,5.4a3.064,3.064,0,1,1-2.169.9A3.064,3.064,0,0,1,25.57,5.417Z" fill="url(#linear-gradient)"/>
      <path id="Path_697" data-name="Path 697" d="M35.477,70.02c17.863,0,16.748-7.747,16.748-7.747l-.02-8.025H35.158v-2.41H58.975s11.431,1.3,11.431-16.728-9.977-17.385-9.977-17.385H54.475v8.364s.321,9.977-9.818,9.977H27.75s-9.5-.153-9.5,9.181V60.68s-1.442,9.34,17.226,9.34Zm9.4-5.4a3.064,3.064,0,1,1,2.169-.9,3.064,3.064,0,0,1-2.169.9Z" fill="url(#linear-gradient-2)"/>
    </g>
  </g>
</svg>
