<svg xmlns="http://www.w3.org/2000/svg" xmlns:xlink="http://www.w3.org/1999/xlink" width="61" height="54" viewBox="0 0 61 54">
  <defs>
    <clipPath id="clip-path">
      <rect id="Rectangle_1151" data-name="Rectangle 1151" width="61" height="54" transform="translate(264 1308)" fill="#fff" stroke="#707070" stroke-width="1"/>
    </clipPath>
    <linearGradient id="linear-gradient" x1="0.404" y1="0.5" x2="1.567" y2="0.5" gradientUnits="objectBoundingBox">
      <stop offset="0.001" stop-color="#fff0d5"/>
      <stop offset="0.511" stop-color="#ffdfff"/>
      <stop offset="1" stop-color="#d9ceff"/>
    </linearGradient>
  </defs>
  <g id="Mask_Group_66" data-name="Mask Group 66" transform="translate(-264 -1308)" clip-path="url(#clip-path)">
    <g id="_003-maintenance" data-name="003-maintenance" transform="translate(265.458 1305.958)">
      <path id="Path_956" data-name="Path 956" d="M43.4,19.458h-.065a12.568,12.568,0,0,1-9.466-4.309A19.268,19.268,0,0,0,19.225,8.524a19.313,19.313,0,0,0,.088,38.626,19.229,19.229,0,0,0,8.344-1.891,6.441,6.441,0,0,1,6.69.7,14.768,14.768,0,1,0,9.059-26.5Z" fill="url(#linear-gradient)"/>
      <path id="Path_957" data-name="Path 957" d="M55.39,33.56l-3.419-.974a13.625,13.625,0,0,0-1.583-3.82l1.73-3.107A.678.678,0,0,0,52,24.85l-2.337-2.337a.678.678,0,0,0-.808-.113l-3.107,1.73a13.625,13.625,0,0,0-3.82-1.583l-.974-3.419a.677.677,0,0,0-.652-.492H37a.677.677,0,0,0-.652.492l-.974,3.419a13.625,13.625,0,0,0-3.82,1.583L28.449,22.4a.678.678,0,0,0-.808.113L25.3,24.85a.678.678,0,0,0-.113.808l1.73,3.107a13.625,13.625,0,0,0-1.583,3.82l-3.419.974a.677.677,0,0,0-.492.652v3.3a.677.677,0,0,0,.492.652l3.419.974a13.625,13.625,0,0,0,1.583,3.82l-1.73,3.107a.678.678,0,0,0,.113.808l2.337,2.337a.678.678,0,0,0,.808.113l3.107-1.73a13.623,13.623,0,0,0,3.82,1.583L36.35,52.6a.677.677,0,0,0,.652.492h3.3a.677.677,0,0,0,.652-.492l.974-3.419a13.625,13.625,0,0,0,3.82-1.583l3.107,1.73a.678.678,0,0,0,.808-.113L52,46.878a.678.678,0,0,0,.113-.808l-1.73-3.107a13.625,13.625,0,0,0,1.583-3.82l3.419-.974a.677.677,0,0,0,.492-.652v-3.3a.677.677,0,0,0-.492-.652ZM38.654,44.345a8.481,8.481,0,1,1,8.481-8.481,8.481,8.481,0,0,1-8.481,8.481Z" fill="#590bb2" opacity="0.1"/>
      <path id="Path_958" data-name="Path 958" d="M20.542,28.334,18.7,27.808a7.358,7.358,0,0,0-.855-2.063l.934-1.678a.367.367,0,0,0-.061-.437l-1.262-1.262a.366.366,0,0,0-.437-.061l-1.678.934a7.358,7.358,0,0,0-2.063-.855l-.526-1.846a.366.366,0,0,0-.352-.266H10.612a.366.366,0,0,0-.352.266l-.526,1.846a7.358,7.358,0,0,0-2.063.855l-1.678-.934a.367.367,0,0,0-.437.061L4.3,23.631a.366.366,0,0,0-.061.437l.934,1.678a7.358,7.358,0,0,0-.855,2.063l-1.846.526a.366.366,0,0,0-.266.352V30.47a.366.366,0,0,0,.266.352l1.846.526a7.358,7.358,0,0,0,.855,2.063l-.934,1.678a.367.367,0,0,0,.061.437l1.262,1.262a.366.366,0,0,0,.437.061l1.678-.934a7.358,7.358,0,0,0,2.063.855l.526,1.846a.366.366,0,0,0,.352.266H12.4a.366.366,0,0,0,.352-.266l.526-1.846a7.358,7.358,0,0,0,2.063-.855l1.678.934a.367.367,0,0,0,.437-.061l1.262-1.262a.366.366,0,0,0,.061-.437l-.934-1.678a7.356,7.356,0,0,0,.855-2.063l1.846-.526a.366.366,0,0,0,.266-.352V28.686a.366.366,0,0,0-.266-.352ZM11.5,32.5a2.926,2.926,0,1,1,2.926-2.926A2.926,2.926,0,0,1,11.5,32.5Z" fill="#590bb2" opacity="0.1"/>
      <path id="Path_959" data-name="Path 959" d="M32.956,10.72l-1.988-.566a7.923,7.923,0,0,0-.921-2.221l1.006-1.807a.4.4,0,0,0-.066-.47L29.628,4.3a.4.4,0,0,0-.47-.066L27.351,5.237a7.923,7.923,0,0,0-2.221-.921l-.566-1.988a.394.394,0,0,0-.379-.286H22.263a.394.394,0,0,0-.379.286l-.566,1.988a7.923,7.923,0,0,0-2.221.921L17.289,4.231a.4.4,0,0,0-.47.066L15.46,5.656a.4.4,0,0,0-.066.47L16.4,7.933a7.923,7.923,0,0,0-.921,2.221l-1.988.566a.394.394,0,0,0-.286.379v1.921a.394.394,0,0,0,.286.379l1.988.566a7.923,7.923,0,0,0,.921,2.221l-1.006,1.807a.4.4,0,0,0,.066.47l1.359,1.359a.4.4,0,0,0,.47.066L19.1,18.883a7.919,7.919,0,0,0,2.221.921l.566,1.988a.394.394,0,0,0,.379.286h1.921a.394.394,0,0,0,.379-.286L25.13,19.8a7.923,7.923,0,0,0,2.221-.921l1.807,1.006a.4.4,0,0,0,.47-.066l1.359-1.359a.4.4,0,0,0,.066-.47l-1.006-1.807a7.923,7.923,0,0,0,.921-2.221l1.988-.566a.394.394,0,0,0,.286-.379V11.1a.394.394,0,0,0-.286-.379Zm-9.732,5.237a3.9,3.9,0,1,1,3.9-3.9A3.9,3.9,0,0,1,23.224,15.957Z" fill="#590bb2" opacity="0.1"/>
      <path id="Path_960" data-name="Path 960" d="M55.39,35.942l-3.419-.974a13.625,13.625,0,0,0-1.583-3.82l1.73-3.107A.678.678,0,0,0,52,27.233L49.668,24.9a.678.678,0,0,0-.808-.113l-3.107,1.73a13.625,13.625,0,0,0-3.82-1.583l-.974-3.419a.677.677,0,0,0-.652-.492H37a.677.677,0,0,0-.652.492l-.974,3.419a13.625,13.625,0,0,0-3.82,1.583l-3.107-1.73a.678.678,0,0,0-.808.113L25.3,27.233a.678.678,0,0,0-.113.808l1.73,3.107a13.623,13.623,0,0,0-1.583,3.82l-3.419.974a.677.677,0,0,0-.492.652v3.3a.677.677,0,0,0,.492.652l3.419.974a13.625,13.625,0,0,0,1.583,3.82l-1.73,3.107a.678.678,0,0,0,.113.808L27.641,51.6a.678.678,0,0,0,.808.113l3.107-1.73a13.623,13.623,0,0,0,3.82,1.583l.974,3.419a.677.677,0,0,0,.652.492h3.3a.677.677,0,0,0,.652-.492l.974-3.419a13.624,13.624,0,0,0,3.82-1.583l3.107,1.73a.678.678,0,0,0,.808-.113L52,49.26a.678.678,0,0,0,.113-.808l-1.73-3.107a13.625,13.625,0,0,0,1.583-3.82l3.419-.974a.677.677,0,0,0,.492-.652v-3.3a.677.677,0,0,0-.492-.652ZM38.654,46.727a8.481,8.481,0,1,1,8.481-8.481,8.481,8.481,0,0,1-8.481,8.481Z" fill="#d6b0ff"/>
      <path id="Path_961" data-name="Path 961" d="M20.542,30.716,18.7,30.191a7.358,7.358,0,0,0-.855-2.063l.934-1.678a.367.367,0,0,0-.061-.437l-1.262-1.262a.366.366,0,0,0-.437-.061l-1.678.934a7.358,7.358,0,0,0-2.063-.855l-.526-1.846a.366.366,0,0,0-.352-.266H10.612a.366.366,0,0,0-.352.266L9.734,24.77a7.358,7.358,0,0,0-2.063.855l-1.678-.934a.367.367,0,0,0-.437.061L4.3,26.013a.366.366,0,0,0-.061.437l.934,1.678a7.358,7.358,0,0,0-.855,2.063l-1.846.526a.366.366,0,0,0-.266.352v1.784a.366.366,0,0,0,.266.352l1.846.526a7.358,7.358,0,0,0,.855,2.063l-.934,1.678a.367.367,0,0,0,.061.437L5.557,39.17a.366.366,0,0,0,.437.061L7.672,38.3a7.358,7.358,0,0,0,2.063.855L10.26,41a.366.366,0,0,0,.352.266H12.4A.366.366,0,0,0,12.749,41l.526-1.846a7.358,7.358,0,0,0,2.063-.855l1.678.934a.367.367,0,0,0,.437-.061l1.262-1.262a.366.366,0,0,0,.061-.437l-.934-1.678A7.356,7.356,0,0,0,18.7,33.73l1.846-.526a.366.366,0,0,0,.266-.352V31.068a.366.366,0,0,0-.266-.352ZM11.5,34.887a2.926,2.926,0,1,1,2.926-2.926A2.926,2.926,0,0,1,11.5,34.887Z" fill="#ffa052"/>
      <path id="Path_962" data-name="Path 962" d="M32.956,13.1l-1.988-.566a7.923,7.923,0,0,0-.921-2.221l1.006-1.807a.4.4,0,0,0-.066-.47L29.628,6.679a.4.4,0,0,0-.47-.066L27.351,7.619A7.923,7.923,0,0,0,25.13,6.7L24.563,4.71a.394.394,0,0,0-.379-.286H22.263a.394.394,0,0,0-.379.286L21.317,6.7a7.923,7.923,0,0,0-2.221.921L17.289,6.613a.4.4,0,0,0-.47.066L15.46,8.038a.4.4,0,0,0-.066.47L16.4,10.315a7.923,7.923,0,0,0-.921,2.221l-1.988.566a.394.394,0,0,0-.286.379V15.4a.394.394,0,0,0,.286.379l1.988.566A7.923,7.923,0,0,0,16.4,18.57l-1.006,1.807a.4.4,0,0,0,.066.47l1.359,1.359a.4.4,0,0,0,.47.066L19.1,21.266a7.919,7.919,0,0,0,2.221.921l.566,1.988a.394.394,0,0,0,.379.286h1.921a.394.394,0,0,0,.379-.286l.566-1.988a7.923,7.923,0,0,0,2.221-.921l1.807,1.006a.4.4,0,0,0,.47-.066l1.359-1.359a.4.4,0,0,0,.066-.47L30.047,18.57a7.923,7.923,0,0,0,.921-2.221l1.988-.566a.394.394,0,0,0,.286-.379V13.482a.394.394,0,0,0-.286-.379Zm-9.732,5.237a3.9,3.9,0,1,1,3.9-3.9A3.9,3.9,0,0,1,23.224,18.339Z" fill="#ffe783"/>
      <g id="Group_1095" data-name="Group 1095">
        <path id="Path_963" data-name="Path 963" d="M40.306,56.042H37a1.25,1.25,0,0,1-1.2-.9l-.885-3.106a14.174,14.174,0,0,1-3.372-1.4l-2.823,1.572A1.251,1.251,0,0,1,27.24,52L24.9,49.661a1.251,1.251,0,0,1-.208-1.485l1.572-2.824a14.169,14.169,0,0,1-1.4-3.372L21.763,41.1a1.25,1.25,0,0,1-.9-1.2v-3.3a1.25,1.25,0,0,1,.9-1.2l3.107-.885a14.174,14.174,0,0,1,1.4-3.372L24.7,28.317a1.251,1.251,0,0,1,.208-1.485l2.337-2.337a1.25,1.25,0,0,1,1.485-.208l2.824,1.572a14.174,14.174,0,0,1,3.372-1.4l.885-3.106a1.25,1.25,0,0,1,1.2-.9h3.3a1.25,1.25,0,0,1,1.2.9l.885,3.106a14.175,14.175,0,0,1,3.372,1.4l2.823-1.572a1.251,1.251,0,0,1,1.485.208l2.337,2.337a1.251,1.251,0,0,1,.208,1.485L51.042,31.14a14.17,14.17,0,0,1,1.4,3.372l3.106.885h0a1.25,1.25,0,0,1,.9,1.2v3.3a1.25,1.25,0,0,1-.9,1.2l-3.106.885a14.179,14.179,0,0,1-1.4,3.372l1.572,2.823a1.251,1.251,0,0,1-.208,1.485L50.069,52a1.25,1.25,0,0,1-1.485.208l-2.824-1.572a14.174,14.174,0,0,1-3.372,1.4L41.5,55.138a1.251,1.251,0,0,1-1.2.9Zm-8.75-6.629a.567.567,0,0,1,.294.082,13.043,13.043,0,0,0,3.661,1.517.567.567,0,0,1,.41.4l.974,3.419a.11.11,0,0,0,.106.08h3.3a.11.11,0,0,0,.107-.08l.974-3.419a.567.567,0,0,1,.41-.4A13.041,13.041,0,0,0,45.458,49.5a.567.567,0,0,1,.57-.011l3.107,1.73a.111.111,0,0,0,.131-.019L51.6,48.859a.111.111,0,0,0,.018-.132l-1.73-3.107a.568.568,0,0,1,.011-.57,13.044,13.044,0,0,0,1.517-3.661.567.567,0,0,1,.4-.41l3.419-.974a.11.11,0,0,0,.08-.106v-3.3a.11.11,0,0,0-.08-.107l-3.419-.974a.567.567,0,0,1-.4-.41A13.047,13.047,0,0,0,49.9,31.443a.567.567,0,0,1-.011-.57l1.73-3.107a.111.111,0,0,0-.019-.131L49.267,25.3a.111.111,0,0,0-.132-.018l-3.107,1.73a.567.567,0,0,1-.57-.011A13.048,13.048,0,0,0,41.8,25.48a.567.567,0,0,1-.41-.4l-.974-3.419a.11.11,0,0,0-.107-.08H37a.11.11,0,0,0-.106.08l-.974,3.419a.567.567,0,0,1-.41.4A13.041,13.041,0,0,0,31.851,27a.567.567,0,0,1-.57.011l-3.107-1.73a.111.111,0,0,0-.131.019L25.7,27.634a.111.111,0,0,0-.018.132l1.73,3.107a.567.567,0,0,1-.011.57A13.041,13.041,0,0,0,25.888,35.1a.567.567,0,0,1-.4.41l-3.419.974a.11.11,0,0,0-.08.107v3.3a.11.11,0,0,0,.08.106l3.419.974a.567.567,0,0,1,.4.41,13.043,13.043,0,0,0,1.517,3.661.567.567,0,0,1,.011.57l-1.73,3.107a.111.111,0,0,0,.019.131L28.042,51.2a.111.111,0,0,0,.132.018l3.107-1.73a.566.566,0,0,1,.276-.072Zm7.1-2.119a9.047,9.047,0,0,1-7.543-14.043.567.567,0,0,1,.945.627,7.924,7.924,0,1,0,2.028-2.09.567.567,0,1,1-.656-.925,9.047,9.047,0,1,1,5.226,16.432Z" fill="#590bb2"/>
        <path id="Path_964" data-name="Path 964" d="M12.4,41.831H10.612a.937.937,0,0,1-.9-.678l-.438-1.537a7.921,7.921,0,0,1-1.61-.667l-1.4.778a.938.938,0,0,1-1.114-.156L3.894,38.309A.937.937,0,0,1,3.738,37.2l.778-1.4a7.912,7.912,0,0,1-.667-1.61L2.312,33.75a.937.937,0,0,1-.678-.9V31.068a.937.937,0,0,1,.678-.9l1.537-.438a7.913,7.913,0,0,1,.667-1.61l-.778-1.4a.937.937,0,0,1,.156-1.114L5.156,24.35a.938.938,0,0,1,1.113-.156l1.4.778a7.912,7.912,0,0,1,1.61-.667l.438-1.537a.937.937,0,0,1,.9-.678H12.4a.937.937,0,0,1,.9.678l.438,1.537a7.918,7.918,0,0,1,1.61.667l1.4-.778a.938.938,0,0,1,1.113.155l1.262,1.262a.937.937,0,0,1,.156,1.113l-.778,1.4a7.912,7.912,0,0,1,.667,1.61l1.537.438a.937.937,0,0,1,.678.9v1.784a.937.937,0,0,1-.678.9l-1.537.438a7.921,7.921,0,0,1-.667,1.61l.778,1.4a.937.937,0,0,1-.156,1.114L17.853,39.57a.937.937,0,0,1-1.113.156l-1.4-.778a7.917,7.917,0,0,1-1.61.667l-.438,1.537a.937.937,0,0,1-.9.678ZM10.764,40.7h1.481l.484-1.7a.567.567,0,0,1,.41-.4,6.785,6.785,0,0,0,1.9-.789.567.567,0,0,1,.57-.011l1.545.86L18.2,37.614l-.86-1.545a.567.567,0,0,1,.011-.57,6.785,6.785,0,0,0,.789-1.9.567.567,0,0,1,.4-.41l1.7-.484V31.22l-1.7-.484a.567.567,0,0,1-.4-.41,6.784,6.784,0,0,0-.789-1.9.567.567,0,0,1-.011-.57l.86-1.545L17.158,25.26l-1.545.86a.567.567,0,0,1-.57-.011,6.782,6.782,0,0,0-1.9-.789.567.567,0,0,1-.41-.4l-.484-1.7H10.764l-.484,1.7a.567.567,0,0,1-.41.4,6.782,6.782,0,0,0-1.9.789.567.567,0,0,1-.57.011l-1.545-.86L4.8,26.307l.86,1.545a.567.567,0,0,1-.011.57,6.786,6.786,0,0,0-.789,1.9.567.567,0,0,1-.4.41l-1.7.484V32.7l1.7.484a.567.567,0,0,1,.4.41,6.782,6.782,0,0,0,.789,1.9.567.567,0,0,1,.011.57L4.8,37.614l1.047,1.047L7.4,37.8a.568.568,0,0,1,.57.011,6.785,6.785,0,0,0,1.9.789.567.567,0,0,1,.41.4Zm9.622-9.434h0Zm0,0h0Z" fill="#590bb2"/>
        <path id="Path_965" data-name="Path 965" d="M11.5,35.454A3.493,3.493,0,1,1,15,31.961,3.5,3.5,0,0,1,11.5,35.454Zm0-5.852a2.359,2.359,0,1,0,2.359,2.359A2.362,2.362,0,0,0,11.5,29.6Z" fill="#590bb2"/>
        <path id="Path_966" data-name="Path 966" d="M24.184,25.028H22.263a.965.965,0,0,1-.925-.7l-.478-1.678a8.475,8.475,0,0,1-1.77-.733l-1.525.849a.966.966,0,0,1-1.147-.16l-1.359-1.359A.965.965,0,0,1,14.9,20.1l.849-1.526a8.475,8.475,0,0,1-.733-1.77l-1.678-.478a.965.965,0,0,1-.7-.925V13.482a.965.965,0,0,1,.7-.925l1.678-.478a8.475,8.475,0,0,1,.733-1.77L14.9,8.784a.966.966,0,0,1,.16-1.147l1.359-1.359a.966.966,0,0,1,1.146-.161l1.526.849a8.475,8.475,0,0,1,1.77-.733l.478-1.678a.965.965,0,0,1,.925-.7h1.921a.965.965,0,0,1,.925.7l.478,1.678a8.475,8.475,0,0,1,1.77.733l1.525-.849a.966.966,0,0,1,1.147.16l1.359,1.359a.965.965,0,0,1,.161,1.146L30.7,10.309a8.475,8.475,0,0,1,.733,1.77l1.678.478a.965.965,0,0,1,.7.925V15.4a.965.965,0,0,1-.7.925l-1.678.478a8.476,8.476,0,0,1-.733,1.77l.849,1.525a.966.966,0,0,1-.16,1.147l-1.359,1.359a.966.966,0,0,1-1.146.161l-1.526-.849a8.475,8.475,0,0,1-1.77.733l-.478,1.678a.965.965,0,0,1-.925.7Zm-1.791-1.134h1.66l.53-1.862a.567.567,0,0,1,.41-.4,7.35,7.35,0,0,0,2.062-.855.567.567,0,0,1,.57-.011l1.692.942,1.174-1.174-.942-1.692a.567.567,0,0,1,.011-.57,7.349,7.349,0,0,0,.855-2.062.567.567,0,0,1,.4-.41l1.862-.53v-1.66l-1.862-.53a.567.567,0,0,1-.4-.41,7.35,7.35,0,0,0-.855-2.062.567.567,0,0,1-.011-.57l.942-1.692L29.319,7.173l-1.692.942a.567.567,0,0,1-.57-.011,7.349,7.349,0,0,0-2.062-.855.567.567,0,0,1-.41-.4l-.53-1.863h-1.66l-.53,1.862a.567.567,0,0,1-.41.4A7.35,7.35,0,0,0,19.39,8.1a.567.567,0,0,1-.57.011l-1.692-.942L15.954,8.347l.942,1.692a.567.567,0,0,1-.011.57,7.349,7.349,0,0,0-.855,2.062.567.567,0,0,1-.4.41l-1.862.53v1.66l1.862.53a.567.567,0,0,1,.4.41,7.35,7.35,0,0,0,.855,2.062.567.567,0,0,1,.011.57l-.942,1.692,1.174,1.174,1.692-.942a.567.567,0,0,1,.57.011,7.349,7.349,0,0,0,2.062.855.567.567,0,0,1,.41.4Zm.83-4.987A4.436,4.436,0,0,1,21.5,18.56a.567.567,0,1,1,.439-1.046,3.326,3.326,0,1,0-1.841-1.929.567.567,0,1,1-1.066.389,4.465,4.465,0,1,1,4.194,2.933Z" fill="#590bb2"/>
      </g>
      <path id="Path_967" data-name="Path 967" d="M36.006,40.176a.565.565,0,0,1-.4-.166l-1.363-1.363a.566.566,0,0,1,0-.8l1.363-1.363a.566.566,0,1,1,.8.8l-.963.963.963.963a.566.566,0,0,1-.4.967Z" fill="#9526dd"/>
      <path id="Path_968" data-name="Path 968" d="M41.3,40.176a.566.566,0,0,1-.4-.967l.963-.963-.963-.963a.566.566,0,0,1,.8-.8l1.363,1.363a.566.566,0,0,1,0,.8L41.7,40.01A.564.564,0,0,1,41.3,40.176Z" fill="#9526dd"/>
      <path id="Path_969" data-name="Path 969" d="M37.884,40.176a.566.566,0,0,1-.492-.845L38.931,36.6a.566.566,0,1,1,.986.557l-1.539,2.726A.566.566,0,0,1,37.884,40.176Z" fill="#9526dd"/>
      <path id="Path_970" data-name="Path 970" d="M17.354,46.746a.566.566,0,0,1-.4-.166L15.7,45.332a.567.567,0,0,1,0-.8l1.248-1.248a.567.567,0,0,1,.8,0L19,44.53a.567.567,0,0,1,0,.8L17.755,46.58a.566.566,0,0,1-.4.166Zm-.446-1.815.446.446.446-.446-.446-.446Z" fill="#c182f9"/>
      <path id="Path_971" data-name="Path 971" d="M39.99,16.825a.567.567,0,0,1-.567-.567.681.681,0,0,0-.681-.681.567.567,0,1,1,0-1.134.681.681,0,0,0,.681-.681.567.567,0,0,1,1.134,0,.681.681,0,0,0,.681.681.567.567,0,1,1,0,1.134.681.681,0,0,0-.681.681A.567.567,0,0,1,39.99,16.825Z" fill="#ffe783"/>
      <path id="Path_972" data-name="Path 972" d="M20.807,52.371a.567.567,0,0,1-.567-.567.681.681,0,0,0-.681-.681.567.567,0,0,1,0-1.134.681.681,0,0,0,.681-.681.567.567,0,1,1,1.134,0,.681.681,0,0,0,.681.681.567.567,0,0,1,0,1.134.681.681,0,0,0-.681.681A.567.567,0,0,1,20.807,52.371Z" fill="#ffa052"/>
      <path id="Path_973" data-name="Path 973" d="M8.578,19.621a.567.567,0,0,1-.567-.567.681.681,0,0,0-.681-.681.567.567,0,0,1,0-1.134.681.681,0,0,0,.681-.681.567.567,0,1,1,1.134,0,.681.681,0,0,0,.681.681.567.567,0,0,1,0,1.134.681.681,0,0,0-.681.681A.567.567,0,0,1,8.578,19.621Z" fill="#ffa052"/>
    </g>
  </g>
</svg>
