<svg xmlns="http://www.w3.org/2000/svg" xmlns:xlink="http://www.w3.org/1999/xlink" width="92" height="84" viewBox="0 0 92 84">
  <defs>
    <clipPath id="clip-path">
      <rect id="Rectangle_1146" data-name="Rectangle 1146" width="92" height="84" transform="translate(161 1018)" fill="#fff" stroke="#707070" stroke-width="1"/>
    </clipPath>
    <linearGradient id="linear-gradient" x1="0.441" y1="0.5" x2="1.689" y2="0.5" gradientUnits="objectBoundingBox">
      <stop offset="0.001" stop-color="#fff0d5"/>
      <stop offset="0.511" stop-color="#ffdfff"/>
      <stop offset="1" stop-color="#d9ceff"/>
    </linearGradient>
  </defs>
  <g id="Mask_Group_61" data-name="Mask Group 61" transform="translate(-161 -1018)" clip-path="url(#clip-path)">
    <g id="_023-design" data-name="023-design" transform="translate(161 1014)">
      <path id="Path_814" data-name="Path 814" d="M90.855,52A21.164,21.164,0,0,0,78.3,39.031a7.684,7.684,0,0,1-4.957-7.085q0-.1,0-.207a21.211,21.211,0,0,0-38.27-12.093,17.308,17.308,0,0,1-13.85,7.178q-.242,0-.485.005A21.6,21.6,0,0,0,0,47.745,21.213,21.213,0,0,0,41.136,55.32,4.341,4.341,0,0,1,46.4,52.666l.082.023A4.33,4.33,0,0,1,49.633,57.2,21.213,21.213,0,1,0,90.855,52Z" fill="url(#linear-gradient)"/>
      <path id="Path_815" data-name="Path 815" d="M68.759,52.44l-4.65-1.324a18.529,18.529,0,0,0-2.153-5.2L64.309,41.7a.923.923,0,0,0-.154-1.1l-3.178-3.178a.923.923,0,0,0-1.1-.154l-4.226,2.352a18.535,18.535,0,0,0-4.077-1.838V28.992a3.618,3.618,0,0,0-.335-1.516l-3.61-7.763a1.8,1.8,0,0,0-3.261,0l-3.612,7.763a3.591,3.591,0,0,0-.335,1.516v8.788a18.527,18.527,0,0,0-4.077,1.838l-4.226-2.352a.923.923,0,0,0-1.1.154L27.845,40.6a.923.923,0,0,0-.154,1.1l2.352,4.226a18.527,18.527,0,0,0-2.153,5.2l-4.65,1.324a.921.921,0,0,0-.669.887V57.82a.921.921,0,0,0,.669.887l4.65,1.324a18.529,18.529,0,0,0,2.153,5.2l-2.352,4.226a.923.923,0,0,0,.154,1.1l3.178,3.178a.923.923,0,0,0,1.1.154l4.226-2.352a18.527,18.527,0,0,0,5.2,2.153l1.324,4.65a.921.921,0,0,0,.887.669h4.493a.921.921,0,0,0,.887-.669l1.324-4.65a18.529,18.529,0,0,0,5.2-2.153l4.226,2.352a.923.923,0,0,0,1.1-.154l3.178-3.178a.923.923,0,0,0,.154-1.1l-2.352-4.226a18.527,18.527,0,0,0,2.153-5.2l4.65-1.324a.921.921,0,0,0,.669-.887V53.327a.92.92,0,0,0-.669-.887ZM36.364,55.573a9.622,9.622,0,0,1,4.06-7.856V63.43A9.621,9.621,0,0,1,36.364,55.573ZM51.576,63.43V47.717a9.631,9.631,0,0,1,0,15.712Z" fill="#590bb2" opacity="0.1"/>
      <g id="Group_1085" data-name="Group 1085">
        <path id="Path_816" data-name="Path 816" d="M79.9,52.49H76.8a1.107,1.107,0,0,1-1.107-1.107v-3.1A1.107,1.107,0,0,1,76.8,47.179h3.1A1.107,1.107,0,0,1,81,48.285v3.1A1.106,1.106,0,0,1,79.9,52.49Z" fill="#ffa052"/>
        <path id="Path_817" data-name="Path 817" d="M15.2,52.49h-3.1A1.107,1.107,0,0,1,11,51.384v-3.1a1.107,1.107,0,0,1,1.107-1.107h3.1a1.107,1.107,0,0,1,1.107,1.107v3.1A1.107,1.107,0,0,1,15.2,52.49Z" fill="#ffa052"/>
        <path id="Path_818" data-name="Path 818" d="M47.549,17.489h-3.1a1.107,1.107,0,0,1-1.107-1.107v-3.1a1.107,1.107,0,0,1,1.107-1.107h3.1a1.107,1.107,0,0,1,1.107,1.107v3.1A1.107,1.107,0,0,1,47.549,17.489Z" fill="#ffa052"/>
        <path id="Path_819" data-name="Path 819" d="M47.549,17.489h-3.1a1.107,1.107,0,0,1-1.107-1.107v-3.1a1.107,1.107,0,0,1,1.107-1.107h3.1a1.107,1.107,0,0,1,1.107,1.107v3.1A1.107,1.107,0,0,1,47.549,17.489Z" fill="#ffa052"/>
        <circle id="Ellipse_18" data-name="Ellipse 18" cx="2.733" cy="2.733" r="2.733" transform="translate(78.269 12.1)" fill="#ffa052"/>
        <circle id="Ellipse_19" data-name="Ellipse 19" cx="2.733" cy="2.733" r="2.733" transform="translate(8.266 12.1)" fill="#ffa052"/>
      </g>
      <path id="Path_820" data-name="Path 820" d="M68.759,56.214,64.11,54.89a18.529,18.529,0,0,0-2.153-5.2l2.352-4.226a.923.923,0,0,0-.154-1.1l-3.178-3.178a.923.923,0,0,0-1.1-.154l-4.226,2.352a18.527,18.527,0,0,0-5.2-2.153l-1.324-4.65a.921.921,0,0,0-.887-.669H43.753a.921.921,0,0,0-.887.669l-1.324,4.65a18.529,18.529,0,0,0-5.2,2.153l-4.226-2.352a.923.923,0,0,0-1.1.154L27.845,44.37a.923.923,0,0,0-.154,1.1l2.352,4.226a18.527,18.527,0,0,0-2.153,5.2l-4.65,1.324a.921.921,0,0,0-.669.887v4.493a.921.921,0,0,0,.669.887l4.65,1.324A18.529,18.529,0,0,0,30.044,69l-2.352,4.226a.923.923,0,0,0,.154,1.1L31.023,77.5a.923.923,0,0,0,1.1.154L36.348,75.3a18.527,18.527,0,0,0,5.2,2.153l1.324,4.65a.921.921,0,0,0,.887.669h4.493a.921.921,0,0,0,.887-.669l1.324-4.65a18.529,18.529,0,0,0,5.2-2.153l4.226,2.352a.923.923,0,0,0,1.1-.154l3.178-3.178a.923.923,0,0,0,.154-1.1L61.956,69a18.527,18.527,0,0,0,2.153-5.2l4.65-1.324a.921.921,0,0,0,.669-.887V57.1A.921.921,0,0,0,68.759,56.214ZM46,68.983a9.636,9.636,0,1,1,9.636-9.636A9.636,9.636,0,0,1,46,68.983Z" fill="#d6b0ff"/>
      <path id="Path_821" data-name="Path 821" d="M51.576,32.765V67.207a9.636,9.636,0,0,1-11.151,0V32.765a3.591,3.591,0,0,1,.335-1.516l3.612-7.763a1.8,1.8,0,0,1,3.261,0l3.61,7.763a3.621,3.621,0,0,1,.334,1.516Z" fill="#ffa052"/>
      <path id="Path_822" data-name="Path 822" d="M46,33.8V68.982A9.575,9.575,0,0,1,40.425,67.2V33.8Z" fill="#ffe783"/>
      <path id="Path_823" data-name="Path 823" d="M44.37,23.487l-3.611,7.761a3.6,3.6,0,0,0-.336,1.517v2.292a4.562,4.562,0,0,0,4.607-.173,1.832,1.832,0,0,1,1.962.015,4.56,4.56,0,0,0,4.582.158V32.765a3.6,3.6,0,0,0-.335-1.517l-3.609-7.761a1.8,1.8,0,0,0-3.261,0Z" fill="#ffd5b8"/>
      <path id="Path_824" data-name="Path 824" d="M44.37,23.487,42.4,27.735a5.688,5.688,0,0,0,7.211,0l-1.975-4.247a1.8,1.8,0,0,0-3.261,0Z" fill="#b557ff"/>
      <path id="Path_825" data-name="Path 825" d="M81,18.464a3.631,3.631,0,1,0-3.514-4.53H49.554v-.651a2.007,2.007,0,0,0-2-2.005h-3.1a2.007,2.007,0,0,0-2,2.005v.651H14.512a3.631,3.631,0,1,0,0,1.8H35.2A33.264,33.264,0,0,0,12.769,46.28h-.664a2.007,2.007,0,0,0-2.005,2v3.1a2.007,2.007,0,0,0,2.005,2h3.1a2.007,2.007,0,0,0,2.005-2v-3.1a2.007,2.007,0,0,0-2.005-2h-.636A31.448,31.448,0,0,1,42.446,15.931v.451a2.007,2.007,0,0,0,2,2h3.1a2.007,2.007,0,0,0,2-2v-.451A31.448,31.448,0,0,1,77.433,46.28H76.8a2.007,2.007,0,0,0-2.005,2v3.1a2.007,2.007,0,0,0,2.005,2h3.1a2.007,2.007,0,0,0,2.005-2v-3.1a2.007,2.007,0,0,0-2.005-2h-.664A33.265,33.265,0,0,0,56.8,15.731H77.487A3.635,3.635,0,0,0,81,18.464ZM15.412,48.285v3.1a.208.208,0,0,1-.208.208h-3.1a.208.208,0,0,1-.208-.208v-3.1a.208.208,0,0,1,.208-.208h3.1A.208.208,0,0,1,15.412,48.285Zm64.692,0v3.1a.208.208,0,0,1-.208.208H76.8a.208.208,0,0,1-.208-.208v-3.1a.208.208,0,0,1,.208-.208h3.1A.208.208,0,0,1,80.1,48.285ZM81,13a1.834,1.834,0,1,1-1.834,1.834A1.836,1.836,0,0,1,81,13ZM11,16.667a1.834,1.834,0,1,1,1.834-1.834A1.836,1.836,0,0,1,11,16.667Zm36.759-.285a.208.208,0,0,1-.208.208h-3.1a.208.208,0,0,1-.208-.208v-3.1a.208.208,0,0,1,.208-.208h3.1a.208.208,0,0,1,.208.208Z" fill="#590bb2"/>
      <path id="Path_826" data-name="Path 826" d="M69,55.35,64.85,54.166a19.4,19.4,0,0,0-1.858-4.484l2.1-3.777a1.829,1.829,0,0,0-.3-2.17l-3.178-3.178a1.828,1.828,0,0,0-2.172-.3l-3.776,2.1a19.472,19.472,0,0,0-3.19-1.453V32.766a4.529,4.529,0,0,0-.419-1.9l-3.61-7.763a2.7,2.7,0,0,0-4.891,0l-3.61,7.763a4.528,4.528,0,0,0-.419,1.9V40.9a19.446,19.446,0,0,0-3.191,1.454l-3.777-2.1a1.828,1.828,0,0,0-2.17.3l-3.178,3.178a1.829,1.829,0,0,0-.3,2.172l2.1,3.776a19.406,19.406,0,0,0-1.858,4.484L22.995,55.35A1.827,1.827,0,0,0,21.673,57.1v4.493a1.827,1.827,0,0,0,1.322,1.751l4.155,1.183a19.4,19.4,0,0,0,1.858,4.484l-2.1,3.777a1.829,1.829,0,0,0,.3,2.17l3.178,3.178a1.827,1.827,0,0,0,2.172.3l3.776-2.1A19.406,19.406,0,0,0,40.819,78.2L42,82.352a1.827,1.827,0,0,0,1.751,1.322h4.493A1.827,1.827,0,0,0,50,82.352L51.18,78.2a19.4,19.4,0,0,0,4.484-1.858l3.777,2.1a1.828,1.828,0,0,0,2.171-.3l3.178-3.178a1.829,1.829,0,0,0,.3-2.171l-2.1-3.776a19.408,19.408,0,0,0,1.858-4.484L69,63.345a1.827,1.827,0,0,0,1.322-1.751V57.1A1.828,1.828,0,0,0,69,55.35ZM46,38.992a.9.9,0,0,0-.9.9V68.038a8.731,8.731,0,0,1-5.575-14.55v8.767a.9.9,0,0,0,1.8,0V36.349a5.437,5.437,0,0,0,4.192-.708.935.935,0,0,1,1,.018,5.437,5.437,0,0,0,4.164.689V66.586a.889.889,0,0,0,.013.127A8.677,8.677,0,0,1,46.9,68.038V39.891a.9.9,0,0,0-.9-.9Zm6.475,14.487a8.73,8.73,0,0,1,0,11.728Zm-7.29-29.614a.9.9,0,0,1,1.632,0l1.658,3.566A4.8,4.8,0,0,1,46,28.125a4.731,4.731,0,0,1-2.474-.692Zm-3.61,7.763,1.189-2.557a6.579,6.579,0,0,0,6.474,0l1.189,2.557a2.717,2.717,0,0,1,.252,1.138v1.712a3.661,3.661,0,0,1-3.205-.338,2.739,2.739,0,0,0-2.926-.012,3.636,3.636,0,0,1-1.965.573,3.683,3.683,0,0,1-1.259-.224V32.766A2.719,2.719,0,0,1,41.575,31.628ZM68.53,61.594a.023.023,0,0,1-.017.022l-4.65,1.324a.9.9,0,0,0-.627.65,17.612,17.612,0,0,1-2.048,4.943.9.9,0,0,0-.017.9l2.352,4.224a.025.025,0,0,1,0,.028l-3.178,3.178a.024.024,0,0,1-.027,0L56.09,74.518a.9.9,0,0,0-.9.017,17.6,17.6,0,0,1-4.943,2.048.9.9,0,0,0-.65.627l-1.324,4.65a.022.022,0,0,1-.022.017H43.753a.023.023,0,0,1-.023-.017l-1.324-4.65a.9.9,0,0,0-.65-.627,17.615,17.615,0,0,1-4.943-2.048.9.9,0,0,0-.9-.017L31.686,76.87a.024.024,0,0,1-.028,0L28.48,73.689a.025.025,0,0,1,0-.027l2.352-4.226a.9.9,0,0,0-.017-.9,17.6,17.6,0,0,1-2.048-4.943.9.9,0,0,0-.627-.65l-4.65-1.324a.022.022,0,0,1-.017-.022V57.1a.023.023,0,0,1,.017-.023l4.65-1.324a.9.9,0,0,0,.627-.65,17.615,17.615,0,0,1,2.048-4.943.9.9,0,0,0,.017-.9l-2.352-4.224a.025.025,0,0,1,0-.028l3.178-3.178a.025.025,0,0,1,.027,0l4.226,2.352a.9.9,0,0,0,.9-.017,17.65,17.65,0,0,1,2.713-1.341v8.225a10.532,10.532,0,1,0,17.008,8.3,10.456,10.456,0,0,0-4.06-8.306V42.818a17.649,17.649,0,0,1,2.712,1.341.9.9,0,0,0,.9.017l4.224-2.352a.024.024,0,0,1,.028,0L63.52,45a.025.025,0,0,1,0,.027l-2.352,4.226a.9.9,0,0,0,.017.9A17.6,17.6,0,0,1,63.237,55.1a.9.9,0,0,0,.627.65l4.65,1.324a.022.022,0,0,1,.017.022Z" fill="#590bb2"/>
      <path id="Path_827" data-name="Path 827" d="M81,13.792a2.733,2.733,0,1,0-2.579-3.631H48.656V9.51A1.107,1.107,0,0,0,47.549,8.4h-3.1A1.107,1.107,0,0,0,43.344,9.51v.651H13.577a2.733,2.733,0,1,0,0,1.8H36.6A33.3,33.3,0,0,0,12.76,43.4H12.1A1.107,1.107,0,0,0,11,44.512v3.1A1.107,1.107,0,0,0,12.1,48.717h3.1A1.107,1.107,0,0,0,16.31,47.61v-3.1A1.107,1.107,0,0,0,15.2,43.4h-.645A31.489,31.489,0,0,1,43.344,12.513v.1a1.107,1.107,0,0,0,1.107,1.107h3.1a1.107,1.107,0,0,0,1.107-1.107v-.1A31.489,31.489,0,0,1,77.442,43.4H76.8a1.107,1.107,0,0,0-1.107,1.107v3.1A1.107,1.107,0,0,0,76.8,48.717h3.1A1.107,1.107,0,0,0,81,47.61v-3.1A1.107,1.107,0,0,0,79.9,43.4H79.24A33.3,33.3,0,0,0,55.4,11.957H78.423A2.731,2.731,0,0,0,81,13.792Z" fill="#590bb2" opacity="0.1"/>
      <path id="Path_828" data-name="Path 828" d="M10.474,28.609a.9.9,0,0,1-.9-.9A1.078,1.078,0,0,0,8.5,26.633a.9.9,0,1,1,0-1.8,1.078,1.078,0,0,0,1.077-1.077.9.9,0,1,1,1.8,0,1.078,1.078,0,0,0,1.077,1.077.9.9,0,1,1,0,1.8,1.078,1.078,0,0,0-1.077,1.077.9.9,0,0,1-.9.9Z" fill="#ffe783"/>
      <path id="Path_829" data-name="Path 829" d="M62.086,33.62a.9.9,0,0,1-.9-.9,1.078,1.078,0,0,0-1.077-1.077.9.9,0,1,1,0-1.8,1.078,1.078,0,0,0,1.077-1.077.9.9,0,1,1,1.8,0,1.078,1.078,0,0,0,1.077,1.077.9.9,0,0,1,0,1.8,1.078,1.078,0,0,0-1.077,1.077A.9.9,0,0,1,62.086,33.62Z" fill="#c182f9"/>
      <path id="Path_830" data-name="Path 830" d="M18.286,78.7a.9.9,0,0,1-.635-.263l-1.975-1.975a.9.9,0,0,1,0-1.27l1.975-1.975a.9.9,0,0,1,1.27,0L20.9,75.192a.9.9,0,0,1,0,1.27l-1.975,1.975A.9.9,0,0,1,18.286,78.7Zm-.7-2.874.7.7.7-.7-.7-.7Z" fill="#ffa052"/>
      <path id="Path_831" data-name="Path 831" d="M77.729,64.414a.9.9,0,0,1-.635-.263l-1.975-1.975a.9.9,0,0,1,0-1.27l1.975-1.975a.9.9,0,0,1,1.27,0l1.975,1.975a.9.9,0,0,1,0,1.27l-1.975,1.975A.9.9,0,0,1,77.729,64.414Zm-.7-2.874.7.7.7-.7-.7-.7Z" fill="#ffa052"/>
    </g>
  </g>
</svg>
