<svg xmlns="http://www.w3.org/2000/svg" xmlns:xlink="http://www.w3.org/1999/xlink" width="89" height="84" viewBox="0 0 89 84">
  <defs>
    <clipPath id="clip-path">
      <rect id="Rectangle_1147" data-name="Rectangle 1147" width="89" height="84" transform="translate(541 1018)" fill="#fff" stroke="#707070" stroke-width="1"/>
    </clipPath>
    <linearGradient id="linear-gradient" x1="0.292" y1="0.5" x2="2.192" y2="0.5" gradientUnits="objectBoundingBox">
      <stop offset="0.001" stop-color="#fff0d5"/>
      <stop offset="0.511" stop-color="#ffdfff"/>
      <stop offset="1" stop-color="#d9ceff"/>
    </linearGradient>
  </defs>
  <g id="Mask_Group_62" data-name="Mask Group 62" transform="translate(-541 -1018)" clip-path="url(#clip-path)">
    <g id="_006-web_development" data-name="006-web development" transform="translate(543.5 1018)">
      <path id="Path_832" data-name="Path 832" d="M50.872,14.659A23.521,23.521,0,1,0,11.53,39.174a17.849,17.849,0,0,1,4.433,12.513q-.031.914-.009,1.841A31.676,31.676,0,0,0,47.211,84,31.251,31.251,0,0,0,60.123,24.3,18.043,18.043,0,0,1,50.872,14.659Z" fill="url(#linear-gradient)"/>
      <path id="Path_833" data-name="Path 833" d="M74.813,14.49V56.2a2.462,2.462,0,0,1-2.461,2.461h-60.7A2.462,2.462,0,0,1,9.188,56.2V14.49a2.462,2.462,0,0,1,2.461-2.461h60.7a2.462,2.462,0,0,1,2.461,2.461Z" fill="#590bb2" opacity="0.1"/>
      <path id="Path_834" data-name="Path 834" d="M52.391,10.959a.82.82,0,0,1-.58-.24L50,8.911a.82.82,0,0,1,0-1.16l1.808-1.808a.82.82,0,0,1,1.16,0l1.808,1.808a.82.82,0,0,1,0,1.16l-1.808,1.808A.821.821,0,0,1,52.391,10.959Zm-.647-2.628.647.648.648-.648-.648-.648Z" fill="#ffa052"/>
      <path id="Path_835" data-name="Path 835" d="M62.68,71.61a.82.82,0,0,1-.58-.24l-1.808-1.808a.82.82,0,0,1,0-1.16L62.1,66.594a.82.82,0,0,1,1.16,0L65.068,68.4a.82.82,0,0,1,0,1.16L63.26,71.37a.821.821,0,0,1-.58.24Zm-.647-2.628.647.648.648-.648-.648-.648Z" fill="#c182f9"/>
      <path id="Path_836" data-name="Path 836" d="M17.5,78.3a.82.82,0,0,1-.82-.82.989.989,0,0,0-.987-.987.82.82,0,0,1,0-1.641.989.989,0,0,0,.987-.987.82.82,0,0,1,1.641,0,.988.988,0,0,0,.987.987.82.82,0,1,1,0,1.641.989.989,0,0,0-.987.987A.82.82,0,0,1,17.5,78.3Z" fill="#ffe783"/>
      <path id="Path_837" data-name="Path 837" d="M24.612,70.685a.82.82,0,0,1-.82-.82.988.988,0,0,0-.987-.987.82.82,0,0,1,0-1.641.989.989,0,0,0,.987-.987.82.82,0,0,1,1.641,0,.989.989,0,0,0,.987.987.82.82,0,0,1,0,1.641.989.989,0,0,0-.987.987A.82.82,0,0,1,24.612,70.685Z" fill="#c182f9"/>
      <path id="Path_838" data-name="Path 838" d="M51.3,74.037H32.7l2.425-9.615,1.3-5.135H47.583l1.3,5.135Z" fill="#afabc6"/>
      <path id="Path_839" data-name="Path 839" d="M48.879,64.423H35.121l1.3-5.135H47.583Z" fill="#8e8ca8"/>
      <path id="Path_840" data-name="Path 840" d="M51.3,74.857H32.7a.82.82,0,0,1-.8-1.021l2.929-11.606a.82.82,0,1,1,1.591.4L33.748,73.216h16.5l-2.695-10.68a.82.82,0,1,1,1.591-.4l2.952,11.7a.82.82,0,0,1-.8,1.021Z" fill="#590bb2"/>
      <path id="Path_841" data-name="Path 841" d="M74.813,17.935V59.648a2.462,2.462,0,0,1-2.461,2.461h-60.7a2.462,2.462,0,0,1-2.461-2.461V17.935a2.462,2.462,0,0,1,2.461-2.461h60.7a2.462,2.462,0,0,1,2.461,2.461Z" fill="#f5f4f9"/>
      <path id="Path_842" data-name="Path 842" d="M72.352,15.474H58.242V62.109H72.352a2.462,2.462,0,0,0,2.461-2.461V17.935a2.462,2.462,0,0,0-2.461-2.461Z" fill="#ffbe92"/>
      <path id="Path_843" data-name="Path 843" d="M71.777,31.084,70.6,26.942a.822.822,0,0,0-.789-.6h-4a.822.822,0,0,0-.789.6l-1.18,4.143A16.487,16.487,0,0,0,59.209,33l-3.764-2.1a.82.82,0,0,0-.979.136l-2.83,2.832a.822.822,0,0,0-.138.979l2.1,3.764a16.5,16.5,0,0,0-1.918,4.627l-4.143,1.181a.819.819,0,0,0-.6.789v4a.822.822,0,0,0,.6.789l4.143,1.18a16.429,16.429,0,0,0,1.172,3.25H64.8a7.821,7.821,0,1,1,10.011-10.7V32.151a16.508,16.508,0,0,0-3.035-1.066Z" fill="#ffa052"/>
      <path id="Path_844" data-name="Path 844" d="M71.777,31.084,70.6,26.942a.822.822,0,0,0-.789-.6h-4a.822.822,0,0,0-.789.6l-1.18,4.143A16.487,16.487,0,0,0,59.209,33l-3.764-2.1a.82.82,0,0,0-.979.136l-2.83,2.832a.822.822,0,0,0-.138.979l2.1,3.764a16.5,16.5,0,0,0-1.918,4.627l-4.143,1.181a.819.819,0,0,0-.6.789v4a.822.822,0,0,0,.6.789l4.143,1.18a16.429,16.429,0,0,0,1.172,3.25H64.8a7.821,7.821,0,1,1,10.011-10.7V32.151a16.508,16.508,0,0,0-3.035-1.066Z" fill="#ff8736"/>
      <path id="Path_845" data-name="Path 845" d="M74.813,23.377V17.935a2.461,2.461,0,0,0-2.461-2.461h-60.7a2.461,2.461,0,0,0-2.461,2.461v5.442Z" fill="#c182f9"/>
      <path id="Path_846" data-name="Path 846" d="M74.813,24.2H9.188a.82.82,0,1,1,0-1.641H74.813a.82.82,0,1,1,0,1.641Z" fill="#590bb2"/>
      <path id="Path_847" data-name="Path 847" d="M9.188,53.842v5.806a2.461,2.461,0,0,0,2.461,2.461h60.7a2.461,2.461,0,0,0,2.461-2.461V53.842Z" fill="#cecae0"/>
      <g id="Group_1086" data-name="Group 1086">
        <path id="Path_848" data-name="Path 848" d="M74.722,54.662H14.431a.82.82,0,1,1,0-1.641H74.722a.82.82,0,0,1,0,1.641Z" fill="#590bb2"/>
        <path id="Path_849" data-name="Path 849" d="M54.458,74.857H29.542a.82.82,0,1,1,0-1.641H54.458a.82.82,0,0,1,0,1.641Z" fill="#590bb2"/>
        <path id="Path_850" data-name="Path 850" d="M15.435,20.258a.82.82,0,0,1-.82-.82v-.024a.82.82,0,0,1,1.641,0v.024A.82.82,0,0,1,15.435,20.258Z" fill="#590bb2"/>
        <path id="Path_851" data-name="Path 851" d="M18.606,20.258a.82.82,0,0,1-.82-.82v-.024a.82.82,0,0,1,1.641,0v.024A.82.82,0,0,1,18.606,20.258Z" fill="#590bb2"/>
        <path id="Path_852" data-name="Path 852" d="M21.776,20.258a.82.82,0,0,1-.82-.82v-.024a.82.82,0,0,1,1.641,0v.024A.82.82,0,0,1,21.776,20.258Z" fill="#590bb2"/>
        <path id="Path_853" data-name="Path 853" d="M72.352,62.929h-60.7a3.285,3.285,0,0,1-3.281-3.281V17.935a3.285,3.285,0,0,1,3.281-3.281h60.7a3.285,3.285,0,0,1,3.281,3.281v5.442a.82.82,0,0,1-1.641,0V17.935a1.642,1.642,0,0,0-1.641-1.641h-60.7a1.642,1.642,0,0,0-1.641,1.641V59.648a1.642,1.642,0,0,0,1.641,1.641h60.7a1.642,1.642,0,0,0,1.641-1.641V27.9a.82.82,0,0,1,1.641,0V59.648A3.285,3.285,0,0,1,72.352,62.929Z" fill="#590bb2"/>
      </g>
      <path id="Path_854" data-name="Path 854" d="M42.609,45H15.252a.822.822,0,1,1,0-1.643H42.609a.822.822,0,0,1,0,1.643Z" fill="#ddd9e4"/>
      <path id="Path_855" data-name="Path 855" d="M32.765,38.108H15.252a.822.822,0,1,1,0-1.643H32.765a.822.822,0,1,1,0,1.643Z" fill="#ffbe92"/>
      <path id="Path_856" data-name="Path 856" d="M42.609,48.257H15.252a.822.822,0,1,1,0-1.643H42.609a.822.822,0,1,1,0,1.643Z" fill="#ddd9e4"/>
      <path id="Path_857" data-name="Path 857" d="M17.41,33.216a.817.817,0,0,1-.58-.24L14.855,31a.82.82,0,0,1,0-1.16l1.974-1.974a.82.82,0,0,1,1.16,1.16L16.6,30.422l1.394,1.395a.82.82,0,0,1-.58,1.4Z" fill="#b557ff"/>
      <path id="Path_858" data-name="Path 858" d="M25.082,33.216a.82.82,0,0,1-.58-1.4L25.9,30.422,24.5,29.027a.82.82,0,0,1,1.16-1.16l1.974,1.974a.82.82,0,0,1,0,1.16l-1.974,1.974A.817.817,0,0,1,25.082,33.216Z" fill="#b557ff"/>
      <path id="Path_859" data-name="Path 859" d="M20.13,33.217a.821.821,0,0,1-.714-1.224l2.23-3.949a.82.82,0,1,1,1.429.807L20.845,32.8a.82.82,0,0,1-.715.417Z" fill="#b557ff"/>
      <path id="Path_860" data-name="Path 860" d="M62.188,48.257H59.563a.492.492,0,0,1-.492-.492V37.779a.492.492,0,0,1,.492-.492h2.625a.492.492,0,0,1,.492.492v9.986A.492.492,0,0,1,62.188,48.257Z" fill="#ffe783"/>
      <path id="Path_861" data-name="Path 861" d="M56.821,48.257H54.2a.492.492,0,0,1-.492-.492V41.587a.492.492,0,0,1,.492-.492h2.625a.492.492,0,0,1,.492.492v6.178A.492.492,0,0,1,56.821,48.257Z" fill="#ffe783"/>
      <path id="Path_862" data-name="Path 862" d="M67.555,48.257H64.93a.492.492,0,0,1-.492-.492V34.912a.492.492,0,0,1,.492-.492h2.625a.492.492,0,0,1,.492.492V47.765A.492.492,0,0,1,67.555,48.257Z" fill="#ffe783"/>
      <circle id="Ellipse_20" data-name="Ellipse 20" cx="0.917" cy="0.917" r="0.917" transform="translate(49.736 27.627)" fill="#c182f9"/>
      <circle id="Ellipse_21" data-name="Ellipse 21" cx="0.917" cy="0.917" r="0.917" transform="translate(46.961 27.627)" fill="#c182f9"/>
      <circle id="Ellipse_22" data-name="Ellipse 22" cx="0.917" cy="0.917" r="0.917" transform="translate(44.187 27.627)" fill="#c182f9"/>
    </g>
  </g>
</svg>
