<svg xmlns="http://www.w3.org/2000/svg" xmlns:xlink="http://www.w3.org/1999/xlink" width="64" height="50" viewBox="0 0 64 50">
  <defs>
    <clipPath id="clip-path">
      <rect id="Rectangle_1155" data-name="Rectangle 1155" width="64" height="50" transform="translate(0.49 0.35)" fill="#fff"/>
    </clipPath>
    <linearGradient id="linear-gradient" x1="0.404" y1="0.5" x2="1.567" y2="0.5" gradientUnits="objectBoundingBox">
      <stop offset="0.001" stop-color="#fff0d5"/>
      <stop offset="0.511" stop-color="#ffdfff"/>
      <stop offset="1" stop-color="#d9ceff"/>
    </linearGradient>
  </defs>
  <g id="Mask_Group_69" data-name="Mask Group 69" transform="translate(-0.49 -0.35)" clip-path="url(#clip-path)">
    <g id="_035-home" data-name="035-home" transform="translate(0 0.394)">
      <path id="Path_1039" data-name="Path 1039" d="M48.094,21.761h-.073a14.439,14.439,0,0,1-10.488-4.412A22.134,22.134,0,0,0,21.3,10.566C9.548,10.614-.15,19.74,0,30.6.153,41.4,9.675,50.116,21.4,50.116a22.769,22.769,0,0,0,9.245-1.937,7.623,7.623,0,0,1,7.412.716A17.169,17.169,0,0,0,47.968,52c8.973.014,16.339-6.74,16.391-15.031.053-8.369-7.22-15.162-16.265-15.211Z" transform="translate(0 -6.775)" fill="url(#linear-gradient)"/>
      <path id="Path_1040" data-name="Path 1040" d="M49.263,8.07V50.463A2.184,2.184,0,0,1,47,52.556H21.428a2.184,2.184,0,0,1-2.265-2.093V8.07a2.184,2.184,0,0,1,2.265-2.093H47A2.184,2.184,0,0,1,49.263,8.07Z" transform="translate(-2.034 -5.977)" fill="#590bb2" opacity="0.1"/>
      <path id="Path_1041" data-name="Path 1041" d="M49.263,11.023V53.416A2.184,2.184,0,0,1,47,55.509H21.428a2.184,2.184,0,0,1-2.265-2.093V11.023A2.184,2.184,0,0,1,21.428,8.93H47A2.184,2.184,0,0,1,49.263,11.023Z" transform="translate(-2.034 -6.491)" fill="#f5f4f9"/>
      <path id="Path_1042" data-name="Path 1042" d="M19.163,54.447v6.889a2.184,2.184,0,0,0,2.265,2.093H47a2.184,2.184,0,0,0,2.265-2.093V54.447Z" transform="translate(-2.034 -14.41)" fill="#ffd5b8"/>
      <path id="Path_1043" data-name="Path 1043" d="M43.788,11.815,44.794,8.93H24.836l1.006,2.886a1.082,1.082,0,0,0,1.033.7H42.755A1.082,1.082,0,0,0,43.788,11.815Z" transform="translate(-2.636 -6.491)" fill="#cecae0"/>
      <path id="Path_1044" data-name="Path 1044" d="M46.923,8.227H44.117a.626.626,0,0,0-.6.4l-1.006,2.886a.456.456,0,0,1-.435.3H26.2a.456.456,0,0,1-.435-.3l-.742-2.127H40.651a.583.583,0,1,0,0-1.162h-19.3A2.793,2.793,0,0,0,18.46,10.9V43.2a.63.63,0,0,0,1.257,0V10.9a1.58,1.58,0,0,1,1.636-1.512H23.7l.866,2.483a1.7,1.7,0,0,0,1.631,1.1H42.078a1.7,1.7,0,0,0,1.631-1.1l.866-2.483h2.348A1.58,1.58,0,0,1,48.56,10.9V53.294a1.58,1.58,0,0,1-1.636,1.512H21.353a1.58,1.58,0,0,1-1.636-1.512V46.405a.63.63,0,0,0-1.257,0v6.889a2.793,2.793,0,0,0,2.893,2.674h25.57a2.793,2.793,0,0,0,2.893-2.674V10.9a2.793,2.793,0,0,0-2.893-2.674Z" transform="translate(-1.959 -6.368)" fill="#590bb2"/>
      <path id="Path_1045" data-name="Path 1045" d="M39.6,45.873H31.257a.6.6,0,1,1,0-1.2H39.6a.6.6,0,1,1,0,1.2Z" transform="translate(-3.249 -12.709)" fill="#fdd250"/>
      <path id="Path_1046" data-name="Path 1046" d="M37.612,48.565H33.78a.6.6,0,1,1,0-1.2h3.832a.6.6,0,1,1,0,1.2Z" transform="translate(-3.517 -13.178)" fill="#ddd9e4"/>
      <path id="Path_1047" data-name="Path 1047" d="M37.612,51.257H33.78a.6.6,0,1,1,0-1.2h3.832a.6.6,0,1,1,0,1.2Z" transform="translate(-3.517 -13.646)" fill="#ddd9e4"/>
      <g id="Group_1100" data-name="Group 1100" transform="translate(29.36 43.29)">
        <ellipse id="Ellipse_45" data-name="Ellipse 45" cx="0.7" cy="0.654" rx="0.7" ry="0.654" transform="translate(4.237)" fill="#ffa052"/>
        <ellipse id="Ellipse_46" data-name="Ellipse 46" cx="0.7" cy="0.654" rx="0.7" ry="0.654" transform="translate(2.119)" fill="#ffa052"/>
        <ellipse id="Ellipse_47" data-name="Ellipse 47" cx="0.7" cy="0.654" rx="0.7" ry="0.654" fill="#ffa052"/>
      </g>
      <path id="Path_1048" data-name="Path 1048" d="M34.715,20.3,23.889,28.747h2.518a.364.364,0,0,1,.378.349v8.94a.364.364,0,0,0,.378.349H42.268a.364.364,0,0,0,.378-.349V29.1a.364.364,0,0,1,.378-.349h2.518Z" transform="translate(-2.535 -8.469)" fill="#ffbe92"/>
      <path id="Path_1049" data-name="Path 1049" d="M45.466,29.205a.658.658,0,0,1-.405-.137L34.64,20.936,24.22,29.068A.665.665,0,0,1,23.334,29a.551.551,0,0,1,.075-.819l10.826-8.449a.669.669,0,0,1,.811,0l10.826,8.449a.551.551,0,0,1,.075.819.649.649,0,0,1-.481.206Z" transform="translate(-2.461 -8.346)" fill="#ffa052"/>
      <path id="Path_1050" data-name="Path 1050" d="M35.983,40.414H30.7V32.543a.607.607,0,0,1,.629-.582h4.028a.607.607,0,0,1,.629.582Z" transform="translate(-3.258 -10.498)" fill="#c182f9"/>
      <ellipse id="Ellipse_48" data-name="Ellipse 48" cx="1.595" cy="1.473" rx="1.595" ry="1.473" transform="translate(34.268 21.463)" fill="#ffeadc"/>
      <path id="Path_1051" data-name="Path 1051" d="M27.367,18.871a2.1,2.1,0,0,0-4.181,0,1.853,1.853,0,0,0,.6,1.351,1.853,1.853,0,0,0-.6,1.351.63.63,0,0,0,1.257,0,.836.836,0,0,1,1.667,0,.63.63,0,0,0,1.257,0,1.853,1.853,0,0,0-.6-1.351A1.853,1.853,0,0,0,27.367,18.871Zm-2.09-.77a.773.773,0,1,1-.833.77A.8.8,0,0,1,25.276,18.1Z" transform="translate(-2.461 -7.884)" fill="#c182f9"/>
      <path id="Path_1052" data-name="Path 1052" d="M57.909,23.2a.606.606,0,0,1-.629-.581.732.732,0,0,0-.758-.7.583.583,0,1,1,0-1.162.732.732,0,0,0,.758-.7.63.63,0,0,1,1.257,0,.732.732,0,0,0,.758.7.583.583,0,1,1,0,1.162.732.732,0,0,0-.758.7A.606.606,0,0,1,57.909,23.2Z" transform="translate(-5.932 -8.325)" fill="#ffe783"/>
      <path id="Path_1053" data-name="Path 1053" d="M12.8,46.625a.606.606,0,0,1-.629-.581.732.732,0,0,0-.758-.7.583.583,0,1,1,0-1.162.732.732,0,0,0,.758-.7.63.63,0,0,1,1.257,0,.732.732,0,0,0,.758.7.583.583,0,1,1,0,1.162.732.732,0,0,0-.758.7A.606.606,0,0,1,12.8,46.625Z" transform="translate(-1.144 -12.401)" fill="#c182f9"/>
      <path id="Path_1054" data-name="Path 1054" d="M58.728,32.292a.654.654,0,0,1-.444-.17L56.9,30.843a.55.55,0,0,1,0-.821l1.384-1.279a.665.665,0,0,1,.889,0l1.384,1.279a.55.55,0,0,1,0,.821l-1.384,1.279A.653.653,0,0,1,58.728,32.292Zm-.5-1.86.5.457.5-.457-.5-.457Z" transform="translate(-6.019 -9.908)" fill="#ffa052"/>
      <path id="Path_1055" data-name="Path 1055" d="M14.1,38.806a.606.606,0,0,1-.629-.581.732.732,0,0,0-.758-.7.583.583,0,1,1,0-1.162.732.732,0,0,0,.758-.7.63.63,0,0,1,1.257,0,.732.732,0,0,0,.758.7.583.583,0,1,1,0,1.162.732.732,0,0,0-.758.7A.606.606,0,0,1,14.1,38.806Z" transform="translate(-1.283 -11.041)" fill="#c182f9"/>
    </g>
  </g>
</svg>
