<svg xmlns="http://www.w3.org/2000/svg" xmlns:xlink="http://www.w3.org/1999/xlink" width="220" height="180" viewBox="0 0 220 180">
  <defs>
    <clipPath id="clip-path">
      <rect id="Rectangle_1338" data-name="Rectangle 1338" width="220" height="180" transform="translate(402 4331)" fill="#fff" stroke="#707070" stroke-width="1"/>
    </clipPath>
  </defs>
  <g id="Mask_Group_91" data-name="Mask Group 91" transform="translate(-402 -4331)" clip-path="url(#clip-path)">
    <g id="django-community" transform="translate(402 4382.568)">
      <path id="Path_2557" data-name="Path 2557" d="M25.939,0H37.97V55.69a79.363,79.363,0,0,1-15.625,1.641C7.656,57.33,0,50.691,0,37.955,0,25.69,8.126,17.721,20.7,17.721a19.238,19.238,0,0,1,5.235.624Zm0,28.033a11.953,11.953,0,0,0-4.063-.624c-6.094,0-9.61,3.75-9.61,10.312,0,6.407,3.36,9.922,9.532,9.922a28.015,28.015,0,0,0,4.141-.312Z" fill="#092e20"/>
      <path id="Path_2558" data-name="Path 2558" d="M57.11,18.58V46.471c0,9.61-.7,14.219-2.812,18.2-1.954,3.829-4.532,6.25-9.844,8.907L33.281,68.269c5.313-2.5,7.891-4.687,9.531-8.048,1.719-3.437,2.267-7.422,2.267-17.891V18.58H57.11ZM45.079.064H57.11V12.408H45.079Zm19.3,21.25a36.2,36.2,0,0,1,15.938-3.593c6.172,0,10.234,1.64,12.032,4.843,1.015,1.8,1.328,4.14,1.328,9.141V56.159a132.4,132.4,0,0,1-17.188,1.329c-10.078,0-14.61-3.517-14.61-11.329,0-8.439,6.016-12.345,20.782-13.595V29.907c0-2.187-1.094-2.968-4.141-2.968a31.508,31.508,0,0,0-14.141,3.672v-9.3ZM83.206,40.455c-7.969.781-10.548,2.031-10.548,5.156,0,2.343,1.485,3.437,4.766,3.437a33.191,33.191,0,0,0,5.781-.546Zm16.328-20a72.154,72.154,0,0,1,18.906-2.734c6.172,0,10.625,1.406,13.283,4.14,2.5,2.577,3.281,5.39,3.281,11.407V56.862H122.972V33.737c0-4.609-1.562-6.329-5.859-6.329a18.125,18.125,0,0,0-5.548.859V56.862H99.534Zm40.146,42.969a27.383,27.383,0,0,0,12.891,3.2c7.89,0,11.249-3.2,11.249-10.859v-.234a16.46,16.46,0,0,1-7.812,1.641c-10.547,0-17.267-6.953-17.267-17.968,0-13.673,9.923-21.407,27.5-21.407a75.946,75.946,0,0,1,15.7,1.718l-4.12,8.678c-3.2-.625-.257-.084-2.677-.318v1.25L175.3,34.2l.078,6.563c.078,1.64.078,3.281.157,4.922v3.282c0,10.312-.859,15.156-3.437,19.141-3.75,5.86-10.235,8.75-19.454,8.75a34.416,34.416,0,0,1-12.969-2.344V63.424Zm23.907-35.938h-1.249a13.146,13.146,0,0,0-6.953,1.718c-2.89,1.641-4.376,4.61-4.376,8.829,0,6.016,2.97,9.454,8.282,9.454a14.926,14.926,0,0,0,4.53-.781v-4.14c0-1.407-.077-2.97-.077-4.61l-.078-5.547-.079-3.985v-.938Zm37.037-9.922c12.031,0,19.375,7.579,19.375,19.844,0,12.579-7.656,20.47-19.844,20.47-12.032,0-19.455-7.579-19.455-19.766,0-12.658,7.658-20.548,19.923-20.548Zm-.235,30.625c4.61,0,7.344-3.828,7.344-10.469,0-6.562-2.657-10.469-7.265-10.469-4.766,0-7.5,3.829-7.5,10.469S195.7,48.19,200.389,48.19Z" fill="#092e20"/>
    </g>
  </g>
</svg>
