<svg xmlns="http://www.w3.org/2000/svg" xmlns:xlink="http://www.w3.org/1999/xlink" width="220" height="180" viewBox="0 0 220 180">
  <defs>
    <clipPath id="clip-path">
      <rect id="Rectangle_1337" data-name="Rectangle 1337" width="220" height="180" transform="translate(649 4061)" fill="#fff" stroke="#707070" stroke-width="1"/>
    </clipPath>
  </defs>
  <g id="Mask_Group_89" data-name="Mask Group 89" transform="translate(-649 -4061)" clip-path="url(#clip-path)">
    <path id="apple-black" d="M122.407,95.628c.253,27.24,23.9,36.3,24.158,36.42a98.509,98.509,0,0,1-12.457,25.6c-7.5,10.965-15.289,21.89-27.555,22.116-12.052.222-15.928-7.147-29.707-7.147s-18.081,6.921-29.49,7.369c-11.84.448-20.856-11.857-28.42-22.782C3.478,134.858-8.334,94.057,7.527,66.515c7.88-13.677,21.961-22.338,37.245-22.56,11.626-.222,22.6,7.822,29.707,7.822s20.438-9.673,34.458-8.252c5.869.244,22.343,2.371,32.922,17.855-.852.528-19.657,11.476-19.453,34.249M99.755,28.74c6.286-7.609,10.516-18.2,9.362-28.74C100.057.364,89.1,6.038,82.6,13.642c-5.824,6.734-10.925,17.513-9.549,27.843,10.1.781,20.416-5.132,26.7-12.745" transform="translate(685.718 4061)"/>
  </g>
</svg>
