<svg xmlns="http://www.w3.org/2000/svg" xmlns:xlink="http://www.w3.org/1999/xlink" width="80" height="70" viewBox="0 0 80 70">
  <defs>
    <clipPath id="clip-path">
      <rect id="Rectangle_1126" data-name="Rectangle 1126" width="80" height="70" transform="translate(381 1276)" fill="#fff" stroke="#707070" stroke-width="1"/>
    </clipPath>
    <linearGradient id="linear-gradient" x1="0.682" y1="0.175" x2="0.278" y2="0.898" gradientUnits="objectBoundingBox">
      <stop offset="0" stop-color="#41873f"/>
      <stop offset="0.329" stop-color="#418b3d"/>
      <stop offset="0.635" stop-color="#419637"/>
      <stop offset="0.932" stop-color="#3fa92d"/>
      <stop offset="1" stop-color="#3fae2a"/>
    </linearGradient>
    <linearGradient id="linear-gradient-2" x1="0.433" y1="0.552" x2="1.592" y2="-0.183" gradientUnits="objectBoundingBox">
      <stop offset="0.138" stop-color="#41873f"/>
      <stop offset="0.403" stop-color="#54a044"/>
      <stop offset="0.714" stop-color="#66b848"/>
      <stop offset="0.908" stop-color="#6cc04a"/>
    </linearGradient>
    <linearGradient id="linear-gradient-3" x1="-44.138" y1="0.134" x2="53.279" y2="0.134" gradientUnits="objectBoundingBox">
      <stop offset="0.092" stop-color="#6cc04a"/>
      <stop offset="0.286" stop-color="#66b848"/>
      <stop offset="0.597" stop-color="#54a044"/>
      <stop offset="0.862" stop-color="#41873f"/>
    </linearGradient>
    <linearGradient id="linear-gradient-4" x1="-0.044" y1="0.5" x2="1.015" y2="0.5" xlink:href="#linear-gradient-3"/>
    <linearGradient id="linear-gradient-5" x1="-97.138" y1="0.362" x2="0.279" y2="0.362" xlink:href="#linear-gradient-3"/>
    <linearGradient id="linear-gradient-6" x1="-1.039" y1="0.503" x2="1.008" y2="0.503" xlink:href="#linear-gradient-3"/>
    <linearGradient id="linear-gradient-7" x1="1.306" y1="-2.111" x2="0.044" y2="2.016" xlink:href="#linear-gradient"/>
  </defs>
  <g id="Mask_Group_39" data-name="Mask Group 39" transform="translate(-381 -1276)" clip-path="url(#clip-path)">
    <g id="nodejs-1" transform="translate(380.964 1286.506)">
      <path id="Path_698" data-name="Path 698" d="M39.6,48.987a1.586,1.586,0,0,1-.759-.2l-2.4-1.428c-.362-.2-.181-.271-.072-.307a4.387,4.387,0,0,0,1.085-.488.166.166,0,0,1,.181.018l1.845,1.1a.23.23,0,0,0,.217,0l7.215-4.177a.208.208,0,0,0,.109-.2V34.973a.208.208,0,0,0-.109-.2l-7.215-4.159a.229.229,0,0,0-.217,0L32.26,34.774a.227.227,0,0,0-.109.2v8.336a.227.227,0,0,0,.109.2l1.971,1.139c1.067.542,1.736-.09,1.736-.723V35.7a.22.22,0,0,1,.217-.217h.922a.22.22,0,0,1,.217.217v8.228a2.006,2.006,0,0,1-2.134,2.26,3.1,3.1,0,0,1-1.664-.452l-1.9-1.085a1.526,1.526,0,0,1-.759-1.32V34.991a1.526,1.526,0,0,1,.759-1.32l7.215-4.177a1.614,1.614,0,0,1,1.519,0l7.215,4.177a1.526,1.526,0,0,1,.76,1.32v8.336a1.526,1.526,0,0,1-.76,1.32l-7.215,4.177a1.85,1.85,0,0,1-.759.163Zm2.224-5.732c-3.164,0-3.815-1.447-3.815-2.676a.22.22,0,0,1,.217-.217h.94a.186.186,0,0,1,.2.181c.145.958.561,1.428,2.477,1.428,1.519,0,2.17-.344,2.17-1.157,0-.47-.181-.814-2.55-1.049-1.971-.2-3.2-.633-3.2-2.206,0-1.465,1.23-2.333,3.291-2.333,2.315,0,3.454.8,3.6,2.532a.292.292,0,0,1-.054.163.224.224,0,0,1-.145.072h-.94a.212.212,0,0,1-.2-.163c-.217-.994-.778-1.32-2.26-1.32-1.664,0-1.863.579-1.863,1.013,0,.524.235.687,2.477.976,2.224.289,3.273.705,3.273,2.26C45.425,42.351,44.123,43.255,41.826,43.255Z" fill="#539e43"/>
      <path id="Path_699" data-name="Path 699" d="M17.215,16.383a.92.92,0,0,0-.47-.8L9.078,11.175a1.113,1.113,0,0,0-.416-.127H8.589a.859.859,0,0,0-.416.127L.506,15.588a.92.92,0,0,0-.47.8L.054,28.246a.45.45,0,0,0,.235.4.41.41,0,0,0,.452,0L5.3,26.04a.92.92,0,0,0,.47-.8V19.693a.92.92,0,0,1,.47-.8l1.935-1.121a.876.876,0,0,1,.47-.127.777.777,0,0,1,.452.127L11.031,18.9a.92.92,0,0,1,.47.8v5.552a.92.92,0,0,0,.47.8l4.557,2.6a.441.441,0,0,0,.47,0,.45.45,0,0,0,.235-.4ZM54.069.054a.5.5,0,0,0-.452,0,.471.471,0,0,0-.235.4V12.206a.326.326,0,0,1-.488.289l-1.917-1.1a.932.932,0,0,0-.922,0l-7.667,4.43a.92.92,0,0,0-.47.8v8.843a.92.92,0,0,0,.47.8l7.667,4.43a.932.932,0,0,0,.922,0l7.667-4.43a.92.92,0,0,0,.47-.8V3.418a.928.928,0,0,0-.47-.814L54.069.054Zm-.705,22.5a.207.207,0,0,1-.109.2l-2.622,1.519a.268.268,0,0,1-.235,0l-2.622-1.519a.227.227,0,0,1-.109-.2V19.512a.207.207,0,0,1,.109-.2L50.4,17.794a.268.268,0,0,1,.235,0l2.622,1.519a.226.226,0,0,1,.109.2V22.55Zm26.22-3.11a.9.9,0,0,0,.452-.8V16.492a.942.942,0,0,0-.452-.8l-7.613-4.412a.932.932,0,0,0-.922,0l-7.667,4.43a.92.92,0,0,0-.47.8v8.843a.92.92,0,0,0,.47.8l7.613,4.34a.9.9,0,0,0,.9,0l4.611-2.568a.454.454,0,0,0,0-.8l-7.7-4.43a.471.471,0,0,1-.235-.4V19.53a.45.45,0,0,1,.235-.4l2.405-1.374a.441.441,0,0,1,.47,0l2.4,1.374a.471.471,0,0,1,.235.4V21.7a.449.449,0,0,0,.235.4.441.441,0,0,0,.47,0l4.557-2.658Z" fill="#333"/>
      <path id="Path_700" data-name="Path 700" d="M71.392,19.024a.164.164,0,0,1,.181,0l1.465.85a.189.189,0,0,1,.09.163v1.7a.19.19,0,0,1-.09.163l-1.465.85a.164.164,0,0,1-.181,0l-1.465-.85a.19.19,0,0,1-.09-.163v-1.7a.189.189,0,0,1,.09-.163Z" fill="#539e43"/>
      <g id="Group_1071" data-name="Group 1071" transform="translate(20.977 11.031)">
        <path id="Path_701" data-name="Path 701" d="M9.06.289a.932.932,0,0,0-.922,0L.524,4.683a.9.9,0,0,0-.452.8v8.807a.942.942,0,0,0,.452.8l7.613,4.394a.932.932,0,0,0,.922,0l7.613-4.394a.9.9,0,0,0,.452-.8V5.479a.942.942,0,0,0-.452-.8Z" fill="url(#linear-gradient)"/>
        <g id="Group_1069" data-name="Group 1069">
          <path id="Path_702" data-name="Path 702" d="M8.119.289.488,4.683a.938.938,0,0,0-.488.8v8.807a.871.871,0,0,0,.235.579L8.806.181a1.033,1.033,0,0,0-.687.108Zm.741,19.277a1.112,1.112,0,0,0,.217-.09l7.631-4.394a.92.92,0,0,0,.47-.8V5.479a.921.921,0,0,0-.271-.633L8.861,19.566Z" fill="none"/>
          <path id="Path_703" data-name="Path 703" d="M16.691,4.684,9.042.289A1.256,1.256,0,0,0,8.806.2L.235,14.883a.952.952,0,0,0,.253.217l7.649,4.394a.881.881,0,0,0,.705.09L16.89,4.865a.949.949,0,0,0-.2-.181Z" fill="url(#linear-gradient-2)"/>
        </g>
        <g id="Group_1070" data-name="Group 1070">
          <path id="Path_704" data-name="Path 704" d="M17.179,14.286V5.479a.938.938,0,0,0-.488-.8L9.041.289A.8.8,0,0,0,8.752.181l8.372,14.3a.365.365,0,0,0,.054-.2ZM.488,4.684a.938.938,0,0,0-.488.8v8.807a.978.978,0,0,0,.488.8l7.649,4.394a.852.852,0,0,0,.6.108L.542,4.665l-.054.018Z" fill="none"/>
          <path id="Path_705" data-name="Path 705" d="M7.884.127,7.776.181H7.92Z" transform="translate(0 -1.447)" fill-rule="evenodd" fill="url(#linear-gradient-3)"/>
          <path id="Path_706" data-name="Path 706" d="M16.709,16.528a1.029,1.029,0,0,0,.452-.579L8.77,1.628a.918.918,0,0,0-.651.108L.524,6.112,8.716,21.049a1.261,1.261,0,0,0,.344-.108l7.649-4.412Z" transform="translate(0 -1.447)" fill-rule="evenodd" fill="url(#linear-gradient-4)"/>
          <path id="Path_707" data-name="Path 707" d="M17.414,16.383l-.054-.09v.127l.054-.036Z" transform="translate(0 -1.447)" fill-rule="evenodd" fill="url(#linear-gradient-5)"/>
          <path id="Path_708" data-name="Path 708" d="M16.709,16.528,9.078,20.922a1.091,1.091,0,0,1-.344.108l.145.271,8.463-4.9v-.109l-.217-.362a.84.84,0,0,1-.416.6Z" transform="translate(0 -1.447)" fill-rule="evenodd" fill="url(#linear-gradient-6)"/>
          <path id="Path_709" data-name="Path 709" d="M16.709,16.528,9.078,20.922a1.091,1.091,0,0,1-.344.108l.145.271,8.463-4.9v-.109l-.217-.362a.84.84,0,0,1-.416.6Z" transform="translate(0 -1.447)" fill-rule="evenodd" fill="url(#linear-gradient-7)"/>
        </g>
      </g>
    </g>
  </g>
</svg>
