<svg xmlns="http://www.w3.org/2000/svg" xmlns:xlink="http://www.w3.org/1999/xlink" width="70" height="72" viewBox="0 0 70 72">
  <defs>
    <clipPath id="clip-path">
      <rect id="Rectangle_1148" data-name="Rectangle 1148" width="70" height="72" transform="translate(164 1026)" fill="#fff" stroke="#707070" stroke-width="1"/>
    </clipPath>
    <linearGradient id="linear-gradient" x1="0.292" y1="0.5" x2="2.192" y2="0.5" gradientUnits="objectBoundingBox">
      <stop offset="0.001" stop-color="#fff0d5"/>
      <stop offset="0.511" stop-color="#ffdfff"/>
      <stop offset="1" stop-color="#d9ceff"/>
    </linearGradient>
  </defs>
  <g id="Mask_Group_63" data-name="Mask Group 63" transform="translate(-164 -1026)" clip-path="url(#clip-path)">
    <g id="_031-server" data-name="031-server" transform="translate(163 1026)">
      <path id="Path_863" data-name="Path 863" d="M43.6,12.565A20.161,20.161,0,1,0,9.883,33.577a15.3,15.3,0,0,1,3.8,10.725q-.026.783-.007,1.578A27.151,27.151,0,0,0,40.467,72,26.787,26.787,0,0,0,51.534,20.829,15.465,15.465,0,0,1,43.6,12.565Z" fill="url(#linear-gradient)"/>
      <g id="Group_1087" data-name="Group 1087" opacity="0.1">
        <path id="Path_864" data-name="Path 864" d="M57.843,8.949H14.157a1.408,1.408,0,0,0-1.408,1.408v5.637A1.408,1.408,0,0,0,14.157,17.4H57.843a1.408,1.408,0,0,0,1.408-1.408V10.357A1.408,1.408,0,0,0,57.843,8.949Z" fill="#590bb2"/>
        <path id="Path_865" data-name="Path 865" d="M57.843,22.558H14.157a1.408,1.408,0,0,0-1.408,1.408V29.6a1.408,1.408,0,0,0,1.408,1.408H57.843A1.408,1.408,0,0,0,59.251,29.6V23.966A1.408,1.408,0,0,0,57.843,22.558Z" fill="#590bb2"/>
        <path id="Path_866" data-name="Path 866" d="M57.843,36.168H14.157a1.408,1.408,0,0,0-1.408,1.408v5.637a1.408,1.408,0,0,0,1.408,1.408H57.843a1.408,1.408,0,0,0,1.408-1.408V37.576A1.408,1.408,0,0,0,57.843,36.168Z" fill="#590bb2"/>
        <path id="Path_867" data-name="Path 867" d="M46.488,54.474H25.512A1.408,1.408,0,0,0,24.1,55.881V58.69A1.408,1.408,0,0,0,25.512,60.1H46.488A1.408,1.408,0,0,0,47.9,58.69V55.881A1.408,1.408,0,0,0,46.488,54.474Z" fill="#590bb2"/>
      </g>
      <path id="Path_868" data-name="Path 868" d="M38.088,46.27v3.8a1.407,1.407,0,0,1-1.408,1.408H35.32a1.407,1.407,0,0,1-1.408-1.408v-3.8Z" fill="#c182f9"/>
      <path id="Path_869" data-name="Path 869" d="M33.912,46.27h4.175v3.039H33.912Z" fill="#b557ff"/>
      <path id="Path_870" data-name="Path 870" d="M15.26,18.429H56.741v22.9H15.26Z" fill="#c182f9"/>
      <path id="Path_871" data-name="Path 871" d="M15.26,18.429H56.741v3.923H15.26Z" fill="#b557ff"/>
      <path id="Path_872" data-name="Path 872" d="M15.26,27.509H56.741v8.452H15.26Z" fill="#b557ff"/>
      <path id="Path_873" data-name="Path 873" d="M57.843,20.354H14.157a1.408,1.408,0,0,1-1.408-1.408V13.31A1.408,1.408,0,0,1,14.157,11.9H57.843a1.408,1.408,0,0,1,1.408,1.408v5.637A1.408,1.408,0,0,1,57.843,20.354Z" fill="#ffa052"/>
      <g id="Group_1088" data-name="Group 1088">
        <circle id="Ellipse_23" data-name="Ellipse 23" cx="0.788" cy="0.788" r="0.788" transform="translate(18.284 15.34)" fill="#ffd5b8"/>
        <circle id="Ellipse_24" data-name="Ellipse 24" cx="0.788" cy="0.788" r="0.788" transform="translate(20.667 15.34)" fill="#ffd5b8"/>
        <circle id="Ellipse_25" data-name="Ellipse 25" cx="0.788" cy="0.788" r="0.788" transform="translate(23.051 15.34)" fill="#ffd5b8"/>
      </g>
      <path id="Path_874" data-name="Path 874" d="M39.8,15.423h-10.8a.726.726,0,0,0-.732.636.705.705,0,0,0,.7.774H39.8a.705.705,0,0,0,0-1.41Z" fill="#e2ccff"/>
      <path id="Path_875" data-name="Path 875" d="M53.8,15.423H43a.726.726,0,0,0-.732.636.705.705,0,0,0,.7.774H53.8a.705.705,0,0,0,0-1.41Z" fill="#ffe783"/>
      <path id="Path_876" data-name="Path 876" d="M57.843,33.964H14.157a1.408,1.408,0,0,1-1.408-1.408V26.919a1.408,1.408,0,0,1,1.408-1.408H57.843a1.408,1.408,0,0,1,1.408,1.408v5.637a1.408,1.408,0,0,1-1.408,1.408Z" fill="#ffa052"/>
      <circle id="Ellipse_26" data-name="Ellipse 26" cx="0.788" cy="0.788" r="0.788" transform="translate(18.284 28.95)" fill="#ffd5b8"/>
      <circle id="Ellipse_27" data-name="Ellipse 27" cx="0.788" cy="0.788" r="0.788" transform="translate(20.667 28.95)" fill="#ffd5b8"/>
      <circle id="Ellipse_28" data-name="Ellipse 28" cx="0.788" cy="0.788" r="0.788" transform="translate(23.051 28.95)" fill="#ffd5b8"/>
      <path id="Path_877" data-name="Path 877" d="M39.8,29.033h-10.8a.726.726,0,0,0-.732.636.705.705,0,0,0,.7.774H39.8a.705.705,0,0,0,0-1.41Z" fill="#e2ccff"/>
      <path id="Path_878" data-name="Path 878" d="M53.8,29.033H43a.726.726,0,0,0-.732.636.705.705,0,0,0,.7.774H53.8a.705.705,0,0,0,0-1.41Z" fill="#ffe783"/>
      <path id="Path_879" data-name="Path 879" d="M57.843,47.573H14.157a1.408,1.408,0,0,1-1.408-1.408V40.529a1.408,1.408,0,0,1,1.408-1.408H57.843a1.408,1.408,0,0,1,1.408,1.408v5.637A1.408,1.408,0,0,1,57.843,47.573Z" fill="#ffa052"/>
      <circle id="Ellipse_29" data-name="Ellipse 29" cx="0.788" cy="0.788" r="0.788" transform="translate(18.284 42.559)" fill="#ffd5b8"/>
      <circle id="Ellipse_30" data-name="Ellipse 30" cx="0.788" cy="0.788" r="0.788" transform="translate(20.667 42.559)" fill="#ffd5b8"/>
      <circle id="Ellipse_31" data-name="Ellipse 31" cx="0.788" cy="0.788" r="0.788" transform="translate(23.051 42.559)" fill="#ffd5b8"/>
      <path id="Path_880" data-name="Path 880" d="M39.8,42.642h-10.8a.726.726,0,0,0-.732.636.705.705,0,0,0,.7.774H39.8a.705.705,0,0,0,0-1.41Z" fill="#e2ccff"/>
      <path id="Path_881" data-name="Path 881" d="M53.8,42.642H43a.726.726,0,0,0-.732.636.705.705,0,0,0,.7.774H53.8a.705.705,0,0,0,0-1.41Z" fill="#ffe783"/>
      <path id="Path_882" data-name="Path 882" d="M46.488,63.051H25.512A1.408,1.408,0,0,1,24.1,61.643V58.834a1.408,1.408,0,0,1,1.408-1.408H46.488A1.408,1.408,0,0,1,47.9,58.834v2.809A1.408,1.408,0,0,1,46.488,63.051Z" fill="#c182f9"/>
      <path id="Path_883" data-name="Path 883" d="M65.57,59.536H48.6v-.7a2.113,2.113,0,0,0-2.111-2.111H39.877a.7.7,0,0,0,0,1.406h6.611a.705.705,0,0,1,.7.7v2.809a.705.705,0,0,1-.7.7H25.512a.705.705,0,0,1-.7-.7V58.835a.705.705,0,0,1,.7-.7H36a.7.7,0,0,0,.7-.7V52.18a2.113,2.113,0,0,0,2.088-2.11V48.277H57.843a2.113,2.113,0,0,0,2.111-2.111V40.529a2.113,2.113,0,0,0-2.111-2.111h-.4V34.667h.4a2.113,2.113,0,0,0,2.111-2.111V26.919a2.113,2.113,0,0,0-2.111-2.111h-.4V21.057h.4a2.113,2.113,0,0,0,2.111-2.111V13.31A2.113,2.113,0,0,0,57.843,11.2H14.157a2.113,2.113,0,0,0-2.111,2.111v5.637a2.113,2.113,0,0,0,2.111,2.111h.4v3.751h-.4a2.113,2.113,0,0,0-2.111,2.111v5.637a2.113,2.113,0,0,0,2.111,2.111h.4v3.751h-.4a2.113,2.113,0,0,0-2.111,2.111v5.637a2.113,2.113,0,0,0,2.111,2.111H33.209v1.794a2.113,2.113,0,0,0,2.088,2.11v4.543H25.512A2.113,2.113,0,0,0,23.4,58.835v.7H6.43a.7.7,0,1,0,0,1.406H23.4v.7a2.113,2.113,0,0,0,2.111,2.111H46.488A2.113,2.113,0,0,0,48.6,61.644v-.7H65.57a.7.7,0,0,0,0-1.407ZM13.452,18.947V13.31a.705.705,0,0,1,.7-.7H57.844a.705.705,0,0,1,.7.7v5.637a.705.705,0,0,1-.7.7H14.157a.705.705,0,0,1-.7-.7Zm0,13.61V26.919a.705.705,0,0,1,.7-.7h1.1a.7.7,0,0,0,.7-.7s0,0,0,0V21.058H56.038v3.751h-36.9a.7.7,0,0,0,0,1.406H57.844a.705.705,0,0,1,.7.7v5.637a.705.705,0,0,1-.7.7H14.157a.706.706,0,0,1-.7-.7Zm2.51,2.111H56.038v3.751H15.962Zm-2.51,11.5V40.529a.705.705,0,0,1,.7-.7H57.844a.705.705,0,0,1,.7.7v5.637a.705.705,0,0,1-.7.7H14.157a.705.705,0,0,1-.7-.7Zm21.163,3.905V48.277h2.77v1.794a.705.705,0,0,1-.7.7H35.32a.706.706,0,0,1-.7-.7Z" fill="#590bb2"/>
      <path id="Path_884" data-name="Path 884" d="M57.148,56.125a.7.7,0,0,1-.7-.7.849.849,0,0,0-.848-.848.7.7,0,1,1,0-1.406.849.849,0,0,0,.848-.848.7.7,0,0,1,1.406,0,.849.849,0,0,0,.848.848.7.7,0,1,1,0,1.406.849.849,0,0,0-.848.848.7.7,0,0,1-.7.7Z" fill="#c182f9"/>
      <path id="Path_885" data-name="Path 885" d="M64.473,50.043a.7.7,0,0,1-.7-.7.849.849,0,0,0-.848-.848.7.7,0,0,1,0-1.406.849.849,0,0,0,.848-.848.7.7,0,0,1,1.406,0,.849.849,0,0,0,.848.848.7.7,0,0,1,0,1.406.849.849,0,0,0-.848.848A.7.7,0,0,1,64.473,50.043Z" fill="#ffa052"/>
      <path id="Path_886" data-name="Path 886" d="M7.524,25.849a.7.7,0,0,1-.5-.206L5.479,24.1a.7.7,0,0,1,0-.994l1.548-1.548a.7.7,0,0,1,.994,0L9.569,23.1a.7.7,0,0,1,0,.994L8.021,25.643a.7.7,0,0,1-.5.206ZM6.971,23.6l.553.553.553-.553-.553-.553Z" fill="#ffa052"/>
      <path id="Path_887" data-name="Path 887" d="M10.157,57.08a.7.7,0,0,1-.5-.206L8.112,55.326a.7.7,0,0,1,0-.994L9.66,52.784a.7.7,0,0,1,.994,0L12.2,54.332a.7.7,0,0,1,0,.994l-1.548,1.548a.7.7,0,0,1-.5.206ZM9.6,54.829l.553.553.553-.553-.553-.553Z" fill="#ffe783"/>
    </g>
  </g>
</svg>
