<svg xmlns="http://www.w3.org/2000/svg" xmlns:xlink="http://www.w3.org/1999/xlink" width="220" height="180" viewBox="0 0 220 180">
  <defs>
    <clipPath id="clip-path">
      <rect id="Rectangle_1337" data-name="Rectangle 1337" width="220" height="180" transform="translate(401 4061)" fill="#fff" stroke="#707070" stroke-width="1"/>
    </clipPath>
  </defs>
  <g id="Mask_Group_88" data-name="Mask Group 88" transform="translate(-401 -4061)" clip-path="url(#clip-path)">
    <g id="android-logomark" transform="translate(391.852 4031.852)">
      <path id="Path_2553" data-name="Path 2553" d="M31.872,184.126c-5.312,0-8.886,4.17-8.886,9.532s3.574,9.532,8.886,9.532,8.886-4.17,8.886-9.532c-.05-5.362-3.624-9.532-8.886-9.532m-1.191-5.908a11.932,11.932,0,0,1,9.532,4.567v-3.972h6.553v29.737H41.7a1.494,1.494,0,0,1-1.489-1.489v-2.482a11.857,11.857,0,0,1-9.532,4.567c-8.142,0-14.347-6.95-14.347-15.44s6.156-15.489,14.347-15.489m23.532.6h6.553v4.021c1.787-2.979,5.163-4.617,9.035-4.617,6.9,0,11.369,4.865,11.369,12.411v17.922H76.155a1.494,1.494,0,0,1-1.489-1.489v-15.34c0-4.716-2.383-7.546-6.206-7.546-4.319,0-7.695,3.376-7.695,9.73v14.645H55.751a1.494,1.494,0,0,1-1.489-1.489Zm47.61,5.312c-5.312,0-8.886,4.17-8.886,9.532s3.574,9.532,8.886,9.532,8.886-4.17,8.886-9.532-3.574-9.532-8.886-9.532m-1.191-5.908a11.932,11.932,0,0,1,9.532,4.567V163.92h6.553v44.631H111.7a1.494,1.494,0,0,1-1.489-1.489v-2.482a11.857,11.857,0,0,1-9.532,4.567c-8.142,0-14.347-6.95-14.347-15.44s6.156-15.489,14.3-15.489m23.532.6h6.553v5.312a8.42,8.42,0,0,1,7.844-5.61,10.951,10.951,0,0,1,2.532.248v6.7a10.547,10.547,0,0,0-3.277-.546c-3.723,0-7.149,3.177-7.149,9.085v14.5h-5.014a1.494,1.494,0,0,1-1.489-1.489Zm34.553,24.227c5.213,0,8.936-4.121,8.936-9.383,0-5.312-3.674-9.383-8.936-9.383-5.312,0-8.986,4.121-8.986,9.383.05,5.312,3.674,9.383,8.986,9.383m0,6.106a15.364,15.364,0,1,1,11.036-4.446,15.465,15.465,0,0,1-11.036,4.446m20.9-30.333h6.553v29.737h-5.014a1.494,1.494,0,0,1-1.489-1.489Zm3.277-6.5a4.461,4.461,0,0,1-4.418-4.418,4.394,4.394,0,1,1,4.418,4.418m24.177,11.816c-5.312,0-8.886,4.17-8.886,9.532s3.574,9.532,8.886,9.532,8.886-4.17,8.886-9.532c-.1-5.362-3.574-9.532-8.886-9.532m-1.191-5.908a11.932,11.932,0,0,1,9.532,4.567V163.92h6.553v44.631h-5.014a1.494,1.494,0,0,1-1.489-1.489v-2.482a11.857,11.857,0,0,1-9.532,4.567c-8.142,0-14.347-6.95-14.347-15.44s6.156-15.489,14.3-15.489"/>
      <path id="Path_2554" data-name="Path 2554" d="M169.538,64.134,186.665,34.5a3.559,3.559,0,1,0-6.156-3.575L163.183,60.907a107.272,107.272,0,0,0-87.971,0L57.886,30.921A3.559,3.559,0,1,0,51.73,34.5L68.858,64.134a100.756,100.756,0,0,0-52.524,80.822h205.53a101.114,101.114,0,0,0-52.326-80.822Zm-97.7,51.531a8.539,8.539,0,1,1,8.539-8.539A8.539,8.539,0,0,1,71.836,115.665Zm94.623,0A8.539,8.539,0,1,1,175,107.126,8.539,8.539,0,0,1,166.46,115.665Z" fill="#3ddc84"/>
    </g>
  </g>
</svg>
