<svg xmlns="http://www.w3.org/2000/svg" xmlns:xlink="http://www.w3.org/1999/xlink" width="220" height="180" viewBox="0 0 220 180">
  <defs>
    <clipPath id="clip-path">
      <rect id="Rectangle_1337" data-name="Rectangle 1337" width="220" height="180" transform="translate(881 4061)" fill="#fff" stroke="#707070" stroke-width="1"/>
    </clipPath>
  </defs>
  <g id="Mask_Group_90" data-name="Mask Group 90" transform="translate(-881 -4061)" clip-path="url(#clip-path)">
    <g id="JavaScript" transform="translate(742 4010)">
      <path id="Path_2555" data-name="Path 2555" d="M159,51H339V231H159Z" fill="#f7df1e"/>
      <path id="Path_2556" data-name="Path 2556" d="M206.328,201.42l13.77-8.34c2.658,4.71,5.076,8.7,10.875,8.7,5.559,0,9.06-2.175,9.06-10.632v-57.51h16.914v57.75c0,17.52-10.269,25.494-25.254,25.494-13.53,0-21.39-7.008-25.374-15.465m59.814-1.812,13.77-7.974c3.63,5.922,8.34,10.272,16.674,10.272,7.008,0,11.478-3.5,11.478-8.34,0-5.8-4.59-7.854-12.324-11.235l-4.23-1.815c-12.2-5.19-20.3-11.718-20.3-25.494,0-12.69,9.666-22.35,24.771-22.35,10.755,0,18.486,3.75,24.045,13.53l-13.2,8.46c-2.9-5.2-6.042-7.248-10.875-7.248-4.95,0-8.1,3.141-8.1,7.248,0,5.07,3.141,7.131,10.392,10.272l4.2,1.812c14.379,6.162,22.47,12.444,22.47,26.58,0,15.225-11.961,23.562-28.032,23.562-15.708,0-25.86-7.491-30.81-17.28"/>
    </g>
  </g>
</svg>
