<svg xmlns="http://www.w3.org/2000/svg" xmlns:xlink="http://www.w3.org/1999/xlink" width="61" height="54" viewBox="0 0 61 54">
  <defs>
    <clipPath id="clip-path">
      <rect id="Rectangle_1151" data-name="Rectangle 1151" width="61" height="54" transform="translate(298 1308)" fill="#fff" stroke="#707070" stroke-width="1"/>
    </clipPath>
    <linearGradient id="linear-gradient" x1="0.292" y1="0.5" x2="2.192" y2="0.5" gradientUnits="objectBoundingBox">
      <stop offset="0.001" stop-color="#fff0d5"/>
      <stop offset="0.511" stop-color="#ffdfff"/>
      <stop offset="1" stop-color="#d9ceff"/>
    </linearGradient>
  </defs>
  <g id="Mask_Group_65" data-name="Mask Group 65" transform="translate(-298 -1308)" clip-path="url(#clip-path)">
    <g id="_033-synchronization" data-name="033-synchronization" transform="translate(301.5 1308)">
      <path id="Path_924" data-name="Path 924" d="M32.7,9.424A15.121,15.121,0,1,0,7.412,25.183a11.475,11.475,0,0,1,2.85,8.044q-.02.588-.005,1.183A20.363,20.363,0,0,0,30.35,54a20.09,20.09,0,0,0,8.3-38.378,11.6,11.6,0,0,1-5.947-6.2Z" stroke="#707070" stroke-width="0.105" fill="url(#linear-gradient)"/>
      <path id="Path_925" data-name="Path 925" d="M48.684,6.371H30.346a1.893,1.893,0,0,0-1.893,1.893v16.4H25.546V8.263a1.892,1.892,0,0,0-1.893-1.893H5.316A1.893,1.893,0,0,0,3.424,8.263V41.307A1.893,1.893,0,0,0,5.316,43.2H23.654a1.893,1.893,0,0,0,1.893-1.893V34.64h2.907v6.668A1.893,1.893,0,0,0,30.346,43.2H48.684a1.893,1.893,0,0,0,1.893-1.893V8.263a1.893,1.893,0,0,0-1.893-1.893Z" fill="#590bb2" stroke="#707070" stroke-width="0.105" opacity="0.1"/>
      <path id="Path_926" data-name="Path 926" d="M48.684,45.415H30.346a1.893,1.893,0,0,1-1.893-1.893V10.478a1.893,1.893,0,0,1,1.893-1.893H48.684a1.893,1.893,0,0,1,1.893,1.893V43.522A1.893,1.893,0,0,1,48.684,45.415Z" fill="#ffe783" stroke="#707070" stroke-width="0.105"/>
      <path id="Path_927" data-name="Path 927" d="M50.577,31.078V43.522a1.894,1.894,0,0,1-1.893,1.893H30.347a1.894,1.894,0,0,1-1.893-1.893V31.078Z" fill="#fff4c5" stroke="#707070" stroke-width="0.105"/>
      <path id="Path_928" data-name="Path 928" d="M33.35,31.078v6.474a.794.794,0,0,1-.794.793h-4.1V31.078Z" fill="#ffe783" stroke="#707070" stroke-width="0.105"/>
      <path id="Path_929" data-name="Path 929" d="M45.471,11.181l.845-2.6h-13.6l.845,2.6a.913.913,0,0,0,.868.63H44.6A.913.913,0,0,0,45.471,11.181Z" fill="#cecae0" stroke="#707070" stroke-width="0.105"/>
      <path id="Path_930" data-name="Path 930" d="M23.654,45.415H5.316a1.893,1.893,0,0,1-1.893-1.893V10.478A1.893,1.893,0,0,1,5.316,8.586H23.654a1.893,1.893,0,0,1,1.893,1.893V43.522A1.893,1.893,0,0,1,23.654,45.415Z" fill="#cca1ff" stroke="#707070" stroke-width="0.105"/>
      <path id="Path_931" data-name="Path 931" d="M25.547,31.078V43.522a1.894,1.894,0,0,1-1.893,1.893H5.317a1.894,1.894,0,0,1-1.893-1.893V31.078Z" fill="#e2ccff" stroke="#707070" stroke-width="0.105"/>
      <path id="Path_932" data-name="Path 932" d="M20.65,31.078h4.9v7.267h-4.1a.794.794,0,0,1-.793-.793Z" fill="#d6b0ff" stroke="#707070" stroke-width="0.105"/>
      <circle id="Ellipse_32" data-name="Ellipse 32" cx="5.798" cy="5.798" r="5.798" transform="translate(8.687 14.316)" fill="#f5f4f9" stroke="#707070" stroke-width="0.105"/>
      <circle id="Ellipse_33" data-name="Ellipse 33" cx="5.798" cy="5.798" r="5.798" transform="translate(33.717 14.316)" fill="#f5f4f9" stroke="#707070" stroke-width="0.105"/>
      <path id="Path_933" data-name="Path 933" d="M20.441,11.181l.845-2.6H7.684l.845,2.6a.913.913,0,0,0,.868.63H19.573a.913.913,0,0,0,.868-.63Z" fill="#cecae0" stroke="#707070" stroke-width="0.105"/>
      <g id="Group_1094" data-name="Group 1094">
        <path id="Path_934" data-name="Path 934" d="M13.645,22.227h-.562a1.246,1.246,0,0,1-1.245-1.245V19.247A1.246,1.246,0,0,1,13.083,18h.562a1.246,1.246,0,0,1,1.245,1.245v1.736A1.246,1.246,0,0,1,13.645,22.227Zm-.562-3.171a.19.19,0,0,0-.19.19v1.736a.19.19,0,0,0,.19.19h.562a.19.19,0,0,0,.19-.19V19.247a.19.19,0,0,0-.19-.19Z" fill="#ffa052" stroke="#707070" stroke-width="0.105"/>
        <path id="Path_935" data-name="Path 935" d="M16.684,22.227a.527.527,0,0,1-.527-.527V19.056H16.11a.527.527,0,0,1,0-1.055h.574a.527.527,0,0,1,.527.527V21.7A.527.527,0,0,1,16.684,22.227Z" fill="#ffa052" stroke="#707070" stroke-width="0.105"/>
        <path id="Path_936" data-name="Path 936" d="M37.967,22.227h-.562a1.246,1.246,0,0,1-1.245-1.245V19.247A1.246,1.246,0,0,1,37.405,18h.562a1.246,1.246,0,0,1,1.245,1.245v1.736A1.246,1.246,0,0,1,37.967,22.227Zm-.562-3.171a.19.19,0,0,0-.19.19v1.736a.19.19,0,0,0,.19.19h.562a.19.19,0,0,0,.19-.19V19.247a.19.19,0,0,0-.19-.19Z" fill="#ffa052" stroke="#707070" stroke-width="0.105"/>
        <path id="Path_937" data-name="Path 937" d="M42.342,22.181h-1.91a.527.527,0,0,1-.33-.939,6.585,6.585,0,0,0,1.519-1.606A.476.476,0,0,0,41.6,19.2a.308.308,0,0,0-.273-.139.363.363,0,0,0-.363.363.527.527,0,1,1-1.055,0A1.419,1.419,0,0,1,41.323,18a1.359,1.359,0,0,1,1.15.608,1.521,1.521,0,0,1,.124,1.43,3.956,3.956,0,0,1-.8,1.087h.547a.527.527,0,0,1,0,1.055Z" fill="#ffa052" stroke="#707070" stroke-width="0.105"/>
      </g>
      <path id="Path_938" data-name="Path 938" d="M20.106,31.481H8.864a.528.528,0,1,1,0-1.056H20.106a.528.528,0,1,1,0,1.056Z" fill="#c182f9" stroke="#707070" stroke-width="0.105"/>
      <path id="Path_939" data-name="Path 939" d="M16.942,28.657H12.028a.528.528,0,1,1,0-1.056h4.913a.528.528,0,1,1,0,1.056Z" fill="#f5f4f9" stroke="#707070" stroke-width="0.105"/>
      <path id="Path_940" data-name="Path 940" d="M20.106,33.357H8.864a.528.528,0,1,1,0-1.056H20.106a.528.528,0,1,1,0,1.056Z" fill="#c182f9" stroke="#707070" stroke-width="0.105"/>
      <path id="Path_941" data-name="Path 941" d="M20.106,35.233H8.864a.528.528,0,1,1,0-1.056H20.106a.528.528,0,1,1,0,1.056Z" fill="#c182f9" stroke="#707070" stroke-width="0.105"/>
      <path id="Path_942" data-name="Path 942" d="M45.136,31.481H33.894a.528.528,0,1,1,0-1.056H45.136a.528.528,0,1,1,0,1.056Z" fill="#fdd250" stroke="#707070" stroke-width="0.105"/>
      <path id="Path_943" data-name="Path 943" d="M41.972,28.657H37.058a.528.528,0,0,1,0-1.056h4.913a.528.528,0,1,1,0,1.056Z" fill="#f5f4f9" stroke="#707070" stroke-width="0.105"/>
      <path id="Path_944" data-name="Path 944" d="M45.136,33.357H33.894a.528.528,0,1,1,0-1.056H45.136a.528.528,0,1,1,0,1.056Z" fill="#fdd250" stroke="#707070" stroke-width="0.105"/>
      <path id="Path_945" data-name="Path 945" d="M45.136,35.233H33.894a.528.528,0,1,1,0-1.056H45.136a.528.528,0,1,1,0,1.056Z" fill="#fdd250" stroke="#707070" stroke-width="0.105"/>
      <path id="Path_946" data-name="Path 946" d="M32.557,36.854H21.443a.793.793,0,0,1-.793-.793V27.672a.793.793,0,0,1,.793-.793H32.557a.793.793,0,0,1,.793.793v8.389A.793.793,0,0,1,32.557,36.854Z" fill="#ffa052" stroke="#707070" stroke-width="0.105"/>
      <path id="Path_947" data-name="Path 947" d="M48.684,8.058H46.316a.527.527,0,0,0-.5.364l-.845,2.6a.385.385,0,0,1-.367.266H34.427a.385.385,0,0,1-.367-.266l-.62-1.9h9.971a.527.527,0,0,0,0-1.055H30.346a2.423,2.423,0,0,0-2.42,2.42V26.351H21.443a1.322,1.322,0,0,0-1.321,1.321v8.389a1.322,1.322,0,0,0,1.321,1.321h3.576v6.14a1.367,1.367,0,0,1-1.365,1.365H5.316a1.367,1.367,0,0,1-1.365-1.365V10.478A1.367,1.367,0,0,1,5.316,9.113H7.3l.727,2.231a1.437,1.437,0,0,0,1.369.994H19.573a1.437,1.437,0,0,0,1.369-.994l.727-2.231h1.985a1.367,1.367,0,0,1,1.365,1.365v13.5a.527.527,0,0,0,1.055,0v-13.5a2.423,2.423,0,0,0-2.42-2.42H5.316a2.423,2.423,0,0,0-2.42,2.42V43.522a2.423,2.423,0,0,0,2.42,2.42H23.654a2.423,2.423,0,0,0,2.42-2.42v-6.14h1.853v6.14a2.423,2.423,0,0,0,2.42,2.42H48.684a2.423,2.423,0,0,0,2.42-2.42V10.478a2.422,2.422,0,0,0-2.42-2.42ZM19.94,11.017a.385.385,0,0,1-.367.266H9.4a.385.385,0,0,1-.367-.266l-.62-1.9H20.56Zm1.238,25.043V27.672a.266.266,0,0,1,.266-.266H32.557a.266.266,0,0,1,.266.266v8.389a.266.266,0,0,1-.266.266H21.443A.266.266,0,0,1,21.177,36.061Zm28.872,7.461a1.367,1.367,0,0,1-1.365,1.365H30.346a1.367,1.367,0,0,1-1.365-1.365v-6.14h3.576a1.322,1.322,0,0,0,1.321-1.321V27.672a1.322,1.322,0,0,0-1.321-1.321H28.981V10.478a1.367,1.367,0,0,1,1.365-1.365h1.985l.727,2.231a1.437,1.437,0,0,0,1.369.994H44.6a1.436,1.436,0,0,0,1.369-.994L46.7,9.113h1.985a1.367,1.367,0,0,1,1.365,1.365V43.522Z" fill="#590bb2" stroke="#707070" stroke-width="0.105"/>
      <path id="Path_948" data-name="Path 948" d="M23.378,30.312h5.844a.235.235,0,0,1,.235.235v.247a.527.527,0,0,0-.485.887l.639.639a.527.527,0,0,0,.746,0L31,31.681a.527.527,0,0,0-.485-.887v-.247a1.291,1.291,0,0,0-1.289-1.289H23.378a.527.527,0,0,0,0,1.055Z" fill="#f5f4f9" stroke="#707070" stroke-width="0.105"/>
      <path id="Path_949" data-name="Path 949" d="M30.622,33.421H24.779a.235.235,0,0,1-.235-.235v-.247a.527.527,0,0,0,.485-.887l-.639-.639a.527.527,0,0,0-.746,0L23,32.051a.527.527,0,0,0,.485.887v.247a1.291,1.291,0,0,0,1.289,1.289h5.844a.527.527,0,0,0,0-1.055Z" fill="#f5f4f9" stroke="#707070" stroke-width="0.105"/>
      <path id="Path_950" data-name="Path 950" d="M13.87,43.1a.527.527,0,0,1-.373-.9l.615-.615a.527.527,0,0,1,.746,0l.615.615a.527.527,0,1,1-.746.746l-.242-.242-.242.242A.525.525,0,0,1,13.87,43.1Z" fill="#590bb2" stroke="#707070" stroke-width="0.105"/>
      <path id="Path_951" data-name="Path 951" d="M40.13,43.1a.526.526,0,0,1-.373-.155l-.242-.242-.242.242a.527.527,0,1,1-.746-.746l.615-.615a.527.527,0,0,1,.746,0l.615.615a.527.527,0,0,1-.373.9Z" fill="#590bb2" stroke="#707070" stroke-width="0.105"/>
      <path id="Path_952" data-name="Path 952" d="M24.656,6.22a.527.527,0,0,1-.527-.527.633.633,0,0,0-.632-.632.527.527,0,0,1,0-1.055.633.633,0,0,0,.632-.632.527.527,0,1,1,1.055,0,.633.633,0,0,0,.632.632.527.527,0,0,1,0,1.055.633.633,0,0,0-.632.632A.527.527,0,0,1,24.656,6.22Z" fill="#ffa052" stroke="#707070" stroke-width="0.105"/>
      <path id="Path_953" data-name="Path 953" d="M25.84,51.154a.527.527,0,0,1-.527-.527.633.633,0,0,0-.632-.632.527.527,0,1,1,0-1.055.633.633,0,0,0,.632-.632.527.527,0,1,1,1.055,0,.633.633,0,0,0,.632.632.527.527,0,0,1,0,1.055.633.633,0,0,0-.632.632A.527.527,0,0,1,25.84,51.154Z" fill="#c182f9" stroke="#707070" stroke-width="0.105"/>
      <path id="Path_954" data-name="Path 954" d="M34.526,49.994A.527.527,0,0,1,34,49.467a.633.633,0,0,0-.632-.632.527.527,0,0,1,0-1.055A.633.633,0,0,0,34,47.148a.527.527,0,0,1,1.055,0,.633.633,0,0,0,.632.632.527.527,0,0,1,0,1.055.633.633,0,0,0-.632.632A.527.527,0,0,1,34.526,49.994Z" fill="#ffa052" stroke="#707070" stroke-width="0.105"/>
      <path id="Path_955" data-name="Path 955" d="M40.1,6.852a.526.526,0,0,1-.336-.121L38.5,5.687a.527.527,0,0,1-.071-.743L39.471,3.68a.527.527,0,0,1,.742-.071l1.264,1.044a.527.527,0,0,1,.071.743L40.5,6.66A.526.526,0,0,1,40.1,6.852Zm-.522-1.642.451.373.373-.451-.451-.373Z" fill="#ffe783" stroke="#707070" stroke-width="0.105"/>
    </g>
  </g>
</svg>
