<svg xmlns="http://www.w3.org/2000/svg" xmlns:xlink="http://www.w3.org/1999/xlink" width="570" height="420" viewBox="0 0 570 420">
  <defs>
    <clipPath id="clip-path">
      <rect id="Rectangle_1179" data-name="Rectangle 1179" width="570" height="420" transform="translate(730 2163)" fill="#fff" stroke="#707070" stroke-width="1"/>
    </clipPath>
    <clipPath id="clip-path-2">
      <path id="Path_1555" data-name="Path 1555" d="M380.581,400.444c-6.419,10.429-38.986,15.369-56.763,14.9s-68.928-24.651-72.4-29.809c-3.214-4.741-11.112-20.451,1.062-29.941a23.587,23.587,0,0,1,3.28-2.124c8.334-4.513,63.76,9.718,63.76,9.718s3.432-2.171,4.693-2.01c3.868.493,6.637,3.622,14.449,5.85,5.471,1.564,20.4-4.447,29.941.721a13.159,13.159,0,0,1,2.9,2.1C380.42,378.372,386.99,389.986,380.581,400.444Z" transform="translate(-39.337 -27.599)" fill="#92e3a9" stroke="#263238" stroke-linecap="round" stroke-linejoin="round" stroke-width="0.948"/>
    </clipPath>
    <clipPath id="clip-path-3">
      <path id="Path_1560" data-name="Path 1560" d="M314.924,409.508l16.611,13.036a190.3,190.3,0,0,0,23.816-3.565h0c7.869-1.82,14.743-4.428,15.113-8.012.578-5.442-5.243-6.931-12.155-6.722-1.289,0-2.617.133-3.954.265-11.064,1.185-25.134-4.921-25.134-4.921Z" transform="translate(-39.337 -27.599)" fill="#263238" stroke="#263238" stroke-linecap="round" stroke-linejoin="round" stroke-width="0.948"/>
    </clipPath>
    <clipPath id="clip-path-4">
      <path id="Path_1564" data-name="Path 1564" d="M330.407,414.646c-3,.484.294,6.637,4.352,4.741S333.4,414.153,330.407,414.646Z" transform="translate(-39.337 -27.599)" fill="#fff" stroke="#263238" stroke-linecap="round" stroke-linejoin="round" stroke-width="0.948"/>
    </clipPath>
    <clipPath id="clip-path-5">
      <path id="Path_1568" data-name="Path 1568" d="M355.352,418.97c7.869-1.82,14.743-4.428,15.113-8.012.578-5.442-5.243-6.931-12.155-6.722C358.006,404.53,351.3,411.006,355.352,418.97Z" transform="translate(-39.337 -27.599)" fill="#fff" stroke="#263238" stroke-linecap="round" stroke-linejoin="round" stroke-width="0.948"/>
    </clipPath>
    <clipPath id="clip-path-6">
      <path id="Path_1578" data-name="Path 1578" d="M304.713,410.01l-17.881,11.216a190.766,190.766,0,0,1-23.314-6.039h0c-7.632-2.636-14.222-5.954-14.222-9.557,0-5.48,5.945-6.343,12.8-5.414,1.28.171,2.588.408,3.906.683,10.875,2.342,25.5-2.257,25.5-2.257Z" transform="translate(-39.337 -27.599)" fill="#263238" stroke="#263238" stroke-linecap="round" stroke-linejoin="round" stroke-width="0.948"/>
    </clipPath>
  </defs>
  <g id="Mask_Group_74" data-name="Mask Group 74" transform="translate(-730 -2163)" clip-path="url(#clip-path)">
    <g id="design" transform="translate(816.219 2162.995)">
      <g id="Background_Simple" data-name="Background Simple">
        <path id="Path_1518" data-name="Path 1518" d="M64.405,158.42s-26.433,68.264,10.714,137,113.659,105.051,174.9,136.1,124.828,15.928,155.044-34.928-11.226-87.16-11.283-159.681,10.856-91.72-28.443-152.987S229.7,9.092,156.846,54.535,64.405,158.42,64.405,158.42Z" transform="translate(-39.337 -27.599)" fill="#fff" opacity="0.7"/>
        <path id="Path_1519" data-name="Path 1519" d="M65.42,409.261H265.651c.806-1.289,1.621-2.579,2.456-3.84,21.541-32.786,56.033-56.166,93.7-67.136,16.876-4.911,35.156-7.831,48.714-19.019,13.956-11.5,20.365-29.856,23.134-47.728,3.366-21.636,1.545-45.9-13.141-62.139-17.246-19.066-46.145-21.209-68.615-33.705-38.673-21.522-53.663-70.53-88.847-97.38C240.82,61.352,210.822,54.782,183.933,58.5c-38.1,5.281-73.953,30.814-84.714,68.264a94.47,94.47,0,0,0-3.261,33.582c1.716,22.328,6.523,44.94,1.991,66.87-5,24.167-20.716,44.561-30.112,67.4-11.7,28.443-13.274,60.3-8.315,90.62a156.126,156.126,0,0,0,5.9,24.025Z" transform="translate(-39.337 -27.599)" fill="#92e3a9"/>
        <path id="Path_1520" data-name="Path 1520" d="M65.42,409.261H265.651c.806-1.289,1.621-2.579,2.456-3.84,21.541-32.786,56.033-56.166,93.7-67.136,16.876-4.911,35.156-7.831,48.714-19.019,13.956-11.5,20.365-29.856,23.134-47.728,3.366-21.636,1.545-45.9-13.141-62.139-17.246-19.066-46.145-21.209-68.615-33.705-38.673-21.522-53.663-70.53-88.847-97.38C240.82,61.352,210.822,54.782,183.933,58.5c-38.1,5.281-73.953,30.814-84.714,68.264a94.47,94.47,0,0,0-3.261,33.582c1.716,22.328,6.523,44.94,1.991,66.87-5,24.167-20.716,44.561-30.112,67.4-11.7,28.443-13.274,60.3-8.315,90.62a156.126,156.126,0,0,0,5.9,24.025Z" transform="translate(-39.337 -27.599)" fill="#27debf" opacity="0.7"/>
      </g>
      <g id="Floor">
        <line id="Line_6" data-name="Line 6" x2="396.613" transform="translate(0.474 381.662)" fill="none" stroke="#263238" stroke-linecap="round" stroke-linejoin="round" stroke-width="0.948"/>
      </g>
      <g id="Graphics">
        <path id="Path_1521" data-name="Path 1521" d="M264.523,107.506V92.621l-11.15-.948a30.889,30.889,0,0,0-2.75-6.684l7.2-8.533L247.3,65.932l-8.533,7.2a30.34,30.34,0,0,0-6.637-2.759l-.948-11.15H216.169l-.948,11.15a30.341,30.341,0,0,0-6.637,2.759l-8.533-7.2L189.527,76.456l7.2,8.533a30.888,30.888,0,0,0-2.75,6.684l-11.15.948v14.885l11.15.948a30.888,30.888,0,0,0,2.75,6.637l-7.2,8.533,10.524,10.524,8.533-7.2a30.34,30.34,0,0,0,6.637,2.759l.948,11.15h14.885l.948-11.15a30.634,30.634,0,0,0,6.684-2.759l8.533,7.2,10.524-10.524-7.2-8.533a30.887,30.887,0,0,0,2.75-6.637Zm-40.864,9.851a17.326,17.326,0,1,0-.038,0Z" transform="translate(-39.337 -27.599)" fill="none" stroke="#263238" stroke-linecap="round" stroke-linejoin="round" stroke-width="0.948"/>
        <path id="Path_1522" data-name="Path 1522" d="M424.459,252.994v-7.13l-5.347-.465a15.094,15.094,0,0,0-1.318-3.2l3.451-4.105-5.025-5.044-4.1,3.451a14.612,14.612,0,0,0-3.2-1.318l-.465-5.347h-7.139l-.455,5.347a14.421,14.421,0,0,0-3.2,1.318l-4.105-3.451-5.044,5.044,3.451,4.105a14.639,14.639,0,0,0-1.327,3.2l-5.347.465v7.13l5.347.465a14.639,14.639,0,0,0,1.327,3.2l-3.48,4.067,5.044,5.044,4.105-3.451a14.423,14.423,0,0,0,3.2,1.318l.455,5.347h7.139l.465-5.347a14.609,14.609,0,0,0,3.2-1.318l4.1,3.451,5.053-5.044-3.451-4.105a15.092,15.092,0,0,0,1.318-3.2Zm-19.6,4.741a6.181,6.181,0,1,0-.019-.009Z" transform="translate(-39.337 -27.599)" fill="none" stroke="#263238" stroke-linecap="round" stroke-linejoin="round" stroke-width="0.948"/>
        <path id="Path_1523" data-name="Path 1523" d="M419.065,123.065A19.465,19.465,0,0,0,395.02,99.893a18.678,18.678,0,0,0-34.909,7.993A15.246,15.246,0,0,0,342.1,121.159a8.533,8.533,0,0,0,.19,16.99H413.66a8.533,8.533,0,0,0,5.4-15.084Z" transform="translate(-39.337 -27.599)" fill="none" stroke="#263238" stroke-linecap="round" stroke-linejoin="round" stroke-width="0.948"/>
        <line id="Line_7" data-name="Line 7" y2="19.673" transform="translate(340.504 104.027)" fill="none" stroke="#263238" stroke-linecap="round" stroke-linejoin="round" stroke-width="0.948"/>
        <line id="Line_8" data-name="Line 8" y2="7.869" transform="translate(340.504 92.223)" fill="none" stroke="#263238" stroke-linecap="round" stroke-linejoin="round" stroke-width="0.948"/>
        <line id="Line_9" data-name="Line 9" y2="4.2" transform="translate(340.504 84.875)" fill="none" stroke="#263238" stroke-linecap="round" stroke-linejoin="round" stroke-width="0.948"/>
        <path id="Path_1524" data-name="Path 1524" d="M336.788,121.4l3.717,4.6,3.717-4.6" fill="none" stroke="#263238" stroke-linecap="round" stroke-linejoin="round" stroke-width="0.948"/>
        <path id="Path_1525" data-name="Path 1525" d="M201.606,353.787a19.474,19.474,0,0,0-24.054-23.172,18.668,18.668,0,0,0-34.9,8,15.427,15.427,0,0,0-2.844-.275,15.255,15.255,0,0,0-15.17,13.539,8.533,8.533,0,0,0,.18,16.99h71.44a8.533,8.533,0,0,0,5.376-15.084Z" transform="translate(-39.337 -27.599)" fill="none" stroke="#263238" stroke-linecap="round" stroke-linejoin="round" stroke-width="0.948"/>
        <line id="Line_10" data-name="Line 10" y1="19.673" transform="translate(123.017 317.892)" fill="none" stroke="#263238" stroke-linecap="round" stroke-linejoin="round" stroke-width="0.948"/>
        <line id="Line_11" data-name="Line 11" y1="7.869" transform="translate(123.017 341.5)" fill="none" stroke="#263238" stroke-linecap="round" stroke-linejoin="round" stroke-width="0.948"/>
        <line id="Line_12" data-name="Line 12" y1="4.21" transform="translate(123.017 352.507)" fill="none" stroke="#263238" stroke-linecap="round" stroke-linejoin="round" stroke-width="0.948"/>
        <path id="Path_1526" data-name="Path 1526" d="M126.724,320.2l-3.707-4.6-3.717,4.6" fill="none" stroke="#263238" stroke-linecap="round" stroke-linejoin="round" stroke-width="0.948"/>
      </g>
      <g id="Interface">
        <path id="Path_1527" data-name="Path 1527" d="M11.377,76.588H249.77a4.02,4.02,0,0,1,4.02,4V91.843H7.348V80.589A4.02,4.02,0,0,1,11.377,76.588Z" fill="#92e3a9" stroke="#263238" stroke-linecap="round" stroke-linejoin="round" stroke-width="0.948"/>
        <rect id="Rectangle_1180" data-name="Rectangle 1180" width="249.078" height="175.277" transform="translate(18.128 94.669)" fill="#fff" stroke="#263238" stroke-linecap="round" stroke-linejoin="round" stroke-width="0.948"/>
        <path id="Path_1528" data-name="Path 1528" d="M310.364,111.82a3.792,3.792,0,1,1-3.792-3.792A3.792,3.792,0,0,1,310.364,111.82Z" transform="translate(-39.337 -27.599)" fill="#fff" stroke="#263238" stroke-linecap="round" stroke-linejoin="round" stroke-width="0.948"/>
        <path id="Path_1529" data-name="Path 1529" d="M296.939,111.82a3.792,3.792,0,1,1-3.792-3.792A3.792,3.792,0,0,1,296.939,111.82Z" transform="translate(-39.337 -27.599)" fill="#fff" stroke="#263238" stroke-linecap="round" stroke-linejoin="round" stroke-width="0.948"/>
        <path id="Path_1530" data-name="Path 1530" d="M283.485,111.82a3.792,3.792,0,1,1-3.792-3.792A3.792,3.792,0,0,1,283.485,111.82Z" transform="translate(-39.337 -27.599)" fill="#fff" stroke="#263238" stroke-linecap="round" stroke-linejoin="round" stroke-width="0.948"/>
        <line id="Line_13" data-name="Line 13" x1="9.87" transform="translate(249.799 102.187)" fill="none" stroke="#263238" stroke-linecap="round" stroke-linejoin="round" stroke-width="1.896"/>
        <line id="Line_14" data-name="Line 14" x1="9.87" transform="translate(249.799 106.188)" fill="none" stroke="#263238" stroke-linecap="round" stroke-linejoin="round" stroke-width="1.896"/>
        <line id="Line_15" data-name="Line 15" x1="9.87" transform="translate(249.799 110.189)" fill="none" stroke="#263238" stroke-linecap="round" stroke-linejoin="round" stroke-width="1.896"/>
        <line id="Line_16" data-name="Line 16" x2="74.645" transform="translate(35.383 205.607)" fill="none" stroke="#263238" stroke-linecap="round" stroke-linejoin="round" stroke-width="1.896"/>
        <line id="Line_17" data-name="Line 17" x2="74.645" transform="translate(35.383 211.495)" fill="none" stroke="#263238" stroke-linecap="round" stroke-linejoin="round" stroke-width="1.896"/>
        <line id="Line_18" data-name="Line 18" x2="58.849" transform="translate(35.383 217.496)" fill="none" stroke="#263238" stroke-linecap="round" stroke-linejoin="round" stroke-width="1.896"/>
        <line id="Line_19" data-name="Line 19" y2="0.474" transform="translate(193.67 96.65)" fill="none" stroke="#263238" stroke-linecap="round" stroke-linejoin="round" stroke-width="0.948"/>
        <line id="Line_20" data-name="Line 20" y2="165.189" transform="translate(193.67 99.959)" fill="none" stroke="#263238" stroke-linecap="round" stroke-linejoin="round" stroke-width="0.948" stroke-dasharray="1 3"/>
        <line id="Line_21" data-name="Line 21" y2="0.474" transform="translate(193.67 266.571)" fill="none" stroke="#263238" stroke-linecap="round" stroke-linejoin="round" stroke-width="0.948"/>
        <line id="Line_22" data-name="Line 22" x2="0.474" transform="translate(21.133 230.637)" fill="none" stroke="#263238" stroke-linecap="round" stroke-linejoin="round" stroke-width="0.948"/>
        <line id="Line_23" data-name="Line 23" x2="237.065" transform="translate(24.442 230.637)" fill="none" stroke="#263238" stroke-linecap="round" stroke-linejoin="round" stroke-width="0.948" stroke-dasharray="1 2.99"/>
        <line id="Line_24" data-name="Line 24" x2="0.474" transform="translate(262.92 230.637)" fill="none" stroke="#263238" stroke-linecap="round" stroke-linejoin="round" stroke-width="0.948"/>
        <rect id="Rectangle_1181" data-name="Rectangle 1181" width="3.271" height="3.271" transform="translate(192.03 229.006)" fill="#fff" stroke="#263238" stroke-linecap="round" stroke-linejoin="round" stroke-width="0.948"/>
        <path id="Path_1531" data-name="Path 1531" d="M158.334,54.99H111.593a2.076,2.076,0,0,0-2.067,2.067V78.864a2.067,2.067,0,0,0,2.067,2.057h20.953l2.389,8.533,2.4-8.533h21a2.067,2.067,0,0,0,2.067-2.057V57.057a2.076,2.076,0,0,0-2.067-2.067Z" transform="translate(-39.337 -27.599)" fill="#92e3a9" stroke="#263238" stroke-linecap="round" stroke-linejoin="round" stroke-width="0.948"/>
        <line id="Line_25" data-name="Line 25" x2="35.317" transform="translate(77.935 33.629)" fill="none" stroke="#263238" stroke-linecap="round" stroke-linejoin="round" stroke-width="1.896"/>
        <line id="Line_26" data-name="Line 26" x2="35.317" transform="translate(77.935 38.105)" fill="none" stroke="#263238" stroke-linecap="round" stroke-linejoin="round" stroke-width="1.896"/>
        <line id="Line_27" data-name="Line 27" x2="35.317" transform="translate(77.935 42.58)" fill="none" stroke="#263238" stroke-linecap="round" stroke-linejoin="round" stroke-width="1.896"/>
        <line id="Line_28" data-name="Line 28" x2="26.623" transform="translate(77.935 47.055)" fill="none" stroke="#263238" stroke-linecap="round" stroke-linejoin="round" stroke-width="1.896"/>
        <rect id="Rectangle_1182" data-name="Rectangle 1182" width="50.876" height="31.885" transform="translate(49.027 258.341)" fill="#263238" stroke="#263238" stroke-linecap="round" stroke-linejoin="round" stroke-width="0.948"/>
        <rect id="Rectangle_1183" data-name="Rectangle 1183" width="50.876" height="4.845" transform="translate(49.027 258.341)" fill="#27debf" stroke="#263238" stroke-linecap="round" stroke-linejoin="round" stroke-width="0.948"/>
        <line id="Line_29" data-name="Line 29" x2="12.999" transform="translate(54.222 267.272)" fill="none" stroke="#fff" stroke-linecap="round" stroke-linejoin="round" stroke-width="0.948"/>
        <line id="Line_30" data-name="Line 30" x2="22.508" transform="translate(60.717 270.903)" fill="none" stroke="#fff" stroke-linecap="round" stroke-linejoin="round" stroke-width="0.948"/>
        <line id="Line_31" data-name="Line 31" x2="6.627" transform="translate(57.844 274.279)" fill="none" stroke="#fff" stroke-linecap="round" stroke-linejoin="round" stroke-width="0.948"/>
        <line id="Line_32" data-name="Line 32" x2="15.16" transform="translate(60.717 278.28)" fill="none" stroke="#fff" stroke-linecap="round" stroke-linejoin="round" stroke-width="0.948"/>
        <line id="Line_33" data-name="Line 33" x2="12.999" transform="translate(54.222 281.901)" fill="none" stroke="#fff" stroke-linecap="round" stroke-linejoin="round" stroke-width="0.948"/>
        <line id="Line_34" data-name="Line 34" x1="43.679" transform="translate(136.936 199.217)" fill="none" stroke="#263238" stroke-linecap="round" stroke-linejoin="round" stroke-width="0.948"/>
        <path id="Path_1532" data-name="Path 1532" d="M220.8,247.021s0-20.3-22.679-20.3-22.717,20.3-22.717,20.3" transform="translate(-39.337 -27.599)" fill="none" stroke="#263238" stroke-linecap="round" stroke-linejoin="round" stroke-width="0.948"/>
        <circle id="Ellipse_61" data-name="Ellipse 61" cx="1.915" cy="1.915" r="1.915" transform="translate(179.544 217.496)" fill="#92e3a9" stroke="#263238" stroke-linecap="round" stroke-linejoin="round" stroke-width="0.948"/>
        <path id="Path_1533" data-name="Path 1533" d="M173.5,247.021a1.9,1.9,0,1,1,1.9,1.9A1.9,1.9,0,0,1,173.5,247.021Z" transform="translate(-39.337 -27.599)" fill="#92e3a9" stroke="#263238" stroke-linecap="round" stroke-linejoin="round" stroke-width="0.948"/>
        <rect id="Rectangle_1184" data-name="Rectangle 1184" width="3.356" height="3.356" transform="translate(183.127 200.8) rotate(180)" fill="#92e3a9" stroke="#263238" stroke-linecap="round" stroke-linejoin="round" stroke-width="0.948"/>
        <rect id="Rectangle_1185" data-name="Rectangle 1185" width="3.356" height="3.356" transform="translate(160.458 200.8) rotate(180)" fill="#92e3a9" stroke="#263238" stroke-linecap="round" stroke-linejoin="round" stroke-width="0.948"/>
        <rect id="Rectangle_1186" data-name="Rectangle 1186" width="3.356" height="3.356" transform="translate(137.779 200.8) rotate(180)" fill="#92e3a9" stroke="#263238" stroke-linecap="round" stroke-linejoin="round" stroke-width="0.948"/>
        <path id="Path_1534" data-name="Path 1534" d="M101.855,165.8v-6.713l-5.016-.427a14.307,14.307,0,0,0-1.242-3.015l3.243-3.849L94.1,147.052l-3.859,3.243a13.482,13.482,0,0,0-3.015-1.242l-.436-5.025H80.1l-.436,5.025a13.276,13.276,0,0,0-3.006,1.242L72.8,147.052l-4.741,4.741,3.243,3.849a13.823,13.823,0,0,0-1.242,3.015l-5.025.427V165.8l5.025.427a14.013,14.013,0,0,0,1.242,3.015l-3.243,3.849,4.741,4.741,3.859-3.243a13.273,13.273,0,0,0,2.987,1.242l.436,5.025h6.7l.436-5.025a13.481,13.481,0,0,0,3.006-1.242l3.859,3.243,4.741-4.741-3.243-3.849a14.516,14.516,0,0,0,1.242-3.015Zm-18.422,4.437a7.793,7.793,0,1,1,7.793-7.793A7.793,7.793,0,0,1,83.434,170.233Z" transform="translate(-39.337 -27.599)" fill="#27debf" stroke="#263238" stroke-linecap="round" stroke-linejoin="round" stroke-width="0.948"/>
        <path id="Path_1535" data-name="Path 1535" d="M124.648,180.833v-4.589l-3.442-.3a9.3,9.3,0,0,0-.844-2.057l2.219-2.636-3.252-3.243-2.636,2.219a9.8,9.8,0,0,0-2.057-.853l-.294-3.451h-4.589l-.3,3.442a9.8,9.8,0,0,0-2.057.853L104.757,168l-3.252,3.243,2.228,2.636a8.893,8.893,0,0,0-.853,2.057l-3.442.3v4.589l3.442.294a8.724,8.724,0,0,0,.853,2.057L101.5,185.83l3.252,3.243,2.636-2.219a9.8,9.8,0,0,0,2.057.853l.3,3.432h4.589l.294-3.432a9.8,9.8,0,0,0,2.057-.853l2.636,2.219,3.252-3.243-2.171-2.645a9.112,9.112,0,0,0,.844-2.057Zm-12.6,3.034a5.338,5.338,0,1,1,5.328-5.328,5.338,5.338,0,0,1-5.328,5.328Z" transform="translate(-39.337 -27.599)" fill="#27debf" stroke="#263238" stroke-linecap="round" stroke-linejoin="round" stroke-width="0.948"/>
        <line id="Line_35" data-name="Line 35" x2="36.72" transform="translate(203.038 241.787)" fill="none" stroke="#263238" stroke-linecap="round" stroke-linejoin="round" stroke-width="1.896"/>
        <line id="Line_36" data-name="Line 36" x2="36.72" transform="translate(203.038 247.675)" fill="none" stroke="#263238" stroke-linecap="round" stroke-linejoin="round" stroke-width="1.896"/>
        <line id="Line_37" data-name="Line 37" x2="20.934" transform="translate(203.038 253.676)" fill="none" stroke="#263238" stroke-linecap="round" stroke-linejoin="round" stroke-width="1.896"/>
        <path id="Path_1536" data-name="Path 1536" d="M193.993,283.722H174.661a4.741,4.741,0,0,1-4.741-4.741h0a4.741,4.741,0,0,1,4.741-4.741h19.332a4.741,4.741,0,0,1,4.741,4.741h0A4.741,4.741,0,0,1,193.993,283.722Z" transform="translate(-39.337 -27.599)" fill="#27debf" stroke="#263238" stroke-linecap="round" stroke-linejoin="round" stroke-width="0.948"/>
        <path id="Path_1537" data-name="Path 1537" d="M230.021,283.722H210.689a4.741,4.741,0,0,1-4.741-4.741h0a4.741,4.741,0,0,1,4.741-4.741h19.332a4.741,4.741,0,0,1,4.741,4.741h0A4.741,4.741,0,0,1,230.021,283.722Z" transform="translate(-39.337 -27.599)" fill="#27debf" stroke="#263238" stroke-linecap="round" stroke-linejoin="round" stroke-width="0.948"/>
        <rect id="Rectangle_1187" data-name="Rectangle 1187" width="40.996" height="40.996" transform="translate(205.721 154.4)" fill="#fff" stroke="#263238" stroke-linecap="round" stroke-linejoin="round" stroke-width="0.948"/>
        <line id="Line_38" data-name="Line 38" x2="40.996" y2="40.996" transform="translate(205.721 154.4)" fill="#fff" stroke="#263238" stroke-linecap="round" stroke-linejoin="round" stroke-width="0.948"/>
        <line id="Line_39" data-name="Line 39" x1="40.996" y2="40.996" transform="translate(205.721 154.4)" fill="#fff" stroke="#263238" stroke-linecap="round" stroke-linejoin="round" stroke-width="0.948"/>
        <rect id="Rectangle_1188" data-name="Rectangle 1188" width="50.876" height="31.885" transform="translate(240.365 130.052)" fill="#263238" stroke="#263238" stroke-linecap="round" stroke-linejoin="round" stroke-width="0.948"/>
        <rect id="Rectangle_1189" data-name="Rectangle 1189" width="50.876" height="4.845" transform="translate(240.365 130.052)" fill="#1da78f" stroke="#263238" stroke-linecap="round" stroke-linejoin="round" stroke-width="0.948"/>
        <line id="Line_40" data-name="Line 40" x2="13.008" transform="translate(245.551 138.983)" fill="none" stroke="#fff" stroke-linecap="round" stroke-linejoin="round" stroke-width="0.948"/>
        <line id="Line_41" data-name="Line 41" x2="22.508" transform="translate(252.055 142.605)" fill="none" stroke="#fff" stroke-linecap="round" stroke-linejoin="round" stroke-width="0.948"/>
        <line id="Line_42" data-name="Line 42" x2="6.618" transform="translate(249.182 145.99)" fill="none" stroke="#fff" stroke-linecap="round" stroke-linejoin="round" stroke-width="0.948"/>
        <line id="Line_43" data-name="Line 43" x2="15.16" transform="translate(252.055 149.982)" fill="none" stroke="#fff" stroke-linecap="round" stroke-linejoin="round" stroke-width="0.948"/>
        <line id="Line_44" data-name="Line 44" x2="13.008" transform="translate(245.551 153.613)" fill="none" stroke="#fff" stroke-linecap="round" stroke-linejoin="round" stroke-width="0.948"/>
        <path id="Path_1538" data-name="Path 1538" d="M221.8,107.866v9.566l-4.219,4.219h-9.566V107.866Z" fill="#fff" stroke="#263238" stroke-linecap="round" stroke-linejoin="round" stroke-width="0.948"/>
        <path id="Path_1539" data-name="Path 1539" d="M221.8,117.433l-4.219,4.219v-4.219Z" fill="#fff" stroke="#263238" stroke-linecap="round" stroke-linejoin="round" stroke-width="0.948"/>
        <path id="Path_1540" data-name="Path 1540" d="M75.195,181.847v9.566l-4.219,4.219H61.409V181.847Z" fill="#fff" stroke="#263238" stroke-linecap="round" stroke-linejoin="round" stroke-width="0.948"/>
        <path id="Path_1541" data-name="Path 1541" d="M75.195,191.414l-4.219,4.219v-4.219Z" fill="#fff" stroke="#263238" stroke-linecap="round" stroke-linejoin="round" stroke-width="0.948"/>
        <path id="Path_1542" data-name="Path 1542" d="M23.1,240.782v9.566l-4.219,4.219H9.31V240.782Z" fill="#fff" stroke="#263238" stroke-linecap="round" stroke-linejoin="round" stroke-width="0.948"/>
        <path id="Path_1543" data-name="Path 1543" d="M23.1,250.348l-4.219,4.219v-4.219Z" fill="#fff" stroke="#263238" stroke-linecap="round" stroke-linejoin="round" stroke-width="0.948"/>
      </g>
      <g id="Character">
        <path id="Path_1544" data-name="Path 1544" d="M235.008,210.082c-5.015.427-11.377-5.565-11.377-5.565a1.128,1.128,0,0,1-1.792-.228c-.815-1.176-4.352-3.9-4.551-6.248s3.973-6.163,3.973-6.163c-3.214.872-3.555-1.014-3.555-1.014s5.414-4.466,7.31-4.589c.74-.047,3.963,1.811,7.082,4.314,3.261,2.626,9.386,11.87,9.386,11.87s20.716,15.047,25.95,18.9c6.912,5.082,15.1,14.1,15.1,14.1s27.5,12.4,35.08,19.218l-10.259,24.291s-25-16.753-27.5-21-5-1.7-7.5-4.475-4.9-5.954-4.9-5.954a42.267,42.267,0,0,1-11.937-8.609c-5.84-6-10.989-15.17-14.222-20.688a34.132,34.132,0,0,0-6.3-8.154Z" transform="translate(-39.337 -27.599)" fill="#fff" stroke="#263238" stroke-linecap="round" stroke-linejoin="round" stroke-width="0.948"/>
        <path id="Path_1545" data-name="Path 1545" d="M236.534,206.536s-7.462-1.811-8.106-6.732a9.054,9.054,0,0,0-1.6-3.442s-6.959-.341-6.523-3.176l9.291-.825a16.175,16.175,0,0,1,8.087,6.807" transform="translate(-39.337 -27.599)" fill="#fff" stroke="#263238" stroke-linecap="round" stroke-linejoin="round" stroke-width="0.948"/>
        <path id="Path_1546" data-name="Path 1546" d="M223.621,204.517a3.053,3.053,0,0,0,.313-2.01s2.048-.379,1.82-2.19c0,0,3.034-.37,1.071-3.954" transform="translate(-39.337 -27.599)" fill="none" stroke="#263238" stroke-linecap="round" stroke-linejoin="round" stroke-width="0.948"/>
        <path id="Path_1547" data-name="Path 1547" d="M225.754,200.317s-4.086-3.024-4.541-4.409" transform="translate(-39.337 -27.599)" fill="none" stroke="#263238" stroke-linecap="round" stroke-linejoin="round" stroke-width="0.948"/>
        <path id="Path_1548" data-name="Path 1548" d="M223.934,202.507s-4.352-2.655-4.428-4.2" transform="translate(-39.337 -27.599)" fill="none" stroke="#263238" stroke-linecap="round" stroke-linejoin="round" stroke-width="0.948"/>
        <path id="Path_1549" data-name="Path 1549" d="M224.93,188.873a6.628,6.628,0,0,1-3.679,3.006" transform="translate(-39.337 -27.599)" fill="none" stroke="#263238" stroke-linecap="round" stroke-linejoin="round" stroke-width="0.948"/>
        <path id="Path_1550" data-name="Path 1550" d="M224.237,189.84a11.9,11.9,0,0,1,2.048,1.356" transform="translate(-39.337 -27.599)" fill="none" stroke="#263238" stroke-linecap="round" stroke-linejoin="round" stroke-width="0.948"/>
        <path id="Path_1551" data-name="Path 1551" d="M383.15,273.814a223.93,223.93,0,0,0-33.1-11.055c-16.649-3.9-43.613-7.376-43.613-7.376s7.414,75.659,5.461,80.21-13.672,19.834-13.672,19.834,63.419,24.727,74.474,26.832,5.29-36.265,5.29-36.265S389.673,297.223,383.15,273.814Z" transform="translate(-39.337 -27.599)" fill="#263238"/>
        <path id="Path_1552" data-name="Path 1552" d="M360.386,265.689s1.508,2.844-2.456,4.333c-10.268,3.792-21.209.446-20.043-3.574.446-1.536,2.987,0,2.844-5.689a6.987,6.987,0,0,0-.692-2.522,26.043,26.043,0,0,0-2.607-4.371,54.291,54.291,0,0,0-3.518-4.39s16.3-10.429,28.386,0C362.282,249.429,357.788,251.7,360.386,265.689Z" transform="translate(-39.337 -27.599)" fill="#fff" stroke="#263238" stroke-linecap="round" stroke-linejoin="round" stroke-width="0.948"/>
        <path id="Path_1553" data-name="Path 1553" d="M380.581,400.444c-6.419,10.429-38.986,15.369-56.763,14.9s-68.928-24.651-72.4-29.809c-3.214-4.741-11.112-20.451,1.062-29.941a23.587,23.587,0,0,1,3.28-2.124c8.334-4.513,63.76,9.718,63.76,9.718s3.432-2.171,4.693-2.01c3.868.493,6.637,3.622,14.449,5.85,5.471,1.564,20.4-4.447,29.941.721a13.159,13.159,0,0,1,2.9,2.1C380.42,378.372,386.99,389.986,380.581,400.444Z" transform="translate(-39.337 -27.599)" fill="#27debf"/>
        <g id="Group_1123" data-name="Group 1123" clip-path="url(#clip-path-2)">
          <path id="Path_1554" data-name="Path 1554" d="M368.606,367.753c-9.775-.654-18.488,1.394-24.575,4.987-7.215,4.266-41.29,20.678-41.29,20.678.076-1.763,1.972-5.319,1.972-5.319-3.2-2.844-11.586-5.072-11.586-5.072-6.495-5.546-32.236-22.091-40.645-27.429a23.587,23.587,0,0,1,3.28-2.124c8.334-4.513,63.76,9.718,63.76,9.718s3.432-2.171,4.693-2.01c3.868.493,6.637,3.622,14.449,5.85C344.164,368.6,359.068,362.586,368.606,367.753Z" transform="translate(-39.337 -27.599)" fill="rgba(0,0,0,0.7)" opacity="0.3"/>
        </g>
        <path id="Path_1556" data-name="Path 1556" d="M380.581,400.444c-6.419,10.429-38.986,15.369-56.763,14.9s-68.928-24.651-72.4-29.809c-3.214-4.741-11.112-20.451,1.062-29.941a23.587,23.587,0,0,1,3.28-2.124c8.334-4.513,63.76,9.718,63.76,9.718s3.432-2.171,4.693-2.01c3.868.493,6.637,3.622,14.449,5.85,5.471,1.564,20.4-4.447,29.941.721a13.159,13.159,0,0,1,2.9,2.1C380.42,378.372,386.99,389.986,380.581,400.444Z" transform="translate(-39.337 -27.599)" fill="none" stroke="#263238" stroke-linecap="round" stroke-linejoin="round" stroke-width="0.948"/>
        <path id="Path_1557" data-name="Path 1557" d="M370.588,409.887l.815,3.574s-2.181,6.182-11.766,7.2-15.265,3.129-19.91,3.4a38.7,38.7,0,0,1-7.291-.114l-.948-1.4Z" transform="translate(-39.337 -27.599)" fill="#fff" stroke="#263238" stroke-linecap="round" stroke-linejoin="round" stroke-width="0.948"/>
        <path id="Path_1558" data-name="Path 1558" d="M314.924,409.508l16.611,13.036a190.3,190.3,0,0,0,23.816-3.565h0c7.869-1.82,14.743-4.428,15.113-8.012.578-5.442-5.243-6.931-12.155-6.722-1.289,0-2.617.133-3.954.265-11.064,1.185-25.134-4.921-25.134-4.921Z" transform="translate(-39.337 -27.599)" fill="#263238"/>
        <g id="Group_1124" data-name="Group 1124" clip-path="url(#clip-path-3)">
          <path id="Path_1559" data-name="Path 1559" d="M370.474,410.835a50.687,50.687,0,0,0-9.235,4.551s-15.426,7.936-39.138-.237l-7.177-5.641,14.3-9.927s14.06,6.115,25.134,4.921c1.337-.142,2.664-.237,3.954-.265C365.174,404.028,370.948,405.488,370.474,410.835Z" transform="translate(-39.337 -27.599)" fill="rgba(0,0,0,0.7)" opacity="0.3"/>
        </g>
        <path id="Path_1561" data-name="Path 1561" d="M314.924,409.508l16.611,13.036a190.3,190.3,0,0,0,23.816-3.565h0c7.869-1.82,14.743-4.428,15.113-8.012.578-5.442-5.243-6.931-12.155-6.722-1.289,0-2.617.133-3.954.265-11.064,1.185-25.134-4.921-25.134-4.921Z" transform="translate(-39.337 -27.599)" fill="none" stroke="#263238" stroke-linecap="round" stroke-linejoin="round" stroke-width="0.948"/>
        <path id="Path_1562" data-name="Path 1562" d="M330.407,414.646c-3,.484.294,6.637,4.352,4.741S333.4,414.153,330.407,414.646Z" transform="translate(-39.337 -27.599)" fill="#fff"/>
        <g id="Group_1125" data-name="Group 1125" clip-path="url(#clip-path-4)">
          <path id="Path_1563" data-name="Path 1563" d="M336.029,418.41a63.467,63.467,0,0,1-6.457-1.128c-.569-1.2-.436-2.437.834-2.636C332.919,414.229,337.148,416.552,336.029,418.41Z" transform="translate(-39.337 -27.599)" fill="rgba(0,0,0,0.7)" opacity="0.2"/>
        </g>
        <path id="Path_1565" data-name="Path 1565" d="M330.407,414.646c-3,.484.294,6.637,4.352,4.741S333.4,414.153,330.407,414.646Z" transform="translate(-39.337 -27.599)" fill="none" stroke="#263238" stroke-linecap="round" stroke-linejoin="round" stroke-width="0.948"/>
        <path id="Path_1566" data-name="Path 1566" d="M355.352,418.97c7.869-1.82,14.743-4.428,15.113-8.012.578-5.442-5.243-6.931-12.155-6.722C358.006,404.53,351.3,411.006,355.352,418.97Z" transform="translate(-39.337 -27.599)" fill="#fff"/>
        <g id="Group_1126" data-name="Group 1126" clip-path="url(#clip-path-5)">
          <path id="Path_1567" data-name="Path 1567" d="M370.474,410.835a50.687,50.687,0,0,0-9.235,4.551,31.079,31.079,0,0,1-6.495,2.171c-2.655-7.3,3.28-13.046,3.565-13.321C365.174,404.028,370.948,405.488,370.474,410.835Z" transform="translate(-39.337 -27.599)" fill="rgba(0,0,0,0.7)" opacity="0.3"/>
        </g>
        <path id="Path_1569" data-name="Path 1569" d="M355.352,418.97c7.869-1.82,14.743-4.428,15.113-8.012.578-5.442-5.243-6.931-12.155-6.722C358.006,404.53,351.3,411.006,355.352,418.97Z" transform="translate(-39.337 -27.599)" fill="none" stroke="#263238" stroke-linecap="round" stroke-linejoin="round" stroke-width="0.948"/>
        <path id="Path_1570" data-name="Path 1570" d="M349.739,412.21h.047a.815.815,0,0,0,.853-.787,11.169,11.169,0,0,1,2.844-6.248.815.815,0,0,0,0-1.157.825.825,0,0,0-1.157,0,12.667,12.667,0,0,0-3.29,7.31A.815.815,0,0,0,349.739,412.21Z" transform="translate(-39.337 -27.599)" fill="#fff" stroke="#263238" stroke-linecap="round" stroke-linejoin="round" stroke-width="0.948"/>
        <path id="Path_1571" data-name="Path 1571" d="M346.449,412.428h.066a.815.815,0,0,0,.834-.806,12.174,12.174,0,0,1,2.522-6.5.825.825,0,1,0-1.271-1.043,13.729,13.729,0,0,0-2.892,7.509.815.815,0,0,0,.74.844Z" transform="translate(-39.337 -27.599)" fill="#fff" stroke="#263238" stroke-linecap="round" stroke-linejoin="round" stroke-width="0.948"/>
        <path id="Path_1572" data-name="Path 1572" d="M342.514,411.992h0a.815.815,0,0,0,.891-.74c.256-2.844,2.7-6.57,2.731-6.637a.834.834,0,0,0-.228-1.147.825.825,0,0,0-1.138.228c-.114.161-2.712,4.067-3.006,7.367a.825.825,0,0,0,.749.929Z" transform="translate(-39.337 -27.599)" fill="#fff" stroke="#263238" stroke-linecap="round" stroke-linejoin="round" stroke-width="0.948"/>
        <path id="Path_1573" data-name="Path 1573" d="M338.8,411.6a.86.86,0,0,0,.218,0,.815.815,0,0,0,.673-.948c-.578-3.489,2.664-6.476,2.693-6.5a.825.825,0,0,0-1.062-1.2c-.161.142-3.944,3.612-3.214,8A.834.834,0,0,0,338.8,411.6Z" transform="translate(-39.337 -27.599)" fill="#fff" stroke="#263238" stroke-linecap="round" stroke-linejoin="round" stroke-width="0.948"/>
        <path id="Path_1574" data-name="Path 1574" d="M334.759,410.626a.835.835,0,0,0,.265,0,.825.825,0,0,0,.616-.948c-.711-3.11,2.351-6.637,2.389-6.637a.825.825,0,0,0-.076-1.157.815.815,0,0,0-1.157.066c-.152.171-3.66,4.181-2.759,8.125a.815.815,0,0,0,.721.55Z" transform="translate(-39.337 -27.599)" fill="#fff" stroke="#263238" stroke-linecap="round" stroke-linejoin="round" stroke-width="0.948"/>
        <path id="Path_1575" data-name="Path 1575" d="M249.353,404.54l-1.185,3.47s1.517,6.381,10.941,8.391,14.847,4.741,19.4,5.48a39.051,39.051,0,0,0,7.263.645l1.09-1.3Z" transform="translate(-39.337 -27.599)" fill="#fff" stroke="#263238" stroke-linecap="round" stroke-linejoin="round" stroke-width="0.948"/>
        <path id="Path_1576" data-name="Path 1576" d="M304.713,410.01l-17.881,11.216a190.766,190.766,0,0,1-23.314-6.039h0c-7.632-2.636-14.222-5.954-14.222-9.557,0-5.48,5.945-6.343,12.8-5.414,1.28.171,2.588.408,3.906.683,10.875,2.342,25.5-2.257,25.5-2.257Z" transform="translate(-39.337 -27.599)" fill="#263238"/>
        <g id="Group_1127" data-name="Group 1127" clip-path="url(#clip-path-6)">
          <path id="Path_1577" data-name="Path 1577" d="M304.713,410.01,294.2,416.647a42.532,42.532,0,0,1-21.37-15.046,71.2,71.2,0,0,0,18.706-2.93Z" transform="translate(-39.337 -27.599)" fill="rgba(0,0,0,0.7)" opacity="0.3"/>
        </g>
        <path id="Path_1579" data-name="Path 1579" d="M304.713,410.01l-17.881,11.216a190.766,190.766,0,0,1-23.314-6.039h0c-7.632-2.636-14.222-5.954-14.222-9.557,0-5.48,5.945-6.343,12.8-5.414,1.28.171,2.588.408,3.906.683,10.875,2.342,25.5-2.257,25.5-2.257Z" transform="translate(-39.337 -27.599)" fill="none" stroke="#263238" stroke-linecap="round" stroke-linejoin="round" stroke-width="0.948"/>
        <path id="Path_1580" data-name="Path 1580" d="M263.518,415.177c-7.632-2.636-14.222-5.954-14.222-9.557,0-5.48,5.945-6.343,12.8-5.414C262.4,400.529,268.381,407.687,263.518,415.177Z" transform="translate(-39.337 -27.599)" fill="#fff" stroke="#263238" stroke-linecap="round" stroke-linejoin="round" stroke-width="0.948"/>
        <path id="Path_1581" data-name="Path 1581" d="M269.813,409.043h-.047a.834.834,0,0,1-.777-.872,11.121,11.121,0,0,0-2.152-6.5.825.825,0,1,1,1.289-1.014,12.581,12.581,0,0,1,2.5,7.585A.815.815,0,0,1,269.813,409.043Z" transform="translate(-39.337 -27.599)" fill="#fff" stroke="#263238" stroke-linecap="round" stroke-linejoin="round" stroke-width="0.948"/>
        <path id="Path_1582" data-name="Path 1582" d="M273.056,409.583h-.076a.825.825,0,0,1-.749-.891,12.107,12.107,0,0,0-1.811-6.722.831.831,0,0,1,1.365-.948,13.586,13.586,0,0,1,2.086,7.775.825.825,0,0,1-.815.787Z" transform="translate(-39.337 -27.599)" fill="#fff" stroke="#263238" stroke-linecap="round" stroke-linejoin="round" stroke-width="0.948"/>
        <path id="Path_1583" data-name="Path 1583" d="M277.019,409.583h0a.834.834,0,0,1-.815-.834c.057-2.892-1.991-6.807-2.019-6.845a.834.834,0,0,1,.351-1.119.825.825,0,0,1,1.109.351c.095.171,2.266,4.323,2.209,7.642a.825.825,0,0,1-.834.806Z" transform="translate(-39.337 -27.599)" fill="#fff" stroke="#263238" stroke-linecap="round" stroke-linejoin="round" stroke-width="0.948"/>
        <path id="Path_1584" data-name="Path 1584" d="M280.754,409.583h-.218a.825.825,0,0,1-.569-1.015c.948-3.4-1.963-6.722-1.991-6.75a.825.825,0,1,1,1.223-1.1c.142.161,3.546,4.011,2.351,8.3A.834.834,0,0,1,280.754,409.583Z" transform="translate(-39.337 -27.599)" fill="#fff" stroke="#263238" stroke-linecap="round" stroke-linejoin="round" stroke-width="0.948"/>
        <path id="Path_1585" data-name="Path 1585" d="M284.879,409.043a.626.626,0,0,1-.265-.047.806.806,0,0,1-.512-1.043c1.033-3.015-1.65-6.836-1.669-6.874a.825.825,0,1,1,1.337-.948c.133.18,3.2,4.541,1.9,8.372A.834.834,0,0,1,284.879,409.043Z" transform="translate(-39.337 -27.599)" fill="#fff" stroke="#263238" stroke-linecap="round" stroke-linejoin="round" stroke-width="0.948"/>
        <path id="Path_1586" data-name="Path 1586" d="M288.775,413.49c2.93.806-.948,6.542-4.826,4.267S285.855,412.693,288.775,413.49Z" transform="translate(-39.337 -27.599)" fill="#fff" stroke="#263238" stroke-linecap="round" stroke-linejoin="round" stroke-width="0.948"/>
        <path id="Path_1587" data-name="Path 1587" d="M254.966,383.036c4.39,6.153,17.407,12.951,30.34,18.555a60.9,60.9,0,0,0,8.135,10.628c7.983,8.211,11.235,3.612,11.235,3.612s5.044-.569,12.487-1.583a3.555,3.555,0,0,0,3.792,2.114c.948-.152,2.844-1.536,4.94-3.366,18.8-2.844,44.315-7.585,51.2-13.1" transform="translate(-39.337 -27.599)" fill="#27debf" stroke="#263238" stroke-linecap="round" stroke-linejoin="round" stroke-width="0.948"/>
        <path id="Path_1588" data-name="Path 1588" d="M369.763,371.318c-3.252-3.574-6.5-3.736-13.33-3.252,0,0-17.815,5.689-30.245,13.169s-30.558,15.416-30.558,15.416-5.527-1.6-9.377,0c0,0-2.7.209-.891,4.93" transform="translate(-39.337 -27.599)" fill="none" stroke="#263238" stroke-linecap="round" stroke-linejoin="round" stroke-width="0.948"/>
        <path id="Path_1589" data-name="Path 1589" d="M378.03,392.679s.095,5.509-7.718,9.32" transform="translate(-39.337 -27.599)" fill="none" stroke="#263238" stroke-linecap="round" stroke-linejoin="round" stroke-width="0.948"/>
        <path id="Path_1590" data-name="Path 1590" d="M291.866,369.7s12.325,8.912,14.8,14.791a50.759,50.759,0,0,1,7,3.612" transform="translate(-39.337 -27.599)" fill="none" stroke="#263238" stroke-linecap="round" stroke-linejoin="round" stroke-width="0.948"/>
        <path id="Path_1591" data-name="Path 1591" d="M307.557,377.1a14.222,14.222,0,0,1,.436,7.974" transform="translate(-39.337 -27.599)" fill="none" stroke="#263238" stroke-linecap="round" stroke-linejoin="round" stroke-width="0.948"/>
        <path id="Path_1592" data-name="Path 1592" d="M304.713,371.318a21.561,21.561,0,0,1,1.763,3.081" transform="translate(-39.337 -27.599)" fill="none" stroke="#263238" stroke-linecap="round" stroke-linejoin="round" stroke-width="0.948"/>
        <path id="Path_1593" data-name="Path 1593" d="M322.272,370.5s4.124,5.518,5.148,9.993" transform="translate(-39.337 -27.599)" fill="none" stroke="#263238" stroke-linecap="round" stroke-linejoin="round" stroke-width="0.948"/>
        <path id="Path_1594" data-name="Path 1594" d="M345.245,403.838a35.4,35.4,0,0,0,4.57-.569" transform="translate(-39.337 -27.599)" fill="none" stroke="#263238" stroke-linecap="round" stroke-linejoin="round" stroke-width="0.948"/>
        <path id="Path_1595" data-name="Path 1595" d="M306.552,399.884A219.654,219.654,0,0,0,342,403.952" transform="translate(-39.337 -27.599)" fill="none" stroke="#263238" stroke-linecap="round" stroke-linejoin="round" stroke-width="0.948"/>
        <path id="Path_1596" data-name="Path 1596" d="M389.977,316.28s-2.228,38.872-4.854,41.1-6.77,2.92-14.61,3.574-42.523,2.778-42.523,2.778l-3.736-11.14s18.441-1.9,26.623-4.883a137.217,137.217,0,0,1,18.886-4.987s-1.555-9.775-1.555-13.985v-19.8" transform="translate(-39.337 -27.599)" fill="#fff" stroke="#263238" stroke-linecap="round" stroke-linejoin="round" stroke-width="0.948"/>
        <path id="Path_1597" data-name="Path 1597" d="M383.15,273.814c8.448,5.205,10.941,17.237,8.021,42.921,0,0,2.494,3.034-1.195,4.551,0,0-13.814-5.167-20.233-1.6S365,314.763,365,314.763s-2.645-23.627,3.2-27.9" transform="translate(-39.337 -27.599)" fill="#263238"/>
        <path id="Path_1598" data-name="Path 1598" d="M367.431,283.248s-8.125,8.448-.948,29.8a34.836,34.836,0,0,0-.948,5.309c0,1.432,1.963,2.171,1.963,2.171" transform="translate(-39.337 -27.599)" fill="none" stroke="#fff" stroke-linecap="round" stroke-linejoin="round" stroke-width="0.948"/>
        <path id="Path_1599" data-name="Path 1599" d="M357.93,297.555s.588,10.429,7.054,14.952" transform="translate(-39.337 -27.599)" fill="none" stroke="#fff" stroke-linecap="round" stroke-linejoin="round" stroke-width="0.948"/>
        <path id="Path_1600" data-name="Path 1600" d="M360.016,273.34s-12.6,4.826-22.622-.521c-5.945-3.167-3.5-8.258-3.5-8.258" transform="translate(-39.337 -27.599)" fill="none" stroke="#fff" stroke-linecap="round" stroke-linejoin="round" stroke-width="0.948"/>
        <path id="Path_1601" data-name="Path 1601" d="M269.405,371.337h68.586a17.872,17.872,0,0,0,4.589-.6l13.529-3.546a.872.872,0,0,0,.654-.844h0a.882.882,0,0,0-.882-.882H266.571a.882.882,0,0,0-.872.882v1.28A3.707,3.707,0,0,0,269.405,371.337Z" transform="translate(-39.337 -27.599)" fill="#757575" stroke="#263238" stroke-linecap="round" stroke-linejoin="round" stroke-width="0.948"/>
        <path id="Path_1602" data-name="Path 1602" d="M262.626,367.924H331.4a1.631,1.631,0,0,0,1.6-2.2l-12.752-49.615a3.034,3.034,0,0,0-2.75-2.209H248.708a1.64,1.64,0,0,0-1.6,2.209l12.762,49.615a3.015,3.015,0,0,0,2.759,2.2Z" transform="translate(-39.337 -27.599)" fill="#999" stroke="#263238" stroke-linecap="round" stroke-linejoin="round" stroke-width="0.948"/>
        <line id="Line_45" data-name="Line 45" x1="1.299" transform="translate(210.499 288.055)" fill="none" stroke="#263238" stroke-linecap="round" stroke-linejoin="round" stroke-width="0.948"/>
        <line id="Line_46" data-name="Line 46" x1="6.722" transform="translate(215.155 288.055)" fill="none" stroke="#263238" stroke-linecap="round" stroke-linejoin="round" stroke-width="0.948"/>
        <path id="Path_1603" data-name="Path 1603" d="M329.734,361.657,318.47,317.873a3.024,3.024,0,0,0-2.74-2.209h-53" transform="translate(-39.337 -27.599)" fill="none" stroke="#263238" stroke-linecap="round" stroke-linejoin="round" stroke-width="0.948"/>
        <line id="Line_47" data-name="Line 47" x1="0.284" y1="1.09" transform="translate(291.089 336.778)" fill="none" stroke="#263238" stroke-linecap="round" stroke-linejoin="round" stroke-width="0.948"/>
        <path id="Path_1604" data-name="Path 1604" d="M283.3,342.163a6.77,6.77,0,0,0,.247,1.185c.872,2.987,3.669,4.807,6.239,4.048s3.944-3.792,3.072-6.779-3.688-4.807-6.258-4.048a4.38,4.38,0,0,0-.863.37A5.3,5.3,0,0,1,283.3,342.163Z" transform="translate(-39.337 -27.599)" fill="#fff" stroke="#263238" stroke-linecap="round" stroke-linejoin="round" stroke-width="0.948"/>
        <path id="Path_1605" data-name="Path 1605" d="M313.663,249.182c-5.954-.645-9.2-6.3-12.781-7.187a39.493,39.493,0,0,1-5.859-1.9s-1.233-4.3-3.081-2.844-4.276,33.658-1.9,32.643,2.389,2.787,2.389,2.787l22.1,19.474,18.526-32.8S319.617,249.836,313.663,249.182Z" transform="translate(-39.337 -27.599)" fill="#263238"/>
        <path id="Path_1606" data-name="Path 1606" d="M94.233,106.928v-.474h.474" fill="none" stroke="#263238" stroke-linecap="round" stroke-linejoin="round" stroke-width="0.948"/>
        <line id="Line_48" data-name="Line 48" x2="80.21" transform="translate(97.494 106.454)" fill="none" stroke="#263238" stroke-linecap="round" stroke-linejoin="round" stroke-width="0.948" stroke-dasharray="0.98 2.93"/>
        <path id="Path_1607" data-name="Path 1607" d="M179.088,106.454h.474v.474" fill="none" stroke="#263238" stroke-linecap="round" stroke-linejoin="round" stroke-width="0.948"/>
        <line id="Line_49" data-name="Line 49" y2="51.672" transform="translate(179.563 109.772)" fill="none" stroke="#263238" stroke-linecap="round" stroke-linejoin="round" stroke-width="0.948" stroke-dasharray="1 3"/>
        <path id="Path_1608" data-name="Path 1608" d="M179.563,162.866v.474h-.474" fill="none" stroke="#263238" stroke-linecap="round" stroke-linejoin="round" stroke-width="0.948"/>
        <line id="Line_50" data-name="Line 50" x1="80.21" transform="translate(96.1 163.34)" fill="none" stroke="#263238" stroke-linecap="round" stroke-linejoin="round" stroke-width="0.948" stroke-dasharray="0.98 2.93"/>
        <path id="Path_1609" data-name="Path 1609" d="M94.707,163.34h-.474v-.474" fill="none" stroke="#263238" stroke-linecap="round" stroke-linejoin="round" stroke-width="0.948"/>
        <line id="Line_51" data-name="Line 51" y1="51.672" transform="translate(94.233 108.35)" fill="none" stroke="#263238" stroke-linecap="round" stroke-linejoin="round" stroke-width="0.948" stroke-dasharray="1 3"/>
        <circle id="Ellipse_62" data-name="Ellipse 62" cx="1.403" cy="1.403" r="1.403" transform="translate(135.494 105.051)" fill="#92e3a9" stroke="#263238" stroke-linecap="round" stroke-linejoin="round" stroke-width="0.948"/>
        <circle id="Ellipse_63" data-name="Ellipse 63" cx="1.403" cy="1.403" r="1.403" transform="translate(92.829 133.494)" fill="#92e3a9" stroke="#263238" stroke-linecap="round" stroke-linejoin="round" stroke-width="0.948"/>
        <circle id="Ellipse_64" data-name="Ellipse 64" cx="1.403" cy="1.403" r="1.403" transform="translate(135.494 161.937)" fill="#92e3a9" stroke="#263238" stroke-linecap="round" stroke-linejoin="round" stroke-width="0.948"/>
        <circle id="Ellipse_65" data-name="Ellipse 65" cx="1.403" cy="1.403" r="1.403" transform="translate(178.159 133.494)" fill="#92e3a9" stroke="#263238" stroke-linecap="round" stroke-linejoin="round" stroke-width="0.948"/>
        <rect id="Rectangle_1190" data-name="Rectangle 1190" width="3.271" height="3.271" transform="translate(177.932 161.71)" fill="#92e3a9" stroke="#263238" stroke-linecap="round" stroke-linejoin="round" stroke-width="0.948"/>
        <rect id="Rectangle_1191" data-name="Rectangle 1191" width="3.271" height="3.271" transform="translate(177.932 104.823)" fill="#92e3a9" stroke="#263238" stroke-linecap="round" stroke-linejoin="round" stroke-width="0.948"/>
        <rect id="Rectangle_1192" data-name="Rectangle 1192" width="3.271" height="3.271" transform="translate(92.602 161.71)" fill="#92e3a9" stroke="#263238" stroke-linecap="round" stroke-linejoin="round" stroke-width="0.948"/>
        <rect id="Rectangle_1193" data-name="Rectangle 1193" width="3.271" height="3.271" transform="translate(92.602 104.823)" fill="#92e3a9" stroke="#263238" stroke-linecap="round" stroke-linejoin="round" stroke-width="0.948"/>
        <rect id="Rectangle_1194" data-name="Rectangle 1194" width="74.265" height="47.187" transform="translate(99.902 111.479)" fill="#fff" stroke="#263238" stroke-linecap="round" stroke-linejoin="round" stroke-width="0.948"/>
        <path id="Path_1610" data-name="Path 1610" d="M174.158,144.729l-8.249,8.258-22.337-22.328-9.4,9.4-14.99-14.99L99.893,144.359v14.307h74.265Z" fill="#1da78f" stroke="#263238" stroke-linecap="round" stroke-linejoin="round" stroke-width="0.948"/>
        <circle id="Ellipse_66" data-name="Ellipse 66" cx="5.243" cy="5.243" r="5.243" transform="translate(153.537 119.633)" fill="#92e3a9" stroke="#263238" stroke-linecap="round" stroke-linejoin="round" stroke-width="0.948"/>
        <path id="Path_1611" data-name="Path 1611" d="M317.617,257.886s-5.689,10.59-6.362,26.794" transform="translate(-39.337 -27.599)" fill="none" stroke="#fff" stroke-linecap="round" stroke-linejoin="round" stroke-width="0.948"/>
        <path id="Path_1612" data-name="Path 1612" d="M300.892,265.215s1.7,9.007,6.637,15.53" transform="translate(-39.337 -27.599)" fill="none" stroke="#fff" stroke-linecap="round" stroke-linejoin="round" stroke-width="0.948"/>
        <path id="Path_1613" data-name="Path 1613" d="M324.254,302.381s8.533,28.026,27.069,36.275" transform="translate(-39.337 -27.599)" fill="none" stroke="#fff" stroke-linecap="round" stroke-linejoin="round" stroke-width="0.948"/>
        <path id="Path_1614" data-name="Path 1614" d="M346.7,251.647s-.806,6.115-6.684,6.542a26.044,26.044,0,0,0-2.607-4.371,82.073,82.073,0,0,1,9.291-2.171Z" transform="translate(-39.337 -27.599)" fill="#263238"/>
        <path id="Path_1615" data-name="Path 1615" d="M359.229,252.074s9.832,1.2,13.947-11.994.882-23.143-15.388-27.931c-9.026-2.655-18.014-.521-21.3,6.314-2.787,5.85-1.47,10.714-2.1,12.676-.721,2.2-7.376,4.067-7.376,5.575,0,1.242,3.688,3.366,3.688,3.366l-1.081,3.28,1.014.54s-1.9,7.386-1.014,9.993c.626,1.9,17.284,2.693,18.583-2.029" transform="translate(-39.337 -27.599)" fill="#fff" stroke="#263238" stroke-linecap="round" stroke-linejoin="round" stroke-width="0.948"/>
        <path id="Path_1616" data-name="Path 1616" d="M336.579,223.251s3.252.815,4.143,2.522" transform="translate(-39.337 -27.599)" fill="none" stroke="#263238" stroke-linecap="round" stroke-linejoin="round" stroke-width="0.948"/>
        <path id="Path_1617" data-name="Path 1617" d="M337.148,230.751c-.142.948.076,1.773.493,1.83s.853-.664,1-1.621-.085-1.773-.493-1.83S337.29,229.793,337.148,230.751Z" transform="translate(-39.337 -27.599)" fill="#263238"/>
        <path id="Path_1618" data-name="Path 1618" d="M330.625,243.9s5.29,2.029,7.263.806" transform="translate(-39.337 -27.599)" fill="none" stroke="#263238" stroke-linecap="round" stroke-linejoin="round" stroke-width="0.948"/>
        <path id="Path_1619" data-name="Path 1619" d="M332.483,229.992c-.389,2.124.085,3.982,1.062,4.162s2.1-1.384,2.484-3.5-.076-3.992-1.062-4.172S332.881,227.878,332.483,229.992Z" transform="translate(-39.337 -27.599)" fill="none" stroke="#263238" stroke-linecap="round" stroke-linejoin="round" stroke-width="0.948"/>
        <path id="Path_1620" data-name="Path 1620" d="M373.612,219.194a15.644,15.644,0,0,0-6.182-9.538,28.927,28.927,0,0,0-11.889-4.864s3.138,1.375,4.333,3.186c0,0-8.125-6.106-17.777-2.1s-8.448,14.43-8.448,14.43l1.4-2.731s-.161,3.252,1.545,4.447a21.351,21.351,0,0,1,2.076-4.551s2.56,7.689,9.6,10.3a5.594,5.594,0,0,1-.114-3.792s3.906,8.448,2.768,12.572l1.242,2.162s4.485-4.541,8.135-.758c2.1,2.181-4.01,10.429-4.883,10.429l3.688,5.414s9.216,1.318,14.525-8.666,4.01-14.222,4.01-14.222,1.735,2.427,1.9,3.792C379.566,234.686,381.14,223.963,373.612,219.194Z" transform="translate(-39.337 -27.599)" fill="#263238"/>
        <path id="Path_1621" data-name="Path 1621" d="M351.929,239.673s2.844-9.557,8.893-6.191,1.735,8.467-.436,10.429-3.792,5.527-5.205,5.527-1.726-1.735-1.726-1.735" transform="translate(-39.337 -27.599)" fill="#fff" stroke="#263238" stroke-linecap="round" stroke-linejoin="round" stroke-width="0.948"/>
        <line id="Line_52" data-name="Line 52" x2="16.876" y2="3.508" transform="translate(296.692 203.047)" fill="none" stroke="#263238" stroke-linecap="round" stroke-linejoin="round" stroke-width="0.948"/>
      </g>
    </g>
  </g>
</svg>
