<svg xmlns="http://www.w3.org/2000/svg" xmlns:xlink="http://www.w3.org/1999/xlink" width="220" height="180" viewBox="0 0 220 180">
  <defs>
    <clipPath id="clip-path">
      <rect id="Rectangle_1337" data-name="Rectangle 1337" width="220" height="180" transform="translate(401 3861)" fill="#fff" stroke="#707070" stroke-width="1"/>
    </clipPath>
  </defs>
  <g id="Mask_Group_84" data-name="Mask Group 84" transform="translate(-401 -3861)" clip-path="url(#clip-path)">
    <g id="react" transform="translate(337.551 3828.864)">
      <path id="Path_2548" data-name="Path 2548" d="M274.511,122.156c0-13.39-16.768-26.079-42.477-33.948,5.933-26.2,3.3-47.05-8.322-53.724a18.063,18.063,0,0,0-9.229-2.307v9.187a9.54,9.54,0,0,1,4.7,1.071c5.6,3.214,8.034,15.45,6.139,31.188-.453,3.873-1.195,7.951-2.1,12.113a199.661,199.661,0,0,0-26.162-4.491,200.971,200.971,0,0,0-17.139-20.6c13.431-12.483,26.038-19.323,34.607-19.323V32.136c-11.33,0-26.162,8.075-41.158,22.083-15-13.925-29.828-21.918-41.158-21.918v9.187c8.528,0,21.176,6.8,34.607,19.2A194.589,194.589,0,0,0,149.8,81.245a192.392,192.392,0,0,0-26.2,4.532c-.948-4.12-1.648-8.116-2.142-11.948-1.936-15.738.453-27.974,6.015-31.229a9.169,9.169,0,0,1,4.738-1.071V32.342a18.37,18.37,0,0,0-9.311,2.307c-11.577,6.674-14.173,27.48-8.2,53.6-25.626,7.91-42.312,20.558-42.312,33.907,0,13.39,16.768,26.079,42.477,33.948-5.933,26.2-3.3,47.05,8.322,53.724a18.111,18.111,0,0,0,9.27,2.307c11.33,0,26.162-8.075,41.158-22.083,15,13.925,29.828,21.918,41.158,21.918a18.37,18.37,0,0,0,9.311-2.307c11.577-6.674,14.173-27.48,8.2-53.6,25.544-7.869,42.229-20.558,42.229-33.907ZM220.87,94.676c-1.524,5.315-3.42,10.794-5.562,16.274-1.689-3.3-3.461-6.592-5.4-9.888-1.9-3.3-3.914-6.509-5.933-9.641C209.828,92.287,215.473,93.358,220.87,94.676ZM202,138.553c-3.214,5.562-6.51,10.835-9.929,15.738-6.139.536-12.36.824-18.622.824-6.221,0-12.442-.288-18.54-.783q-5.129-7.354-9.97-15.656-4.7-8.1-8.569-16.4c2.554-5.521,5.438-11.041,8.528-16.439,3.214-5.562,6.509-10.835,9.929-15.738,6.139-.536,12.36-.824,18.622-.824,6.221,0,12.442.288,18.54.783q5.129,7.354,9.97,15.656,4.7,8.1,8.569,16.4c-2.6,5.521-5.438,11.041-8.528,16.439Zm13.307-5.356c2.225,5.521,4.12,11.041,5.686,16.4-5.4,1.318-11.083,2.431-16.974,3.3,2.019-3.172,4.038-6.427,5.933-9.764,1.9-3.3,3.667-6.633,5.356-9.929Zm-41.776,43.96a169.847,169.847,0,0,1-11.453-13.184c3.708.165,7.5.288,11.33.288,3.873,0,7.7-.082,11.453-.288A160.809,160.809,0,0,1,173.532,177.157Zm-30.652-24.266c-5.85-.865-11.495-1.936-16.892-3.255,1.524-5.315,3.42-10.794,5.562-16.274,1.689,3.3,3.461,6.592,5.4,9.888S140.861,149.76,142.879,152.891Zm30.446-85.736a169.852,169.852,0,0,1,11.453,13.184c-3.708-.165-7.5-.288-11.33-.288-3.873,0-7.7.082-11.453.288A160.813,160.813,0,0,1,173.326,67.155ZM142.838,91.421c-2.019,3.172-4.038,6.427-5.933,9.764-1.9,3.3-3.667,6.592-5.356,9.888-2.225-5.521-4.12-11.041-5.686-16.4,5.4-1.277,11.083-2.39,16.974-3.255ZM105.553,143c-14.585-6.221-24.019-14.379-24.019-20.847s9.435-14.667,24.019-20.847c3.543-1.524,7.416-2.884,11.412-4.161a197.874,197.874,0,0,0,9.27,25.09,195.085,195.085,0,0,0-9.146,24.967c-4.079-1.277-7.951-2.678-11.536-4.2Zm22.165,58.874c-5.6-3.214-8.034-15.45-6.139-31.188.453-3.873,1.195-7.951,2.1-12.113a199.661,199.661,0,0,0,26.162,4.491,200.973,200.973,0,0,0,17.139,20.6c-13.431,12.483-26.038,19.323-34.607,19.323a9.833,9.833,0,0,1-4.656-1.112Zm97.725-31.394c1.936,15.738-.453,27.974-6.015,31.229a9.169,9.169,0,0,1-4.738,1.071c-8.528,0-21.176-6.8-34.607-19.2A194.59,194.59,0,0,0,197.1,163.026a192.389,192.389,0,0,0,26.2-4.532A115.341,115.341,0,0,1,225.443,170.483ZM241.3,143c-3.543,1.524-7.416,2.884-11.412,4.161a197.872,197.872,0,0,0-9.27-25.09,195.088,195.088,0,0,0,9.146-24.967c4.079,1.277,7.951,2.678,11.577,4.2,14.585,6.221,24.019,14.379,24.019,20.847-.041,6.468-9.476,14.667-24.06,20.847Z" fill="#61dafb"/>
      <circle id="Ellipse_75" data-name="Ellipse 75" cx="18.828" cy="18.828" r="18.828" transform="translate(154.58 103.328)" fill="#61dafb"/>
    </g>
  </g>
</svg>
