<svg xmlns="http://www.w3.org/2000/svg" xmlns:xlink="http://www.w3.org/1999/xlink" width="220" height="180" viewBox="0 0 220 180">
  <defs>
    <clipPath id="clip-path">
      <rect id="Rectangle_1339" data-name="Rectangle 1339" width="220" height="180" transform="translate(2051 1790)" fill="#fff" stroke="#707070" stroke-width="1"/>
    </clipPath>
  </defs>
  <g id="Mask_Group_93" data-name="Mask Group 93" transform="translate(-2051 -1790)" clip-path="url(#clip-path)">
    <g id="MongoDB_1_" data-name="MongoDB (1)" transform="translate(2020.503 1799.101)">
      <path id="Path_2563" data-name="Path 2563" d="M235.572,75.446c-.2.039-.4.479-.4.718l-.08,8.705a.293.293,0,0,0,.237.237l3.253.08a8.437,8.437,0,0,0,3.256-.478,4.248,4.248,0,0,0,2.1-3.993c0-3.873-2.7-5.351-6.709-5.351a6.419,6.419,0,0,0-1.667.08ZM245.816,93.3c0-3.953-2.9-6.15-8.138-6.15-.237,0-1.906-.039-2.3.039-.119.041-.278.119-.278.241l.08,9.1a3.02,3.02,0,0,0,1.31,2.157,9.018,9.018,0,0,0,3.453.479c3.134,0,5.876-1.757,5.876-5.869ZM227.475,73.252l4.642.119,8.019-.08c3.453,0,8.217,1.237,8.217,6.428a6.277,6.277,0,0,1-4.129,5.591c-.119.039-.119.119,0,.159,3.334.839,6.272,2.914,6.272,6.828,0,3.834-2.382,6.269-5.835,7.787a18.888,18.888,0,0,1-7.384,1.237c-2.025,0-7.463-.237-10.481-.159-.317-.119.278-1.559.556-1.8a7.29,7.29,0,0,0,2.025-.322c1.072-.28,1.191-.6,1.35-2.236l.08-9.861v-9.7c-.039-1.237-.474-1.637-1.35-1.877l-2.7-.4c-.2-.2.474-1.559.715-1.716ZM204.568,98.09a7.975,7.975,0,0,0,4.486,1.078,8.773,8.773,0,0,0,6.354-2.275c2.1-1.915,3.575-4.871,3.575-9.583,0-4.512-1.706-8.187-5.2-10.342a13.99,13.99,0,0,0-7.463-1.757,5.9,5.9,0,0,0-2.223.28,1.183,1.183,0,0,0-.4.639c-.08.8-.08,6.947-.08,10.542l.08,9.5a2.475,2.475,0,0,0,.873,1.915Zm-9.014-24.838,5.042.119,9.014-.119a14.632,14.632,0,0,1,9.686,3.114A13.036,13.036,0,0,1,223.7,86.588c0,6.032-2.74,9.5-5.479,11.5-2.738,2.037-6.311,3.236-11.392,3.236-2.7,0-7.345-.08-11.2-.119H195.6c-.2-.359.317-1.757.635-1.8a6.218,6.218,0,0,0,1.826-.359c.834-.322.993-.759,1.111-2.236l.08-9.823-.041-9.583c-.119-1.4-.712-1.757-1.906-2l-2.5-.4c-.159-.28.556-1.518.754-1.757Z" fill="#8e714e"/>
      <path id="Path_2564" data-name="Path 2564" d="M147.521,99.645a7.95,7.95,0,0,1-2.58-.678,1.225,1.225,0,0,1-.319-.639l-.08-8.065a9.443,9.443,0,0,0-1.271-5.351,5.4,5.4,0,0,0-4.605-2.4c-1.745,0-4.088,1.2-6.035,2.875-.039.039-.356.322-.317-.119,0-.441.08-1.318.119-1.915a1.037,1.037,0,0,0-.278-.839,26.318,26.318,0,0,1-6.154,1.6c-.952.2-1.191,1.118-.2,1.44h.039a8.727,8.727,0,0,1,2.341,1.039,1.247,1.247,0,0,1,.356,1.118l-.08,10.1c-.039,1-.317,1.355-1.034,1.516l.08-.039-1.667.319a2.355,2.355,0,0,0,0,1.8l4.646-.119,4.642.119a2.618,2.618,0,0,0,.2-1.8,7.247,7.247,0,0,1-1.826-.28c-.715-.159-.915-.518-.954-1.355l-.078-9.623a1.936,1.936,0,0,1,.474-1.477,6,6,0,0,1,3.694-1.355,4.1,4.1,0,0,1,2.74.918,3.937,3.937,0,0,1,1.271,2.516c.2,1.716.119,5.112.119,8.065,0,1.6-.119,2-.712,2.2a7.6,7.6,0,0,1-1.826.359,2.348,2.348,0,0,0,0,1.8l4.486-.119,4.685.119a2.794,2.794,0,0,0,.119-1.718Zm11.013-15.254c-2.1,0-3.414,1.637-3.414,4.192,0,2.6,1.152,5.591,4.405,5.591a3.062,3.062,0,0,0,2.064-.8,5.31,5.31,0,0,0,1.271-3.673c0-3.314-1.627-5.31-4.327-5.31Zm-.278,17.649a3.356,3.356,0,0,0-1.706.441c-1.667,1.078-2.423,2.118-2.423,3.355a3.544,3.544,0,0,0,1.389,2.875,7.022,7.022,0,0,0,4.764,1.477c4.066,0,5.835-2.2,5.835-4.354a3.049,3.049,0,0,0-2.3-3.075,15.941,15.941,0,0,0-5.557-.718Zm.278,10.383a8.647,8.647,0,0,1-5.676-1.694,5.274,5.274,0,0,1-2.1-3.953,3.063,3.063,0,0,1,.8-2,21.014,21.014,0,0,1,3.653-2.955c.08-.039.119-.08.119-.159a.262.262,0,0,0-.159-.2,3.791,3.791,0,0,1-2.58-2.516v-.08c-.039-.237-.119-.479.237-.718l1.111-.718,1.826-1.2a.291.291,0,0,0,.08-.237.27.27,0,0,0-.159-.2c-2.779-.918-4.168-3-4.168-6.11a6.08,6.08,0,0,1,2.541-5.032,11.633,11.633,0,0,1,5.716-1.957h.119a12.2,12.2,0,0,1,4.366.959,7.315,7.315,0,0,0,2.58.4,3.43,3.43,0,0,0,2.779-1.037,2.184,2.184,0,0,1,.159.8,3.033,3.033,0,0,1-.517,1.837,2.245,2.245,0,0,1-1.745.759h-.2l-1.034-.159-.158.08c-.039.08,0,.159.039.28l.041.08a14.713,14.713,0,0,1,.237,1.716,6.481,6.481,0,0,1-2.7,5.789,9.032,9.032,0,0,1-4.642,1.8,5.079,5.079,0,0,0-.556.039c-.2,0-.474.041-.517.041h-.039c-.317.08-1.111.479-1.111,1.157,0,.6.356,1.318,2.064,1.44l1.111.08a34.779,34.779,0,0,1,6.391.8,4.473,4.473,0,0,1,2.977,4.273c0,2.955-2.1,5.71-5.6,7.428a12.707,12.707,0,0,1-5.279,1.159ZM181.16,84.592a3.666,3.666,0,0,0-2.143.6c-1.549.959-2.342,2.875-2.342,5.671,0,5.232,2.619,8.905,6.354,8.905a4.035,4.035,0,0,0,2.74-.959c1.152-.959,1.745-2.875,1.745-5.55,0-5.191-2.58-8.665-6.354-8.665Zm.715,17.09c-6.748,0-9.171-4.991-9.171-9.662a8.657,8.657,0,0,1,3.931-7.587,11.9,11.9,0,0,1,6.074-1.8c5.161,0,8.773,3.714,8.773,9.064a9.286,9.286,0,0,1-4.168,8.265,10.969,10.969,0,0,1-5.422,1.716Zm-70.756-17.09a3.678,3.678,0,0,0-2.143.6c-1.549.959-2.341,2.875-2.341,5.671,0,5.232,2.619,8.905,6.354,8.905a4.035,4.035,0,0,0,2.74-.959c1.152-.959,1.745-2.875,1.745-5.55C117.473,88.065,114.931,84.592,111.119,84.592Zm.715,17.09c-6.748,0-9.171-4.991-9.171-9.662a8.657,8.657,0,0,1,3.931-7.587,11.9,11.9,0,0,1,6.074-1.8c5.161,0,8.773,3.714,8.773,9.064a9.286,9.286,0,0,1-4.168,8.265,10.707,10.707,0,0,1-5.422,1.716Zm-45.376-.4a1.71,1.71,0,0,1-.119-.918,1.355,1.355,0,0,1,.119-.6,14.3,14.3,0,0,0,1.745-.359c.8-.2,1.111-.639,1.152-1.637l.08-10.166A1.215,1.215,0,0,0,69,86.486a8.991,8.991,0,0,0-2.382-1.039c-.356-.119-.593-.319-.556-.559,0-.237.237-.518.754-.6a28.72,28.72,0,0,0,6.074-1.559,1,1,0,0,1,.2.639l-.039.441-.08,1.477a.308.308,0,0,0,.317.28.541.541,0,0,0,.237-.08c2.541-2,4.842-2.716,6.032-2.716A5.132,5.132,0,0,1,84.158,85.6a.3.3,0,0,0,.278.159.279.279,0,0,0,.237-.119c2.343-1.8,4.685-2.875,6.235-2.875,3.694,0,5.876,2.755,5.876,7.428l-.039,4.575-.039,3.592a1.257,1.257,0,0,0,.712.957,8.411,8.411,0,0,0,2.3.559h.039a3.235,3.235,0,0,1-.237,1.518,9.924,9.924,0,0,1-.993-.039l-3.016-.08-4.964.119a3.94,3.94,0,0,1,0-1.518,11.576,11.576,0,0,0,1.508-.359c.8-.237.993-.6,1.034-1.637L93.016,89.1a3.926,3.926,0,0,0-4.066-3.473,7.09,7.09,0,0,0-4.066,1.559.71.71,0,0,0-.159.4v.041a18.487,18.487,0,0,1,.159,3.275v7.346a1.165,1.165,0,0,0,.952,1.237l.593.119,1.271.28A2.172,2.172,0,0,1,87.66,101a.78.78,0,0,1-.159.4l-4.764-.08-2.5.041-1.786.039a2.1,2.1,0,0,1-.119-.8,1.246,1.246,0,0,1,.159-.718,2.714,2.714,0,0,1,.556-.08l1.271-.237c.678-.2.915-.559.952-1.437a70.105,70.105,0,0,0-.039-9.144c-.474-2.316-1.786-3.473-3.89-3.473a7.345,7.345,0,0,0-4.066,1.559,1.3,1.3,0,0,0-.356.918v2.355l.039,8.026a1.236,1.236,0,0,0,1.111,1.237,8.6,8.6,0,0,0,.915.159l.712.119a3.371,3.371,0,0,1-.119,1.518c-.4,0-.873-.039-1.43-.039l-3.1-.08-3.177.08a9.589,9.589,0,0,0-1.469-.08Z" fill="#442d22"/>
      <path id="Path_2565" data-name="Path 2565" d="M45.576,110.865l-1.627-.559s.2-8.344-2.779-8.946c-1.982-2.316.319-98.229,7.463-.322,0,0-2.462,1.237-2.9,3.355a31.141,31.141,0,0,0-.159,6.469Z" fill="#fff"/>
      <path id="Path_2566" data-name="Path 2566" d="M45.576,110.865l-1.627-.559s.2-8.344-2.779-8.946c-1.982-2.316.319-98.229,7.463-.322,0,0-2.462,1.237-2.9,3.355a31.141,31.141,0,0,0-.159,6.469Z" fill="#a6a385"/>
      <path id="Path_2567" data-name="Path 2567" d="M46.45,102.8S60.7,93.377,57.366,73.77c-3.216-14.254-10.8-18.925-11.631-20.721a20.007,20.007,0,0,1-1.786-3.514l.6,39.649c0,.041-1.23,12.139,1.906,13.617" fill="#fff"/>
      <path id="Path_2568" data-name="Path 2568" d="M46.45,102.8S60.7,93.377,57.366,73.77c-3.216-14.254-10.8-18.925-11.631-20.721a20.007,20.007,0,0,1-1.786-3.514l.6,39.649c0,.041-1.23,12.139,1.906,13.617" fill="#499d4a"/>
      <path id="Path_2569" data-name="Path 2569" d="M43.116,103.317S29.738,94.134,30.531,77.962c.754-16.172,10.2-24.118,12.029-25.555a3.726,3.726,0,0,0,1.31-3.033c.834,1.8.674,26.871.793,29.828.356,11.38-.635,21.963-1.549,24.118Z" fill="#fff"/>
      <path id="Path_2570" data-name="Path 2570" d="M43.116,103.317S29.738,94.134,30.531,77.962c.754-16.172,10.2-24.118,12.029-25.555a3.726,3.726,0,0,0,1.31-3.033c.834,1.8.674,26.871.793,29.828.356,11.38-.635,21.963-1.549,24.118Z" fill="#58aa50"/>
    </g>
  </g>
</svg>
