<svg xmlns="http://www.w3.org/2000/svg" xmlns:xlink="http://www.w3.org/1999/xlink" width="220" height="180" viewBox="0 0 220 180">
  <defs>
    <clipPath id="clip-path">
      <rect id="Rectangle_1339" data-name="Rectangle 1339" width="220" height="180" transform="translate(2771 1790)" fill="#fff" stroke="#707070" stroke-width="1"/>
    </clipPath>
  </defs>
  <g id="Mask_Group_96" data-name="Mask Group 96" transform="translate(-2771 -1790)" clip-path="url(#clip-path)">
    <g id="MySQL" transform="translate(2701.588 1774.434)">
      <path id="Path_2581" data-name="Path 2581" d="M69.412,152.766h7.261V123.845l11.34,25.215c1.285,3.03,3.126,4.155,6.7,4.155s5.307-1.124,6.647-4.155l11.283-25.215v28.921h7.315V123.845c0-2.807-1.118-4.157-3.465-4.889-5.529-1.684-9.217-.224-10.893,3.538L94.49,147.43l-10.7-24.935c-1.619-3.762-5.362-5.221-10.949-3.538-2.29.729-3.408,2.08-3.408,4.889l0,28.921ZM126,129.235h7.315v15.894c-.054.9.282,2.92,4.246,2.974h15.864V129.122h7.315v26c0,6.4-7.875,7.806-11.564,7.862h-23.01V158.1h23.068c4.693-.506,4.133-2.865,4.133-3.651v-1.91H137.892c-7.207-.056-11.841-3.256-11.9-6.907v-16.4Zm156.96-18.421c-4.467-.113-7.932.336-10.836,1.574-.836.339-2.179.339-2.288,1.4.447.447.5,1.179.868,1.8a12.811,12.811,0,0,0,2.9,3.425l3.575,2.6c2.179,1.346,4.637,2.134,6.758,3.482,1.229.786,2.457,1.8,3.686,2.642.614.449,1.005,1.181,1.789,1.461v-.169c-.391-.5-.5-1.233-.868-1.8l-1.678-1.628a26.418,26.418,0,0,0-5.811-5.672c-1.789-1.237-5.7-2.92-6.425-5l-.109-.113a22.726,22.726,0,0,0,3.853-.9c1.9-.5,3.632-.391,5.585-.9l2.683-.786v-.506c-1.005-1.012-1.732-2.36-2.792-3.313a74.786,74.786,0,0,0-9.217-6.907c-1.732-1.122-3.966-1.854-5.807-2.807-.651-.336-1.789-.506-2.179-1.068a22.8,22.8,0,0,1-2.29-4.324L259.8,83.55a62.471,62.471,0,0,0-2.848-6.4c-5.752-9.547-12.011-15.332-21.621-21a26.71,26.71,0,0,0-7.15-2.3l-4.19-.226a21.854,21.854,0,0,1-2.57-1.967c-3.184-2.019-11.4-6.4-13.741-.619-1.509,3.651,2.236,7.244,3.517,9.117a26.533,26.533,0,0,1,2.85,4.211c.391.955.5,1.967.868,2.974a63.175,63.175,0,0,0,2.9,7.526,29.345,29.345,0,0,0,2.067,3.482c.447.619,1.229.9,1.4,1.91-.781,1.124-.836,2.809-1.3,4.211-2.012,6.347-1.229,14.207,1.619,18.868.894,1.4,3.039,4.493,5.868,3.313,2.514-1.012,1.954-4.211,2.681-7.02.169-.651.056-1.122.391-1.572v.113l2.29,4.661a32,32,0,0,0,7.263,7.526c1.339,1.012,2.4,2.752,4.077,3.369v-.189h-.109a6.241,6.241,0,0,0-1.285-1.122,27.337,27.337,0,0,1-2.9-3.369,72.163,72.163,0,0,1-6.252-10.22c-.894-1.741-1.678-3.651-2.4-5.39-.339-.651-.339-1.684-.894-2.019-.838,1.237-2.067,2.3-2.683,3.82-1.085,2.414-1.172,5.39-1.563,8.479-.226.056-.113,0-.226.113-1.784-.447-2.4-2.3-3.072-3.875a24.435,24.435,0,0,1-.5-15c.391-1.179,2.069-4.884,1.4-6.009-.339-1.068-1.454-1.684-2.069-2.527a22.719,22.719,0,0,1-2.01-3.593c-1.339-3.148-2.01-6.627-3.462-9.773a28.565,28.565,0,0,0-2.794-4.324,27.489,27.489,0,0,1-3.072-4.381,2.636,2.636,0,0,1-.224-2.3.888.888,0,0,1,.781-.729c.727-.619,2.794.169,3.521.506a28.408,28.408,0,0,1,5.529,2.807c.781.564,1.622,1.628,2.6,1.91h1.172c1.789.391,3.8.113,5.47.616a35.674,35.674,0,0,1,8.045,3.875,49.724,49.724,0,0,1,17.427,19.207c.651,1.292.949,2.47,1.563,3.82,1.172,2.752,2.6,5.557,3.8,8.255a36.944,36.944,0,0,0,3.966,7.526c.838,1.179,4.19,1.8,5.7,2.414a40.062,40.062,0,0,1,3.855,1.572c1.9,1.179,3.8,2.527,5.585,3.82.868.651,3.686,2.075,3.853,3.2Zm-56.975-48.8a8.733,8.733,0,0,0-2.288.282v.113h.109a17.609,17.609,0,0,0,1.789,2.3l1.285,2.7.109-.113a3.182,3.182,0,0,0,1.172-2.809,8.96,8.96,0,0,1-.651-1.179c-.336-.564-1.085-.842-1.511-1.292Z" fill="#00678c"/>
      <path id="Path_2582" data-name="Path 2582" d="M166.326,152.766h21a15.852,15.852,0,0,0,6.7-1.4c3.184-1.461,4.693-3.425,4.693-6.009v-5.39c0-2.077-1.732-4.044-5.192-5.39a18.757,18.757,0,0,0-6.2-1.068h-8.824c-2.961,0-4.357-.9-4.75-2.865a2.731,2.731,0,0,1-.054-.651v-3.315a2.6,2.6,0,0,1,.054-.616c.391-1.52,1.172-1.91,3.742-2.192H199v-4.888H178.556a18.792,18.792,0,0,0-5.92.619c-4.3,1.346-6.2,3.482-6.2,7.242v4.27c0,3.313,3.686,6.121,9.942,6.794.673.056,1.4.056,2.123.056h7.541a3.384,3.384,0,0,1,.781.056c2.29.224,3.3.616,3.966,1.454a1.712,1.712,0,0,1,.56,1.35v4.268a2.5,2.5,0,0,1-1.005,1.741,5.2,5.2,0,0,1-3.13,1.012c-.282,0-.445.056-.727.056H166.324v4.884Zm77.864-8.479c0,5,3.742,7.806,11.229,8.368l2.123.109h18.994v-4.884H257.378c-4.248,0-5.868-1.068-5.868-3.651V118.956h-7.32l0,25.328Zm-40.81.224V127.1c0-4.437,3.126-7.135,9.217-7.975l1.954-.113H228.4c.727,0,1.342.056,2.069.113,6.089.84,9.161,3.538,9.161,7.975V144.51c0,3.593-1.281,5.505-4.3,6.794l7.15,6.512h-8.433l-5.811-5.275-5.868.336h-7.819a17.037,17.037,0,0,1-4.246-.56c-4.632-1.294-6.946-3.764-6.946-7.808Zm7.875-.391a4.465,4.465,0,0,0,.169.729c.391,2.019,2.288,3.143,5.192,3.143h6.593l-6.035-5.5h8.433l5.305,4.83a3.519,3.519,0,0,0,1.845-2.36,3.171,3.171,0,0,0,.056-.729V127.553a2.469,2.469,0,0,0-.056-.651c-.391-1.91-2.288-2.974-5.138-2.974H216.616c-3.241,0-5.362,1.4-5.362,3.647v16.569Zm68.652,8.7h1.064v-4.1h1.4v-.842H278.46v.842h1.454v4.1Zm8.1,0h1.005v-4.941H287.5l-1.229,3.371-1.339-3.371h-1.454v4.941h.949v-3.76h.056l1.4,3.762h.727l1.4-3.762v3.762Z" fill="#ce8b2c"/>
    </g>
  </g>
</svg>
