<svg xmlns="http://www.w3.org/2000/svg" xmlns:xlink="http://www.w3.org/1999/xlink" width="239" height="156" viewBox="0 0 239 156">
  <defs>
    <clipPath id="clip-path">
      <rect id="Rectangle_1149" data-name="Rectangle 1149" width="239" height="156" transform="translate(500 1308)" fill="#fff" stroke="#707070" stroke-width="1"/>
    </clipPath>
    <linearGradient id="linear-gradient" x1="0.441" y1="0.5" x2="1.689" y2="0.5" gradientUnits="objectBoundingBox">
      <stop offset="0.001" stop-color="#fff0d5"/>
      <stop offset="0.511" stop-color="#ffdfff"/>
      <stop offset="1" stop-color="#d9ceff"/>
    </linearGradient>
  </defs>
  <g id="Mask_Group_64" data-name="Mask Group 64" transform="translate(-500 -1308)" clip-path="url(#clip-path)">
    <g id="_029-bug" data-name="029-bug" transform="translate(590.812 1315.312)">
      <path id="Path_888" data-name="Path 888" d="M183.069,105.694a42.645,42.645,0,0,0-25.291-26.142,15.484,15.484,0,0,1-9.988-14.276q0-.209-.008-.418A42.739,42.739,0,0,0,70.669,40.491,34.874,34.874,0,0,1,42.761,54.955q-.488,0-.978.011C19.366,55.456.3,74.69,0,97.111a42.744,42.744,0,0,0,82.883,15.263,8.747,8.747,0,0,1,10.6-5.348l.165.046a8.724,8.724,0,0,1,6.354,9.095,42.743,42.743,0,1,0,83.061-10.473Z" transform="translate(-74 -14)" fill="url(#linear-gradient)"/>
      <path id="Path_922" data-name="Path 922" d="M32.35,120.483a1.81,1.81,0,0,1-1.81-1.81V108.031a1.81,1.81,0,1,1,3.621,0v10.641A1.811,1.811,0,0,1,32.35,120.483Z" fill="#f5f4f9"/>
      <path id="Path_923" data-name="Path 923" d="M32.35,126.219a1.81,1.81,0,0,1-1.81-1.81v-.042a1.81,1.81,0,1,1,3.621,0v.042A1.81,1.81,0,0,1,32.35,126.219Z" fill="#f5f4f9"/>
    </g>
  </g>
</svg>
