<svg xmlns="http://www.w3.org/2000/svg" xmlns:xlink="http://www.w3.org/1999/xlink" width="150" height="150" viewBox="0 0 150 150">
  <defs>
    <clipPath id="clip-path">
      <rect id="Rectangle_1200" data-name="Rectangle 1200" width="150" height="150" transform="translate(973 3293)" fill="#fff" stroke="#707070" stroke-width="1"/>
    </clipPath>
    <clipPath id="clip-path-2">
      <rect id="Rectangle_1151" data-name="Rectangle 1151" width="150" height="132.787" transform="translate(0)" fill="#fff" stroke="#707070" stroke-width="3.721"/>
    </clipPath>
    <linearGradient id="linear-gradient" x1="0.292" y1="0.5" x2="2.192" y2="0.5" gradientUnits="objectBoundingBox">
      <stop offset="0.001" stop-color="#fff0d5"/>
      <stop offset="0.511" stop-color="#ffdfff"/>
      <stop offset="1" stop-color="#d9ceff"/>
    </linearGradient>
  </defs>
  <g id="Mask_Group_80" data-name="Mask Group 80" transform="translate(-973 -3293)" clip-path="url(#clip-path)">
    <g id="Mask_Group_65" data-name="Mask Group 65" transform="translate(973 3301.607)" clip-path="url(#clip-path-2)">
      <g id="_033-synchronization" data-name="033-synchronization" transform="translate(15.728 -0.03)">
        <path id="Path_924" data-name="Path 924" d="M84.913,23.158A37.183,37.183,0,1,0,22.729,61.91a28.218,28.218,0,0,1,7.008,19.78q-.049,1.446-.012,2.909a50.073,50.073,0,0,0,49.409,48.172A49.4,49.4,0,0,0,99.544,38.4,28.526,28.526,0,0,1,84.92,23.153Z" transform="translate(-11.624 0.046)" stroke="#707070" stroke-width="0.391" fill="url(#linear-gradient)"/>
        <path id="Path_925" data-name="Path 925" d="M124.037,23.707H78.943a4.655,4.655,0,0,0-4.655,4.655V68.69H67.14V28.36A4.652,4.652,0,0,0,62.485,23.7H17.394a4.655,4.655,0,0,0-4.652,4.655v81.256a4.655,4.655,0,0,0,4.652,4.655H62.488a4.655,4.655,0,0,0,4.655-4.655V93.221h7.148v16.4a4.655,4.655,0,0,0,4.652,4.652h45.093a4.655,4.655,0,0,0,4.655-4.655V28.36a4.655,4.655,0,0,0-4.655-4.655Z" transform="translate(-11.443 -8.011)" fill="#590bb2" stroke="#707070" stroke-width="0.391" opacity="0.1"/>
        <path id="Path_926" data-name="Path 926" d="M155.63,122.513H110.536a4.655,4.655,0,0,1-4.654-4.655V36.6a4.655,4.655,0,0,1,4.654-4.655H155.63a4.655,4.655,0,0,1,4.655,4.655v81.256A4.655,4.655,0,0,1,155.63,122.513Z" transform="translate(-43.037 -10.807)" fill="#ffe783" stroke="#707070" stroke-width="0.391"/>
        <path id="Path_927" data-name="Path 927" d="M160.286,115.651v30.6a4.657,4.657,0,0,1-4.654,4.655H110.541a4.657,4.657,0,0,1-4.655-4.655v-30.6Z" transform="translate(-43.038 -39.2)" fill="#fff4c5" stroke="#707070" stroke-width="0.391"/>
        <path id="Path_928" data-name="Path 928" d="M117.928,115.651v15.92a1.953,1.953,0,0,1-1.952,1.95H105.894v-17.87Z" transform="translate(-43.041 -39.2)" fill="#ffe783" stroke="#707070" stroke-width="0.391"/>
        <path id="Path_929" data-name="Path 929" d="M153.111,38.326l2.078-6.393H121.746l2.078,6.393a2.244,2.244,0,0,0,2.135,1.549h25.01A2.247,2.247,0,0,0,153.111,38.326Z" transform="translate(-48.418 -10.802)" fill="#cecae0" stroke="#707070" stroke-width="0.391"/>
        <path id="Path_930" data-name="Path 930" d="M62.486,122.514H17.393a4.655,4.655,0,0,1-4.655-4.655V36.6a4.655,4.655,0,0,1,4.655-4.652H62.486a4.655,4.655,0,0,1,4.655,4.655v81.253a4.655,4.655,0,0,1-4.655,4.655Z" transform="translate(-11.442 -10.808)" fill="#cca1ff" stroke="#707070" stroke-width="0.391"/>
        <path id="Path_931" data-name="Path 931" d="M67.143,115.651v30.6a4.658,4.658,0,0,1-4.655,4.655H17.4a4.657,4.657,0,0,1-4.655-4.655v-30.6Z" transform="translate(-11.443 -39.2)" fill="#e2ccff" stroke="#707070" stroke-width="0.391"/>
        <path id="Path_932" data-name="Path 932" d="M76.845,115.651h12.05v17.87H78.813a1.952,1.952,0,0,1-1.95-1.95Z" transform="translate(-33.188 -39.2)" fill="#d6b0ff" stroke="#707070" stroke-width="0.391"/>
        <ellipse id="Ellipse_32" data-name="Ellipse 32" cx="14.257" cy="14.257" rx="14.257" ry="14.257" transform="translate(14.24 35.233)" fill="#f5f4f9" stroke="#707070" stroke-width="0.391"/>
        <ellipse id="Ellipse_33" data-name="Ellipse 33" cx="14.257" cy="14.257" rx="14.257" ry="14.257" transform="translate(75.789 35.233)" fill="#f5f4f9" stroke="#707070" stroke-width="0.391"/>
        <path id="Path_933" data-name="Path 933" d="M59.964,38.326l2.078-6.393H28.594l2.078,6.393a2.245,2.245,0,0,0,2.134,1.549H57.83a2.246,2.246,0,0,0,2.135-1.549Z" transform="translate(-16.821 -10.802)" fill="#cecae0" stroke="#707070" stroke-width="0.391"/>
        <g id="Group_1094" data-name="Group 1094" transform="translate(21.989 44.292)">
          <path id="Path_934" data-name="Path 934" d="M48.5,77.378H47.114a3.064,3.064,0,0,1-3.061-3.061V70.05a3.064,3.064,0,0,1,3.061-3.066H48.5a3.064,3.064,0,0,1,3.062,3.061v4.269A3.064,3.064,0,0,1,48.5,77.378Zm-1.382-7.8a.467.467,0,0,0-.467.467v4.269a.467.467,0,0,0,.467.467H48.5a.468.468,0,0,0,.468-.467V70.05a.468.468,0,0,0-.468-.467Z" transform="translate(-44.053 -66.983)" fill="#ffa052" stroke="#707070" stroke-width="0.391"/>
          <path id="Path_935" data-name="Path 935" d="M60.7,77.379a1.3,1.3,0,0,1-1.3-1.3v-6.5h-.115a1.3,1.3,0,1,1,0-2.594H60.7a1.3,1.3,0,0,1,1.3,1.3v7.8A1.3,1.3,0,0,1,60.7,77.379Z" transform="translate(-48.779 -66.985)" fill="#ffa052" stroke="#707070" stroke-width="0.391"/>
          <path id="Path_936" data-name="Path 936" d="M139.006,77.378h-1.381a3.066,3.066,0,0,1-3.062-3.061V70.05a3.064,3.064,0,0,1,3.063-3.066h1.381a3.064,3.064,0,0,1,3.063,3.061v4.269A3.065,3.065,0,0,1,139.006,77.378Zm-1.381-7.8a.469.469,0,0,0-.469.467v4.269a.469.469,0,0,0,.469.467h1.381a.467.467,0,0,0,.467-.467V70.05a.467.467,0,0,0-.467-.467Z" transform="translate(-74.753 -66.983)" fill="#ffa052" stroke="#707070" stroke-width="0.391"/>
          <path id="Path_937" data-name="Path 937" d="M154.486,77.265h-4.7a1.3,1.3,0,0,1-.811-2.309,16.222,16.222,0,0,0,3.734-3.949,1.169,1.169,0,0,0-.053-1.072.755.755,0,0,0-.67-.342.892.892,0,0,0-.893.893,1.3,1.3,0,0,1-2.6,0,3.492,3.492,0,0,1,3.479-3.5,3.34,3.34,0,0,1,2.828,1.5,3.734,3.734,0,0,1,.3,3.516,9.758,9.758,0,0,1-1.967,2.673h1.344a1.3,1.3,0,0,1,0,2.594Z" transform="translate(-79.477 -66.983)" fill="#ffa052" stroke="#707070" stroke-width="0.391"/>
        </g>
        <path id="Path_938" data-name="Path 938" d="M59.963,115.818H32.319a1.3,1.3,0,0,1,0-2.6H59.963a1.3,1.3,0,0,1,0,2.6Z" transform="translate(-17.644 -38.375)" fill="#c182f9" stroke="#707070" stroke-width="0.391"/>
        <path id="Path_939" data-name="Path 939" d="M56.177,105.309H44.094a1.3,1.3,0,1,1,0-2.6H56.175a1.3,1.3,0,0,1,0,2.6Z" transform="translate(-21.638 -34.811)" fill="#f5f4f9" stroke="#707070" stroke-width="0.391"/>
        <path id="Path_940" data-name="Path 940" d="M59.963,122.8H32.319a1.3,1.3,0,0,1,0-2.6H59.963a1.3,1.3,0,0,1,0,2.6Z" transform="translate(-17.644 -40.743)" fill="#c182f9" stroke="#707070" stroke-width="0.391"/>
        <path id="Path_941" data-name="Path 941" d="M59.963,129.78H32.319a1.3,1.3,0,0,1,0-2.6H59.963a1.3,1.3,0,0,1,0,2.6Z" transform="translate(-17.644 -43.111)" fill="#c182f9" stroke="#707070" stroke-width="0.391"/>
        <path id="Path_942" data-name="Path 942" d="M153.107,115.818H125.463a1.3,1.3,0,0,1,0-2.6h27.645a1.3,1.3,0,1,1,0,2.6Z" transform="translate(-49.239 -38.375)" fill="#fdd250" stroke="#707070" stroke-width="0.391"/>
        <path id="Path_943" data-name="Path 943" d="M149.32,105.309H137.238a1.3,1.3,0,0,1,0-2.6h12.08a1.3,1.3,0,1,1,0,2.6Z" transform="translate(-53.235 -34.811)" fill="#f5f4f9" stroke="#707070" stroke-width="0.391"/>
        <path id="Path_944" data-name="Path 944" d="M153.107,122.8H125.463a1.3,1.3,0,0,1,0-2.6h27.645a1.3,1.3,0,1,1,0,2.6Z" transform="translate(-49.239 -40.743)" fill="#fdd250" stroke="#707070" stroke-width="0.391"/>
        <path id="Path_945" data-name="Path 945" d="M153.107,129.78H125.463a1.3,1.3,0,0,1,0-2.6h27.645a1.3,1.3,0,1,1,0,2.6Z" transform="translate(-49.239 -43.111)" fill="#fdd250" stroke="#707070" stroke-width="0.391"/>
        <path id="Path_946" data-name="Path 946" d="M106.125,124.554H78.795a1.95,1.95,0,0,1-1.95-1.95V101.975a1.95,1.95,0,0,1,1.95-1.95h27.33a1.951,1.951,0,0,1,1.95,1.95V122.6A1.951,1.951,0,0,1,106.125,124.554Z" transform="translate(-33.188 -33.899)" fill="#ffa052" stroke="#707070" stroke-width="0.391"/>
        <path id="Path_947" data-name="Path 947" d="M123.37,29.986h-5.823a1.3,1.3,0,0,0-1.229.9l-2.078,6.393a.947.947,0,0,1-.9.654H88.312a.947.947,0,0,1-.9-.654L85.885,32.6H110.4a1.3,1.3,0,0,0,0-2.594H78.277a5.958,5.958,0,0,0-5.951,5.951v39.01H56.384a3.251,3.251,0,0,0-3.248,3.248V98.846a3.251,3.251,0,0,0,3.248,3.248h8.794v15.1a3.362,3.362,0,0,1-3.357,3.357H16.728a3.361,3.361,0,0,1-3.357-3.357V35.937a3.361,3.361,0,0,1,3.357-3.357h4.879l1.788,5.486a3.534,3.534,0,0,0,3.366,2.444H51.786a3.534,3.534,0,0,0,3.366-2.444l1.788-5.486h4.881a3.362,3.362,0,0,1,3.357,3.357v33.2a1.3,1.3,0,1,0,2.594,0v-33.2a5.958,5.958,0,0,0-5.951-5.951H16.728a5.958,5.958,0,0,0-5.951,5.951v81.256a5.958,5.958,0,0,0,5.951,5.951H61.821a5.958,5.958,0,0,0,5.951-5.951v-15.1h4.557v15.1a5.958,5.958,0,0,0,5.951,5.951H123.37a5.958,5.958,0,0,0,5.951-5.951V35.937A5.956,5.956,0,0,0,123.37,29.986ZM52.688,37.263a.947.947,0,0,1-.9.654H26.77a.947.947,0,0,1-.9-.654L24.343,32.59h29.87Zm3.044,61.581V78.217a.654.654,0,0,1,.654-.654H83.714a.654.654,0,0,1,.654.654V98.846a.654.654,0,0,1-.654.654H56.384a.654.654,0,0,1-.654-.654Zm71,18.347a3.362,3.362,0,0,1-3.357,3.357h-45.1a3.361,3.361,0,0,1-3.357-3.357v-15.1h8.793a3.251,3.251,0,0,0,3.248-3.248V78.217a3.251,3.251,0,0,0-3.248-3.248H74.92V35.937a3.361,3.361,0,0,1,3.357-3.357h4.881l1.788,5.486a3.534,3.534,0,0,0,3.366,2.444h25.016a3.531,3.531,0,0,0,3.366-2.444l1.8-5.486h4.881a3.362,3.362,0,0,1,3.357,3.357v81.256Z" transform="translate(-10.777 -10.141)" fill="#590bb2" stroke="#707070" stroke-width="0.391"/>
        <path id="Path_948" data-name="Path 948" d="M86.332,111.47H100.7a.578.578,0,0,1,.578.578v.607a1.3,1.3,0,0,0-1.193,2.181l1.572,1.571a1.294,1.294,0,0,0,1.833,0l1.582-1.571a1.3,1.3,0,0,0-1.192-2.181v-.607a3.175,3.175,0,0,0-3.17-3.17H86.332a1.3,1.3,0,1,0,0,2.594Z" transform="translate(-35.965 -36.902)" fill="#f5f4f9" stroke="#707070" stroke-width="0.391"/>
        <path id="Path_949" data-name="Path 949" d="M104.139,121.64H89.771a.578.578,0,0,1-.578-.578v-.607a1.3,1.3,0,0,0,1.192-2.181L88.814,116.7a1.3,1.3,0,0,0-1.835,0L85.4,118.271a1.3,1.3,0,0,0,1.193,2.181v.607a3.174,3.174,0,0,0,3.169,3.17h14.37a1.3,1.3,0,1,0,0-2.594Z" transform="translate(-35.96 -39.427)" fill="#f5f4f9" stroke="#707070" stroke-width="0.391"/>
        <path id="Path_950" data-name="Path 950" d="M50.948,158.281a1.3,1.3,0,0,1-.917-2.213l1.512-1.512a1.3,1.3,0,0,1,1.834,0l1.512,1.512a1.3,1.3,0,0,1-1.834,1.834l-.595-.6-.6.6A1.291,1.291,0,0,1,50.948,158.281Z" transform="translate(-23.963 -52.267)" fill="#590bb2" stroke="#707070" stroke-width="0.391"/>
        <path id="Path_951" data-name="Path 951" d="M147.117,158.28a1.292,1.292,0,0,1-.918-.381l-.6-.595-.594.6a1.3,1.3,0,0,1-1.834-1.834l1.51-1.512a1.3,1.3,0,0,1,1.836,0l1.514,1.512a1.3,1.3,0,0,1-.918,2.213Z" transform="translate(-55.557 -52.266)" fill="#590bb2" stroke="#707070" stroke-width="0.391"/>
        <path id="Path_952" data-name="Path 952" d="M89.624,18.888a1.3,1.3,0,0,1-1.3-1.3,1.556,1.556,0,0,0-1.554-1.554,1.3,1.3,0,0,1,0-2.594,1.556,1.556,0,0,0,1.554-1.554,1.3,1.3,0,0,1,2.595,0,1.557,1.557,0,0,0,1.554,1.554,1.3,1.3,0,1,1,0,2.594,1.557,1.557,0,0,0-1.554,1.554,1.295,1.295,0,0,1-1.3,1.3Z" transform="translate(-36.116 -3.563)" fill="#ffa052" stroke="#707070" stroke-width="0.391"/>
        <path id="Path_953" data-name="Path 953" d="M94.029,186.1a1.3,1.3,0,0,1-1.295-1.3,1.558,1.558,0,0,0-1.555-1.554,1.3,1.3,0,1,1,0-2.594,1.558,1.558,0,0,0,1.555-1.554,1.3,1.3,0,1,1,2.593,0,1.558,1.558,0,0,0,1.555,1.554,1.3,1.3,0,1,1,0,2.594,1.558,1.558,0,0,0-1.555,1.554,1.295,1.295,0,0,1-1.3,1.3Z" transform="translate(-37.61 -60.283)" fill="#c182f9" stroke="#707070" stroke-width="0.391"/>
        <path id="Path_954" data-name="Path 954" d="M126.355,181.785a1.3,1.3,0,0,1-1.293-1.3,1.558,1.558,0,0,0-1.555-1.554,1.3,1.3,0,1,1,0-2.594,1.558,1.558,0,0,0,1.555-1.554,1.3,1.3,0,1,1,2.594,0,1.555,1.555,0,0,0,1.555,1.554,1.3,1.3,0,0,1,0,2.594,1.555,1.555,0,0,0-1.555,1.554,1.3,1.3,0,0,1-1.3,1.3Z" transform="translate(-48.575 -58.819)" fill="#ffa052" stroke="#707070" stroke-width="0.391"/>
        <path id="Path_955" data-name="Path 955" d="M146.961,21.253a1.3,1.3,0,0,1-.826-.3l-3.107-2.567a1.294,1.294,0,0,1-.174-1.827l2.561-3.108a1.3,1.3,0,0,1,1.824-.175l3.107,2.567a1.3,1.3,0,0,1,.178,1.827l-2.578,3.108a1.293,1.293,0,0,1-.984.472Zm-1.283-4.038,1.109.917.916-1.109-1.107-.917Z" transform="translate(-55.476 -4.373)" fill="#ffe783" stroke="#707070" stroke-width="0.391"/>
      </g>
    </g>
  </g>
</svg>
