<svg xmlns="http://www.w3.org/2000/svg" xmlns:xlink="http://www.w3.org/1999/xlink" width="220" height="180" viewBox="0 0 220 180">
  <defs>
    <clipPath id="clip-path">
      <rect id="Rectangle_1339" data-name="Rectangle 1339" width="220" height="180" transform="translate(2291 1790)" fill="#fff" stroke="#707070" stroke-width="1"/>
    </clipPath>
  </defs>
  <g id="Mask_Group_94" data-name="Mask Group 94" transform="translate(-2291 -1790)" clip-path="url(#clip-path)">
    <path id="Oracle" d="M134.648,91.147h14.538L141.5,78.7l-14.107,22.53h-6.42l17.16-27.084A4.048,4.048,0,0,1,141.5,72.4a3.968,3.968,0,0,1,3.3,1.708l17.227,27.109h-6.42l-3.03-5.035H137.862l-3.21-5.035Zm66.695,5.035V72.673H195.9V98.483a2.705,2.705,0,0,0,.792,1.913,2.776,2.776,0,0,0,1.989.82h24.849l3.21-5.035h-25.39ZM111.2,91.968a9.648,9.648,0,0,0,0-19.3H87.37v28.546h5.446V77.708h18.028a4.625,4.625,0,0,1,0,9.249l-15.36-.022,16.266,14.282h7.913l-10.944-9.249h2.489Zm-57.363,9.251a14.273,14.273,0,0,1,0-28.546H70.3a14.272,14.272,0,0,1,0,28.543H53.837Zm16.1-5.035a9.239,9.239,0,0,0,0-18.477H54.205a9.239,9.239,0,0,0,0,18.477H69.941Zm103.46,5.035a14.272,14.272,0,0,1,0-28.543h19.557l-3.188,5.035H173.764a9.238,9.238,0,0,0,0,18.477H193.41l-3.21,5.035H173.4Zm66.628-5.035a9.2,9.2,0,0,1-8.836-6.721h23.286l3.21-5.035h-26.5a9.2,9.2,0,0,1,8.836-6.719h15.984l3.232-5.035H239.665a14.272,14.272,0,0,0,0,28.543h16.8l3.21-5.035H240.026Z" transform="translate(2251.328 1793.184)" fill="#ea1b22"/>
  </g>
</svg>
