<svg xmlns="http://www.w3.org/2000/svg" xmlns:xlink="http://www.w3.org/1999/xlink" width="220" height="180" viewBox="0 0 220 180">
  <defs>
    <clipPath id="clip-path">
      <rect id="Rectangle_1339" data-name="Rectangle 1339" width="220" height="180" transform="translate(2531 1790)" fill="#fff" stroke="#707070" stroke-width="1"/>
    </clipPath>
  </defs>
  <g id="Mask_Group_95" data-name="Mask Group 95" transform="translate(-2531 -1790)" clip-path="url(#clip-path)">
    <g id="PostageSQL" transform="translate(2477.975 1787.281)">
      <g id="Group_1137" data-name="Group 1137">
        <path id="Path_2571" data-name="Path 2571" d="M66.782,122.679H56.108V111.861H67.363c4.1,0,6.18,1.83,6.18,5.493q0,5.327-6.759,5.327Zm7.673-10.927a8.843,8.843,0,0,0-6.141-1.981l-15.288.086v25.88H56.1l-.029-11.017H67.451a10.448,10.448,0,0,0,6.736-1.979,6.666,6.666,0,0,0,2.459-5.493,7.022,7.022,0,0,0-2.193-5.493Zm19.936,18.537a5.308,5.308,0,0,1-1.462,2.2q-2.069,2.037-6.316,2.035a8.185,8.185,0,0,1-5.889-1.979,7.009,7.009,0,0,1-2.055-5.3,8.072,8.072,0,0,1,.539-3.064,6.037,6.037,0,0,1,1.557-2.258,8.312,8.312,0,0,1,5.848-1.951q8.248,0,8.246,7.274a9.011,9.011,0,0,1-.468,3.038Zm.558-9.548q-2.816-2.587-8.336-2.587-5.219,0-8.059,2.642a9.356,9.356,0,0,0,.084,12.961,9.106,9.106,0,0,0,3.409,1.951,15.057,15.057,0,0,0,4.566.6c3.663,0,6.449-.853,8.363-2.537a9.459,9.459,0,0,0-.027-12.988Zm23.3,10.293q0,5.225-9.292,5.226a26.631,26.631,0,0,1-4.785-.363,8.135,8.135,0,0,1-3.157-1.2,4.664,4.664,0,0,1-1.489-1.668,7.459,7.459,0,0,1-.716-2.585l2.882-.027a3.343,3.343,0,0,0,1.514,3.03q1.624,1.171,5.752,1.167,6.5,0,6.494-3.278a2.7,2.7,0,0,0-2.178-2.64q-.439-.14-5.253-.736a33.109,33.109,0,0,1-6-1.069,3.706,3.706,0,0,1-2.564-3.7,4.2,4.2,0,0,1,2.291-3.891,11.329,11.329,0,0,1,2.829-.82,23.388,23.388,0,0,1,3.934-.293q8.945,0,8.945,5.655h-2.722q0-3.975-6.287-3.975a10.88,10.88,0,0,0-4.771.806,2.623,2.623,0,0,0-1.571,2.474q0,1.557,2.123,2.252a43.108,43.108,0,0,0,5.71.835,19.712,19.712,0,0,1,5.489,1.028,3.884,3.884,0,0,1,2.841,3.78Zm11.323,4.718-1.171.166-.732.055a7.626,7.626,0,0,1-4.059-.82,3.192,3.192,0,0,1-1.245-2.882V120.46h-3.419V118.7h3.391l.027-5.581h2.628V118.7h4.574v1.766l-4.576-.029v11.513a2.048,2.048,0,0,0,.675,1.772,4.311,4.311,0,0,0,2.414.488,1.984,1.984,0,0,0,.552-.02q.46-.082.911-.209l.027,1.772Zm18.174-3.916a7.751,7.751,0,0,1-2.455,1.362,9.748,9.748,0,0,1-3.171.472q-8.242,0-8.242-6.861a6.209,6.209,0,0,1,2.107-5,8.859,8.859,0,0,1,5.942-1.8c2.576,0,4.527.585,5.858,1.819a6.3,6.3,0,0,1,2,4.874,6.5,6.5,0,0,1-2.041,5.138Zm4.668-13.1h-2.628l-.027,2.919a16.741,16.741,0,0,0-2.482-2.25,11.74,11.74,0,0,0-5.71-1.222c-3.421,0-6.033.786-7.834,2.342a7.756,7.756,0,0,0-2.566,6.279,9.157,9.157,0,0,0,.65,3.626,7.22,7.22,0,0,0,1.893,2.708q2.707,2.277,7.653,2.279,5.942,0,8.426-3.274v3.025a5.578,5.578,0,0,1-1.807,4.474c-1.222,1.056-3.186,1.584-5.946,1.584q-3.893,0-5.542-1.079a4.474,4.474,0,0,1-1.709-2.878h-2.7a5.661,5.661,0,0,0,2.4,4.137q2.263,1.472,7.643,1.471,10.291,0,10.293-7.712v-16.45Zm14.213,1.721a13.745,13.745,0,0,0-2.2-.2q-6.48,0-6.478,7.161v8.3h-2.619l-.029-16.984,2.628.025v3.03h.137a5.4,5.4,0,0,1,2.1-2.732,9.681,9.681,0,0,1,4.683-.9H166.6v2.273Zm2.445,5.7a7.522,7.522,0,0,1,2.232-4.482,7.766,7.766,0,0,1,2.564-1.378,10.6,10.6,0,0,1,3.227-.461,8.386,8.386,0,0,1,5.721,1.936,5.687,5.687,0,0,1,2.219,4.385H169.073Zm16.221-5.239a8.384,8.384,0,0,0-3.423-2.063,15.455,15.455,0,0,0-4.775-.669c-3.405,0-6.045.781-7.922,2.392a8.12,8.12,0,0,0-2.816,6.51,8.335,8.335,0,0,0,2.7,6.537q2.927,2.669,8.25,2.669a15.184,15.184,0,0,0,3.93-.484,10.849,10.849,0,0,0,3.161-1.372,7.423,7.423,0,0,0,3-4.234h-2.841q-1.463,4.355-7.278,4.355a8.73,8.73,0,0,1-6.316-2.131,6.265,6.265,0,0,1-1.9-4.732H187.8a9.051,9.051,0,0,0-2.511-6.777Z" fill="#231f20"/>
        <path id="Path_2572" data-name="Path 2572" d="M215.567,128.78q0,7.563-12.108,7.563-7.259,0-10.592-2.6-2.731-2.143-2.732-6.533h3.249q0,7.06,10.069,7.06,4.829,0,6.982-1.444a4.548,4.548,0,0,0,1.821-4,3.822,3.822,0,0,0-2.484-3.778,41.261,41.261,0,0,0-6.872-1.473q-6.87-1.054-8.912-2.111a5.509,5.509,0,0,1-2.952-5.278,5.809,5.809,0,0,1,2.511-5.167q2.7-1.862,9.273-1.862,11.866,0,11.864,7.942H211.4q0-5.951-8.812-5.951c-2.927,0-5.1.4-6.463,1.2a4.232,4.232,0,0,0-1.951,3.754,3.7,3.7,0,0,0,2.484,3.643,46.862,46.862,0,0,0,7.782,1.7q6.073.919,8.2,2.141a5.334,5.334,0,0,1,2.9,5.2Zm26.4,2.574a12.645,12.645,0,0,1-4.115,2.207,16.848,16.848,0,0,1-5.138.736,13.674,13.674,0,0,1-9.378-3.149,11.822,11.822,0,0,1-.027-16.914q3.547-3.053,9.405-3.054,5.942,0,9.335,3.192a9.629,9.629,0,0,1,2.654,3.635,12.331,12.331,0,0,1,.859,4.746,10.819,10.819,0,0,1-3.59,8.586Zm1.727,1.717a11.4,11.4,0,0,0,3.756-4.371,13.494,13.494,0,0,0,1.216-5.932,12.511,12.511,0,0,0-3.975-9.667,13.157,13.157,0,0,0-5.132-2.972,22.879,22.879,0,0,0-6.873-.972q-7.508,0-11.786,3.668a13.558,13.558,0,0,0,.039,19.8c2.878,2.5,6.83,3.747,11.8,3.747a28.709,28.709,0,0,0,5.1-.4,12.391,12.391,0,0,0,3.7-1.225l4.8,3.352,2-1.854-4.648-3.177ZM273,135.719H250.792V109.81l3.052-.059v23.8h19.181Z" fill="#367faf"/>
        <path id="Path_2573" data-name="Path 2573" d="M176.909,88.948c.4-3.376.281-3.873,2.779-3.327l.634.059a14.384,14.384,0,0,0,5.907-1c3.177-1.483,5.06-3.965,1.928-3.313-7.142,1.483-7.635-.952-7.635-.952,7.544-11.279,10.7-25.6,7.975-29.1-7.425-9.561-20.274-5.038-20.489-4.921l-.068.014a25.366,25.366,0,0,0-4.767-.5,11.719,11.719,0,0,0-7.546,2.275s-22.928-9.517-21.86,11.969c.226,4.572,6.5,34.587,13.987,25.523,2.736-3.317,5.38-6.117,5.38-6.117a6.91,6.91,0,0,0,4.533,1.167l.127-.109a5.2,5.2,0,0,0,.051,1.288c-1.928,2.17-1.362,2.552-5.216,3.352-3.9.81-1.608,2.252-.113,2.628,1.815.457,6.01,1.1,8.843-2.894l-.113.457c.757.609.7,4.383.812,7.077a25.775,25.775,0,0,0,.831,6.693c.544,1.483,1.19,5.3,6.256,4.209,4.234-.913,7.474-2.23,7.766-14.471" fill="#231f20" stroke="#231f20" stroke-width="5.313"/>
        <path id="Path_2574" data-name="Path 2574" d="M188.159,81.364c-7.146,1.483-7.635-.952-7.635-.952,7.544-11.279,10.7-25.6,7.977-29.1-7.425-9.557-20.274-5.038-20.489-4.921l-.068.012a25.289,25.289,0,0,0-4.767-.5,11.723,11.723,0,0,0-7.546,2.275S132.7,38.659,133.77,60.145c.226,4.572,6.5,34.587,13.987,25.523,2.736-3.317,5.38-6.117,5.38-6.117a6.909,6.909,0,0,0,4.533,1.167l.129-.109a5.073,5.073,0,0,0,.051,1.29c-1.928,2.17-1.362,2.552-5.216,3.352-3.9.81-1.61,2.252-.113,2.628,1.815.457,6.01,1.1,8.843-2.894l-.113.457c.755.609,1.288,3.965,1.2,7.009s-.148,5.132.449,6.763,1.19,5.3,6.256,4.209c4.234-.913,6.428-3.284,6.732-7.235.215-2.81.706-2.394.738-4.906l.394-1.19c.453-3.809.072-5.038,2.681-4.468l.634.059a14.372,14.372,0,0,0,5.907-1c3.177-1.483,5.06-3.965,1.928-3.313Z" fill="#417ba2"/>
      </g>
      <g id="Group_1141" data-name="Group 1141">
        <g id="Group_1140" data-name="Group 1140">
          <g id="Group_1138" data-name="Group 1138">
            <path id="Path_2575" data-name="Path 2575" d="M161.666,83.547c-.2,7.087.049,14.245.738,15.958s2.162,5.109,7.23,4.014c4.234-.917,5.776-2.685,6.443-6.592l1.561-12.492m-22.05-36.411s-22.943-9.448-21.855,12.04c.226,4.572,6.5,34.589,13.987,25.523,2.736-3.317,5.21-5.916,5.21-5.916M168,46.3c-.794.254,12.762-5,20.489,4.925,2.722,3.5-.433,17.823-7.977,29.1" fill="none" stroke="#fff" stroke-linecap="round" stroke-linejoin="round" stroke-width="1.772" fill-rule="evenodd"/>
            <path id="Path_2576" data-name="Path 2576" d="M180.472,80.322s.492,2.439,7.637.952c3.13-.652,1.249,1.828-1.928,3.313-2.6,1.218-8.449,1.532-8.543-.152-.246-4.344,3.075-3.025,2.835-4.113-.215-.98-1.7-1.943-2.683-4.342-.859-2.094-11.761-18.157,3.025-15.77.542-.113-3.856-14.166-17.692-14.4s-13.378,17.14-13.378,17.14" fill="none" stroke="#fff" stroke-linecap="round" stroke-linejoin="bevel" stroke-width="1.772" fill-rule="evenodd"/>
          </g>
          <g id="Group_1139" data-name="Group 1139">
            <path id="Path_2577" data-name="Path 2577" d="M157.79,81.809c-1.928,2.17-1.362,2.552-5.216,3.352-3.9.81-1.608,2.252-.113,2.628,1.815.457,6.01,1.1,8.843-2.9a2.686,2.686,0,0,0-1.171-3.657,1.742,1.742,0,0,0-2.322.572Z" fill="none" stroke="#fff" stroke-linejoin="round" stroke-width="1.772" fill-rule="evenodd"/>
            <path id="Path_2578" data-name="Path 2578" d="M157.666,81.769c-.2-1.276.416-2.794,1.073-4.572.983-2.665,3.251-5.333,1.436-13.788-1.352-6.3-10.424-1.311-10.43-.457a45.029,45.029,0,0,1-.152,8.381c-.734,5.284,3.317,9.751,8.02,9.294" fill="none" stroke="#fff" stroke-linecap="round" stroke-linejoin="round" stroke-width="1.772" fill-rule="evenodd"/>
          </g>
        </g>
        <path id="Path_2579" data-name="Path 2579" d="M155.505,62.824c-.039.293.531,1.073,1.274,1.175a1.376,1.376,0,0,0,1.421-.8c.041-.293-.531-.613-1.274-.718S155.546,62.534,155.505,62.824Zm22.645-.6c.039.293-.531,1.073-1.274,1.175a1.376,1.376,0,0,1-1.421-.8c-.041-.293.531-.613,1.276-.718s1.38.047,1.421.34Z" fill="#fff" stroke="#fff" stroke-width="1.022"/>
        <path id="Path_2580" data-name="Path 2580" d="M180.812,60.21c.123,2.289-.488,3.848-.585,6.283-.117,3.542,1.678,7.6-1.021,11.655" fill="none" stroke="#fff" stroke-linecap="round" stroke-linejoin="round" stroke-width="1.772" fill-rule="evenodd"/>
      </g>
    </g>
  </g>
</svg>
