<svg xmlns="http://www.w3.org/2000/svg" xmlns:xlink="http://www.w3.org/1999/xlink" width="150" height="150" viewBox="0 0 150 150">
  <defs>
    <clipPath id="clip-path">
      <rect id="Rectangle_1200" data-name="Rectangle 1200" width="150" height="150" transform="translate(479 3293)" fill="#fff" stroke="#707070" stroke-width="1"/>
    </clipPath>
    <clipPath id="clip-path-2">
      <rect id="Rectangle_1147" data-name="Rectangle 1147" width="150" height="141.573" fill="#fff" stroke="#707070" stroke-width="2.551"/>
    </clipPath>
    <linearGradient id="linear-gradient" x1="0.292" y1="0.5" x2="2.192" y2="0.5" gradientUnits="objectBoundingBox">
      <stop offset="0.001" stop-color="#fff0d5"/>
      <stop offset="0.511" stop-color="#ffdfff"/>
      <stop offset="1" stop-color="#d9ceff"/>
    </linearGradient>
  </defs>
  <g id="Mask_Group_78" data-name="Mask Group 78" transform="translate(-479 -3293)" clip-path="url(#clip-path)">
    <g id="Mask_Group_62" data-name="Mask Group 62" transform="translate(479 3297.214)" clip-path="url(#clip-path-2)">
      <g id="_006-web_development" data-name="006-web development" transform="translate(13.587 -0.007)">
        <path id="Path_832" data-name="Path 832" d="M90.551,24.7A39.642,39.642,0,1,0,24.244,66.02,30.083,30.083,0,0,1,31.716,87.11q-.052,1.54-.015,3.1a53.386,53.386,0,0,0,52.68,51.357A52.67,52.67,0,0,0,106.143,40.952,30.409,30.409,0,0,1,90.551,24.7Z" transform="translate(-14.185 0.01)" fill="url(#linear-gradient)"/>
        <path id="Path_833" data-name="Path 833" d="M134.039,34.828v70.3a4.149,4.149,0,0,1-4.148,4.148H27.587a4.149,4.149,0,0,1-4.153-4.148v-70.3a4.149,4.149,0,0,1,4.148-4.148h102.3a4.149,4.149,0,0,1,4.148,4.148Z" transform="translate(-17.322 -10.4)" fill="#590bb2" opacity="0.1"/>
        <path id="Path_834" data-name="Path 834" d="M131.352,23.4a1.384,1.384,0,0,1-.979-.4l-3.053-3.047a1.38,1.38,0,0,1,0-1.955l3.047-3.047a1.382,1.382,0,0,1,1.955,0L135.369,18a1.38,1.38,0,0,1,0,1.955L132.322,23A1.382,1.382,0,0,1,131.352,23.4Zm-1.092-4.429,1.092,1.092,1.092-1.092-1.092-1.092Z" transform="translate(-52.423 -4.927)" fill="#ffa052"/>
        <path id="Path_835" data-name="Path 835" d="M157.594,178.1a1.386,1.386,0,0,1-.977-.4l-3.047-3.047a1.384,1.384,0,0,1,0-1.955l3.047-3.047a1.384,1.384,0,0,1,1.957,0l3.047,3.044a1.384,1.384,0,0,1,0,1.955l-3.047,3.051a1.39,1.39,0,0,1-.98.4Zm-1.088-4.429,1.088,1.092,1.1-1.092-1.1-1.092Z" transform="translate(-61.329 -57.4)" fill="#c182f9"/>
        <path id="Path_836" data-name="Path 836" d="M42.362,195.162a1.382,1.382,0,0,1-1.382-1.382,1.667,1.667,0,0,0-1.664-1.663,1.383,1.383,0,0,1,0-2.766,1.667,1.667,0,0,0,1.664-1.664,1.383,1.383,0,0,1,2.766,0,1.665,1.665,0,0,0,1.664,1.664,1.383,1.383,0,0,1,0,2.766,1.667,1.667,0,0,0-1.664,1.664,1.383,1.383,0,0,1-1.384,1.382Z" transform="translate(-22.24 -63.189)" fill="#ffe783"/>
        <path id="Path_837" data-name="Path 837" d="M60.5,175.74a1.382,1.382,0,0,1-1.382-1.382,1.665,1.665,0,0,0-1.663-1.663,1.383,1.383,0,1,1,0-2.766,1.667,1.667,0,0,0,1.663-1.664,1.383,1.383,0,1,1,2.766,0,1.667,1.667,0,0,0,1.664,1.664,1.383,1.383,0,0,1,0,2.766,1.667,1.667,0,0,0-1.664,1.663A1.382,1.382,0,0,1,60.5,175.74Z" transform="translate(-28.393 -56.601)" fill="#c182f9"/>
        <path id="Path_838" data-name="Path 838" d="M114.752,176.075H83.4L87.49,159.87l2.191-8.655h18.8l2.192,8.655Z" transform="translate(-37.664 -51.287)" fill="#afabc6"/>
        <path id="Path_839" data-name="Path 839" d="M112.767,159.872H89.578l2.192-8.655h18.812Z" transform="translate(-39.759 -51.287)" fill="#8e8ca8"/>
        <path id="Path_840" data-name="Path 840" d="M114.037,179.385H82.689a1.382,1.382,0,0,1-1.349-1.721L86.277,158.1a1.382,1.382,0,1,1,2.681.674l-4.5,17.842h27.809l-4.542-18a1.383,1.383,0,0,1,2.682-.674l4.976,19.719a1.383,1.383,0,0,1-1.349,1.721Z" transform="translate(-36.949 -53.215)" fill="#590bb2"/>
        <path id="Path_841" data-name="Path 841" d="M134.041,43.615v70.3a4.149,4.149,0,0,1-4.148,4.148H27.59a4.149,4.149,0,0,1-4.147-4.148v-70.3a4.149,4.149,0,0,1,4.147-4.148h102.3A4.149,4.149,0,0,1,134.041,43.615Z" transform="translate(-17.325 -13.381)" fill="#f5f4f9"/>
        <path id="Path_842" data-name="Path 842" d="M172.33,39.467H148.549v78.6H172.33a4.149,4.149,0,0,0,4.148-4.148v-70.3A4.149,4.149,0,0,0,172.33,39.467Z" transform="translate(-59.761 -13.381)" fill="#ffbe92"/>
        <path id="Path_843" data-name="Path 843" d="M161.58,75.179,159.6,68.2a1.387,1.387,0,0,0-1.33-1.011h-6.742A1.387,1.387,0,0,0,150.2,68.2l-1.988,6.983a27.776,27.776,0,0,0-7.809,3.228l-6.344-3.539a1.383,1.383,0,0,0-1.65.229l-4.77,4.773a1.384,1.384,0,0,0-.232,1.65l3.539,6.344a27.83,27.83,0,0,0-3.232,7.8l-6.982,1.99a1.38,1.38,0,0,0-1.012,1.33v6.742a1.385,1.385,0,0,0,1.012,1.33l6.982,1.989a27.7,27.7,0,0,0,1.975,5.478h20.139a13.181,13.181,0,1,1,16.871-18.034V76.977a27.819,27.819,0,0,0-5.115-1.8Z" transform="translate(-49.98 -22.784)" fill="#ffa052"/>
        <path id="Path_844" data-name="Path 844" d="M161.58,75.179,159.6,68.2a1.387,1.387,0,0,0-1.33-1.011h-6.742A1.387,1.387,0,0,0,150.2,68.2l-1.988,6.983a27.776,27.776,0,0,0-7.809,3.228l-6.344-3.539a1.383,1.383,0,0,0-1.65.229l-4.77,4.773a1.384,1.384,0,0,0-.232,1.65l3.539,6.344a27.83,27.83,0,0,0-3.232,7.8l-6.982,1.99a1.38,1.38,0,0,0-1.012,1.33v6.742a1.385,1.385,0,0,0,1.012,1.33l6.982,1.989a27.7,27.7,0,0,0,1.975,5.478h20.139a13.181,13.181,0,1,1,16.871-18.034V76.977a27.819,27.819,0,0,0-5.115-1.8Z" transform="translate(-49.98 -22.784)" fill="#ff8736"/>
        <path id="Path_845" data-name="Path 845" d="M134.041,52.787V43.615a4.148,4.148,0,0,0-4.148-4.148H27.59a4.147,4.147,0,0,0-4.147,4.148v9.172Z" transform="translate(-17.325 -13.381)" fill="#c182f9"/>
        <path id="Path_846" data-name="Path 846" d="M133.329,60.3H22.725a1.383,1.383,0,0,1,0-2.766h110.6a1.383,1.383,0,0,1,0,2.766Z" transform="translate(-16.612 -19.511)" fill="#590bb2"/>
        <path id="Path_847" data-name="Path 847" d="M23.435,137.327v9.785a4.148,4.148,0,0,0,4.148,4.148h102.3a4.148,4.148,0,0,0,4.147-4.148v-9.785Z" transform="translate(-17.322 -46.576)" fill="#cecae0"/>
        <g id="Group_1086" data-name="Group 1086" transform="translate(4.735 24.704)">
          <path id="Path_848" data-name="Path 848" d="M137.711,138H36.1a1.383,1.383,0,0,1,0-2.766H137.711a1.383,1.383,0,0,1,0,2.766Z" transform="translate(-25.884 -70.57)" fill="#590bb2"/>
          <path id="Path_849" data-name="Path 849" d="M116.633,189.508H74.639a1.383,1.383,0,0,1,0-2.766h41.994a1.383,1.383,0,0,1,0,2.766Z" transform="translate(-38.957 -88.042)" fill="#590bb2"/>
          <path id="Path_850" data-name="Path 850" d="M38.658,50.229a1.382,1.382,0,0,1-1.382-1.382v-.04a1.383,1.383,0,1,1,2.766,0v.04a1.382,1.382,0,0,1-1.384,1.382Z" transform="translate(-26.753 -40.784)" fill="#590bb2"/>
          <path id="Path_851" data-name="Path 851" d="M46.746,50.229a1.382,1.382,0,0,1-1.382-1.382v-.04a1.383,1.383,0,1,1,2.765,0v.04a1.381,1.381,0,0,1-1.383,1.382Z" transform="translate(-29.496 -40.784)" fill="#590bb2"/>
          <path id="Path_852" data-name="Path 852" d="M54.832,50.229a1.382,1.382,0,0,1-1.382-1.382v-.04a1.383,1.383,0,1,1,2.766,0v.04a1.382,1.382,0,0,1-1.384,1.382Z" transform="translate(-32.239 -40.784)" fill="#590bb2"/>
          <path id="Path_853" data-name="Path 853" d="M129.184,118.738H26.88a5.537,5.537,0,0,1-5.53-5.53v-70.3a5.537,5.537,0,0,1,5.53-5.53h102.3a5.537,5.537,0,0,1,5.53,5.53v9.172a1.383,1.383,0,0,1-2.766,0V42.906a2.767,2.767,0,0,0-2.766-2.766H26.879a2.767,2.767,0,0,0-2.766,2.766v70.3a2.767,2.767,0,0,0,2.766,2.766h102.3a2.767,2.767,0,0,0,2.766-2.766V59.7a1.383,1.383,0,0,1,2.766,0v53.508A5.537,5.537,0,0,1,129.184,118.738Z" transform="translate(-21.351 -37.376)" fill="#590bb2"/>
        </g>
        <path id="Path_854" data-name="Path 854" d="M84.272,113.353H38.165a1.385,1.385,0,1,1,0-2.769H84.272a1.385,1.385,0,0,1,0,2.769Z" transform="translate(-21.832 -37.504)" fill="#ddd9e4"/>
        <path id="Path_855" data-name="Path 855" d="M67.681,95.775H38.165a1.385,1.385,0,1,1,0-2.769H67.681a1.385,1.385,0,1,1,0,2.769Z" transform="translate(-21.832 -31.541)" fill="#ffbe92"/>
        <path id="Path_856" data-name="Path 856" d="M84.272,121.661H38.165a1.385,1.385,0,1,1,0-2.769H84.272a1.385,1.385,0,1,1,0,2.769Z" transform="translate(-21.832 -40.322)" fill="#ddd9e4"/>
        <path id="Path_857" data-name="Path 857" d="M41.987,79.883a1.377,1.377,0,0,1-.978-.4l-3.329-3.33a1.382,1.382,0,0,1,0-1.955l3.328-3.327a1.382,1.382,0,1,1,1.955,1.955l-2.341,2.353,2.349,2.351a1.382,1.382,0,0,1-.977,2.36Z" transform="translate(-22.017 -23.894)" fill="#b557ff"/>
        <path id="Path_858" data-name="Path 858" d="M63.262,79.884a1.382,1.382,0,0,1-.978-2.36l2.356-2.349-2.359-2.351a1.382,1.382,0,1,1,1.955-1.955L67.563,74.2a1.382,1.382,0,0,1,0,1.955l-3.326,3.327A1.379,1.379,0,0,1,63.262,79.884Z" transform="translate(-30.362 -23.895)" fill="#b557ff"/>
        <path id="Path_859" data-name="Path 859" d="M50.633,79.886a1.384,1.384,0,0,1-1.2-2.063l3.758-6.656a1.383,1.383,0,1,1,2.408,1.36l-3.758,6.656A1.382,1.382,0,0,1,50.633,79.886Z" transform="translate(-26.08 -23.895)" fill="#b557ff"/>
        <path id="Path_860" data-name="Path 860" d="M155.918,113.592h-4.426a.829.829,0,0,1-.828-.829V95.932a.829.829,0,0,1,.828-.829h4.426a.829.829,0,0,1,.828.829v16.83A.829.829,0,0,1,155.918,113.592Z" transform="translate(-60.48 -32.253)" fill="#ffe783"/>
        <path id="Path_861" data-name="Path 861" d="M142.232,116.886h-4.418a.828.828,0,0,1-.828-.829V105.645a.828.828,0,0,1,.828-.829h4.424a.829.829,0,0,1,.828.829v10.412a.827.827,0,0,1-.834.829Z" transform="translate(-55.841 -35.547)" fill="#ffe783"/>
        <path id="Path_862" data-name="Path 862" d="M169.605,111.111h-4.424a.828.828,0,0,1-.828-.829V88.62a.828.828,0,0,1,.828-.829h4.424a.829.829,0,0,1,.828.829v21.662A.829.829,0,0,1,169.605,111.111Z" transform="translate(-65.124 -29.772)" fill="#ffe783"/>
        <ellipse id="Ellipse_20" data-name="Ellipse 20" cx="1.546" cy="1.546" rx="1.546" ry="1.546" transform="translate(74.452 46.569)" fill="#c182f9"/>
        <ellipse id="Ellipse_21" data-name="Ellipse 21" cx="1.546" cy="1.546" rx="1.546" ry="1.546" transform="translate(69.775 46.569)" fill="#c182f9"/>
        <ellipse id="Ellipse_22" data-name="Ellipse 22" cx="1.546" cy="1.546" rx="1.546" ry="1.546" transform="translate(65.099 46.569)" fill="#c182f9"/>
      </g>
    </g>
  </g>
</svg>
