<svg xmlns="http://www.w3.org/2000/svg" xmlns:xlink="http://www.w3.org/1999/xlink" width="570" height="420" viewBox="0 0 570 420">
  <defs>
    <clipPath id="clip-path">
      <rect id="Rectangle_1269" data-name="Rectangle 1269" width="570" height="420" transform="translate(141 3089)" fill="#fff" stroke="#707070" stroke-width="1"/>
    </clipPath>
  </defs>
  <g id="Mask_Group_83" data-name="Mask Group 83" transform="translate(-141 -3089)" clip-path="url(#clip-path)">
    <g id="_4115335" data-name="4115335" transform="translate(144.166 3088.943)">
      <g id="Background_Complete" data-name="Background Complete">
        <rect id="Rectangle_1270" data-name="Rectangle 1270" width="563.668" height="0.282" transform="translate(0 369.146)" fill="#ebebeb"/>
        <rect id="Rectangle_1271" data-name="Rectangle 1271" width="37.337" height="0.282" transform="translate(469.851 387.285)" fill="#ebebeb"/>
        <rect id="Rectangle_1272" data-name="Rectangle 1272" width="9.797" height="0.282" transform="translate(363.599 390.351)" fill="#ebebeb"/>
        <rect id="Rectangle_1273" data-name="Rectangle 1273" width="21.634" height="0.282" transform="translate(447.09 376.823)" fill="#ebebeb"/>
        <rect id="Rectangle_1274" data-name="Rectangle 1274" width="48.69" height="0.282" transform="translate(59.14 378.717)" fill="#ebebeb"/>
        <rect id="Rectangle_1275" data-name="Rectangle 1275" width="7.136" height="0.282" transform="translate(117.874 378.717)" fill="#ebebeb"/>
        <rect id="Rectangle_1276" data-name="Rectangle 1276" width="105.609" height="0.282" transform="translate(148.211 383.474)" fill="#ebebeb"/>
        <path id="Path_2404" data-name="Path 2404" d="M267.178,380.814H49.5a6.437,6.437,0,0,1-6.426-6.437V68.384A6.437,6.437,0,0,1,49.5,62H267.178a6.437,6.437,0,0,1,6.437,6.437V374.377A6.437,6.437,0,0,1,267.178,380.814ZM49.5,62.229a6.155,6.155,0,0,0-6.144,6.155V374.377a6.155,6.155,0,0,0,6.144,6.155H267.178a6.167,6.167,0,0,0,6.155-6.155V68.384a6.167,6.167,0,0,0-6.155-6.155Z" transform="translate(0 -61.947)" fill="#ebebeb"/>
        <path id="Path_2405" data-name="Path 2405" d="M511.032,380.814H293.344a6.448,6.448,0,0,1-6.437-6.437V68.384A6.448,6.448,0,0,1,293.344,62H511.032a6.437,6.437,0,0,1,6.415,6.381V374.377A6.437,6.437,0,0,1,511.032,380.814ZM293.344,62.229a6.167,6.167,0,0,0-6.155,6.155V374.377a6.167,6.167,0,0,0,6.155,6.155H511.032a6.167,6.167,0,0,0,6.155-6.155V68.384a6.167,6.167,0,0,0-6.155-6.155Z" transform="translate(0 -61.947)" fill="#ebebeb"/>
        <path id="Path_2406" data-name="Path 2406" d="M399,110.637a5.5,5.5,0,0,0-5.558-5.513,5.7,5.7,0,0,0-1.59.225,11.932,11.932,0,0,0,.124-1.691,11.668,11.668,0,0,0-11.623-11.668,12.333,12.333,0,0,0-2.153.192,10.2,10.2,0,0,0-18.917,5.163h-.169a9.413,9.413,0,0,0,0,18.815h34.519A5.524,5.524,0,0,0,399,110.637Z" transform="translate(0 -61.947)" fill="#f0f0f0"/>
        <path id="Path_2407" data-name="Path 2407" d="M378.728,56.93V46.187h-8.759V56.93h-7.136l11.521,9.74,11.521-9.74Z" fill="#e0e0e0"/>
        <path id="Path_2408" data-name="Path 2408" d="M226.234,126.893a11.713,11.713,0,0,0-11.7-11.713,11.893,11.893,0,0,0-3.382.5,23.586,23.586,0,0,0,.271-3.6,24.8,24.8,0,0,0-24.8-24.8,24.5,24.5,0,0,0-4.571.429,21.667,21.667,0,0,0-40.173,10.957h-.361a19.976,19.976,0,1,0,0,39.941h73.333A11.7,11.7,0,0,0,226.234,126.893Z" transform="translate(0 -61.947)" fill="#f0f0f0"/>
        <path id="Path_2409" data-name="Path 2409" d="M164.591,65.848V88.676H183.2V65.848h15.163L173.891,45.172,149.428,65.848Z" fill="#e0e0e0"/>
        <path id="Path_2410" data-name="Path 2410" d="M235.579,121.955v-30.7h94v30.382" fill="none" stroke="#e6e6e6" stroke-miterlimit="10" stroke-width="1.127"/>
        <line id="Line_53" data-name="Line 53" y2="59.535" transform="translate(283.964 62.33)" fill="none" stroke="#e6e6e6" stroke-miterlimit="10" stroke-width="1.127"/>
        <rect id="Rectangle_1277" data-name="Rectangle 1277" width="34.654" height="21.701" rx="1.342" transform="translate(266.649 50.64)" fill="#f0f0f0"/>
        <rect id="Rectangle_1278" data-name="Rectangle 1278" width="32.253" height="18.285" rx="0.473" transform="translate(267.844 53.188)" fill="#e0e0e0"/>
        <rect id="Rectangle_1279" data-name="Rectangle 1279" width="34.654" height="21.701" rx="1.342" transform="translate(218.252 119.171)" fill="#f0f0f0"/>
        <rect id="Rectangle_1280" data-name="Rectangle 1280" width="32.253" height="18.285" rx="0.473" transform="translate(219.447 121.718)" fill="#e0e0e0"/>
        <rect id="Rectangle_1281" data-name="Rectangle 1281" width="34.654" height="21.701" rx="1.342" transform="translate(266.649 119.171)" fill="#f0f0f0"/>
        <rect id="Rectangle_1282" data-name="Rectangle 1282" width="32.253" height="18.285" rx="0.473" transform="translate(267.844 121.718)" fill="#e0e0e0"/>
        <rect id="Rectangle_1283" data-name="Rectangle 1283" width="34.654" height="21.701" rx="1.342" transform="translate(312.328 119.171)" fill="#f0f0f0"/>
        <rect id="Rectangle_1284" data-name="Rectangle 1284" width="32.253" height="18.285" rx="0.473" transform="translate(313.523 121.718)" fill="#e0e0e0"/>
        <rect id="Rectangle_1285" data-name="Rectangle 1285" width="14.069" height="14.069" rx="0.913" transform="translate(274.016 91.26) rotate(-45)" fill="#e0e0e0"/>
        <rect id="Rectangle_1286" data-name="Rectangle 1286" width="24.52" height="14.689" rx="0.981" transform="translate(76.896 76.321)" fill="#e0e0e0" opacity="0.8"/>
        <rect id="Rectangle_1287" data-name="Rectangle 1287" width="19.83" height="11.217" rx="0.981" transform="translate(64.371 107.92)" fill="#e0e0e0"/>
        <rect id="Rectangle_1288" data-name="Rectangle 1288" width="19.83" height="11.217" rx="0.981" transform="translate(94.459 107.92)" fill="#e0e0e0"/>
        <rect id="Rectangle_1289" data-name="Rectangle 1289" width="10.405" height="9.582" rx="0.981" transform="translate(85.384 131.661)" fill="#e0e0e0"/>
        <rect id="Rectangle_1290" data-name="Rectangle 1290" width="10.405" height="9.582" rx="0.981" transform="translate(98.597 131.661)" fill="#e0e0e0"/>
        <rect id="Rectangle_1291" data-name="Rectangle 1291" width="10.405" height="9.582" rx="0.981" transform="translate(111.82 131.661)" fill="#e0e0e0"/>
        <rect id="Rectangle_1292" data-name="Rectangle 1292" width="10.405" height="9.582" rx="0.981" transform="translate(54.8 131.661)" fill="#e0e0e0"/>
        <rect id="Rectangle_1293" data-name="Rectangle 1293" width="10.405" height="9.582" rx="0.981" transform="translate(69.139 131.661)" fill="#e0e0e0"/>
        <path id="Path_2411" data-name="Path 2411" d="M103.241,107.92h1.127v-7.891H89.713V91.01H88.586v9.019H73.931v7.891h1.127v-6.764h28.183Z" fill="#e0e0e0"/>
        <path id="Path_2412" data-name="Path 2412" d="M73.931,125.957H59.275v5.637H60.4v-4.509H73.931v4.509h1.127v-12.4H73.931Z" fill="#e0e0e0"/>
        <path id="Path_2413" data-name="Path 2413" d="M104.369,127.085v-7.891h-1.127v7.891H89.713v4.509h1.127v-3.382h12.4v3.382h1.127v-3.382h12.4v3.382H117.9v-4.509Z" fill="#e0e0e0"/>
        <path id="Path_2414" data-name="Path 2414" d="M429.515,141.8v8.139l4.171.395a21.781,21.781,0,0,0,3.112,7.486l-2.683,3.235,5.727,5.727,3.235-2.683a21.567,21.567,0,0,0,7.486,3.111l.372,4.149h8.094l.395-4.171a21.566,21.566,0,0,0,7.486-3.111l3.235,2.683,5.727-5.727-2.672-3.2a21.78,21.78,0,0,0,3.111-7.486l4.171-.395v-8.094l-4.171-.395a21.632,21.632,0,0,0-3.111-7.474l2.683-3.235-5.727-5.727-3.235,2.672a21.78,21.78,0,0,0-7.486-3.111l-.395-4.171h-8.106l-.395,4.171a21.78,21.78,0,0,0-7.486,3.111l-3.235-2.672-5.727,5.727,2.683,3.235a21.635,21.635,0,0,0-3.111,7.474ZM455,134.886a10.963,10.963,0,1,1-.011,0Z" transform="translate(0 -61.947)" fill="#f5f5f5"/>
        <path id="Path_2415" data-name="Path 2415" d="M434.734,200.891a16.989,16.989,0,0,0,5.862-2.446l2.536,2.108,4.509-4.509-2.1-2.536a17.056,17.056,0,0,0,2.435-5.862l3.269-.316v-6.347l-3.269-.3a16.967,16.967,0,0,0-2.435-5.862l2.1-2.536-4.509-4.509-2.536,2.1a16.967,16.967,0,0,0-5.862-2.435l-.3-3.269h-6.347l-.3,3.269a16.967,16.967,0,0,0-5.862,2.435l-2.548-2.052-4.509,4.509,2.1,2.536a16.967,16.967,0,0,0-2.435,5.862l-3.269.3v6.347l3.269.316a17.058,17.058,0,0,0,2.435,5.862l-2.1,2.514,4.509,4.509,2.536-2.108a16.989,16.989,0,0,0,5.862,2.446l.3,3.258h6.347Zm-12.074-16.707a8.6,8.6,0,1,1,8.6,8.59,8.6,8.6,0,0,1-8.6-8.59Z" transform="translate(0 -61.947)" fill="#f5f5f5"/>
        <path id="Path_2416" data-name="Path 2416" d="M420.575,166.541l2.131,1.759,3.777-3.765-1.77-2.131a14.226,14.226,0,0,0,2.052-4.926l2.739-.259V151.9l-2.739-.259a14.226,14.226,0,0,0-2.052-4.926l1.77-2.131-3.732-3.765-2.131,1.759a14.272,14.272,0,0,0-4.915-2.052l-.259-2.739h-5.332l-.259,2.739a14.227,14.227,0,0,0-4.926,2.052l-2.131-1.759-3.765,3.765,1.759,2.131a14.217,14.217,0,0,0-2.04,4.926L396,151.9v5.321l2.751.259a14.217,14.217,0,0,0,2.04,4.926l-1.8,2.187,3.765,3.765,2.131-1.759a14,14,0,0,0,4.926,2.04l.259,2.751H415.4l.259-2.751a14.035,14.035,0,0,0,4.915-2.1Zm-15.061-11.984a7.215,7.215,0,1,1,7.215,7.215A7.215,7.215,0,0,1,405.514,154.558Z" transform="translate(0 -61.947)" fill="#f5f5f5"/>
        <rect id="Rectangle_1294" data-name="Rectangle 1294" width="75.701" height="49.231" transform="translate(419.639 303.343)" fill="#f5f5f5"/>
        <rect id="Rectangle_1295" data-name="Rectangle 1295" width="70.154" height="37.54" transform="translate(422.401 312.576)" fill="#e0e0e0"/>
        <rect id="Rectangle_1296" data-name="Rectangle 1296" width="51.903" height="1.612" transform="translate(428.117 318.179)" fill="#f5f5f5"/>
        <rect id="Rectangle_1297" data-name="Rectangle 1297" width="24.903" height="1.612" transform="translate(428.117 323.128)" fill="#f5f5f5"/>
        <rect id="Rectangle_1298" data-name="Rectangle 1298" width="31.362" height="1.612" transform="translate(428.117 328.077)" fill="#f5f5f5"/>
        <rect id="Rectangle_1299" data-name="Rectangle 1299" width="11.048" height="1.612" transform="translate(428.117 333.026)" fill="#f5f5f5"/>
        <rect id="Rectangle_1300" data-name="Rectangle 1300" width="7.159" height="1.612" transform="translate(428.117 337.964)" fill="#f5f5f5"/>
        <rect id="Rectangle_1301" data-name="Rectangle 1301" width="53.864" height="33.223" transform="translate(53.898 303.309) rotate(-0.26)" fill="#ebebeb"/>
        <path id="Path_2417" data-name="Path 2417" d="M74.562,390.126a1.127,1.127,0,0,1-.665-.214l-9.819-7.181a1.13,1.13,0,0,1-.011-1.815l9.763-7.271a1.128,1.128,0,1,1,1.342,1.815l-8.534,6.358,8.59,6.268a1.127,1.127,0,0,1-.665,2.04Z" transform="translate(0 -61.947)" fill="#fafafa"/>
        <path id="Path_2418" data-name="Path 2418" d="M87.323,390.058a1.124,1.124,0,0,1-.676-2.029l8.534-6.358-8.59-6.268a1.128,1.128,0,0,1,1.342-1.815l9.819,7.17a1.13,1.13,0,0,1,.011,1.815L88,389.844A1.127,1.127,0,0,1,87.323,390.058Z" transform="translate(0 -61.947)" fill="#fafafa"/>
        <path id="Path_2419" data-name="Path 2419" d="M78.372,390.114a1.134,1.134,0,0,1-1.06-1.5l5.062-14.475a1.128,1.128,0,0,1,2.131.744l-5.062,14.475A1.127,1.127,0,0,1,78.372,390.114Z" transform="translate(0 -61.947)" fill="#fafafa"/>
      </g>
      <g id="Shadow">
        <ellipse id="_Path_" data-name="&lt;Path&gt;" cx="218.579" cy="12.761" rx="218.579" ry="12.761" transform="translate(63.255 394.534)" fill="#f5f5f5"/>
      </g>
      <g id="Ladder">
        <path id="Path_2420" data-name="Path 2420" d="M376.958,407.295h8.286l11.273-62.274h-8.286Z" fill="#263238"/>
        <path id="Path_2421" data-name="Path 2421" d="M376.958,407.295h8.286l11.273-62.274h-8.286Z" fill="#fff" opacity="0.2"/>
        <path id="Path_2422" data-name="Path 2422" d="M376.958,407.295h6.031l11.273-62.274h-6.031Z" fill="#fff" opacity="0.2"/>
        <path id="Path_2423" data-name="Path 2423" d="M353.634,425.49h33.132a1.815,1.815,0,0,0,1.826-1.826h0a1.815,1.815,0,0,0-1.826-1.826H353.634a1.815,1.815,0,0,0-1.826,1.826h0a1.815,1.815,0,0,0,1.826,1.826Z" transform="translate(0 -61.947)" fill="#263238"/>
        <path id="Path_2424" data-name="Path 2424" d="M349.947,446.346h33.144a1.838,1.838,0,0,0,1.826-1.838h0a1.838,1.838,0,0,0-1.826-1.826H349.947a1.838,1.838,0,0,0-1.826,1.826h0a1.838,1.838,0,0,0,1.826,1.838Z" transform="translate(0 -61.947)" fill="#263238"/>
        <path id="Path_2425" data-name="Path 2425" d="M343.138,407.295h8.286L362.7,345.021h-8.286Z" fill="#263238"/>
        <path id="Path_2426" data-name="Path 2426" d="M343.138,407.295h8.286L362.7,345.021h-8.286Z" fill="#fff" opacity="0.2"/>
        <path id="Path_2427" data-name="Path 2427" d="M343.138,407.295h6.031l11.273-62.274h-6.031Z" fill="#fff" opacity="0.2"/>
        <path id="Path_2428" data-name="Path 2428" d="M420.192,407.295h-8.286l-11.273-62.274h8.286Z" fill="#263238"/>
        <path id="Path_2429" data-name="Path 2429" d="M420.192,407.295h-8.286l-11.273-62.274h8.286Z" fill="#fff" opacity="0.4"/>
        <path id="Path_2430" data-name="Path 2430" d="M417.937,407.295h-6.031l-11.273-62.274h6.031Z" fill="#fff" opacity="0.2"/>
        <path id="Path_2431" data-name="Path 2431" d="M405.638,425.49H372.494a1.826,1.826,0,0,1-1.826-1.826h0a1.826,1.826,0,0,1,1.826-1.826h33.144a1.826,1.826,0,0,1,1.826,1.826h0A1.826,1.826,0,0,1,405.638,425.49Z" transform="translate(0 -61.947)" fill="#263238"/>
        <path id="Path_2432" data-name="Path 2432" d="M409.313,446.346H376.18a1.826,1.826,0,0,1-1.826-1.838h0a1.826,1.826,0,0,1,1.826-1.826h33.132a1.826,1.826,0,0,1,1.826,1.826h0a1.826,1.826,0,0,1-1.826,1.838Z" transform="translate(0 -61.947)" fill="#263238"/>
        <path id="Path_2433" data-name="Path 2433" d="M405.638,425.49H372.494a1.826,1.826,0,0,1-1.826-1.826h0a1.826,1.826,0,0,1,1.826-1.826h33.144a1.826,1.826,0,0,1,1.826,1.826h0A1.826,1.826,0,0,1,405.638,425.49Z" transform="translate(0 -61.947)" fill="#fff" opacity="0.2"/>
        <path id="Path_2434" data-name="Path 2434" d="M409.313,446.346H376.18a1.826,1.826,0,0,1-1.826-1.838h0a1.826,1.826,0,0,1,1.826-1.826h33.132a1.826,1.826,0,0,1,1.826,1.826h0a1.826,1.826,0,0,1-1.826,1.838Z" transform="translate(0 -61.947)" fill="#fff" opacity="0.2"/>
        <path id="Path_2435" data-name="Path 2435" d="M386.372,407.295h-8.286l-11.273-62.274H375.1Z" fill="#263238"/>
        <path id="Path_2436" data-name="Path 2436" d="M386.372,407.295h-8.286l-11.273-62.274H375.1Z" fill="#fff" opacity="0.4"/>
        <path id="Path_2437" data-name="Path 2437" d="M384.117,407.295h-6.031l-11.273-62.274h6.031Z" fill="#fff" opacity="0.2"/>
        <rect id="Rectangle_1302" data-name="Rectangle 1302" width="62.533" height="5.941" rx="1.342" transform="translate(350.951 342.045)" fill="#263238"/>
        <rect id="Rectangle_1303" data-name="Rectangle 1303" width="25.433" height="5.941" rx="1.342" transform="translate(350.951 342.045)" fill="#fff" opacity="0.2"/>
      </g>
      <g id="interface">
        <rect id="Rectangle_1304" data-name="Rectangle 1304" width="75.701" height="49.231" transform="translate(143.397 357.241)" fill="#dab8ff"/>
        <rect id="Rectangle_1306" data-name="Rectangle 1306" width="70.165" height="37.54" transform="translate(146.17 366.474)" fill="#2e035f"/>
        <rect id="Rectangle_1307" data-name="Rectangle 1307" width="51.903" height="1.612" transform="translate(151.886 372.088)" fill="#fff"/>
        <rect id="Rectangle_1308" data-name="Rectangle 1308" width="24.903" height="1.612" transform="translate(151.886 377.037)" fill="#fff"/>
        <rect id="Rectangle_1309" data-name="Rectangle 1309" width="31.362" height="1.612" transform="translate(151.886 381.975)" fill="#fff"/>
        <rect id="Rectangle_1310" data-name="Rectangle 1310" width="11.048" height="1.612" transform="translate(151.886 386.924)" fill="#fff"/>
        <rect id="Rectangle_1311" data-name="Rectangle 1311" width="7.159" height="1.612" transform="translate(151.886 391.873)" fill="#fff"/>
      </g>
      <g id="Monitor">
        <path id="Path_2438" data-name="Path 2438" d="M312.644,407.295h-61.62l10.428-81.923h40.764Z" fill="#d6b0ff"/>
        <path id="Path_2440" data-name="Path 2440" d="M307.075,363.543l-48.915-12.3,3.3-25.872H302.2Z" opacity="0.1"/>
        <path id="Path_2441" data-name="Path 2441" d="M427.113,185.311H136.554a7.429,7.429,0,0,0-7.429,7.44v196.7a7.429,7.429,0,0,0,7.429,7.429H427.113a7.429,7.429,0,0,0,7.429-7.429V192.774a7.429,7.429,0,0,0-7.429-7.463Z" transform="translate(0 -61.947)" fill="#2e035f"/>
        <rect id="Rectangle_1312" data-name="Rectangle 1312" width="285.858" height="189.674" transform="translate(138.91 130.647)" fill="#d6b0ff"/>
        <rect id="Rectangle_1313" data-name="Rectangle 1313" width="105.846" height="6.054" rx="1.172" transform="translate(228.905 401.14)" fill="#2e035f"/>
        <rect id="Rectangle_1315" data-name="Rectangle 1315" width="285.858" height="28.274" transform="translate(138.91 130.827)" opacity="0.2"/>
        <rect id="Rectangle_1316" data-name="Rectangle 1316" width="122.496" height="160.882" transform="translate(138.91 159.428)" fill="#fff" opacity="0.4"/>
        <path id="Path_2443" data-name="Path 2443" d="M380.769,200.474v2.818H377.95" fill="none" stroke="#fff" stroke-miterlimit="10" stroke-width="1.127"/>
        <line id="Line_54" data-name="Line 54" x1="92.329" transform="translate(279.669 203.292)" fill="none" stroke="#fff" stroke-miterlimit="10" stroke-width="1.127" stroke-dasharray="5.28 5.28"/>
        <path id="Path_2444" data-name="Path 2444" d="M276.693,203.292h-2.818v-2.818" fill="none" stroke="#fff" stroke-miterlimit="10" stroke-width="1.127"/>
        <line id="Line_55" data-name="Line 55" y1="48.509" transform="translate(273.875 146.858)" fill="none" stroke="#fff" stroke-miterlimit="10" stroke-width="1.127" stroke-dasharray="4.53 4.53"/>
        <path id="Path_2445" data-name="Path 2445" d="M273.875,144.3v-2.818h2.818" fill="none" stroke="#fff" stroke-miterlimit="10" stroke-width="1.127"/>
        <line id="Line_56" data-name="Line 56" x2="92.329" transform="translate(282.645 141.492)" fill="none" stroke="#fff" stroke-miterlimit="10" stroke-width="1.127" stroke-dasharray="5.28 5.28"/>
        <path id="Path_2446" data-name="Path 2446" d="M377.95,141.481h2.818V144.3" fill="none" stroke="#fff" stroke-miterlimit="10" stroke-width="1.127"/>
        <line id="Line_57" data-name="Line 57" y2="48.509" transform="translate(380.769 149.406)" fill="none" stroke="#fff" stroke-miterlimit="10" stroke-width="1.127" stroke-dasharray="4.53 4.53"/>
        <rect id="Rectangle_1317" data-name="Rectangle 1317" width="3.574" height="3.574" transform="translate(378.988 139.699)" fill="#407bff" stroke="#fff" stroke-miterlimit="10" stroke-width="1.127"/>
        <rect id="Rectangle_1318" data-name="Rectangle 1318" width="3.574" height="3.574" transform="translate(378.988 201.5)" fill="#407bff" stroke="#fff" stroke-miterlimit="10" stroke-width="1.127"/>
        <rect id="Rectangle_1319" data-name="Rectangle 1319" width="3.574" height="3.574" transform="translate(272.082 139.699)" fill="#407bff" stroke="#fff" stroke-miterlimit="10" stroke-width="1.127"/>
        <rect id="Rectangle_1320" data-name="Rectangle 1320" width="3.574" height="3.574" transform="translate(272.082 201.5)" fill="#407bff" stroke="#fff" stroke-miterlimit="10" stroke-width="1.127"/>
        <rect id="Rectangle_1321" data-name="Rectangle 1321" width="3.574" height="3.574" transform="translate(325.541 139.699)" fill="#407bff" stroke="#fff" stroke-miterlimit="10" stroke-width="1.127"/>
        <rect id="Rectangle_1322" data-name="Rectangle 1322" width="3.574" height="3.574" transform="translate(325.541 201.5)" fill="#407bff" stroke="#fff" stroke-miterlimit="10" stroke-width="1.127"/>
        <rect id="Rectangle_1323" data-name="Rectangle 1323" width="3.574" height="3.574" transform="translate(378.988 170.6)" fill="#407bff" stroke="#fff" stroke-miterlimit="10" stroke-width="1.127"/>
        <rect id="Rectangle_1324" data-name="Rectangle 1324" width="3.574" height="3.574" transform="translate(272.082 170.6)" fill="#407bff" stroke="#fff" stroke-miterlimit="10" stroke-width="1.127"/>
        <rect id="Rectangle_1325" data-name="Rectangle 1325" width="30.427" height="11.262" rx="2.131" transform="translate(342.766 162.246)" fill="#fff" opacity="0.7"/>
        <rect id="Rectangle_1326" data-name="Rectangle 1326" width="30.427" height="11.262" rx="2.131" transform="translate(297.673 162.246)" fill="#fff" opacity="0.7"/>
        <rect id="Rectangle_1327" data-name="Rectangle 1327" width="30.427" height="11.262" rx="2.131" transform="translate(239.626 299.319)" fill="#fff" opacity="0.7"/>
        <line id="Line_58" data-name="Line 58" x2="9.515" transform="translate(405.897 140.883)" fill="none" stroke="#fff" stroke-linecap="round" stroke-linejoin="round" stroke-width="1.691"/>
        <line id="Line_59" data-name="Line 59" x2="9.515" transform="translate(405.897 145.392)" fill="none" stroke="#fff" stroke-linecap="round" stroke-linejoin="round" stroke-width="1.691"/>
        <line id="Line_60" data-name="Line 60" x2="9.515" transform="translate(405.897 149.902)" fill="none" stroke="#fff" stroke-linecap="round" stroke-linejoin="round" stroke-width="1.691"/>
        <rect id="Rectangle_1328" data-name="Rectangle 1328" width="95.88" height="95.88" transform="translate(158.289 184.376)" fill="#fff" opacity="0.5"/>
        <line id="Line_61" data-name="Line 61" y2="82.701" transform="translate(198.422 192.211)" fill="none" stroke="#2e035f" stroke-miterlimit="10" stroke-width="1.127"/>
        <path id="Path_2447" data-name="Path 2447" d="M239.773,336.87h0a41.362,41.362,0,0,1-41.362-41.362h0a41.351,41.351,0,0,1,41.351-41.351h0" transform="translate(0 -61.947)" fill="none" stroke="#2e035f" stroke-miterlimit="10" stroke-width="1.127"/>
        <rect id="Rectangle_1329" data-name="Rectangle 1329" width="3.574" height="3.574" transform="translate(237.992 190.429)" fill="#fff" stroke="#407bff" stroke-miterlimit="10" stroke-width="1.127"/>
        <rect id="Rectangle_1330" data-name="Rectangle 1330" width="3.574" height="3.574" transform="translate(237.992 273.131)" fill="#fff" stroke="#407bff" stroke-miterlimit="10" stroke-width="1.127"/>
        <rect id="Rectangle_1331" data-name="Rectangle 1331" width="3.574" height="3.574" transform="translate(196.641 231.78)" fill="#fff" stroke="#407bff" stroke-miterlimit="10" stroke-width="1.127"/>
        <path id="Path_2448" data-name="Path 2448" d="M199.347,254.158a.924.924,0,1,1-.924-.924.936.936,0,0,1,.924.924Z" transform="translate(0 -61.947)" fill="#fff" stroke="#407bff" stroke-miterlimit="10" stroke-width="1.127"/>
        <path id="Path_2449" data-name="Path 2449" d="M199.347,336.87a.924.924,0,1,1-.275-.658.924.924,0,0,1,.275.658Z" transform="translate(0 -61.947)" fill="#fff" stroke="#407bff" stroke-miterlimit="10" stroke-width="1.127"/>
        <path id="Path_2450" data-name="Path 2450" d="M357.286,362.63H328.257a8.387,8.387,0,0,1-8.387-8.387h0a8.387,8.387,0,0,1,8.387-8.387h29.029a8.387,8.387,0,0,1,8.387,8.387h0A8.387,8.387,0,0,1,357.286,362.63Z" transform="translate(0 -61.947)" fill="#fff" opacity="0.7"/>
        <path id="Path_2451" data-name="Path 2451" d="M382.787,291.1h-89.68a1.838,1.838,0,0,1-1.838-1.838h0a1.826,1.826,0,0,1,1.838-1.792h89.668a1.826,1.826,0,0,1,1.838,1.826h0a1.838,1.838,0,0,1-1.826,1.8Z" transform="translate(0 -61.947)" fill="#fff" opacity="0.7"/>
        <path id="Path_2452" data-name="Path 2452" d="M382.787,304.482h-89.68a1.826,1.826,0,0,1-1.838-1.826h0a1.838,1.838,0,0,1,1.838-1.838h89.668a1.838,1.838,0,0,1,1.838,1.838h0A1.826,1.826,0,0,1,382.787,304.482Z" transform="translate(0 -61.947)" fill="#fff" opacity="0.7"/>
        <path id="Path_2453" data-name="Path 2453" d="M382.787,317.909H326.927a1.838,1.838,0,0,1-1.838-1.826h0a1.838,1.838,0,0,1,1.838-1.838h55.848a1.838,1.838,0,0,1,1.838,1.838h0a1.838,1.838,0,0,1-1.826,1.826Z" transform="translate(0 -61.947)" fill="#fff" opacity="0.7"/>
        <rect id="Rectangle_1332" data-name="Rectangle 1332" width="6.336" height="6.336" transform="translate(147.94 138.662)" opacity="0.4"/>
        <rect id="Rectangle_1333" data-name="Rectangle 1333" width="6.336" height="6.336" rx="1.623" transform="translate(160.251 138.662)" opacity="0.4"/>
        <rect id="Rectangle_1334" data-name="Rectangle 1334" width="6.336" height="6.336" rx="2.897" transform="translate(172.572 138.662)" opacity="0.4"/>
        <path id="Path_2454" data-name="Path 2454" d="M167.353,356.8v-2.469l-1.263-.113a6.967,6.967,0,0,0-.947-2.255l.812-.981-1.747-1.747-.981.812a6.967,6.967,0,0,0-2.255-.947l-.113-1.263h-2.469l-.124,1.263a7.012,7.012,0,0,0-2.255.947l-.981-.812-1.747,1.747.812.981a6.516,6.516,0,0,0-.947,2.255l-1.274.113V356.8l1.274.124a6.55,6.55,0,0,0,.947,2.255l-.812.992,1.747,1.736.981-.812a6.549,6.549,0,0,0,2.255.947l.124,1.274h2.469l.113-1.274a6.517,6.517,0,0,0,2.255-.947l.981.812,1.747-1.736-.812-.992a6.763,6.763,0,0,0,.947-2.255Zm-7.767,2.108a3.382,3.382,0,1,1,3.382-3.382A3.382,3.382,0,0,1,159.586,358.91Z" transform="translate(0 -61.947)" fill="#fff" opacity="0.9"/>
        <path id="Path_2455" data-name="Path 2455" d="M177.364,363.769v-1.894l-.992-.1a5.2,5.2,0,0,0-.744-1.781l.631-.778-1.364-1.364-.767.643a5.254,5.254,0,0,0-1.792-.744l-.09-1h-1.939l-.09,1a5.254,5.254,0,0,0-1.792.744l-.767-.643-1.375,1.364.643.778a5.2,5.2,0,0,0-.744,1.781l-.992.1V363.8l.992.1a5.2,5.2,0,0,0,.744,1.781l-.643.778,1.375,1.364.767-.643a5.254,5.254,0,0,0,1.792.744l.09.992h1.939l.09-.992a5.254,5.254,0,0,0,1.792-.744l.767.643,1.364-1.364-.631-.778a5.2,5.2,0,0,0,.744-1.781Zm-6.088,1.657a2.615,2.615,0,1,1,1.853-.77,2.627,2.627,0,0,1-1.853.77Z" transform="translate(0 -61.947)" fill="#fff" opacity="0.6"/>
        <path id="Path_2456" data-name="Path 2456" d="M167.353,369.259v-1.623l-.834-.079a4.4,4.4,0,0,0-.62-1.5l.541-.643-1.127-1.127-.654.53a4.4,4.4,0,0,0-1.5-.62l-.079-.834h-1.646l-.079.834a4.4,4.4,0,0,0-1.5.62l-.654-.53-1.127,1.127.541.643a4.4,4.4,0,0,0-.62,1.5l-.845.079v1.623l.846.079a4.363,4.363,0,0,0,.62,1.511l-.541.643,1.127,1.127.654-.541a4.206,4.206,0,0,0,1.5.631l.079.834h1.623l.079-.834a4.2,4.2,0,0,0,1.5-.631l.654.541,1.127-1.127-.541-.643a4.363,4.363,0,0,0,.62-1.511Zm-5.107,1.387a2.2,2.2,0,1,1,1.591-.624A2.2,2.2,0,0,1,162.246,370.645Z" transform="translate(0 -61.947)" fill="#fff" opacity="0.4"/>
        <path id="Path_2457" data-name="Path 2457" d="M380.115,140.849l4.78,12.784,7.993-8Z" fill="#2e035f"/>
        <rect id="Rectangle_1335" data-name="Rectangle 1335" width="2.525" height="5.603" transform="translate(386.03 148.546) rotate(-45)" fill="#2e035f"/>
        <path id="Path_2459" data-name="Path 2459" d="M184.274,248.487,196.3,253l-6.3-6.3a1.229,1.229,0,0,1-1.477-.192,1.244,1.244,0,0,1,1.759-1.759,1.229,1.229,0,0,1,.192,1.477l6.3,6.3-4.509-12.029-3.991.879-.147-1.432-.755-.755-4.419,4.419.755.755,1.443.147Z" transform="translate(0 -61.947)" fill="#263238"/>
        <path id="Path_2460" data-name="Path 2460" d="M184.274,248.487,196.3,253l-6.3-6.3a1.229,1.229,0,0,1-1.477-.192,1.244,1.244,0,0,1,1.759-1.759,1.229,1.229,0,0,1,.192,1.477l6.3,6.3-4.509-12.029-3.991.879-.147-1.432-.755-.755-4.419,4.419.755.755,1.443.147Z" transform="translate(0 -61.947)" fill="#fff" opacity="0.2"/>
        <g id="Group_1135" data-name="Group 1135" opacity="0.1">
          <path id="Path_2461" data-name="Path 2461" d="M180.712,130.647l-42.365,158.3v-158.3Z" fill="#fff"/>
          <path id="Path_2462" data-name="Path 2462" d="M228.522,130.647,177.758,320.321h-34.97l50.753-189.674Z" fill="#fff"/>
          <path id="Path_2463" data-name="Path 2463" d="M279.365,130.647,228.6,320.321H212.785l50.764-189.674Z" fill="#fff"/>
          <path id="Path_2464" data-name="Path 2464" d="M326.183,130.647,275.419,320.321H269.76l50.764-189.674Z" fill="#fff"/>
        </g>
      </g>
      <g id="Character_2" data-name="Character 2">
        <path id="Path_2465" data-name="Path 2465" d="M498.169,234.486c4,4.611,24.362,43.831,20.427,52.985s-36.559-1.4-36.559-1.4l1.95-12.931s12.671.451,13.889-.755S480.73,252.85,480.73,252.85Z" transform="translate(0 -61.947)" fill="#263238"/>
        <g id="Group_1136" data-name="Group 1136" opacity="0.2">
          <path id="Path_2466" data-name="Path 2466" d="M518.574,287.47a4.938,4.938,0,0,1-2.379,2.413h0l-.654.293h-.09a5,5,0,0,1-.62.214,13.675,13.675,0,0,1-2.818.586l-.823.079c-.406,0-.812.056-1.229.068h-1.127c-10.935,0-26.842-5.129-26.842-5.129l1.95-12.931s12.671.451,13.889-.755c.293-.293-.575-1.6-2.052-3.382h0c-3.585-4.408-10.766-11.747-13.731-14.746l-1.342-1.353,17.462-18.342C502.171,239.051,522.531,278.271,518.574,287.47Z" transform="translate(0 -61.947)" fill="#fff"/>
        </g>
        <path id="Path_2467" data-name="Path 2467" d="M516.218,289.849h0l-.654.293h-.09a5.007,5.007,0,0,1-.62.214,13.675,13.675,0,0,1-2.818.586l-.823.079c-.406,0-.812.056-1.229.068h-1.127c-10.935,0-26.842-5.129-26.842-5.129l1.95-12.931s14.272,1.206,15.49,0c.225-.473-1.353-2.074-3.686-4.115h0c-3.585-4.408-10.766-11.747-13.731-14.746l8.252-8.816,6.279-.676S510.469,267.178,516.218,289.849Z" transform="translate(0 -61.947)" opacity="0.2"/>
        <path id="Path_2468" data-name="Path 2468" d="M457.033,233.155c-2.255,1.635-3.382,3.957-2.48,5.186l59.568,82.126c.891,1.229,3.45.891,5.7-.744s3.382-3.968,2.48-5.186L462.737,232.4C461.847,231.183,459.3,231.51,457.033,233.155Z" transform="translate(0 -61.947)" fill="#263238"/>
        <path id="Path_2469" data-name="Path 2469" d="M462.737,232.4l59.568,82.126c.891,1.217-.225,3.54-2.48,5.186s-4.814,1.962-5.693.744l-59.568-82.138a2.548,2.548,0,0,1,.214-2.728,6.6,6.6,0,0,1,1.127-1.477,8.155,8.155,0,0,1,1.127-.97C459.3,231.521,461.847,231.183,462.737,232.4Z" transform="translate(0 -61.947)" fill="#fff" opacity="0.7"/>
        <path id="Path_2470" data-name="Path 2470" d="M522.306,314.527c.891,1.217-.225,3.54-2.48,5.186s-4.814,1.962-5.693.744c-.5-.676.733-1.7,1.454-3.179l-60.808-81.664a6.6,6.6,0,0,1,1.127-1.477l59.58,82.138a9.647,9.647,0,0,1,1.127-.981C518.867,313.647,521.415,313.309,522.306,314.527Z" transform="translate(0 -61.947)" opacity="0.3"/>
        <path id="Path_2471" data-name="Path 2471" d="M449.66,230.878c-1.905,2.029-2.559,4.509-1.454,5.558l74.066,69.342c1.127,1.037,3.551.225,5.456-1.815s2.559-4.509,1.454-5.569l-74.066-69.342C454.012,228.026,451.565,228.849,449.66,230.878Z" transform="translate(0 -61.947)" fill="#407bff"/>
        <path id="Path_2472" data-name="Path 2472" d="M455.116,229.063l74.066,69.342c1.127,1.026.451,3.517-1.454,5.558s-4.352,2.841-5.456,1.815l-74.066-69.342a2.582,2.582,0,0,1-.3-2.728,6.989,6.989,0,0,1,.834-1.668,9.471,9.471,0,0,1,.924-1.127C451.565,228.849,454.012,228.026,455.116,229.063Z" transform="translate(0 -61.947)" fill="#fff" opacity="0.7"/>
        <path id="Path_2473" data-name="Path 2473" d="M529.182,298.406c1.127,1.026.451,3.517-1.454,5.558s-4.352,2.841-5.456,1.815c-.609-.575.406-1.8.834-3.382L447.9,233.73a6.989,6.989,0,0,1,.834-1.668l74.077,69.354a8.67,8.67,0,0,1,.913-1.127C525.631,298.18,528.078,297.368,529.182,298.406Z" transform="translate(0 -61.947)" opacity="0.3"/>
        <path id="Path_2474" data-name="Path 2474" d="M467.461,452.174l-5.637.09c-5.738-26.955-9.8-60.312-12.322-85.475-.395-3.946-.755-7.677-1.127-11.161-.147-1.657-.293-3.247-.428-4.78-.676-7.564-1.127-13.528-1.42-17.271-.2-2.706-.3-4.194-.3-4.194h20.495l-.192,5.2-.676,17.147-.068,1.962-.428,11.33-.71,19.289C471.643,411.477,467.461,452.174,467.461,452.174Z" transform="translate(0 -61.947)" fill="#ebb376"/>
        <path id="Path_2475" data-name="Path 2475" d="M513.231,450.731l-5.558,1.048c-11.127-27.811-21.577-63.424-28.375-88.3-1.048-3.855-2.018-7.463-2.886-10.732a1.8,1.8,0,0,0-.124-.485c-1.714-6.493-3.033-11.668-3.855-14.948l-.981-3.979,20.067-3.472,1.127,8.455,1.68,12.4.327,2.435,1.127,8.466,3.055,22.7C510.424,409.91,513.231,450.731,513.231,450.731Z" transform="translate(0 -61.947)" fill="#ebb376"/>
        <path id="Path_2476" data-name="Path 2476" d="M494.382,350.737l-17.97,2.007a1.8,1.8,0,0,0-.124-.485c-1.714-6.493-3.033-11.668-3.855-14.948l20.292,1Z" transform="translate(0 -61.947)" opacity="0.2"/>
        <path id="Path_2477" data-name="Path 2477" d="M466.48,334.582l-.631,17.147-.068,1.962-17.361,1.928c-.147-1.657-.293-3.247-.428-4.78-.676-7.564-1.127-13.528-1.42-17.271Z" transform="translate(0 -61.947)" opacity="0.2"/>
        <path id="Path_2478" data-name="Path 2478" d="M450.788,470.91a11.273,11.273,0,0,1,3.529-1.939h0s3.844-3.81,5.7-15.287l5.028-1.319a4.306,4.306,0,0,1,4.577,1.792,2.4,2.4,0,0,1,.316.665,29.46,29.46,0,0,1,.541,3.732,103.882,103.882,0,0,1,.079,12.6h-.913l-.361-7.891c-.135-2.694-2.2.462-2.785,3.382s-1.838,5.964-7.722,6.11C451.9,472.861,449.051,472.59,450.788,470.91Z" transform="translate(0 -61.947)" fill="#263238"/>
        <path id="Path_2479" data-name="Path 2479" d="M469.806,454.316c.327-2.683.428-7.35.428-7.35l-11.183,1.24s1.353,5.31.237,9.3C464.924,455.962,469.806,454.316,469.806,454.316Z" transform="translate(0 -61.947)" fill="#263238"/>
        <path id="Path_2480" data-name="Path 2480" d="M496.287,470.91a11.275,11.275,0,0,1,3.529-1.928h0s3.844-3.81,5.693-15.287l5.039-1.319a4.307,4.307,0,0,1,4.577,1.792,2.4,2.4,0,0,1,.316.665,29.46,29.46,0,0,1,.541,3.732,103.142,103.142,0,0,1,.068,12.6h-.857l-.361-7.891c-.135-2.694-2.2.462-2.784,3.382s-1.838,5.964-7.734,6.11C497.4,472.861,494.551,472.59,496.287,470.91Z" transform="translate(0 -61.947)" fill="#263238"/>
        <path id="Path_2481" data-name="Path 2481" d="M515.294,454.316c.338-2.683.44-7.35.44-7.35l-11.183,1.24s1.353,5.31.237,9.3C510.424,455.962,515.294,454.316,515.294,454.316Z" transform="translate(0 -61.947)" fill="#263238"/>
        <path id="Path_2482" data-name="Path 2482" d="M496.321,345.2l-21.273,2.717-.823.1-4.374-16.031-1.127,17.181-22.795-1.195c-10.146-59.6,7.2-73.683,7.2-73.683l30.923,6.223c14,23.809,10.676,51.474,10.676,51.474Z" transform="translate(0 -61.947)" fill="#2e035f"/>
        <path id="Path_2483" data-name="Path 2483" d="M467.032,200.034c0,2.345-1.037,4.239-2.255,4.239s-2.322-1.894-2.322-4.239,1.037-4.239,2.322-4.239S467.032,197.689,467.032,200.034Z" transform="translate(0 -61.947)" fill="none" stroke="#263238" stroke-linecap="round" stroke-linejoin="round" stroke-width="0.564"/>
        <path id="Path_2484" data-name="Path 2484" d="M482.308,214.194a1.545,1.545,0,0,1-.271.2,12.254,12.254,0,0,1-4.318,2.108c-4.566,1.06-7.688.428-9.729-1.635h0c-2.852-3.1-3.562-8.59-3.157-15.219a25.073,25.073,0,0,1,1.443-7.734s0-.1,0-.124a1.765,1.765,0,0,1,.113-.282A9.019,9.019,0,0,1,473.041,186a18.252,18.252,0,0,1,3.912-.44C489.883,185.458,492.206,206.855,482.308,214.194Z" transform="translate(0 -61.947)" fill="#ebb376"/>
        <path id="Path_2485" data-name="Path 2485" d="M482.037,214.43a11.95,11.95,0,0,1-4.318,1.928c-4.566,1.06-7.688.282-9.729-1.815a12.885,12.885,0,0,0,8.2-.676,6.764,6.764,0,0,1,5.851.564Z" transform="translate(0 -61.947)" opacity="0.2"/>
        <path id="Path_2486" data-name="Path 2486" d="M483.345,226.1c.8,3.675-3.968,5.174-3.968,5.174-7.79-3.382-9.233-7.474-9.233-7.474,6.5-3.382,4.622-12.976,4.622-12.976l1.319.654,9.278,1.815s-2.57,4.938-2.909,6.065h0C480.7,225.275,483.345,226.1,483.345,226.1Z" transform="translate(0 -61.947)" fill="#ebb376"/>
        <path id="Path_2487" data-name="Path 2487" d="M466.266,191.861s-.71,9.019,7.891,12.953c0,0,3.686,9.413,9.109,9.537,7.407.18,13.923-10.338,11.364-21.059C491.281,179.382,470.212,178.254,466.266,191.861Z" transform="translate(0 -61.947)" fill="#263238"/>
        <path id="Path_2488" data-name="Path 2488" d="M469.783,202.21c0-1.409,1.127-3.788,3.382-3.461s3.54,5.941-2.052,7.192C470.268,206.122,469.783,205.175,469.783,202.21Z" transform="translate(0 -61.947)" fill="#ebb376"/>
        <path id="Path_2489" data-name="Path 2489" d="M482.037,182.234s-8.635-2.187-13.415,1.3c-5.58,4.058-7.7,8.252-1.127,14.768,0,0,14.509-4.7,19.334-3.709a51.713,51.713,0,0,1,8.275,2.4C496.151,187.408,486.862,180.272,482.037,182.234Z" transform="translate(0 -61.947)" fill="#263238"/>
        <path id="Path_2490" data-name="Path 2490" d="M469.783,200.034s2.255,10.439-1.285,19.345c0,0,20.518,7.113,27.654,3.247s.6-16.842.293-24.328-3.551-18.545-14.407-16.065S469.783,200.034,469.783,200.034Z" transform="translate(0 -61.947)" fill="#263238"/>
        <line id="Line_62" data-name="Line 62" x2="8.669" transform="translate(462.399 137.411)" fill="none" stroke="#263238" stroke-linecap="round" stroke-linejoin="round" stroke-width="0.564"/>
        <path id="Path_2491" data-name="Path 2491" d="M475.048,347.918l-.823.1-4.374-16.031s9.379-16.019,6.448-24.362C476.716,308.213,486.817,323.2,475.048,347.918Z" transform="translate(0 -61.947)" opacity="0.2"/>
        <path id="Path_2492" data-name="Path 2492" d="M457.484,225.287s10.315-3.675,25.861.812,16.132,11.1,16.132,11.1-9.853,22.332-11.409,47.619l-40.516-1.511S442.716,247.619,457.484,225.287Z" transform="translate(0 -61.947)" fill="#263238"/>
        <path id="Path_2493" data-name="Path 2493" d="M499.477,237.2s-9.853,22.332-11.409,47.619l-40.516-1.511a108.725,108.725,0,0,1-.744-12.4,120.874,120.874,0,0,1,1.127-18.139c1.353-9.357,4.137-19.345,9.548-27.53,0,0,10.315-3.675,25.861.812S499.477,237.2,499.477,237.2Z" transform="translate(0 -61.947)" fill="#fff" opacity="0.2"/>
        <path id="Path_2494" data-name="Path 2494" d="M456.92,254.338s-1.68,10.281-10.146,16.617a120.87,120.87,0,0,1,1.127-18.139Z" transform="translate(0 -61.947)" opacity="0.2"/>
        <path id="Path_2495" data-name="Path 2495" d="M412.154,224.576,407.047,217s-.778-3.292-1.77-4.036-10.8-4.926-11.984-4.9-1.127,7.643,0,8.94,7.373,4.07,9.019,4.352.834,0,.834,0l4.509,9.019Z" transform="translate(0 -61.947)" fill="#ebb376"/>
        <path id="Path_2496" data-name="Path 2496" d="M457.484,225.287a222.01,222.01,0,0,0-31.565,16.3l-16.493-22.547s-4.442,1.375-6.088,9.109c0,0,8.466,32.253,19.469,35.455s34.136-9.323,34.136-9.323S463.639,237.53,457.484,225.287Z" transform="translate(0 -61.947)" fill="#263238"/>
        <path id="Path_2497" data-name="Path 2497" d="M457.484,225.287a222.01,222.01,0,0,0-31.565,16.3l-16.493-22.547s-4.442,1.375-6.088,9.109c0,0,8.466,32.253,19.469,35.455s34.136-9.323,34.136-9.323S463.639,237.53,457.484,225.287Z" transform="translate(0 -61.947)" fill="#fff" opacity="0.2"/>
        <path id="Path_2498" data-name="Path 2498" d="M467.912,223.866s3.6,25.748,14.994,26.785,16.5-18.037,14.576-20.292S480.865,223.7,467.912,223.866Z" transform="translate(0 -61.947)" fill="#263238"/>
        <path id="Path_2499" data-name="Path 2499" d="M467.912,223.866s3.6,25.748,14.994,26.785,16.5-18.037,14.576-20.292S480.865,223.7,467.912,223.866Z" transform="translate(0 -61.947)" fill="#fff" opacity="0.3"/>
      </g>
      <g id="Character_1" data-name="Character 1">
        <g id="_Group_" data-name="&lt;Group&gt;">
          <path id="Path_2500" data-name="Path 2500" d="M62.409,398.75h8.354l.688-19.334H63.1Z" fill="#b97964"/>
          <path id="Path_2501" data-name="Path 2501" d="M71.913,459.739H61.767a.71.71,0,0,0-.71.575l-1.646,7.429a1.229,1.229,0,0,0,.947,1.465h.271c3.281-.056,5.637-.259,9.785-.259,2.548,0,10.146.271,13.708.271s3.957-3.461,2.525-3.777c-6.437-1.409-11.273-3.382-13.336-5.2a2.029,2.029,0,0,0-1.4-.507Z" transform="translate(0 -61.947)" fill="#263238"/>
          <path id="Path_2502" data-name="Path 2502" d="M72.488,460.9a.2.2,0,0,1-.147-.169.18.18,0,0,1,.09-.192c.3-.192,3-1.849,3.923-1.375a.586.586,0,0,1,.338.552,1.127,1.127,0,0,1-.417,1.06,2.424,2.424,0,0,1-1.6.428,10.33,10.33,0,0,1-2.187-.3Zm.575-.282a4.058,4.058,0,0,0,2.976-.147.812.812,0,0,0,.259-.71c0-.158-.068-.237-.124-.237a.518.518,0,0,0-.259-.056,8.173,8.173,0,0,0-2.852,1.15Z" transform="translate(0 -61.947)" fill="#407bff"/>
          <path id="Path_2503" data-name="Path 2503" d="M72.431,460.934a.2.2,0,0,1-.09-.18c0-.113.214-2.514,1.127-3.3a1.015,1.015,0,0,1,.834-.248.665.665,0,0,1,.643.519c.169.879-1.5,2.717-2.367,3.19h-.09Zm1.342-3.235a4.69,4.69,0,0,0-.981,2.615c.857-.654,1.916-2.04,1.815-2.582,0,0,0-.2-.293-.2h-.09A.665.665,0,0,0,73.773,457.7Z" transform="translate(0 -61.947)" fill="#407bff"/>
          <path id="Path_2504" data-name="Path 2504" d="M63.1,379.427h8.354L71.09,389.4H62.736Z" opacity="0.2"/>
          <path id="Path_2505" data-name="Path 2505" d="M105.395,399.381l8.624.913,1.612-18.578-8.613-.913Z" fill="#b97964"/>
          <path id="Path_2506" data-name="Path 2506" d="M114.921,459.468H104.842a.733.733,0,0,0-.71.575l-1.646,7.44a1.217,1.217,0,0,0,.891,1.488h.271c3.281-.056,5.637-.259,9.8-.259,2.536,0,10.146.259,13.7.259s3.957-3.461,2.525-3.777c-6.437-1.4-11.273-3.382-13.336-5.2A2.086,2.086,0,0,0,114.921,459.468Z" transform="translate(0 -61.947)" fill="#263238"/>
          <path id="Path_2507" data-name="Path 2507" d="M115.5,460.629a.2.2,0,0,1-.147-.169.169.169,0,0,1,.1-.192c.293-.192,2.987-1.849,3.912-1.364a.564.564,0,0,1,.338.541,1.2,1.2,0,0,1-.406,1.071,2.536,2.536,0,0,1-1.612.417,10.328,10.328,0,0,1-2.187-.3Zm.575-.271a4.058,4.058,0,0,0,2.976-.158.8.8,0,0,0,.259-.71c0-.158-.068-.225-.124-.225a.405.405,0,0,0-.248-.056,7.892,7.892,0,0,0-2.818,1.15Z" transform="translate(0 -61.947)" fill="#407bff"/>
          <path id="Path_2508" data-name="Path 2508" d="M115.45,460.674a.214.214,0,0,1-.1-.18c0-.124.214-2.514,1.184-3.3a1.127,1.127,0,0,1,.834-.259.654.654,0,0,1,.643.519c.169.891-1.5,2.728-2.367,3.19h-.09Zm1.33-3.247a4.656,4.656,0,0,0-.981,2.6c.857-.643,1.916-2.04,1.815-2.582,0,0,0-.2-.293-.2h-.079a.733.733,0,0,0-.462.18Z" transform="translate(0 -61.947)" fill="#407bff"/>
          <path id="Path_2509" data-name="Path 2509" d="M107.018,380.8l8.613.913-.845,9.582-8.613-.913Z" opacity="0.2"/>
          <path id="Path_2510" data-name="Path 2510" d="M66.513,271.744h44.338c4.2,23.009,17.395,104.414,7.891,176.992l-15-1.86s1.387-96.286-11.848-131.9c-1.522,19.052-3.382,39.321-4.9,50.11-3.855,26.549-12.108,84.55-12.108,84.55H59.647s3.123-55.533,4.566-81.619C65.791,339.666,66.513,277.561,66.513,271.744Z" transform="translate(0 -61.947)" fill="#263238"/>
          <path id="Path_2511" data-name="Path 2511" d="M120.5,390.238l-18.567-2.762.575-5.141,19.311,2.536Z" fill="#407bff"/>
          <path id="Path_2512" data-name="Path 2512" d="M76.76,387.792H58.745v-5.377l18.691-.361Z" fill="#407bff"/>
          <path id="Path_2513" data-name="Path 2513" d="M91.934,314.944a119.764,119.764,0,0,1,4.949,19.165c1.24-16.91-3.72-34.947-3.72-34.947Z" transform="translate(0 -61.947)" opacity="0.2"/>
          <path id="Path_2514" data-name="Path 2514" d="M65.284,279.455l-1.015,5.355s31.013,4.013,50.3,3.9l-.676-3.675Z" transform="translate(0 -61.947)" fill="#d6b0ff"/>
          <path id="Path_2515" data-name="Path 2515" d="M128.223,233.088s10.721,33.82,18.037,36.075,25.929-25.692,25.929-25.692,16.718-.158,17.462-1.3-4.34-12.919-5.558-12.931-15.783,5.468-16.335,6.392-17.271,16.91-18.037,16.437S142.6,231.5,142.6,231.5Z" transform="translate(0 -61.947)" fill="#b97964"/>
          <path id="Path_2516" data-name="Path 2516" d="M174.4,241.644a4.035,4.035,0,0,0,.395-.1l-.192-.124a1.93,1.93,0,0,1-.2.225Z" transform="translate(0 -61.947)" fill="#b97964"/>
          <path id="Path_2517" data-name="Path 2517" d="M122.135,229.187l1.308,2.4,6.1,11.273,1.274,2.334,17.124-5.952s-7.125-26.583-9.594-29.311Z" transform="translate(0 -61.947)" fill="#d6b0ff"/>
          <path id="Path_2519" data-name="Path 2519" d="M123.443,231.588l6.1,11.273c3.777-7.407,2.683-17.553,2.683-17.553Z" transform="translate(0 -61.947)" opacity="0.2"/>
          <path id="Path_2520" data-name="Path 2520" d="M138.347,209.944a36.345,36.345,0,0,0-25.793-12.513c-16.775-.789-22.051.879-28.183,6.358-8.962,8-20.112,76.918-20.112,76.918a155.649,155.649,0,0,0,50.3,5.468s.2-19.165,6.257-32.028A357.449,357.449,0,0,0,138.347,209.944Z" transform="translate(0 -61.947)" fill="#692da9"/>
          <path id="Path_2522" data-name="Path 2522" d="M99.07,221.048s-8.883,21.5-10.71,39.367l24.024,3.066s10.777-29.051,13.009-38.138C125.393,225.32,106.206,223.4,99.07,221.048Z" transform="translate(0 -61.947)" fill="#d6b0ff"/>
          <path id="Path_2523" data-name="Path 2523" d="M120.7,164.208l3.337.338-2.446,1.894Z" fill="#fff" opacity="0.4"/>
          <path id="Path_2524" data-name="Path 2524" d="M107.627,199.764c1.815,5.186,8.568,7.553,12.108,7.891a6.02,6.02,0,0,0,6.426-3.472s-4.047-2.018-3.641-4.284a10.349,10.349,0,0,1,1.668-3.855,20.383,20.383,0,0,1,1.375-1.905l-6.482-13.9C117.637,186.258,113.207,197.825,107.627,199.764Z" transform="translate(0 -61.947)" fill="#b97964"/>
          <path id="Path_2525" data-name="Path 2525" d="M118.821,186.653c-3.089,6.764,1.274,11.42,3.7,13.2A10.349,10.349,0,0,1,124.187,196Z" transform="translate(0 -61.947)" opacity="0.2"/>
          <path id="Path_2526" data-name="Path 2526" d="M140.556,168.6s2.074,11.454-3.9,16.042-6.584-16.809-6.584-16.809Z" transform="translate(0 -61.947)" fill="#b97964"/>
          <path id="Path_2527" data-name="Path 2527" d="M140.556,168.6s2.074,11.454-3.9,16.042-6.584-16.809-6.584-16.809Z" transform="translate(0 -61.947)" opacity="0.4"/>
          <path id="Path_2528" data-name="Path 2528" d="M119.193,194.285a10.439,10.439,0,0,0,12.1,3.709,11.634,11.634,0,0,0,6.482-5.637c.192-.349.361-.733.53-1.127,2.8-7.113,3.382-24.474-4.149-23.832-6.223.53-12.31-1.387-15.49,3.991a11.273,11.273,0,0,0-1.556,5.028C116.431,184.714,115.642,189.528,119.193,194.285Z" transform="translate(0 -61.947)" fill="#b97964"/>
          <path id="Path_2529" data-name="Path 2529" d="M129.2,180.52c-.135.654.18,1.251.62,1.319s.868-.44.969-1.127-.192-1.251-.62-1.308S129.305,179.844,129.2,180.52Z" transform="translate(0 -61.947)" fill="#263238"/>
          <path id="Path_2530" data-name="Path 2530" d="M136.746,181.591c-.135.654.192,1.251.62,1.319s.868-.44.958-1.127-.18-1.251-.62-1.319S136.836,180.96,136.746,181.591Z" transform="translate(0 -61.947)" fill="#263238"/>
          <path id="Path_2531" data-name="Path 2531" d="M134.3,181.58a24.181,24.181,0,0,0,2.379,6.155,3.912,3.912,0,0,1-3.292.147Z" transform="translate(0 -61.947)" fill="#a24e3f"/>
          <path id="Path_2532" data-name="Path 2532" d="M127.22,177.747a.4.4,0,0,0,.395-.1,3.2,3.2,0,0,1,2.694-.947.406.406,0,0,0,.473-.3.383.383,0,0,0-.3-.462h0a3.957,3.957,0,0,0-3.382,1.127.406.406,0,0,0,0,.564h0A.676.676,0,0,0,127.22,177.747Z" transform="translate(0 -61.947)" fill="#263238"/>
          <path id="Path_2533" data-name="Path 2533" d="M140.353,179.449a.316.316,0,0,0,.225,0,.372.372,0,0,0,.259-.485h0a3.912,3.912,0,0,0-2.5-2.593.383.383,0,0,0-.485.271h0a.4.4,0,0,0,.271.485h0a3.2,3.2,0,0,1,1.962,2.086A.383.383,0,0,0,140.353,179.449Z" transform="translate(0 -61.947)" fill="#263238"/>
          <path id="Path_2534" data-name="Path 2534" d="M128.155,188.175s1.387,2.976,4.216,2.863" transform="translate(0 -61.947)" fill="none" stroke="#263238" stroke-linecap="round" stroke-linejoin="round" stroke-width="0.564"/>
          <path id="Path_2535" data-name="Path 2535" d="M124.559,167.1l.113,3.675a2.706,2.706,0,0,0-1.68,3.281c.879,3.157-1.3,7.734-3.81,9.4,0,0,0-1.33-1.127-1.127s-1.477,7.125.383,10.608c0,0-3.979-3.664-5.163-11.07-1.127-6.843-.913-11.183,0-14.464Z" transform="translate(0 -61.947)" fill="#b97964"/>
          <path id="Path_2536" data-name="Path 2536" d="M124.559,167.1l.113,3.675a2.706,2.706,0,0,0-1.68,3.281c.879,3.157-1.3,7.734-3.81,9.4,0,0,0-1.33-1.127-1.127s-1.477,7.125.383,10.608c0,0-3.979-3.664-5.163-11.07-1.127-6.843-.913-11.183,0-14.464Z" transform="translate(0 -61.947)" opacity="0.4"/>
          <path id="Path_2537" data-name="Path 2537" d="M112.643,171.513a38.2,38.2,0,0,0,12.029-.733c11.352-2.255,16.189,1.916,16.189,1.916a7.136,7.136,0,0,0,2.356-5.637c-.327-3.269-4.87-3.822-4.87-3.822s-1.364-3.686-4.374-4.8-6.031,1.68-6.031,1.68-3.754-3.63-8.128-2.593a6.561,6.561,0,0,0-5.242,6.381s-5.129.519-5.017,3.157S112.643,171.513,112.643,171.513Z" transform="translate(0 -61.947)" fill="#263238"/>
          <ellipse id="Ellipse_74" data-name="Ellipse 74" cx="3.686" cy="4.25" rx="3.686" ry="4.25" transform="translate(126.397 114.864)" fill="none" stroke="#263238" stroke-linecap="round" stroke-linejoin="round" stroke-width="0.564"/>
          <path id="Path_2538" data-name="Path 2538" d="M143.036,181.7a3.72,3.72,0,1,1-3.686-4.25A4,4,0,0,1,143.036,181.7Z" transform="translate(0 -61.947)" fill="none" stroke="#263238" stroke-linecap="round" stroke-linejoin="round" stroke-width="0.564"/>
          <path id="Path_2539" data-name="Path 2539" d="M133.758,181.58s1.195-.744,1.905.124" transform="translate(0 -61.947)" fill="none" stroke="#263238" stroke-linecap="round" stroke-linejoin="round" stroke-width="0.564"/>
          <path id="Path_2540" data-name="Path 2540" d="M126.4,181.073l-6.46-.868a3.224,3.224,0,0,0-2.379.643l-.282.225" transform="translate(0 -61.947)" fill="none" stroke="#263238" stroke-linecap="round" stroke-linejoin="round" stroke-width="0.564"/>
          <path id="Path_2541" data-name="Path 2541" d="M112.576,182.628a7.891,7.891,0,0,0,3.912,4.577c2.469,1.229,4.227-.846,3.979-3.45-.225-2.322-1.77-5.817-4.509-5.952a3.517,3.517,0,0,0-3.382,4.825Z" transform="translate(0 -61.947)" fill="#b97964"/>
          <path id="Path_2542" data-name="Path 2542" d="M71.383,243.268C82.025,238.848,90.435,220.6,90.435,220.6l-6.043-3.653-8.207,6.595-.744,2.739c-1.127,4.182-2.187,8.635-3.2,13.145C71.947,240.709,71.665,241.994,71.383,243.268Z" transform="translate(0 -61.947)" opacity="0.2"/>
          <rect id="Rectangle_1336" data-name="Rectangle 1336" width="53.864" height="33.223" transform="translate(29.24 221.215) rotate(9.01)" fill="#2e035f"/>
          <path id="Path_2544" data-name="Path 2544" d="M48.058,233.708l-10.811,5.6,8.545,8.669" fill="none" stroke="#fff" stroke-linecap="round" stroke-linejoin="round" stroke-width="2.255"/>
          <path id="Path_2545" data-name="Path 2545" d="M58.385,249.975l10.8-5.6L60.651,235.7" fill="none" stroke="#fff" stroke-linecap="round" stroke-linejoin="round" stroke-width="2.255"/>
          <line id="Line_63" data-name="Line 63" y1="13.472" x2="7.328" transform="translate(49.558 235.106)" fill="none" stroke="#fff" stroke-linecap="round" stroke-linejoin="round" stroke-width="2.255"/>
          <path id="Path_2546" data-name="Path 2546" d="M78.023,206.731s-20.055,20.123-22.783,24.035-7.959,47.28-7.959,47.28-1.127.383-1.195,1.319-.18,13.111,0,13.675,9.4,6.257,10.766,4.9S60.11,282.8,60.11,282.8l-4.87-4.757s5.637-31.937,9.21-37.112,18.139-16.245,18.139-16.245Z" transform="translate(0 -61.947)" fill="#b97964"/>
          <path id="Path_2547" data-name="Path 2547" d="M93.434,198.625c2.92,6.189.7,19.221-4.69,23.821a157.822,157.822,0,0,1-18.037,12.931l-9.83-12.885s10.462-10.214,16.8-16.1a28.623,28.623,0,0,1,15.76-7.767Z" transform="translate(0 -61.947)" fill="#d6b0ff"/>
        </g>
      </g>
    </g>
  </g>
</svg>
