<svg xmlns="http://www.w3.org/2000/svg" xmlns:xlink="http://www.w3.org/1999/xlink" width="150" height="150" viewBox="0 0 150 150">
  <defs>
    <clipPath id="clip-path">
      <rect id="Rectangle_1200" data-name="Rectangle 1200" width="150" height="150" transform="translate(232 3293)" fill="#fff" stroke="#707070" stroke-width="1"/>
    </clipPath>
    <clipPath id="clip-path-2">
      <rect id="Rectangle_1146" data-name="Rectangle 1146" width="150" height="136.957" fill="#fff" stroke="#707070" stroke-width="2.467"/>
    </clipPath>
    <linearGradient id="linear-gradient" x1="0.441" y1="0.5" x2="1.689" y2="0.5" gradientUnits="objectBoundingBox">
      <stop offset="0.001" stop-color="#fff0d5"/>
      <stop offset="0.511" stop-color="#ffdfff"/>
      <stop offset="1" stop-color="#d9ceff"/>
    </linearGradient>
  </defs>
  <g id="Mask_Group_77" data-name="Mask Group 77" transform="translate(-232 -3293)" clip-path="url(#clip-path)">
    <g id="Mask_Group_61" data-name="Mask Group 61" transform="translate(232 3299.521)" clip-path="url(#clip-path-2)">
      <g id="_023-design" data-name="023-design" transform="translate(-0.003 7.053)">
        <path id="Path_814" data-name="Path 814" d="M148.131,94.015a34.506,34.506,0,0,0-20.47-21.145,12.528,12.528,0,0,1-8.082-11.552v-.338a34.583,34.583,0,0,0-62.4-19.717A28.22,28.22,0,0,1,34.6,52.967q-.395,0-.791.008A35.217,35.217,0,0,0,0,87.078a34.586,34.586,0,0,0,67.07,12.351A7.078,7.078,0,0,1,75.65,95.1l.134.038a7.06,7.06,0,0,1,5.137,7.355,34.586,34.586,0,1,0,67.21-8.478Z" transform="translate(0.005 -22.807)" fill="url(#linear-gradient)"/>
        <path id="Path_815" data-name="Path 815" d="M131,101.131l-7.581-2.159a30.216,30.216,0,0,0-3.511-8.478l3.837-6.874a1.505,1.505,0,0,0-.252-1.793l-5.182-5.182a1.5,1.5,0,0,0-1.793-.251l-6.89,3.835a30.236,30.236,0,0,0-6.647-3V62.9a5.889,5.889,0,0,0-.547-2.472L96.547,47.771a2.934,2.934,0,0,0-5.316,0l-5.89,12.657a5.871,5.871,0,0,0-.546,2.472V77.228a30.206,30.206,0,0,0-6.647,3l-6.89-3.835a1.506,1.506,0,0,0-1.794.251L64.29,81.826a1.5,1.5,0,0,0-.25,1.793l3.834,6.89a30.213,30.213,0,0,0-3.51,8.478l-7.582,2.159a1.5,1.5,0,0,0-1.091,1.446V109.9a1.5,1.5,0,0,0,1.091,1.446l7.582,2.159a30.213,30.213,0,0,0,3.51,8.478l-3.834,6.89a1.5,1.5,0,0,0,.25,1.793l5.182,5.182a1.506,1.506,0,0,0,1.794.251l6.891-3.835a30.192,30.192,0,0,0,8.478,3.51l2.159,7.582a1.5,1.5,0,0,0,1.445,1.091h7.326a1.5,1.5,0,0,0,1.446-1.091l2.158-7.582a30.213,30.213,0,0,0,8.479-3.51l6.891,3.835a1.5,1.5,0,0,0,1.793-.251l5.182-5.182a1.5,1.5,0,0,0,.251-1.793l-3.835-6.89a30.215,30.215,0,0,0,3.511-8.478l7.581-2.159a1.5,1.5,0,0,0,1.092-1.446v-7.326a1.5,1.5,0,0,0-1.092-1.446ZM78.18,106.239A15.689,15.689,0,0,1,84.8,93.43v25.619A15.686,15.686,0,0,1,78.18,106.239Zm24.8,12.81V93.43a15.7,15.7,0,0,1,0,25.617Z" transform="translate(-18.887 -29.205)" fill="#590bb2" opacity="0.1"/>
        <g id="Group_1085" data-name="Group 1085" transform="translate(13.481 6.154)">
          <path id="Path_816" data-name="Path 816" d="M193.621,125.068h-5.053a1.8,1.8,0,0,1-1.8-1.8v-5.054a1.8,1.8,0,0,1,1.8-1.8h5.053a1.8,1.8,0,0,1,1.795,1.8v5.054A1.8,1.8,0,0,1,193.621,125.068Z" transform="translate(-76.831 -59.215)" fill="#ffa052"/>
          <path id="Path_817" data-name="Path 817" d="M33.989,125.067H28.935a1.805,1.805,0,0,1-1.794-1.8v-5.054a1.805,1.805,0,0,1,1.805-1.8H34a1.8,1.8,0,0,1,1.8,1.8v5.054a1.8,1.8,0,0,1-1.816,1.8Z" transform="translate(-22.684 -59.213)" fill="#ffa052"/>
          <path id="Path_818" data-name="Path 818" d="M113.8,38.7h-5.055a1.8,1.8,0,0,1-1.8-1.8V31.845a1.8,1.8,0,0,1,1.8-1.8H113.8a1.8,1.8,0,0,1,1.8,1.8V36.9A1.8,1.8,0,0,1,113.8,38.7Z" transform="translate(-49.752 -29.918)" fill="#ffa052"/>
          <path id="Path_819" data-name="Path 819" d="M113.8,38.7h-5.055a1.8,1.8,0,0,1-1.8-1.8V31.845a1.8,1.8,0,0,1,1.8-1.8H113.8a1.8,1.8,0,0,1,1.8,1.8V36.9A1.8,1.8,0,0,1,113.8,38.7Z" transform="translate(-49.752 -29.918)" fill="#ffa052"/>
          <circle id="Ellipse_18" data-name="Ellipse 18" cx="4.456" cy="4.456" r="4.456" transform="translate(114.135)" fill="#ffa052"/>
          <circle id="Ellipse_19" data-name="Ellipse 19" cx="4.456" cy="4.456" r="4.456" fill="#ffa052"/>
        </g>
        <path id="Path_820" data-name="Path 820" d="M131,121.71l-7.58-2.159a30.213,30.213,0,0,0-3.51-8.478l3.835-6.89a1.505,1.505,0,0,0-.252-1.793l-5.182-5.182a1.5,1.5,0,0,0-1.793-.251l-6.89,3.835a30.222,30.222,0,0,0-8.479-3.51L98.989,89.7a1.5,1.5,0,0,0-1.446-1.091H90.228A1.5,1.5,0,0,0,88.781,89.7l-2.158,7.581a30.2,30.2,0,0,0-8.479,3.51l-6.891-3.835a1.5,1.5,0,0,0-1.793.251L64.29,102.4a1.5,1.5,0,0,0-.25,1.793l3.834,6.89a30.212,30.212,0,0,0-3.51,8.478l-7.582,2.159a1.5,1.5,0,0,0-1.091,1.446v7.326a1.5,1.5,0,0,0,1.091,1.446l7.582,2.159a30.2,30.2,0,0,0,3.512,8.46l-3.835,6.89a1.5,1.5,0,0,0,.251,1.793l5.18,5.175a1.506,1.506,0,0,0,1.794.251l6.889-3.838a30.2,30.2,0,0,0,8.479,3.51l2.158,7.582a1.5,1.5,0,0,0,1.446,1.091h7.325a1.5,1.5,0,0,0,1.446-1.091l2.159-7.582a30.237,30.237,0,0,0,8.479-3.51l6.89,3.835a1.506,1.506,0,0,0,1.794-.251l5.181-5.182a1.505,1.505,0,0,0,.252-1.793l-3.856-6.88a30.216,30.216,0,0,0,3.511-8.478L131,131.92a1.5,1.5,0,0,0,1.091-1.446v-7.319A1.5,1.5,0,0,0,131,121.71ZM93.891,142.529A15.711,15.711,0,1,1,109.6,126.818,15.711,15.711,0,0,1,93.891,142.529Z" transform="translate(-18.887 -43.631)" fill="#d6b0ff"/>
        <path id="Path_821" data-name="Path 821" d="M117.925,72.21v56.155a15.71,15.71,0,0,1-18.181,0V72.21a5.842,5.842,0,0,1,.546-2.472l5.89-12.657a2.934,2.934,0,0,1,5.316,0l5.886,12.657a5.9,5.9,0,0,1,.545,2.472Z" transform="translate(-33.831 -32.363)" fill="#ffa052"/>
        <path id="Path_822" data-name="Path 822" d="M108.833,83.4V140.76a15.611,15.611,0,0,1-9.089-2.905V83.4Z" transform="translate(-33.831 -41.863)" fill="#ffe783"/>
        <path id="Path_823" data-name="Path 823" d="M106.175,57.083l-5.889,12.654a5.865,5.865,0,0,0-.547,2.473v3.737a7.437,7.437,0,0,0,7.511-.282,2.989,2.989,0,0,1,3.2.024,7.431,7.431,0,0,0,7.469.258V72.21a5.85,5.85,0,0,0-.546-2.474L111.49,57.083a2.935,2.935,0,0,0-5.317,0Z" transform="translate(-33.829 -32.364)" fill="#ffd5b8"/>
        <path id="Path_824" data-name="Path 824" d="M107.83,57.084l-3.212,6.926a9.274,9.274,0,0,0,11.757,0l-3.22-6.924a2.935,2.935,0,0,0-5.317,0Z" transform="translate(-35.484 -32.364)" fill="#b557ff"/>
        <path id="Path_825" data-name="Path 825" d="M138.228,39.48a5.92,5.92,0,1,0-5.729-7.386H86.957V31.032A3.272,3.272,0,0,0,83.7,27.763H78.642a3.272,3.272,0,0,0-3.261,3.269v1.061H29.823a5.92,5.92,0,1,0,0,2.935h33.73a54.235,54.235,0,0,0-36.572,49.8H25.9a3.272,3.272,0,0,0-3.269,3.261v5.054A3.272,3.272,0,0,0,25.9,96.408h5.054a3.272,3.272,0,0,0,3.269-3.261V88.093a3.272,3.272,0,0,0-3.269-3.261H29.917A51.274,51.274,0,0,1,75.368,35.35v.735a3.272,3.272,0,0,0,3.261,3.261h5.054a3.272,3.272,0,0,0,3.261-3.261V35.35a51.274,51.274,0,0,1,45.468,49.482H131.38a3.272,3.272,0,0,0-3.269,3.261v5.054a3.272,3.272,0,0,0,3.269,3.261h5.054a3.272,3.272,0,0,0,3.269-3.261V88.093a3.272,3.272,0,0,0-3.269-3.261h-1.083a54.237,54.237,0,0,0-36.58-49.808H132.5a5.926,5.926,0,0,0,5.728,4.456ZM31.291,88.1v5.054a.339.339,0,0,1-.339.339H25.9a.339.339,0,0,1-.339-.339V88.1a.339.339,0,0,1,.339-.339h5.054A.339.339,0,0,1,31.291,88.1Zm105.476,0v5.054a.339.339,0,0,1-.339.339H131.38a.339.339,0,0,1-.339-.339V88.1a.339.339,0,0,1,.339-.339h5.054a.339.339,0,0,1,.326.339Zm1.461-57.53a2.99,2.99,0,1,1-2.99,2.99A2.99,2.99,0,0,1,138.228,30.571ZM24.1,36.55a2.99,2.99,0,1,1,2.99-2.99A2.99,2.99,0,0,1,24.1,36.55Zm59.933-.465a.339.339,0,0,1-.339.339H78.637a.339.339,0,0,1-.339-.339V31.031a.339.339,0,0,1,.339-.339h5.054a.339.339,0,0,1,.339.339Z" transform="translate(-6.159 -22.95)" fill="#590bb2"/>
        <path id="Path_826" data-name="Path 826" d="M130.639,108.279l-6.766-1.93a31.622,31.622,0,0,0-3.029-7.311l3.424-6.158a2.983,2.983,0,0,0-.489-3.538L118.6,84.16a2.981,2.981,0,0,0-3.542-.489L108.9,87.095a31.74,31.74,0,0,0-5.2-2.369V71.457a7.386,7.386,0,0,0-.683-3.1L97.129,55.7a4.4,4.4,0,0,0-7.975,0L83.269,68.359a7.378,7.378,0,0,0-.683,3.1V84.719a31.708,31.708,0,0,0-5.2,2.371l-6.158-3.424a2.981,2.981,0,0,0-3.539.489l-5.181,5.182a2.982,2.982,0,0,0-.489,3.541l3.424,6.157a31.623,31.623,0,0,0-3.029,7.311l-6.779,1.934a2.979,2.979,0,0,0-2.156,2.853v7.326a2.979,2.979,0,0,0,2.156,2.855l6.774,1.929a31.642,31.642,0,0,0,3.029,7.311l-3.424,6.158a2.982,2.982,0,0,0,.489,3.538l5.182,5.182a2.978,2.978,0,0,0,3.541.489l6.156-3.424a31.646,31.646,0,0,0,7.313,3.039l1.925,6.77a2.979,2.979,0,0,0,2.855,2.155H96.8a2.979,2.979,0,0,0,2.863-2.156l1.924-6.769A31.636,31.636,0,0,0,108.9,142.5l6.158,3.424a2.98,2.98,0,0,0,3.54-.489l5.181-5.182a2.981,2.981,0,0,0,.489-3.54l-3.424-6.157a31.647,31.647,0,0,0,3.03-7.311l6.769-1.937a2.979,2.979,0,0,0,2.156-2.855v-7.327A2.98,2.98,0,0,0,130.639,108.279Zm-37.5-26.671a1.467,1.467,0,0,0-1.467,1.467v45.89a14.235,14.235,0,0,1-9.09-23.723v14.294a1.468,1.468,0,0,0,2.935,0V77.3a8.865,8.865,0,0,0,6.835-1.154,1.523,1.523,0,0,1,1.63.029,8.866,8.866,0,0,0,6.79,1.123v49.3a1.473,1.473,0,0,0,.021.207,14.145,14.145,0,0,1-6.186,2.16V83.074a1.468,1.468,0,0,0-1.468-1.467Zm10.557,23.62a14.233,14.233,0,0,1,0,19.122ZM91.811,56.945a1.467,1.467,0,0,1,2.661,0l2.7,5.814a7.823,7.823,0,0,1-4.035,1.132,7.714,7.714,0,0,1-4.033-1.128ZM85.925,69.6l1.939-4.169a10.725,10.725,0,0,0,10.555,0l1.938,4.169a4.428,4.428,0,0,1,.411,1.855v2.791a5.969,5.969,0,0,1-5.226-.551,4.466,4.466,0,0,0-4.771-.02,5.928,5.928,0,0,1-3.2.934,6.01,6.01,0,0,1-2.053-.365v-2.79A4.443,4.443,0,0,1,85.925,69.6Zm43.948,48.858a.037.037,0,0,1-.027.036l-7.582,2.159a1.468,1.468,0,0,0-1.023,1.06,28.716,28.716,0,0,1-3.338,8.059,1.467,1.467,0,0,0-.028,1.467l3.835,6.887a.041.041,0,0,1,0,.046l-5.181,5.182a.04.04,0,0,1-.044,0l-6.893-3.823a1.468,1.468,0,0,0-1.468.028,28.7,28.7,0,0,1-8.059,3.339A1.468,1.468,0,0,0,99,143.92L96.846,151.5a.037.037,0,0,1-.036.028H89.476a.037.037,0,0,1-.038-.028l-2.159-7.582a1.467,1.467,0,0,0-1.06-1.022,28.722,28.722,0,0,1-8.059-3.339,1.468,1.468,0,0,0-1.468-.028L69.8,143.366a.039.039,0,0,1-.046,0l-5.181-5.186a.042.042,0,0,1,0-.044l3.835-6.89a1.468,1.468,0,0,0-.028-1.467,28.7,28.7,0,0,1-3.339-8.059,1.468,1.468,0,0,0-1.022-1.06L56.438,118.5a.036.036,0,0,1-.027-.036v-7.332a.038.038,0,0,1,.027-.038l7.582-2.159a1.468,1.468,0,0,0,1.022-1.06,28.7,28.7,0,0,1,3.339-8.059,1.468,1.468,0,0,0,.028-1.467l-3.835-6.887a.041.041,0,0,1,0-.046l5.181-5.182a.041.041,0,0,1,.044,0l6.89,3.835a1.467,1.467,0,0,0,1.467-.028,28.766,28.766,0,0,1,4.424-2.186v13.41a17.169,17.169,0,1,0,21.11-.01V87.846a28.762,28.762,0,0,1,4.422,2.186,1.467,1.467,0,0,0,1.467.028l6.887-3.835a.04.04,0,0,1,.046,0l5.192,5.178a.042.042,0,0,1,0,.044l-3.835,6.89a1.468,1.468,0,0,0,.027,1.467,28.672,28.672,0,0,1,3.346,8.066,1.467,1.467,0,0,0,1.022,1.06l7.581,2.159a.036.036,0,0,1,.028.036Z" transform="translate(-18.136 -31.609)" fill="#590bb2"/>
        <path id="Path_827" data-name="Path 827" d="M138.981,29.455a4.456,4.456,0,1,0-4.2-5.92H86.247V22.474a1.805,1.805,0,0,0-1.805-1.81H79.387a1.805,1.805,0,0,0-1.8,1.81v1.061H29.052a4.456,4.456,0,1,0,0,2.935H66.59A54.293,54.293,0,0,0,27.72,77.729H26.644a1.805,1.805,0,0,0-1.793,1.813V84.6a1.8,1.8,0,0,0,1.793,1.8H31.7a1.8,1.8,0,0,0,1.81-1.8V79.539a1.8,1.8,0,0,0-1.81-1.81H30.647A51.341,51.341,0,0,1,77.585,27.37v.163a1.805,1.805,0,0,0,1.805,1.8h5.054a1.8,1.8,0,0,0,1.8-1.8V27.37A51.341,51.341,0,0,1,133.18,77.729h-1.047a1.8,1.8,0,0,0-1.8,1.8v5.054a1.8,1.8,0,0,0,1.8,1.81h5.054a1.8,1.8,0,0,0,1.793-1.8V79.539a1.8,1.8,0,0,0-1.793-1.81h-1.076a54.294,54.294,0,0,0-38.87-51.266H134.78A4.452,4.452,0,0,0,138.981,29.455Z" transform="translate(-6.913 -20.542)" fill="#590bb2" opacity="0.1"/>
        <path id="Path_828" data-name="Path 828" d="M23.438,65.775a1.467,1.467,0,0,1-1.468-1.467,1.758,1.758,0,0,0-1.751-1.754,1.467,1.467,0,0,1,0-2.935,1.757,1.757,0,0,0,1.756-1.756,1.467,1.467,0,1,1,2.935,0,1.758,1.758,0,0,0,1.756,1.756,1.467,1.467,0,1,1,0,2.935,1.758,1.758,0,0,0-1.756,1.756,1.467,1.467,0,0,1-1.467,1.467Z" transform="translate(-6.357 -32.704)" fill="#ffe783"/>
        <path id="Path_829" data-name="Path 829" d="M150.783,78.138a1.467,1.467,0,0,1-1.467-1.467,1.759,1.759,0,0,0-1.756-1.756,1.467,1.467,0,1,1,0-2.935,1.759,1.759,0,0,0,1.756-1.756,1.467,1.467,0,1,1,2.934,0,1.757,1.757,0,0,0,1.756,1.756,1.467,1.467,0,0,1,0,2.935,1.757,1.757,0,0,0-1.756,1.756A1.467,1.467,0,0,1,150.783,78.138Z" transform="translate(-49.552 -36.897)" fill="#c182f9"/>
        <path id="Path_830" data-name="Path 830" d="M42.714,189.375a1.466,1.466,0,0,1-1.035-.429l-3.22-3.22a1.467,1.467,0,0,1,0-2.071l3.22-3.22a1.467,1.467,0,0,1,2.071,0l3.227,3.22a1.468,1.468,0,0,1,0,2.071l-3.221,3.22A1.467,1.467,0,0,1,42.714,189.375Zm-1.141-4.686,1.141,1.141,1.142-1.141-1.142-1.141Z" transform="translate(-12.897 -74.634)" fill="#ffa052"/>
        <path id="Path_831" data-name="Path 831" d="M189.383,154.126a1.463,1.463,0,0,1-1.033-.429l-3.221-3.22a1.467,1.467,0,0,1,0-2.071l3.221-3.22a1.467,1.467,0,0,1,2.07,0l3.219,3.22a1.463,1.463,0,0,1,0,2.071l-3.219,3.22A1.465,1.465,0,0,1,189.383,154.126Zm-1.139-4.686,1.139,1.141,1.143-1.141-1.143-1.141Z" transform="translate(-62.648 -62.678)" fill="#ffa052"/>
      </g>
    </g>
  </g>
</svg>
